<svg xmlns="http://www.w3.org/2000/svg" fill="none" viewBox="0 0 1000 1000" height="1000" width="1000">
<path fill="#CBCADB" d="M649.032 280C657.972 283.382 683.78 294.326 688.783 301.725C690.354 304.058 696.404 327.375 696.765 331.137C699.131 355.901 682.967 382.221 656.401 381.823C651.723 381.751 646.919 379.363 641.682 380.43C631.081 382.601 622.303 407.003 616.958 415.722C613.616 421.185 608.307 426.702 604.948 432.255C590.193 456.73 582.643 484.822 569.839 510.327C565.071 522.863 574.372 533.789 576.955 545.565C582.86 572.427 571.229 594.46 547.083 606.67C515.081 622.877 478.094 595.708 474.879 563.021C474.427 558.39 476.342 555.098 474.012 550.141C473.506 549.074 467.059 542.182 466.391 541.784C460.196 537.986 439.499 532.685 431.011 529.212C411.939 521.398 388.804 509.043 369.173 504.503C366.085 503.779 355.484 502.151 352.973 502.857C349.74 503.761 339.157 513.475 334.624 516.062C324.926 521.615 307.444 522.827 296.409 521.199C292.418 520.602 289.745 516.966 284.869 518.395C280.823 519.571 271.649 535.345 266.447 537.678C246.78 569.877 215.446 593.664 195.002 624.849C188.825 634.255 185.05 644.91 179.56 654.19C174.07 663.469 163.884 673.78 157.31 683.313C152.488 690.313 145.517 706.557 140.261 711.821C139.99 712.093 134.139 715.258 133.525 715.439C127.168 717.356 118.788 713.883 116.964 707.208V698.345C119.528 694.998 120.504 690.512 122.851 687.003C132.748 672.206 146.619 658.639 158.267 644.693C191.859 604.427 220.322 566.385 248.766 522.375C252.216 517.02 261.409 503.562 261.535 498.027C261.697 491.225 256.605 481.313 255.738 474.348C253.57 457.001 260.379 440.468 271.396 427.154C277.446 419.846 292.382 410.729 301.646 409.119C305.042 408.522 322.921 411.398 326.136 412.683C327.671 413.298 348.187 426.34 349.144 427.317C362.003 440.54 358.933 455.301 363.882 469.41C366.049 475.56 372.424 476.772 377.932 479.956C398.358 491.75 416.545 495.748 437.856 504.629C446.597 508.265 474.445 523.098 482.229 522.121C482.717 522.067 491.097 518.884 491.584 518.612C499.856 513.927 500.94 508.374 514.015 505.624C525.881 503.128 538.161 509.025 547.228 499.492C550.587 495.965 552.339 490.683 555.174 486.775C576.828 457.001 590.138 433.521 603.015 398.827C606.483 389.475 610.98 383.976 610.637 372.977C610.348 363.426 598.049 359.555 594.382 348.901C584.269 319.524 605.562 289.406 633.826 282.008L648.021 279.964H648.996L649.032 280Z"></path>
<path fill="#141413" d="M98.0034 454.408C99.1357 454.063 98.9146 453.143 98.9942 452.267C99.2507 449.295 98.5961 444.969 99.1888 442.333C99.5957 440.519 101.046 438.635 101.232 436.406C101.365 434.849 100.206 432.699 100.109 430.948C99.0915 412.663 101.675 392.989 102.232 375.411C102.365 371.289 101.834 367.45 101.905 363.018C102.09 350.855 103.276 338.638 103.966 326.457C105.063 307.305 105.204 288.445 107.61 269.408C108.707 260.765 106.319 251.22 105.806 242.471C104.912 227.221 105.823 212.023 105.195 197.144C104.93 190.819 104.426 184.273 104.337 177.886C104.205 167.828 105.461 158.698 104.567 148.516C104.222 144.536 102.4 137.928 104.373 134.557C105.425 132.761 111.547 131.373 113.458 131.992C114.271 132.248 114.714 133.045 115.404 133.451C115.979 133.788 117.005 133.513 117.35 134C117.668 134.451 120.101 142.572 120.437 143.846C120.605 144.491 120.26 145.137 120.42 145.783C120.8 147.305 122.87 148.693 120.676 150.365C122.675 150.923 121.065 153.081 121.171 154.647C121.278 156.213 122.251 158.504 122.171 160.503C121.897 167.12 122.605 172.268 122.622 178.841C122.64 184.051 123.1 188.386 123.047 193.765C122.87 210.829 124.639 226.876 122.198 244.011C121.596 248.221 122.056 253.034 122.18 257.483C122.357 264.056 122.348 270.629 122.136 277.21C121.976 282.315 120.658 288.578 121.18 293.567C121.393 295.548 122.888 298.238 122.87 299.37C122.728 309.897 123.834 320.282 122.728 330.845C122.436 333.64 123.029 339.761 123.056 343.238C123.118 352.332 123.693 358.551 124.834 367.441C125.135 369.803 124.002 370.838 123.985 371.21C123.905 372.669 124.816 374.589 124.958 376.101C125.382 380.772 124.33 385.054 124.082 389.636C123.896 393.104 124.232 396.669 123.976 400.136C123.808 402.392 122.658 404.153 122.551 405.931C122.321 409.673 123.206 416.192 123.126 420.421C122.958 429.293 124.179 438.033 123.038 446.446C122.905 447.401 121.711 449.003 121.711 449.808C121.693 455.575 121.428 459.706 121.039 465.2C120.818 468.305 121.543 470.72 121.631 473.48C122.074 487.227 121.773 500.638 121.897 514.234C121.932 517.994 122.286 520.966 122.622 524.593C122.932 527.901 122.543 533.528 122.587 537.155C122.666 543.409 122.251 549.999 122.605 555.926C122.755 558.385 122.914 560.393 123.02 562.658C123.082 563.896 122.613 566.497 122.605 568.452C122.534 585.437 123.1 602.793 123.392 619.654C123.471 624.024 122.401 628.323 122.233 632.534C122.056 637.028 123.737 642.132 123.56 645.157C123.073 653.561 123.011 661.602 123.595 669.661C123.71 671.271 123.516 673.483 123.648 674.465C123.843 675.915 124.604 677.976 124.772 679.887C125.258 685.531 124.179 691.449 124.79 696.766C124.878 697.544 125.913 699.552 125.922 700.118C125.94 701.578 123.914 704.285 125.488 704.984C127.567 704.409 130.442 703.551 132.539 703.303C145.702 701.773 159.581 702.604 172.523 703.736C175.443 703.993 178.344 702.215 182.254 702.666C186.491 703.153 185.111 702.303 187.465 701.835C191.481 701.03 198.053 702.233 202.043 702.666C205.449 703.038 209.129 701.569 212.517 701.321C217.55 700.968 219.143 701.843 224.105 700.614C226.29 700.074 238.931 702.887 242.558 703.153C250.104 703.71 257.676 701.967 264.674 702.489C266.593 702.631 269.097 703.71 270.901 703.666C272.432 703.63 273.803 702.25 275.236 702.268C276.669 702.286 277.094 703.374 277.846 703.551C278.191 703.63 283.162 702.64 284.896 702.763C287.373 702.94 289.151 703.86 292.115 703.781C295.812 703.683 303.11 701.781 306.065 702.109C309.524 702.489 315.911 704.267 319.122 704.152C320.175 704.117 321.086 703.294 322.006 703.312C322.926 703.33 323.651 704.232 324.872 704.25C326.606 704.276 329.038 703.179 330.675 703.002C335.788 702.463 339.769 702.887 344.634 703.294C349.155 703.666 355.648 702.073 359.805 702.489C364.202 702.923 366.838 702.861 371.181 703.064C375.18 703.25 380.939 704.665 384.707 704.497C388.476 704.329 392.156 705.055 396.296 705.134C410.6 705.4 424.86 705.895 439.2 705.665C452.637 705.444 466.561 704.223 479.741 703.807C483.457 703.692 488.924 705.391 493.205 705.647C496.496 705.842 501.618 706.213 504.794 706.187C509.571 706.16 515.551 704.665 520.221 704.798C521.274 704.825 522.203 705.647 523.158 705.683C524.114 705.718 525.007 704.816 526.467 704.674C529.076 704.418 533.544 706.205 536.711 706.036C551.378 705.276 567.106 705.506 582.091 704.338C596.369 703.223 611.045 706.921 625.606 706.435C629.188 706.311 633.169 705.17 637.389 705.161C644.811 705.143 652.861 705.081 660.274 705.373C667.032 705.638 673.614 707.806 680.319 707.894C689.121 708.009 698.657 706.488 707.495 705.948C717.517 705.346 727.328 705.187 737.253 704.471C738.934 704.347 741.269 703.4 743.038 703.506C745.038 703.63 748.045 704.453 750.425 704.444C759.13 704.4 768.515 702.755 777.335 702.374C788.198 701.905 798.769 702.551 809.553 702.808C812.587 702.878 823.238 702.215 825.033 703.241C825.467 704.267 828.085 706.143 828.377 706.647C828.784 707.355 828.448 708.204 828.651 708.699C828.855 709.195 829.554 708.903 829.633 709.752C829.899 712.432 828.908 715.06 827.121 716.953C823.432 720.88 815.78 720.226 810.57 720.155C809.34 720.137 808.243 719.527 806.695 719.642C804.873 719.774 801.149 721.075 799.45 721.075C798.504 721.075 795.593 719.624 794.187 719.677C790.135 719.828 782.59 722.552 779.148 722.508C765.401 722.322 751.787 724.277 738.359 722.269C733.83 721.597 731.423 720.606 726.638 720.659C718.322 720.756 708.848 721.181 700.471 721.951C687.007 723.18 679.381 723.366 665.873 720.889C656.912 719.244 649.906 718.713 640.715 718.386L628.498 718.209C629.772 719.297 630.453 720.916 631.152 722.552C636.973 736.246 628.065 752.213 622.571 764.598C614.38 783.06 604.808 801.885 592.318 817.657C591.283 818.966 588.452 820.895 587.665 822.036C587.098 822.85 586.966 824.566 586.373 825.574C584.913 828.043 581.242 830.918 579.314 833.218C570.583 843.638 562.232 854.174 553.766 864.922C552.882 866.046 548.865 869.699 548.565 870.221C548.264 870.743 548.591 871.769 548.22 872.539C548.034 872.919 542.965 877.855 542.434 878.306C542.036 878.643 541.47 879.085 541.205 879.51C537.825 884.915 533.022 892.54 529.006 896.998C528.908 897.105 527.157 897.591 526.909 898.228C526.582 899.077 526.909 899.909 526.308 900.776C525.768 901.554 523.866 901.996 523.353 902.766C522.442 904.146 521.336 908.33 520.319 909.985C519.054 912.019 516.957 913.974 515.754 916.248C515.02 917.636 511.26 927.173 511.119 928.42C510.889 930.34 512.269 934.648 512.225 936.939C512.216 937.496 511.579 937.965 511.57 938.363C511.473 947.846 511.526 948.218 507.598 956.816C506.2 959.886 506.386 963.15 503.122 964.636H502.158C501.583 963.725 499.937 964.017 499.38 963.566C498.725 963.035 498.929 960.965 498.752 960.814C498.61 960.682 497.168 960.876 496.381 960.54C493.373 959.266 493.603 950.535 494.081 947.651C494.346 946.059 495.222 944.706 495.417 943.202C496.231 936.983 495.063 929.844 495.859 923.873C496.071 922.307 497.398 920.476 497.77 918.548C498.416 915.204 498.018 910.931 498.54 907.738C499.424 902.297 502.892 896.503 505.156 891.204C506.165 888.833 506.979 884.826 508.208 882.685C509.173 881.005 510.676 881.739 510.774 881.624C510.96 881.411 511.729 878.97 512.304 878.094C514.463 874.777 517.921 871.229 520.487 867.93C523.362 864.223 526.776 858.641 530.625 855.386C536.543 850.379 543.204 843.205 548.918 837.685C551.325 835.358 553.766 833.288 555.827 831.192C558.189 828.777 561.108 826.627 563.523 824.283C589.832 798.744 609.798 773.134 620.652 737.113C621.837 733.185 622.784 725.507 618.564 723.092C615.07 721.093 609.824 720.111 606.153 722.128C602.694 724.021 600.854 729.488 598.634 732.318C590.761 742.368 587.213 751.948 580.296 762.342C577.049 767.225 572.909 771.861 569.76 776.876C567 781.264 564.709 786.068 562.046 790.358C557.243 798.089 548.485 809.97 542.531 816.445C541.859 817.18 540.355 817.339 539.577 818.064C537.356 820.116 533.429 826.963 531.067 828.343C529.165 829.449 526.511 829.865 524.583 831.528C521.885 833.863 519.293 838.844 516.258 841.161C515.347 841.86 509.04 845.355 508.297 845.381C498.301 845.788 502.025 836.234 505.395 831.174C508.04 827.202 513.799 824.15 516.373 820.904C517.4 819.603 518.151 816.64 519.142 814.995C523.645 807.511 531.438 798.886 537.065 791.915C547.211 779.345 559.286 767.181 566.982 752.877C570.76 745.862 577.35 733.097 576.386 725.25C575.563 718.633 571.184 719.739 566.062 718.89C563.683 719.863 561.259 719.2 558.578 719.872C549.909 722.075 536.905 735.954 532.836 743.801C532.482 744.491 532.624 745.437 532.27 746.136C529.448 751.718 526.962 757.061 523.901 762.236C523.512 762.891 522.123 763.094 521.601 763.678C520.434 764.97 518.691 768.862 517.408 770.551C514.675 774.152 511.765 777.743 509.066 781.255C504.219 787.554 499.336 793.613 493.957 799.071C492.489 800.566 492.931 802.238 492.391 802.937C492.055 803.388 490.861 803.645 490.268 804.211C482.369 811.792 477.548 821.081 469.648 828.945C467.675 830.909 465.021 832.864 462.854 834.89C460.457 837.128 458.75 839.472 455.246 840.808C453.884 841.33 450.089 840.657 448.762 840.073C448.568 839.985 445.604 837.526 445.463 837.358C443.853 835.465 444.224 832.244 444.914 829.998C445.135 829.272 447.878 824.026 448.302 823.505C448.975 822.673 450.257 822.859 450.761 822.372C452.203 821.001 454.548 816.543 456.52 814.366C460.466 810.023 465.844 804.928 470.126 800.735C477.176 793.826 482.174 789.633 488.738 781.698C500.247 767.783 524.768 741.191 522.424 722.287C521.991 718.784 516.816 721.561 514.445 721.588C508.819 721.65 509.969 719.421 504.794 724.012C503.626 725.047 502.759 726.453 501.901 727.356C499.628 729.744 492.144 736.458 491.259 738.803C489.384 743.774 478.353 760.166 474.213 764.784C468.666 770.967 462.376 776.39 457.387 783.157C456.016 785.015 454.565 788.704 452.991 790.208C451.911 791.234 450.797 791.11 449.594 793.206C446.126 799.257 440.429 804.901 435.113 809.581C431.778 812.509 427.974 815.003 424.736 817.542C421.215 820.311 418.093 824.071 414.147 826.725C413.696 827.034 409.096 829.104 408.804 829.14C408.079 829.21 404.965 827.963 404.151 827.538C404.001 827.459 401.462 825.672 401.338 825.557C397.773 822.275 401.409 815.596 404.08 812.748C406.893 809.74 409.821 806.14 413.21 803.114C422.011 795.232 429.389 788.766 436.891 779.274C444.711 769.375 454.707 760.272 463.314 750.488C464.685 748.931 472.187 739.581 472.629 738.113C473.85 734.026 474.089 726.365 473.39 722.154C472.992 719.748 472.435 719.27 470.037 718.748C469.206 718.563 463.137 718.173 462.5 718.288C461.899 718.395 453.849 723.552 453.035 724.295C449.355 727.648 442.756 736.087 439.456 740.262C438.669 741.253 438.722 741.625 437.501 742.518C435.077 744.296 435.431 745.101 433.671 747.268C430.521 751.134 425.771 754.106 422.586 757.512C421.781 758.37 421.64 759.812 421.012 760.52C418.446 763.377 408.167 769.729 404.62 772.232C402.824 773.506 398.251 776.204 397.065 777.319C394.995 779.274 392.687 785.829 389.829 788.403C386.972 790.977 385.583 792.083 382.894 794.746C380.956 796.665 377.046 799.346 374.614 801.177C367.192 806.768 359 811.766 350.986 817.091C343.794 821.868 331.126 827.936 322.368 828.865C319.608 829.157 314.469 829.051 311.886 828.264C311.143 828.034 307.144 826.211 306.189 825.707C294.928 819.807 285.905 808.661 288.55 795.161C288.762 794.082 289.832 793.171 290.213 791.995C291.858 786.881 293.459 782.405 297.44 778.495C301.819 774.205 307.905 768.278 313.266 765.155C315.858 763.643 318.414 762.608 320.865 760.953C327.287 756.636 333.718 755.301 340.583 751.718C348.748 747.454 365.449 739.148 360.097 727.418C359.372 725.834 358.531 725.701 357.364 724.967C357.054 724.773 357.019 724.198 356.886 724.136C354.878 723.269 349.924 723.198 347.721 723.64C347.093 723.764 346.598 724.56 345.97 724.702C337.637 726.604 329.136 727.78 321.201 731.354C315.813 733.778 311.496 737.263 306.233 740.015C300.51 743.013 295.83 747.543 291.124 751.913C285.639 756.999 280.367 761.051 275.537 766.827C270.893 772.374 267.505 778.08 263.656 784.245C260.923 788.633 257.376 795.091 255.235 799.938C250.051 811.651 254.111 833.527 253.828 846.743C253.519 861.242 250.246 875.706 249.396 890.054C248.936 897.865 249.963 904.739 249.98 912.311C249.98 914.938 248.768 918.371 248.574 921.069C248.061 928.19 249.423 936.894 247.742 943.954C246.061 951.013 238.923 952.667 236.676 945.36C234.429 938.053 235.287 929.535 235.03 921.971C234.544 907.499 233.049 892.08 234.57 877.661C235.579 868.089 237.525 858.854 238.489 849.265C239.126 842.86 239.506 836.27 240.25 829.803C242.364 811.332 248.618 776.638 258.225 761.458C263.382 753.301 274.121 741.536 281.632 735.441C284.648 733 288.461 729.895 291.716 727.462C292.495 726.887 299.475 722.88 299.13 722.561C297.643 721.915 296.246 722.835 295.007 722.826C292.893 722.826 289.77 721.915 287.311 722.03C285.56 722.11 283.109 723.012 281.508 722.959C272.388 722.658 262.683 722.703 253.457 722.871C249.573 722.941 246.875 722.941 242.939 722.65C242.258 722.596 241.479 723.216 240.63 722.977C239.975 722.791 239.524 721.747 239.082 721.712C238.719 721.685 237.896 722.49 237.1 722.552C232.067 722.933 226.193 721.88 221.248 721.818C219.24 721.791 217.303 723.065 215.312 723.384C212.862 723.773 209.43 722.977 207.36 723.145C205.918 723.26 205.263 724.799 204.847 723.039C203.299 724.79 202.043 723.189 200.46 723.083C191.206 722.428 180.211 724.746 170.604 724.525C160.997 724.304 151.691 722.888 142.004 722.234C137.245 721.906 132.477 723.295 128.646 723.083C127.09 722.995 124.436 721.942 123.365 722.048C122.861 722.101 123.268 723.304 122.64 723.773C122.171 724.127 121.048 724.03 120.349 724.392C116.094 726.613 115.899 727.294 110.875 728.028C110.034 728.152 109.229 728.789 108.46 728.718C107.035 728.585 106.894 727.17 106.62 727.011C106.398 726.878 105.682 727.639 105.001 726.931C104.32 726.223 104.753 725.215 104.647 725.073C104.258 724.569 102.188 723.322 101.745 722.437C101.038 721.031 99.6488 715.688 99.4984 714.104C99.1623 710.415 100.392 709.168 100.781 706.496C101.02 704.869 99.4896 701.64 99.693 699.641C99.7903 698.712 100.622 698.048 100.799 697.137C101.383 694.236 99.7373 688.548 99.5338 685.62C99.3834 683.461 100.542 681.126 100.64 679.25C100.799 676.402 101.011 671.528 100.958 668.794C100.931 667.237 99.8876 666.512 99.8876 665.433C99.8876 663.283 101.498 658.205 101.303 655.295C101.02 651.137 101.135 652.429 101.719 648.421C101.966 646.679 101.825 643.724 101.905 641.796C102.311 631.773 103.143 621.927 103.302 611.94C103.568 595.061 104.381 578.201 104.054 561.561C103.913 554.564 104.205 547.496 104.275 540.543C104.311 537.155 102.559 532.271 102.497 528.866C102.4 524.045 102.816 518.383 102.577 513.712C102.506 512.368 101.56 511.058 101.391 510.147C101.347 509.9 102.444 509.997 102.356 509.696C101.321 505.998 101.489 502.876 101.338 499.125C100.949 489.438 101.117 479.902 99.8788 470.198C99.525 467.438 98.6757 464.413 98.0034 461.706L98.0034 454.408ZM430.46 725.613C432.777 723.561 435.714 721.473 438.244 719.642C438.66 719.067 437.731 718.713 437.262 718.651C433.768 718.218 427.779 719.553 423.772 719.465C408.38 719.12 391.315 717.793 376.038 719.085C372.783 719.359 370.138 717.138 371.668 721.906C373.128 726.427 373.296 731.62 371.58 736.511C366.325 751.515 350.455 754.584 338.902 763.528C330.118 770.321 324.323 778.725 316.282 786.023C314.504 787.633 313.275 789.659 310.806 790.65L305.534 800C305.446 807.236 311.302 812.305 317.901 813.429C320.086 813.8 320.785 812.986 322.616 812.385C327.871 810.66 336.23 807.024 340.928 803.707C341.865 803.043 342.785 801.513 343.67 800.823C345.519 799.372 345.784 799.673 347.421 797.886C347.721 797.559 350.358 797.293 351.366 796.727C352.18 796.276 352.649 795.383 353.356 794.861C359.611 790.261 366.608 785.678 372.181 780.415C374.472 778.256 376.772 775.169 379.665 773.426C381.788 772.144 386.556 770.994 389.077 769.331C390.501 768.393 396.676 760.175 398.49 758.123C402.851 753.204 407.513 748.348 411.962 743.641C416.916 738.405 418.845 735.919 424.771 731.735C425.435 731.266 429.009 726.904 430.468 725.613H430.46Z"></path>
<path fill="#141413" d="M879.075 152.232C889.911 157.168 900.075 165.289 908.355 173.091C911.186 175.763 915.804 178.186 918.794 181.194C920.988 183.397 921.527 185.538 923.128 187.97C923.986 189.271 926.039 191.411 927.136 192.853C931.373 198.382 936.734 203.54 940.361 209.794C945.138 218.003 948.986 227.088 952.683 235.571C953.559 237.58 954.904 238.906 955.638 240.331C957.858 244.639 959.123 249.451 960.707 253.688C961.556 255.971 962.273 258.828 963.06 260.88C963.927 263.163 966.289 266.418 966.032 268.93C965.917 270.063 964.758 272.575 964.334 273.902C964.113 274.592 964.36 276.494 963.06 277.352C962.777 277.538 962.069 277.06 961.68 277.21C958.69 278.387 954.913 280.784 951.445 279.74C950.684 279.51 950.321 278.581 949.623 278.166C949.039 277.821 948.269 278.121 947.685 277.591C947.429 277.352 944.483 272.115 944.244 271.496C943.475 269.505 943.952 266.471 943.563 264.507C942.174 257.395 937.919 245.515 934.823 238.977C934.416 238.11 932.249 234.377 931.329 235.483C932.107 233.201 930.426 233.103 930.161 232.564C928.516 229.282 926.844 225.045 924.995 221.904C920.368 214.04 913.07 206.715 907.577 199.205C905.056 195.755 904.914 194.552 901.615 191.403C896.448 186.466 891.017 182.043 885.851 177.107C885.435 176.709 885.612 176.001 885.196 175.656C884.426 175.028 882.87 174.958 881.835 173.763C881.136 172.967 881.666 172.392 881.622 172.339C881.445 172.162 878.358 171.18 877.208 170.358C872.484 166.97 869.361 164.961 863.815 162.423C861.4 161.317 857.092 159.654 854.385 159.742C854.102 159.751 850.21 161.034 850.024 161.166C848.538 162.308 850.103 167.571 850.723 169.225C850.855 169.57 853.615 174.781 853.828 175.064C854.19 175.559 855.455 175.763 855.951 176.311C857.065 177.541 858.065 180.858 859.985 182.556C863.461 185.644 866.761 187.378 870.582 190.987C874.899 195.074 883.038 202.071 886.461 206.901C887.779 208.759 888.487 210.342 890.008 212.165C898.536 222.338 904.26 232.431 909.187 244.727C911.372 250.176 912.336 255.953 914.079 261.641C915.034 264.773 916.98 267.462 917.29 270.991C917.361 271.743 917.343 278.015 917.219 278.502C916.91 279.785 914.831 283.42 913.743 284.19C912.858 284.809 907.586 286.631 906.498 286.623C905.073 286.614 902.305 284.066 901.5 282.916C899.235 279.678 898.262 272.77 896.846 268.736C893.113 258.138 886.629 248.69 881.047 239.216C877.995 234.032 876.783 230.901 872.121 226.814C869.618 224.62 866.239 222.515 863.638 220.462C861.851 219.056 859.339 216.075 857.915 214.854C857.561 214.553 853.925 213.43 853.757 213.217C853.456 212.837 853.916 211.74 853.615 211.413C853.527 211.315 852.89 211.015 851.943 209.988C849.953 207.83 847.016 206.627 845.486 204.716C840.32 198.276 836.586 192.137 832.986 184.467C832.747 183.954 833.083 183.087 832.508 182.15C831.58 180.637 828.368 179.867 827.307 178.912C825.989 177.726 825.086 176.532 823.291 174.975C822.556 174.338 821.486 172.587 821.247 172.436C820.548 171.994 811.658 170.366 810.561 170.411C804.245 170.676 805.935 178.717 807.536 182.521C810.835 190.359 823.379 195.835 829.801 201.726C833.667 205.273 836.772 210.077 840.647 213.545C843.92 216.473 849.493 219.648 851.961 222.488C852.288 222.868 853.111 224.956 853.332 225.186C853.677 225.549 854.58 225.354 855.101 226.088C855.623 226.823 855.429 228.326 855.694 228.636C855.977 228.963 857.472 228.786 857.915 229.317C858.268 229.733 858.277 231.378 858.967 232.36C860.365 234.342 863.974 236.898 865.478 238.871C868.786 243.215 873.749 253.441 876.023 258.625C877.111 261.11 875.899 261.473 877.801 264.286C878.783 265.737 880.251 277.246 880.8 279.97C882.144 286.667 881.861 285.773 881.162 292.169C881.1 292.762 881.675 293.673 881.605 293.779C881.543 293.876 880.587 294.027 880.171 294.531C879.756 295.035 879.552 296.99 878.756 297.937C876.5 300.608 874.333 300.485 871.529 301.307C870.494 301.617 869.211 302.776 868.318 302.855C866.734 303.006 863.178 299.892 862.161 298.6C860.082 295.973 857.658 290.356 856.8 287.083C853.713 275.282 851.298 266.029 845.813 255.121C844.3 252.114 843.31 249.23 841.585 246.576L840.647 247.045C840.435 245.479 839.815 243.453 839.09 242.065C838.09 240.154 835.958 238.004 834.516 236.801C834.118 236.465 833.057 233.979 832.597 233.519C832.181 233.086 830.801 232.82 830.606 232.466C829.439 230.343 829.395 230.441 827.608 228.353C827.156 227.822 826.988 226.893 826.511 226.451C825.715 225.726 823.6 225.407 822.928 224.735C822.441 224.248 821.822 222.435 821.07 221.533C815.267 214.597 808.739 205.026 801.043 200.081C799.875 199.329 798.132 198.975 797.115 198.32C796.098 197.666 795.027 195.295 794.7 195.083C789.95 192.057 773.23 186.263 767.48 186.413C766.826 186.431 762.305 187.793 761.819 188.227C760.536 189.377 757.838 193.986 757.705 195.737C757.493 198.665 760.766 198.984 762.358 199.948C766.056 202.186 769.886 204.398 773.664 206.742C778.848 209.962 784.509 213.2 789.835 216.835C791.639 218.065 792.904 219.339 794.735 220.453C796.566 221.568 796.947 222.63 797.743 223.143C798.539 223.656 799.946 223.452 800.503 224.001C801.166 224.655 800.954 226.61 801.122 226.761C801.352 226.973 802.467 226.575 802.936 226.858C803.175 227 803.643 229.008 804.245 229.662C804.891 230.352 806.2 230.529 806.324 230.715C806.66 231.255 806.182 233.378 806.819 234.227C807.261 234.811 808.217 234.289 808.712 234.581C808.907 234.696 810.057 237.925 810.561 238.721C812.843 242.303 816.099 244.612 818.107 248.602C822.043 256.404 826.643 266.931 828.103 275.768C829.103 281.801 830.881 287.958 831.314 294.372C831.571 298.078 832.278 301.59 830.447 304.978C830.12 305.589 827.572 308.605 826.988 308.88C826.847 308.941 824.343 309.57 824.007 309.64C823.149 309.808 819.593 310.189 818.93 310.012C818.381 309.861 815.895 308.526 815.232 308.128C813.445 307.066 812.958 306.712 810.738 305.624C803.847 302.245 800.114 297.238 793.32 294.106C788.26 291.771 783.235 290.117 777.83 287.507C775.858 286.552 775.415 286.915 773.699 286.251C773.478 286.163 771.47 284.216 771.311 284.181C770.656 284.04 769.435 284.429 768.117 284.119C766.605 283.765 765.322 282.35 765.039 282.261C763.632 281.837 758.563 281.545 757.652 280.979C756.573 280.315 756.449 278.449 754.061 278.325C753.3 278.29 752.557 278.75 752.026 278.732C750.478 278.67 749.576 278.378 747.311 278.422C734.033 278.688 721.356 279.643 708.494 282.951C700.205 285.083 698.011 291.736 700.4 299.485C703.178 299.565 705.69 300.67 708.255 301.263C709.441 301.537 711.794 302.325 712.192 302.386C712.422 302.422 716.093 302.254 716.756 302.218C720.852 301.98 726.673 299.308 730.309 298.521C737.51 296.955 744.586 294.92 751.991 296.84C756.485 298.008 763.27 300.661 767.657 302.395C773.805 304.819 778.45 308.632 782.581 313.303C791.728 323.653 801.582 341.106 802.06 355.755C802.184 359.665 801.22 365.106 801.52 368.795C801.635 370.245 803.352 373.288 803.732 375.031C804.749 379.613 803.891 380.33 802.723 384.32C802.255 385.93 798.46 395.315 797.734 396.2C797.363 396.651 795.001 398.871 794.187 399.747C785.394 409.177 776.309 416.351 762.252 415.723C758.643 415.564 751.602 414.476 748.222 412.946C747.727 412.716 741.756 409.177 741.473 408.903C737.66 405.232 733.334 401.587 729.592 397.491C728.274 396.041 727.009 394.44 726.293 393.068C724.576 389.769 718.826 385.868 716.367 382.86C715.916 382.311 715.695 380.631 715.111 380.259C714.527 379.888 713.368 380.118 712.661 379.693C712.112 379.366 711.829 377.579 710.67 376.747C709.087 375.606 706.893 374.66 705.283 373.686C704.168 373.014 698.923 369.237 697.958 370.104C697.773 370.272 696.985 372.298 696.932 372.705C696.605 375.252 697.888 379.728 697.649 382.02C697.498 383.515 698.1 390.689 698.64 392.21C698.834 392.768 700.17 393.732 700.506 394.625C705.009 406.515 712.873 418.094 721.525 427.276C724.656 430.603 727.805 432.743 731.388 435.583C736.289 439.466 740.261 443.049 744.648 447.401C748.169 450.896 749.77 453.868 754.087 455.796C755.91 456.61 756.308 458.265 757.44 459.229C765.8 466.323 772.16 473.763 779.653 481.875C783.536 486.068 786.323 489.138 790.931 492.765C794.859 495.852 799.176 498.497 803.343 501.673C804.245 502.363 804.838 502.513 805.59 503.628C808.792 508.387 814.586 511.837 818.885 515.437C826.325 521.665 832.296 526.99 837.993 534.925C838.471 535.589 839.426 535.801 839.683 536.235C841.664 539.614 839.683 544.992 837.02 547.496C833.163 551.131 826.679 545.983 823.3 543.338C811.623 534.173 798.681 526.548 786.376 518.047C761.66 500.983 745.188 477.16 726.992 453.488C716.075 444.447 706.928 433.955 697.551 423.366C683.937 407.983 672.057 391.618 676.79 368.945C677.179 367.087 678.285 362.735 679.054 361.178C679.267 360.745 685.751 354.933 686.184 354.711C690.563 352.482 700.524 350.598 705.354 351.191C706.362 351.315 711.396 353.561 712.528 354.163C715.447 355.702 720.26 358.958 722.993 361.019C734.537 369.723 740.606 382.78 748.558 394.802C752.291 397.571 757.564 399.721 762.243 400.128C766.923 400.535 769.851 399.349 773.451 396.704C774.805 395.705 781.67 388.619 782.466 387.345C782.935 386.593 782.758 385.558 783.191 384.815C783.456 384.373 784.27 384.364 784.713 383.338C785.509 381.506 784.598 373.996 784.385 371.484C784.191 369.175 783.996 368.396 783.934 365.92C783.757 359.205 781.829 353.128 781.501 346.865C781.201 341.141 778.741 335.506 775.911 330.305C772.77 324.546 771.107 322.078 765.428 319.088C761.341 316.938 756.989 314.948 752.69 313.506C743.852 310.543 738.191 313.303 729.796 315.373C724.86 316.593 721.295 317.708 716.571 319.044C712.829 320.096 700.356 321.609 696.791 320.733C695.349 320.38 692.483 318.486 692.217 318.425C691.235 318.221 690.103 318.61 689.033 318.31C687.502 317.885 687.166 315.62 686.308 314.762C684.893 313.347 681.655 311.772 680.549 309.455C679.585 307.438 678.302 302.466 678.117 300.255C677.993 298.76 677.541 292.328 677.648 291.24C677.931 288.277 681.92 277.175 683.849 274.831C684.229 274.371 684.963 274.663 685.344 274.194C685.981 273.398 688.015 270.089 688.36 269.841C689.033 269.346 690.598 269.435 691.563 268.948C707.247 261.013 722.798 260.456 739.473 258.28C741.305 258.041 743.348 258.333 744.852 258.138C749.912 257.475 754.963 256.581 760.324 256.917C765.685 257.253 769.418 259.27 774.442 260.916C775.424 261.234 774.858 260.756 776.353 261.473C779.502 262.977 784.244 263.428 786.703 264.896C791.02 267.48 794.302 268.93 798.769 271.301C799.698 271.788 800.193 273.115 802.033 273.079C802.661 269.7 800.972 271 800.645 270.646C800.406 270.39 800.724 269.205 800.591 268.603C800.503 268.196 799.804 268.214 799.645 267.913C796.841 262.42 792.426 253.184 788.34 249.168C786.862 247.717 787.481 248.036 786.473 246.7C785.836 245.86 783.987 244.975 782.492 243.215C780.52 240.906 776.043 238.924 773.77 236.748C772.708 235.731 771.346 232.962 770.417 232.148C769.488 231.334 768.206 231.29 767.135 230.591C766.065 229.892 765.808 228.335 765.198 227.716C763.942 226.442 761.58 225.16 760.333 223.886C756.6 220.055 753.813 216.402 749.93 212.571C739.208 201.991 743.525 183.052 755.786 175.471C760.97 172.26 762.358 173.763 767.551 173.781C775.875 173.799 780.033 174.913 788.056 177.355C789.861 177.903 791.568 178.947 793.355 179.522C792.718 173.241 792.966 169.57 796.814 164.413C798.99 161.494 801.211 159.875 804.838 158.928C810.349 157.495 821.875 158.371 827.13 160.459C827.988 160.804 831.73 163.882 832.42 163.121C832.42 162.281 832.287 161.414 832.544 160.591C833.101 158.805 836.33 152.595 837.383 151.206C837.577 150.949 842.089 147.278 842.398 147.216C855.915 144.5 866.743 146.623 879.013 152.214L879.075 152.232Z"></path>
</svg>
