<svg xmlns="http://www.w3.org/2000/svg" fill="none" viewBox="0 0 1680 1260" height="1260" width="1680">
<rect fill="#D97757" height="1260" width="1680"></rect>
<path fill="#FAF9F5" d="M1138.38 217.817C1138.72 218.074 1138.21 219.217 1138.81 219.361C1139.24 219.474 1143.77 218.692 1144.71 218.517C1162.45 215.244 1180.44 208.718 1198.11 204.56C1205.49 202.82 1212.95 201.328 1220.46 200.257C1217.44 209.15 1215.17 218.29 1212.41 227.266C1211.1 231.517 1208.85 235.572 1207.59 239.844C1203.65 253.121 1201.83 267.881 1197.51 281.231C1198.86 282.25 1200.06 283.681 1201.41 284.659C1215.54 294.849 1231.53 303.289 1244.79 315.363L1274.34 340.807C1273.44 343.102 1268.87 343.668 1268.28 344.049C1266.48 345.222 1265.17 347.518 1261.63 349.422C1243.45 359.221 1219.87 365.643 1202.55 376.77C1201.75 377.285 1201.11 377.954 1200.56 378.736L1197.42 410.912C1198.07 419.239 1197.52 427.339 1196.3 435.604L1195.2 470.127C1193.12 470.436 1191.58 466.864 1190.71 466.452C1189.83 466.04 1188.72 467.173 1187.12 466.154C1184.85 464.702 1180.72 459.875 1178.28 458.146C1169.79 452.114 1159.22 447.153 1150.34 440.627C1142.71 435.018 1135.9 428.317 1128.1 423.006L1077.28 477.991C1076.88 478.196 1070.66 473.369 1069.98 472.69C1068.54 471.259 1067.48 468.758 1066.41 467.564C1059.39 459.71 1051.81 453.051 1044.76 445.269C1042.91 443.221 1042.34 441.852 1040.81 440.113C1037.66 436.531 1034.29 433.031 1030.86 429.727L950.433 453.288L976.116 363.77L918.416 331.8C918.632 330.473 928.384 325.47 930.351 324.235C930.897 323.885 931.134 322.99 931.7 322.65C938.59 318.523 985.776 296.66 986.816 293.542L961.658 208.646L1004.33 216.757C1016.94 220.411 1029.51 224.744 1042.6 226.195L1053.39 230.436L1072.89 193.855C1075.77 187.967 1081.75 182.862 1085.06 177.963C1088.37 173.063 1089.16 166.373 1094.44 163.203C1097.39 163.192 1119.95 194.205 1123.04 198.61C1125.01 201.42 1126.37 204.961 1128.43 207.822C1131.42 211.981 1134.49 214.77 1138.39 217.817H1138.38Z"></path>
<path fill="#FAF9F5" d="M408.185 1096.88C408.854 1091.88 407.587 1086.7 407.577 1081.47C407.505 1052.4 407.011 1022.96 406.65 993.809C406.228 959.781 406.238 924.61 408.627 890.695C408.669 890.118 407.999 888.945 408.185 888.739L422.53 889.573C472.455 885.734 522.463 891.415 572.934 887.607C577.053 887.298 580.874 885.806 585.251 885.94C589.627 886.073 595.446 887.483 599.39 887.607C603.334 887.73 625.949 886.197 627.154 887.319C630.15 894.493 628.307 902.47 628.822 909.768C629.512 919.669 633.137 931.311 633.343 940.646C633.436 945.134 631.716 951.804 631.561 956.909C630.799 982.59 630.727 1008.75 630.521 1034.32C630.356 1055.25 631.046 1076.02 630.48 1096.88H408.185Z"></path>
<path fill="#FAF9F5" d="M1014.09 609.657C1025.12 621.679 1035.32 634.329 1044.9 647.597C1045.3 662.779 1047.49 678.64 1047.44 693.74C1047.44 697.024 1047.46 706.174 1046.88 708.768C1046.34 711.176 1042.51 718.062 1041.38 721.212C1035.14 738.525 1028.79 755.693 1020.36 772.028C1000.23 781.466 980.791 791.996 962.389 804.451L878.644 796.937C863.764 782.558 846.627 770.577 832.54 755.487C825.352 728.067 822.561 699.659 821.387 671.353C825.31 661.554 829.965 652.002 834.712 642.584C838.018 636.028 849.181 612.889 853.053 608.741C859.263 602.092 887.367 592.221 897.026 589.288C906.789 586.334 939.949 577.111 948.404 577.523C962.471 578.213 983.52 590.338 998.133 592.777C1003.42 598.448 1008.84 603.955 1014.09 609.657Z"></path>
<path fill="#FAF9F5" d="M660.489 616.337C669.531 630.511 675.267 643.171 683.227 657.293C686.873 663.767 692.423 669.15 695.904 676.047C699.385 682.943 701.795 691.476 705.214 698.722C713.885 717.084 724.43 734.994 733.049 753.388C736.53 760.829 738.301 768.25 741.422 775.311C744.079 781.333 749.187 787.91 752.049 793.869C752.729 795.28 753.419 796.793 753.419 798.388C749.979 798.759 746.509 798.172 743.049 798.398C712 800.447 682.743 801.363 651.385 799.109C639.687 798.265 627.854 801.373 616.155 801.744C608.699 801.98 600.585 800.797 593.139 801.157C586.878 801.466 580.06 803.246 574.087 803.452C558.537 803.977 539.558 802.66 523.853 801.929C522.103 801.846 511.969 802.423 511.475 802.052C509.508 800.56 513.174 797.215 513.668 796.237C520.867 781.724 527.272 766.161 536.046 752.513C539.836 746.615 544.872 740.882 548.62 734.788C554.943 724.506 559.588 713.317 565.468 702.818C577.403 681.512 592.109 662.131 605.435 641.771C615.661 626.136 624.94 609.709 635.897 594.228C636.618 593.209 639.645 586.323 641.715 587.672C647.771 597.368 654.341 606.703 660.489 616.337Z"></path>
<path fill="#141413" d="M1016.2 477.92C1018.5 479.485 1022.82 480.082 1024.9 481.842C1027.87 484.364 1035.2 498.023 1037.65 502.191C1042.68 510.765 1046.26 518.711 1050.56 527.419C1052.06 530.466 1054.26 530.548 1054.41 534.84C1054.47 536.734 1052.98 538.782 1054.92 540.162C1054.92 540.162 1050.36 551.082 1046.07 551.793C1041.4 552.565 1033.31 548.18 1031.13 544.032C1030.03 541.942 1029.66 538.628 1028.57 536.497C1025.2 529.807 1020.67 523.446 1018.85 515.932C1018.85 515.932 1012.55 525.752 1009.68 532.813C1008.18 536.508 1005.34 540.172 1003.63 543.589C989.133 572.553 980.617 603.031 971.585 633.827C968.609 643.986 965.901 650.707 962.173 660.331C960.947 663.491 956.848 673.455 956.55 676.007C955.911 681.411 961.606 689.965 962.512 696.182C962.79 698.106 962.718 707.689 961.761 708.986C961.719 709.037 958.167 716.191 957.374 717.786C957.085 718.363 949.218 726.391 948.682 726.751C948.404 726.947 943.152 729.634 942.833 729.726C931.196 733.37 920.929 726.751 913.483 718.641C911.928 716.942 909.992 713.474 908.468 711.508C906.985 711.837 899.859 711.724 898.077 711.796C886.965 712.249 875.854 711.292 864.958 711.796C851.262 712.424 837.648 715.069 823.982 715.594C800.224 716.51 774.922 713.01 751.782 716.037C728.158 719.124 704.73 725.403 681.374 726.535C667.409 727.215 662.785 728.903 652.868 738.753C646.659 744.918 644.033 746.493 634.672 747.924C633.549 748.099 629.214 747.492 629.008 747.687C628.802 747.883 627.556 752.031 627.164 752.875C624.971 757.61 624.106 761.809 622.098 766.317C620.089 770.826 615.898 775.097 613.262 779.914C605.044 794.891 595.147 818.41 590.101 834.724C588.464 840.004 588.165 845.542 586.744 850.431C585.179 855.804 580.843 862.278 578.65 867.579C572.625 882.092 566.539 896.945 560.268 910.892C554.408 923.922 549.939 936.799 543.543 949.747C541.649 953.576 540.845 955.872 539.208 959.968C537.879 963.293 533.554 969.757 535.006 973.133C535.15 973.483 539.599 978.444 540.042 978.753C541.113 979.525 546.705 988.068 547.24 989.396C548.795 993.276 547.23 1006.14 544.944 1010C542.472 1014.16 537.138 1022.11 533.317 1025.3C525.367 1031.93 513.257 1031.13 504.06 1027.66C501.373 1026.66 491.188 1018.52 489.643 1016.19C488.098 1013.85 486.512 1009.95 486.77 1007.08C488.037 993.214 489.921 982.355 501.784 973.874C505.214 971.414 513.772 968.563 515.955 966.442C517.324 965.104 528.158 946.989 529.332 944.477C531.536 939.784 532.154 930.582 533.863 924.89C537.632 912.353 545.696 898.046 552.111 886.477C555.644 880.105 557.384 876.812 560.525 870.204C568.836 852.706 579.01 838.728 586.219 820.17C595.116 797.258 604.58 770.332 609.297 746.205C611.573 734.564 607.763 735.943 604.683 726.824C599.359 711.045 607.34 697.406 621.408 689.893C626.279 687.288 627.494 689.254 631.531 689.275C633.158 689.275 634.517 687.947 637.092 688.246C641.932 688.812 648.986 693.053 652.323 696.614C654.712 699.167 658.1 706.166 661.828 706.227C665.061 706.279 671.209 703.922 674.834 703.417C682.599 702.326 689.715 704.436 697.696 703.356C714.255 701.122 728.827 704.004 744.882 703.407C768.352 702.543 792.459 694.638 816.114 695.554C820.769 695.739 825.764 696.079 830.254 696.459C845.907 697.808 862.415 699.136 877.728 694.916C883.052 693.454 889.983 693.938 895.811 692.682C897.387 692.342 904.864 690.85 905.667 690.459C905.739 690.428 919.878 670.562 927.313 669.204C929.703 668.761 936.324 669.719 937.375 668.607C943.152 654.742 946.808 639.622 955.283 627.044C968.557 602.609 976.034 575.024 984.828 548.89C987.702 540.347 991.883 532.452 994.766 524.043C996.517 518.927 996.96 513.359 999.4 508.418C996.434 503.179 990.74 508.593 986.867 509.983C982.995 511.372 977.404 512.433 973.439 513.946C966.333 516.632 957.847 523.693 950.041 519.617C948.764 518.948 944.408 514.399 944.728 512.659C945.603 507.883 952.245 503.241 956.344 501.337C963.007 498.239 968.794 495.665 975.921 493.463C980.853 491.939 985.148 487.966 989.71 485.897C995.065 483.468 1005.24 480.638 1010.87 479.567C1011.92 479.372 1016.22 477.9 1016.22 477.9L1016.2 477.92Z"></path>
</svg>
