<svg xmlns="http://www.w3.org/2000/svg" fill="none" viewBox="0 0 1000 1000" height="1000" width="1000">
<path fill="#FAF9F5" d="M299.914 377.575C301.411 375.808 303.647 374.657 305.154 373.153C314.541 363.864 323.292 353.868 333.094 344.952C357.746 338.712 382.763 333.038 407.901 328.938C424.137 333.542 445.836 332.482 461.424 337.541C468.505 339.833 485.095 349.092 492.055 353.171C501.736 358.835 511.336 366.166 520.562 372.567L554.136 449.618C553.873 473.255 552.063 496.831 550.707 520.488L521.32 570.923C503.183 580.808 485.51 591.975 466.644 600.497C462.719 602.274 442.538 610.877 439.776 611.079C436.721 611.301 430.702 609.604 427.152 609.433C409.742 608.585 392.353 608.938 374.933 608.241L324.647 580.303C306.671 550.648 289.859 520.084 277.618 487.522C276.84 481.726 277.416 475.779 276.991 469.983C276.415 462.037 273.815 447.689 274.493 440.51C275.261 432.321 286.085 413.016 289.545 404.383C292.246 397.638 295.999 382.129 299.884 377.575H299.914Z"></path>
<path fill="#FAF9F5" d="M585 52.0986C584.727 54.6229 583.108 56.6726 581.5 58.5001C565.83 76.2809 544.203 92.2443 526.874 108.743C515.494 119.577 504.963 131.38 494.119 142.618C487.523 149.454 480.311 155.552 474.362 163.044L548.016 286.965C542.432 290.065 535.756 289.742 529.666 291.468C526.206 292.448 522.828 294.487 519.317 295.446C466.948 309.673 412.888 315.852 360.255 328.615C323.98 337.41 288.007 347.486 251.246 355.099C243.578 356.685 235.84 358.512 228 359.118C235.294 350.556 241.758 341.065 248.95 332.462C271.65 305.301 297.243 280.392 321.117 254.331C334.611 239.6 347.873 224.596 361.206 209.672C360.255 206.987 359.709 204.038 358.667 201.393C354.863 191.639 348.045 181.27 343.857 171.617C340.489 163.832 338.041 153.866 334.52 146.273C331.961 140.74 327.54 134.329 324.667 128.604C323.818 126.917 317.961 115.508 318.365 114.872L374.873 96.7476C391.877 93.1429 409.378 91.8606 426.464 88.8416C474.787 80.3197 521.442 64.4574 569.452 54.4714C574.56 53.4112 579.811 52.6843 585 52.1188V52.0986Z"></path>
<path fill="#141413" d="M564.437 946.099L558.172 944.434C531.885 944.583 505.778 941.642 479.73 938.152C475.125 937.534 477.303 937.813 473.906 936.168C468.51 933.556 463.984 934.364 464.204 926.816C464.394 920.405 468.91 913.755 475.964 914.582C479.621 915.011 483.947 916.407 487.933 916.766C496.346 917.534 503.949 916.706 511.902 916.766C513.621 916.776 515.11 917.922 517.338 917.893C519.566 917.863 521.974 916.786 524.422 916.716C527.149 916.636 530.386 917.633 532.614 917.853C532.854 917.873 532.784 916.925 533.204 916.796C537.021 915.689 548.56 916.517 553.256 916.237C557.323 915.998 560.75 913.725 563.637 913.496C567.224 913.226 568.503 915.609 572.729 914.004C574.588 913.296 578.454 911.781 580.712 911.611C582.031 911.512 584.049 912.479 585.758 912.11C587.327 911.771 588.675 910.485 590.444 910.375C596.059 910.026 598.667 910.634 604.062 908.75C606.83 907.783 609.297 909.029 612.495 907.922C615.692 906.815 619.169 905.719 622.496 904.811C626.482 903.715 629.76 903.685 633.836 903.136C640.001 902.299 647.734 898.71 654.088 897.224C656.506 896.656 658.634 897.413 660.413 897.064C663.67 896.416 668.865 894.303 671.593 893.455C679.226 891.082 687.04 890.295 694.623 887.732C695.882 887.303 697.391 885.668 699.219 885.01C703.825 883.355 709.16 882.129 713.796 880.893C714.646 880.663 724.497 871.012 726.445 869.506C730.951 866.027 733.419 865.458 737.076 860.563C740.733 855.668 745.269 846.126 743.48 840.014C743.221 839.107 741.322 837.522 741.282 835.956C739.774 835.777 738.535 834.7 737.186 834.341C729.992 832.427 717.783 834.63 710.399 835.597C701.027 836.824 693.254 839.496 684.242 842.078C665.019 847.582 647.094 850.483 627.272 850.024C625.403 849.984 622.176 850.872 620.787 850.802C619.818 850.752 618.629 849.596 617.52 849.626C616.901 849.645 612.055 851.261 610.846 851.45C606 852.198 603.333 851.799 598.547 851.201C597.378 851.051 595.36 851.859 594.221 851.61C593.631 851.48 593.581 850.164 592.732 849.675C592.292 849.426 591.493 849.775 591.113 849.576C589.385 848.668 585.848 844.86 584.589 843.145C582.461 840.233 580.603 835.697 580.053 832.108L579.144 832.008V831.48C580.403 831.539 580.573 828.478 581.382 826.923C581.931 825.856 585.308 819.705 585.648 819.316C586.008 818.907 586.687 819.505 587.317 818.767C589.235 816.534 589.655 814.56 592.882 812.277C601.155 806.424 609.587 800.91 619.429 798.049C620.817 797.65 624.784 797.431 625.313 797.132C625.673 796.932 626.602 793.941 628.021 792.934C629.88 791.618 632.997 791.07 634.326 790.242C635.045 789.793 634.855 788.657 635.355 788.158C635.854 787.66 638.562 786.693 639.691 785.845C640.41 785.307 641.28 783.801 641.979 783.353C643.667 782.266 646.515 781.957 647.884 780.431C648.613 779.624 648.473 778.557 649.632 777.66C650.462 777.021 654.288 776.134 656.037 774.978C660.443 772.066 663.43 767.829 668.056 764.818C671.863 762.345 674.72 758.796 679.336 757.32C680.575 756.921 682.344 757.43 683.842 756.522C691.316 751.986 698.18 746.083 705.304 741.816C707.122 740.729 714.076 737.21 715.245 736.113C716.044 735.365 716.034 734.219 716.514 733.81C719.411 731.367 723.818 729.373 726.705 726.352C734.159 718.535 742.931 710.031 751.623 702.194C753.861 700.18 758.457 697.328 760.306 695.484C760.595 695.195 761.824 692.443 762.244 692.024C771.456 682.881 781.717 672.502 790.419 662.821C791.359 661.774 792.498 660.358 793.347 659.232C804.057 645.054 813.839 631.933 822.102 616.21C823.72 613.139 824.789 610.576 824.04 606.987C823.96 606.598 821.902 601.932 821.712 601.713C821.013 600.885 817.915 600.716 816.746 600.726C806.196 600.835 795.865 615.262 788.991 622.292C781.667 629.779 773.594 636.868 766.64 644.296C764.352 646.739 761.485 648.284 758.827 650.867C754.731 654.855 751.244 659.999 747.717 664.027C745.009 667.118 742.042 669.511 739.474 672.283C735.647 676.421 729.533 682.612 725.136 685.703C720.361 689.053 716.974 694.577 712.827 698.954C709.95 701.995 705.144 705.384 701.777 707.638C699.878 708.904 695.982 710.888 693.734 710.619C693.414 710.579 687.989 708.675 687.639 708.475C685.281 707.099 684.602 706.292 684.282 703.49C683.473 696.521 687.549 693.33 691.825 688.734C700.478 679.422 709.45 670.897 718.722 662.153C727.994 653.409 737.046 641.973 744.989 631.903C756.169 617.735 769.937 605.511 781.657 591.483C786.982 585.102 799.222 570.655 801.08 563.287C801.64 561.074 801.39 555.371 800.72 553.097C799.172 547.853 795.015 546.926 790.19 547.973C786.543 548.76 782.656 551.492 779.779 553.885C768.858 562.968 761.894 573.746 752.313 583.537C750.974 584.903 748.846 586.119 747.197 588.233C741.612 595.402 735.977 600.726 728.823 606.808C727.544 607.894 726.275 610.427 724.617 611.972C721.24 615.113 717.973 617.127 714.416 620.666C710.579 624.485 703.475 630.637 700.738 634.226C699.369 636.021 698.13 636.539 696.172 638.334C684.712 648.813 674.411 660.967 659.634 667.617C654.578 669.89 651.341 669.292 646.695 666.52C640.45 662.811 646.375 653.618 649.452 649.301C654.448 642.272 660.643 638.633 666.518 632.641C675 623.997 683.942 616.299 693.104 608.373C703.475 599.41 715.305 590.117 725.326 580.506C737.496 568.831 752.542 549.468 758.747 534.961C759.516 533.157 761.774 527.404 761.974 525.759C762.524 521.242 754.93 515.31 750.664 515.011C738.195 514.153 718.192 530.734 708.99 538.67C704.384 542.638 701.907 545.33 698.06 550.036C689.997 559.877 681.524 570.296 672.263 578.073C670.154 579.848 667.756 581.313 665.668 583.447C656.426 592.919 646.705 600.646 637.922 610.247C635.555 612.84 632.657 617.466 630.039 619.61C629.06 620.417 627.322 620.676 626.213 621.763C624.944 623.019 624.684 624.844 622.956 626.12C620.708 627.775 619.259 628.553 616.821 630.467C612.944 633.538 602.913 636.898 598.057 636.27C597.568 636.21 594.031 635.403 593.901 635.233C593.651 634.894 593.751 633.967 593.291 633.438C591.893 631.833 588.745 629.47 588.665 627.496C588.436 621.963 593.841 615.871 597.897 612.541C610.496 602.171 624.015 592.919 636.554 582.659C644.527 576.139 653.239 569.887 660.523 562.569C664.1 558.98 666.977 554.902 670.414 551.233C672.213 549.319 676.869 546.477 676.609 544.692C679.606 543.556 682.144 539.528 684.392 537.225C688.688 532.828 699.099 524.353 700.927 519.228C701.787 516.815 702.636 509.547 701.927 507.144C700.888 503.634 693.184 499.766 689.767 499.686C688.488 499.656 687.04 500.424 685.911 500.982C671.573 508.031 658.215 519.477 646.285 529.079C639.791 534.303 634.376 539.757 627.621 544.952C621.707 549.508 613.274 557.554 606.72 560.495C596.958 564.892 587.447 569.718 577.885 574.593C564.437 581.463 551.138 588.343 537.72 594.763C529.887 598.512 522.593 601.663 514.43 604.774C506.267 607.884 497.555 611.554 489.392 613.478C484.436 614.644 480.07 617.157 474.795 618.493C471.008 619.45 472.487 619.54 470.219 620.437C467.781 621.414 464.444 621.065 462.286 621.464C461.666 621.574 461.287 622.481 460.527 622.73C455.052 624.465 447.459 622.67 442.263 624.046C441.564 624.236 441.184 625.213 440.405 625.472C437.377 626.459 430.923 626.06 427.976 626.778C427.616 626.868 427.736 627.785 427.466 627.755C425.668 627.576 421.651 626.02 419.323 626.12C419.013 626.13 419.043 627.027 418.594 627.167C410.251 629.809 395.594 627.446 386.532 627.297C365.63 626.958 349.414 627.496 328.403 623.348C312.586 620.228 297.5 617.645 281.663 614.016C264.009 609.968 245.095 604.814 227.441 599.12C223.564 597.864 219.018 597.057 215.341 595.88C207.488 593.358 203.022 586.438 193.27 585.9C192.301 585.85 189.943 586.558 189.564 586.448C188.764 586.229 183.209 583.916 181.75 583.307C177.005 581.343 172.878 578.243 168.462 575.919C166.464 574.873 161.099 573.497 160.189 571.652C159.21 569.648 162.248 564.344 164.296 563.516C170.051 561.193 182.28 567.963 188.235 569.778C197.497 572.599 207.118 574.374 216.44 577.495C219.987 578.681 225.772 581.852 229.369 582.55C230.458 582.759 231.717 581.922 233.455 582.231C234.994 582.5 237.612 584.075 239.31 584.564C247.553 586.967 255.796 589.29 263.829 591.613C270.623 593.577 279.136 594.963 286.249 596.448C306.552 600.706 326.844 603.398 347.396 604.335C351.432 604.524 352.561 604.245 356.088 604.036C357.627 603.946 359.545 605.312 361.364 605.172C363.562 605.003 365.62 603.039 368.078 602.74C371.985 602.261 377.21 604.006 380.287 603.567C385.643 602.8 391.178 603.009 396.833 602.082C399.171 601.703 403.327 599.978 405.335 599.759C406.504 599.629 407.553 600.606 408.892 600.556C409.502 600.536 420.302 598.572 420.882 598.373C422.111 597.954 422.62 596.977 423.649 596.777C425.108 596.498 426.757 597.256 427.796 597.037C429.065 596.777 431.023 594.554 433.101 594.335C434.46 594.195 435.479 595.222 436.728 595.412C439.925 595.91 443.682 593.617 446.759 593.228C451.006 592.69 450.506 593.796 455.302 592.061C456.721 591.553 467.901 589.818 469.27 589.868C470.978 589.928 472.587 591.194 474.795 590.795C478.661 590.107 483.957 587.405 488.473 586.488C494.747 585.212 500.782 584.005 506.907 582.55C521.784 579.01 536.431 572.37 550.139 566.946C563.847 561.522 578.484 552.808 591.463 545.261C596.099 542.569 600.515 539.159 605.261 537.005C605.321 536.945 604.672 536.088 604.751 535.978C605.041 535.599 611.945 532.578 613.274 531.731C616.781 529.507 620.298 525.729 623.635 523.455C629.4 519.527 635.924 517.174 641.469 512.568C643.568 510.823 645.366 508.38 647.474 506.606C658.415 497.363 679.256 486.176 693.764 488.38C697.221 488.908 709.07 494.691 711.089 497.423C716.624 504.911 715.065 512.069 714.715 520.724C718.432 518.799 721.709 516.207 725.486 514.363C735.477 509.487 754.031 501.521 764.472 507.214C765.851 507.962 774.773 515.489 775.622 516.735C778.34 520.734 780.828 530.315 780.348 535.141C780.238 536.257 778.999 537.663 779.519 539.189C779.629 539.328 780.858 538.242 781.377 538.062C784.555 536.965 786.862 536.826 789.79 536.317C792.717 535.809 797.773 534.562 800.491 534.792C801.979 534.921 808.094 538.86 809.403 540.066C817.076 547.065 818.185 555.231 816.457 564.912C815.567 569.887 807.544 583.437 804.377 587.904C803.738 588.801 801.59 589.908 801.839 591.872C802.169 592.201 809.333 588.751 810.542 588.343C813.279 587.425 817.816 586.249 820.593 586.468C821.562 586.538 822.342 587.355 823.371 587.515C827.887 588.173 829.036 587.515 832.882 591.054C836.12 594.036 839.517 604.066 839.896 608.513C840.776 618.812 835.93 633.628 830.474 641.913C826.088 648.573 821.482 655.632 816.846 661.993C810.682 670.448 804.487 678.644 798.562 686.82C796.005 690.349 795.605 690.927 792.707 693.679C790.28 695.992 786.553 703.151 784.415 706.082C783.765 706.97 781.817 707.578 781.297 708.286C780.708 709.083 780.948 710.15 779.769 711.377C778.59 712.603 776.062 713.241 774.823 714.597C769.458 720.44 764.392 728.476 758.028 733.122C756.879 733.959 753.901 734.398 752.602 735.335C749.046 737.928 746.648 741.308 743.52 744.199C741.272 746.283 738.355 749.743 736.207 751.577C733.699 753.721 724.457 758.836 723.038 760.401C722.319 761.198 722.189 762.834 720.98 763.552C719.851 764.229 718.652 763.861 717.633 764.578C715.395 766.134 711.079 770.83 708.651 772.993C703.315 777.759 697.221 782.166 692.215 787.271C691.616 787.889 684.502 790.94 684.272 791.319C683.583 792.485 684.582 793.243 681.804 794.569C679.996 795.437 680.236 794.809 678.117 796.304C675.769 797.959 673.402 798.747 671.313 800.113C669.875 801.05 666.318 804.779 665.249 805.327C664.11 805.915 662.201 805.826 660.733 806.653C654.148 810.372 646.255 815.328 640.57 820.213C637.633 822.735 634.266 823.184 630.829 824.62C632.557 824.66 635.465 826.405 636.594 826.524C637.893 826.654 639.301 825.896 640.87 825.956C642.349 826.016 644.057 827.043 645.276 827.003C647.934 826.913 653.049 824.54 655.147 824.52C657.026 824.5 658.015 826.185 660.493 825.707C673.451 823.204 686.74 822.636 699.539 819.894C714.026 816.793 726.185 810.283 741.502 813.623C743.231 814.001 747.527 815.158 748.736 816.185C750.684 817.85 757.368 823.922 758.447 825.966C760.126 829.136 763.163 839.825 763.153 843.603C763.123 852.816 760.116 856.744 755.86 864.063C747.527 878.38 730.342 892.807 716.024 900.923C697.361 911.502 675.959 919.518 654.798 925.131C652.78 925.669 650.701 926.617 649.472 926.916C647.784 927.324 642.978 926.617 640.41 927.065C633.466 928.272 627.841 931.392 620.867 932.06C616.541 932.469 612.275 933.476 608.628 934.583C604.981 935.69 602.204 936.717 598.677 937.574C597.558 937.843 596.109 939.588 594.49 939.937C586.767 941.592 578.504 943.108 571.231 944.444L564.926 946.039H564.377L564.437 946.099Z"></path>
</svg>
