<svg width="116" height="36" viewBox="0 0 116 36" fill="none" xmlns="http://www.w3.org/2000/svg">
<g clip-path="url(#clip0_10709_29291)">
<path d="M15.8184 35.7425C15.6244 35.744 15.4337 35.693 15.2663 35.5953L0.876358 27.5085C0.703221 27.4088 0.559302 27.2658 0.458991 27.0936C0.358681 26.9214 0.305474 26.7261 0.304688 26.5269V1.6481C0.304688 1.34875 0.424122 1.06177 0.636701 0.850135C0.849266 0.638499 1.13756 0.519531 1.43817 0.519531H30.2774C30.5764 0.52212 30.8622 0.642134 31.0725 0.85348C31.283 1.06497 31.4011 1.3505 31.401 1.6481V26.5269C31.4002 26.7261 31.3471 26.9214 31.2467 27.0936C31.1464 27.2658 31.0026 27.4088 30.8294 27.5085L16.4097 35.5953C16.2419 35.6917 16.0516 35.7425 15.8578 35.7425H15.8184ZM2.5618 25.8695L15.8578 33.3282L29.1439 25.8695V2.77682H2.53221L2.5618 25.8695Z" fill="black"/>
<path d="M15.8196 24.477C15.6272 24.477 15.4376 24.4299 15.2677 24.3396L10.7339 21.7684C10.5586 21.6712 10.4131 21.5287 10.3125 21.3559C10.2119 21.1832 10.1599 20.9866 10.1622 20.787V16.0762H12.4194V20.1392L15.8591 22.1021L19.8706 19.8546L20.9745 21.8174L16.4111 24.3888C16.2408 24.4778 16.0515 24.5249 15.8591 24.5261" fill="black"/>
<path d="M15.818 30.1115C15.624 30.1129 15.4332 30.0621 15.266 29.9642L5.80415 24.6449C5.63097 24.5454 5.48706 24.4025 5.38671 24.2302C5.28636 24.058 5.23319 23.8627 5.23247 23.6635V11.4646C5.23115 11.3161 5.25956 11.1687 5.31607 11.0311C5.37258 10.8937 5.4559 10.7687 5.56149 10.6637C5.66695 10.5585 5.7925 10.4755 5.93058 10.4192C6.06866 10.363 6.21664 10.3347 6.36593 10.336H20.3027V12.5834H7.48949V23.0061L15.8575 27.6971L24.2254 23.0061V18.099H26.4824V23.6243C26.4796 23.8241 26.4246 24.0198 26.3226 24.192C26.2205 24.3641 26.0753 24.5067 25.9009 24.6058L16.4094 29.9251C16.2416 30.0215 16.0512 30.0723 15.8575 30.0723" fill="black"/>
<path d="M26.4436 13.8384H24.1866V7.67515H9.19531V5.42773H25.3101C25.6099 5.43021 25.8968 5.55006 26.1087 5.76112C26.3208 5.97217 26.441 6.25784 26.4436 6.55632V13.8384Z" fill="black"/>
<path d="M52.9568 25.4186C50.4264 25.4186 47.9997 24.4178 46.2105 22.6361C44.4212 20.8546 43.416 18.4381 43.416 15.9186C43.416 13.399 44.4212 10.9826 46.2105 9.20102C47.9997 7.41935 50.4264 6.41848 52.9568 6.41848C54.5401 6.40175 56.1001 6.79681 57.4831 7.56437C58.8659 8.33208 60.0236 9.44582 60.8418 10.7955L60.9305 10.9427L58.0427 12.6112L57.9638 12.4541C57.4582 11.5753 56.7229 10.8493 55.8361 10.3533C54.9493 9.85732 53.944 9.6099 52.9273 9.63753C51.2543 9.63753 49.6498 10.2992 48.4668 11.4771C47.2838 12.6551 46.6193 14.2527 46.6193 15.9186C46.6193 17.5843 47.2838 19.182 48.4668 20.3599C49.6498 21.5379 51.2543 22.1996 52.9273 22.1996C53.9454 22.2346 54.9536 21.9906 55.8418 21.4938C56.7299 20.9971 57.464 20.2669 57.9638 19.383L58.0427 19.2259L60.9305 20.8649L60.8418 21.0121C60.0326 22.3719 58.8776 23.4954 57.4933 24.2691C56.1089 25.0428 54.5441 25.4393 52.9568 25.4186Z" fill="black"/>
<path d="M43.5155 15.9189C43.4909 14.6811 43.7189 13.4514 44.1859 12.3039C44.6527 11.1566 45.3487 10.1155 46.2314 9.24384C47.1142 8.37213 48.1656 7.68791 49.3218 7.23264C50.4779 6.77751 51.7148 6.56064 52.9577 6.5954C54.5166 6.56762 56.0553 6.94944 57.4188 7.70231C58.7824 8.45533 59.9225 9.55278 60.7243 10.8843L58.142 12.3759C57.629 11.4617 56.875 10.7042 55.9613 10.1854C55.0478 9.66653 54.0091 9.40588 52.9577 9.43177C51.2401 9.43177 49.5931 10.111 48.3788 11.3203C47.1644 12.5295 46.4821 14.1695 46.4821 15.8796C46.4821 17.5897 47.1644 19.2297 48.3788 20.439C49.5931 21.6482 51.2401 22.3275 52.9577 22.3275C54.0099 22.3577 55.0503 22.099 55.9647 21.5797C56.8791 21.0603 57.6324 20.3004 58.142 19.3833L60.7243 20.8553C59.9249 22.1905 58.7859 23.2918 57.4222 24.0483C56.0585 24.8049 54.5185 25.1896 52.9577 25.1638C51.7148 25.1986 50.4779 24.9817 49.3218 24.5266C48.1656 24.0713 47.1142 23.3871 46.2314 22.5154C45.3487 21.6437 44.6527 20.6027 44.1859 19.4553C43.7189 18.3078 43.4909 17.0782 43.5155 15.8404" fill="black"/>
<path d="M75.695 25.0867L71.8709 18.5308H68.638V25.0867H65.3066V6.75391H72.6988C74.2855 6.75391 75.8071 7.3814 76.9293 8.49863C78.0512 9.61587 78.6816 11.1311 78.6816 12.711C78.6662 13.8358 78.3275 14.9327 77.7056 15.8719C77.0838 16.8111 76.2049 17.5533 75.1727 18.0106L79.3222 25.0867H75.695ZM72.7383 15.5474C73.4694 15.5218 74.1607 15.209 74.6612 14.6777C75.1616 14.1462 75.4305 13.4393 75.4092 12.711C75.4251 12.3491 75.3682 11.9878 75.2417 11.6482C75.1153 11.3084 74.922 10.9974 74.6732 10.7331C74.4245 10.469 74.125 10.2569 73.7928 10.1094C73.4604 9.96205 73.1019 9.8822 72.7383 9.87478H68.6578V15.5474H72.7383Z" fill="black"/>
<path d="M71.9697 18.3338H68.4608V24.8799H65.5039V6.92976H72.7285C73.4921 6.92584 74.2487 7.07275 74.9548 7.36176C75.6608 7.65093 76.3024 8.07653 76.8423 8.61413C77.3821 9.15173 77.8096 9.79042 78.0999 10.4935C78.3903 11.1967 78.5377 11.9501 78.5338 12.7103C78.523 13.8342 78.1772 14.9295 77.5402 15.8573C76.9032 16.785 76.0038 17.5036 74.956 17.9216L79.0563 24.9093H75.8037L71.9697 18.3338ZM68.4608 15.6839H72.7188C73.49 15.64 74.2154 15.304 74.7458 14.7447C75.2763 14.1855 75.572 13.4453 75.572 12.6759C75.572 11.9066 75.2763 11.1664 74.7458 10.6071C74.2154 10.0479 73.49 9.71173 72.7188 9.66795H68.4608V15.6839Z" fill="black"/>
<path d="M83.4609 25.0848V6.76172H94.638V9.93176H86.7726V14.2598H93.9973V17.4003H86.7726V21.9147H94.7759V25.0848H83.4609Z" fill="black"/>
<path d="M94.5988 22.0926V24.9191H83.6289V6.92969H94.4707V9.75616H86.5956V14.4376H93.8301V17.2346H86.5956V22.0926H94.5988Z" fill="black"/>
<path d="M99.4688 25.0867V6.75391H106.703C111.73 6.75391 115.515 10.6794 115.515 15.9203C115.545 18.3231 114.653 20.647 113.021 22.4172C112.207 23.2691 111.227 23.9455 110.14 24.4047C109.054 24.8639 107.884 25.096 106.703 25.0867H99.4688ZM106.733 21.9167C110.035 21.9167 112.341 19.4534 112.341 15.9203C112.341 12.3872 110.035 9.9238 106.733 9.9238H102.79V21.9167H106.733Z" fill="black"/>
<path d="M115.377 15.9195C115.377 20.9345 111.711 24.9092 106.733 24.9092H99.6367V6.92969H106.733C111.711 6.92969 115.377 10.8554 115.377 15.9195ZM112.509 15.9195C112.509 12.3471 110.163 9.75616 106.733 9.75616H102.604V22.0829H106.704C110.134 22.0829 112.479 19.4623 112.479 15.9195" fill="black"/>
</g>
<defs>
<clipPath id="clip0_10709_29291">
<rect width="116" height="36" fill="white"/>
</clipPath>
</defs>
</svg>
