<svg width="141" height="23" viewBox="0 0 141 23" fill="none" xmlns="http://www.w3.org/2000/svg">
<g clip-path="url(#clip0_8758_11392)">
<mask id="mask0_8758_11392" style="mask-type:luminance" maskUnits="userSpaceOnUse" x="0" y="0" width="141" height="23">
<path d="M140.891 0H0.44043V23H140.891V0Z" fill="white"/>
</mask>
<g mask="url(#mask0_8758_11392)">
<path d="M11.6285 22.4706C8.87077 22.4711 6.11335 22.4743 3.35568 22.4697C1.96107 22.4674 0.889545 21.7003 0.543811 20.4548C0.475897 20.2102 0.445028 19.9473 0.4448 19.693C0.439312 14.0277 0.440455 8.36246 0.440684 2.69728C0.440684 1.34095 1.59177 0.110413 2.94385 0.0213538C3.08745 0.0119429 3.23174 0.00964747 3.3758 0.00941791C8.8498 0.00735211 14.3237 0.00918844 19.7977 6.96359e-06C20.646 -0.00137026 21.3983 0.20131 22.0214 0.809581C22.5773 1.35244 22.8444 2.01579 22.845 2.77945C22.8512 8.45496 22.8553 14.1307 22.846 19.8062C22.8437 21.1694 21.6604 22.41 20.3019 22.4397C18.3374 22.4824 16.3719 22.4642 14.4067 22.47C13.4806 22.4727 12.5546 22.4702 11.6285 22.4706ZM11.6243 19.4614C11.7165 19.4614 11.8089 19.4617 11.901 19.4614C13.4445 19.4548 14.951 19.2144 16.4121 18.7152C17.4962 18.3448 18.5334 17.8701 19.4437 17.1615C19.6181 17.0258 19.776 16.8116 19.8391 16.6026C19.928 16.3083 19.8068 16.0322 19.5311 15.8579C19.2151 15.6583 18.9048 15.6927 18.6123 15.9087C17.7603 16.5379 16.8237 16.9986 15.8212 17.3288C14.1783 17.8703 12.4917 18.0257 10.7705 17.9293C8.53626 17.8042 6.46663 17.201 4.62521 15.8923C4.53558 15.8286 4.43016 15.7742 4.32406 15.749C3.97604 15.6658 3.63281 15.8401 3.48098 16.1609C3.31406 16.5135 3.40781 16.8532 3.78419 17.1284C6.12089 18.8371 8.79255 19.4259 11.6243 19.4614ZM12.3897 9.15459H12.3883C12.3883 7.47278 12.3888 5.7912 12.3874 4.10938C12.3874 3.95491 12.3837 3.79951 12.3685 3.64595C12.3186 3.15199 11.8345 2.85887 11.3758 3.04044C11.0278 3.17816 10.883 3.42009 10.883 3.87801C10.8826 7.36535 10.8828 10.8527 10.8842 14.34C10.8842 14.4739 10.8869 14.6095 10.9095 14.7408C10.9642 15.0594 11.2194 15.2937 11.5363 15.3326C11.864 15.3727 12.1736 15.2253 12.2948 14.9258C12.3618 14.7601 12.3851 14.5666 12.3858 14.3855C12.3922 12.6419 12.3897 10.8982 12.3897 9.15459ZM8.65036 9.12336C8.65036 7.47324 8.6531 5.82288 8.64876 4.17274C8.64739 3.69209 8.33709 3.36386 7.90515 3.36019C7.4668 3.35651 7.15079 3.67488 7.15033 4.1592C7.14668 7.4597 7.14759 10.7602 7.15536 14.0605C7.15582 14.2175 7.20178 14.3917 7.27929 14.5278C7.44737 14.8225 7.79333 14.9394 8.10592 14.8443C8.44822 14.7401 8.64922 14.4665 8.6499 14.0742C8.65287 12.4241 8.65059 10.7734 8.65036 9.12336ZM16.1287 9.11097C16.1287 9.02862 16.1287 8.9459 16.1287 8.86355C16.1286 7.29626 16.1306 5.72899 16.1265 4.16172C16.1251 3.70242 15.8203 3.37602 15.4014 3.36133C14.9745 3.34641 14.6653 3.64481 14.6288 4.11076C14.6208 4.21337 14.6228 4.31689 14.6228 4.41995C14.6232 7.53384 14.6239 10.6477 14.6255 13.7616C14.6255 13.9161 14.6203 14.073 14.6454 14.2243C14.6649 14.3414 14.7083 14.4651 14.7758 14.5615C14.9653 14.8324 15.2955 14.935 15.5919 14.837C15.9395 14.722 16.1267 14.461 16.1274 14.0605C16.1303 12.4108 16.1286 10.7606 16.1287 9.11097ZM18.3571 8.985H18.3555C18.3555 10.058 18.3548 11.1309 18.3558 12.2039C18.3562 12.7491 18.6608 13.1026 19.1203 13.0962C19.5795 13.0897 19.8656 12.7595 19.8676 12.2221C19.8706 11.469 19.8686 10.7157 19.8683 9.96259C19.8683 8.54908 19.8688 7.13559 19.8667 5.72211C19.866 5.29999 19.6934 5.01904 19.379 4.91116C18.8307 4.72294 18.3624 5.07941 18.3585 5.70374C18.3518 6.79725 18.3571 7.89126 18.3571 8.985ZM4.91058 8.96979H4.9067C4.9067 7.8864 4.90486 6.80322 4.90761 5.71981C4.90852 5.36104 4.8022 5.06541 4.45097 4.91667C3.93625 4.69861 3.41055 5.07849 3.40941 5.67551C3.40529 7.65641 3.40781 9.63732 3.40781 11.6182C3.40781 11.8762 3.39683 12.1349 3.41239 12.3917C3.42977 12.6808 3.57771 12.9011 3.84021 13.0248C4.10226 13.1483 4.36591 13.126 4.60051 12.9552C4.83512 12.7843 4.91309 12.5366 4.91196 12.2506C4.90784 11.1571 4.91058 10.0635 4.91058 8.96979Z" fill="#16100E"/>
<path d="M28.752 0H32.9735V4.52644H28.752V0ZM28.8159 7.06259H32.9094V22.4721H28.8159V7.06259Z" fill="#16100E"/>
<path d="M35.1382 7.0636H39.0718L39.1679 9.92067H39.2959C39.9675 8.15482 41.0551 6.58203 43.8692 6.58203C46.6834 6.58203 48.6983 7.86606 48.6983 11.9111V22.473H44.6048V12.6496C44.6048 11.1406 44.3169 9.82442 42.43 9.82442C39.7757 9.82442 39.2319 12.9705 39.2319 14.8325V22.473H35.1384L35.1382 7.0636Z" fill="#16100E"/>
<path d="M52.024 18.8139V10.146H49.3374V7.41722C52.8872 7.25655 53.2711 5.29815 53.463 2.60156H56.0532V7.06397H59.3156V10.146H56.1175V18.3002C56.1175 18.7494 56.3093 18.942 56.7574 18.942H59.3158V22.4734H55.3181C52.8556 22.4734 52.024 21.1574 52.024 18.8139Z" fill="#16100E"/>
<path d="M59.4755 14.8004C59.4755 10.2415 62.5458 6.58203 67.2789 6.58203C72.012 6.58203 74.8904 9.92066 74.8904 15.1215H63.7289C63.7289 17.8502 64.912 19.9688 67.4388 19.9688C69.7091 19.9688 70.6686 18.0428 70.8284 16.1489L74.6983 17.0155C73.9307 20.3544 71.4362 22.9546 67.4065 22.9546C62.5774 22.9546 59.4755 19.3911 59.4755 14.8004ZM70.7011 12.9383C70.3812 10.5305 68.9419 9.50312 67.2789 9.50312C65.6158 9.50312 64.1768 10.5947 63.8572 12.9383H70.7011Z" fill="#16100E"/>
<path d="M76.2651 7.06154H80.1989L80.2949 10.7534H80.423C80.9027 8.40983 82.086 6.80469 84.3884 6.80469C84.8364 6.80469 85.092 6.83683 85.4119 6.90132V10.9783C84.964 10.8819 84.6443 10.8177 84.0688 10.8177C81.1266 10.8177 80.3589 13.5466 80.3589 16.5001V22.4712H76.2654L76.2651 7.06154Z" fill="#16100E"/>
<path d="M85.3701 14.8004C85.3701 10.1132 88.3761 6.58203 93.2379 6.58203C97.4908 6.58203 99.8579 9.11813 100.465 12.2963L96.4677 13.6125C96.3073 11.1087 95.3159 9.56761 93.237 9.56761C91.3503 9.56761 89.8477 11.2049 89.8477 14.8004C89.8477 18.3958 91.4463 19.9688 93.3014 19.9688C95.4763 19.9688 96.5638 18.1068 96.851 15.5388L100.721 16.3091C100.177 20.2577 97.4908 22.9544 93.3014 22.9544C88.3443 22.9544 85.3701 19.4872 85.3701 14.8004Z" fill="#16100E"/>
<path d="M101.22 14.7682C101.22 10.1775 104.227 6.58203 108.991 6.58203C113.756 6.58203 116.762 10.1775 116.762 14.7682C116.762 19.3589 113.756 22.9544 108.991 22.9544C104.226 22.9544 101.22 19.3589 101.22 14.7682ZM112.286 14.7682C112.286 11.2689 111.006 9.56761 108.991 9.56761C106.976 9.56761 105.697 11.2689 105.697 14.7682C105.697 18.2674 106.977 19.9688 108.991 19.9688C111.006 19.9688 112.286 18.2674 112.286 14.7682Z" fill="#16100E"/>
<path d="M118.221 7.0636H122.155L122.251 9.92067H122.378C123.018 7.93033 124.233 6.58203 126.888 6.58203C129.126 6.58203 130.757 7.54493 131.269 9.95278H131.397C132.036 8.12291 133.188 6.58203 135.938 6.58203C138.689 6.58203 140.608 7.86606 140.608 11.9111V22.473H136.514V12.6496C136.514 11.1728 136.194 9.82442 134.467 9.82442C131.973 9.82442 131.461 12.9705 131.461 14.8325V22.473H127.367V12.6496C127.367 11.1728 127.047 9.82442 125.321 9.82442C122.826 9.82442 122.315 12.9705 122.315 14.8325V22.473H118.221V7.0636Z" fill="#16100E"/>
</g>
</g>
<defs>
<clipPath id="clip0_8758_11392">
<rect width="141" height="23" fill="white"/>
</clipPath>
</defs>
</svg>
