<svg width="92" height="38" viewBox="0 0 92 38" fill="none" xmlns="http://www.w3.org/2000/svg">
<path fill-rule="evenodd" clip-rule="evenodd" d="M91.3845 19.541C91.3845 13.0978 88.258 8.0138 82.2823 8.0138C76.3067 8.0138 72.6507 13.0978 72.6507 19.4907C72.6507 25.8835 76.937 30.892 83.0892 30.892C89.2413 30.892 88.3588 30.2125 90.0733 29.256V24.2223C88.3588 25.0781 86.3922 25.6066 83.896 25.6066C81.3998 25.6066 79.2819 24.7509 79.0045 21.781H91.334C91.334 21.4538 91.3845 20.145 91.3845 19.541ZM78.9289 17.15C78.9289 14.3059 80.6686 13.123 82.2571 13.123C83.8456 13.123 85.434 14.3059 85.434 17.15H78.9289ZM62.9182 8.0138C60.4473 8.0138 58.8588 9.17156 57.9763 9.97695L57.6486 8.4165H52.1016V37.763L58.405 36.4291V29.3064C59.3379 29.9608 60.6742 30.892 62.893 30.892C67.4063 30.892 71.5161 27.2677 71.5161 19.2893C71.4909 11.9904 67.3306 8.0138 62.9182 8.0138ZM61.4054 25.3549C59.9178 25.3549 59.0353 24.8264 58.4302 24.172V14.8345C59.0605 14.1046 59.9682 13.6012 61.4054 13.6012C63.6998 13.6012 65.2883 16.1684 65.2883 19.4655C65.2883 22.7626 63.7251 25.3549 61.4054 25.3549ZM43.4281 6.52886L49.7567 5.16976V0.0605469L43.4281 1.39448V6.52886ZM43.4281 8.44167H49.7567V30.4641H43.4281V8.44167ZM36.6456 10.3041L36.2422 8.44167H30.796V30.4641H37.0994V15.5392C38.587 13.6012 41.1084 13.9536 41.89 14.2304V8.44167C41.0832 8.13965 38.1332 7.58594 36.6456 10.3041ZM24.0387 2.9801L17.8866 4.28886V24.4489C17.8866 28.1738 20.6601 30.9172 24.3917 30.9172C28.1234 30.9172 27.9721 30.5396 28.8041 30.0866V24.9774C27.9973 25.3046 24.0135 26.4623 24.0135 22.7374V13.8026H28.8041V8.44167H24.0135L24.0387 2.9801ZM6.99429 14.8345C6.99429 13.8529 7.80113 13.4754 9.13746 13.4754C11.0537 13.4754 13.4742 14.0543 15.3904 15.0862V9.17156C13.2977 8.34099 11.2302 8.0138 9.13746 8.0138C4.01908 8.0138 0.615234 10.6817 0.615234 15.1365C0.615234 22.083 10.1964 20.9756 10.1964 23.9707C10.1964 26.9657 9.18788 25.5059 7.77592 25.5059C5.68318 25.5059 3.01053 24.6502 0.892584 23.4925V29.4826C3.23746 30.4893 5.60754 30.9172 7.77592 30.9172C13.0204 30.9172 16.6259 28.3248 16.6259 23.8196C16.6259 16.3194 6.99429 17.6534 6.99429 14.8345Z" fill="#FAF9F5"/>
</svg>
