<svg width="157" height="24" viewBox="0 0 157 24" fill="none" xmlns="http://www.w3.org/2000/svg">
<g clip-path="url(#clip0_8970_19218)">
<mask id="mask0_8970_19218" style="mask-type:luminance" maskUnits="userSpaceOnUse" x="0" y="0" width="157" height="24">
<path d="M157 0H0V24H157V0Z" fill="white"/>
</mask>
<g mask="url(#mask0_8970_19218)">
<path d="M22.7774 17.7714V13.5428L22.3231 13.2571L11.4171 19.2571L1.07923 13.5428V11.0857L11.4171 16.7429L22.8343 10.5143V6.34285L22.3799 6.05714L11.4171 12.1142L1.47685 6.62857L11.4171 1.14286L19.4262 5.54286L20.051 5.2V4.74286L11.4171 0L0 6.22858V6.85715L11.4171 13.1429L21.755 7.42858V9.94285L11.4171 15.6571L0.454414 9.6L0 9.88572V14.1143L11.4171 20.3429L21.755 14.6857V17.1428L11.4171 22.8571L0.454414 16.8571L0 17.1428V17.7714L11.4171 24L22.7774 17.7714Z" fill="#FF3621"/>
<path fill-rule="evenodd" clip-rule="evenodd" d="M44.4752 1.25781V20.5149H41.4079V19.0863C41.4079 18.9721 41.351 18.8578 41.2375 18.8578C41.1238 18.8007 41.0102 18.8578 40.9534 18.915C39.8742 20.115 38.2837 20.8578 36.5229 20.8578C34.7052 20.8578 33.0011 20.115 31.7515 18.8578C30.5019 17.5435 29.8203 15.772 29.8203 13.8292C29.8203 9.88638 32.774 6.80066 36.5229 6.80066C38.2837 6.80066 39.931 7.48638 40.9534 8.62923C41.0102 8.68638 41.1238 8.74352 41.2375 8.68638C41.351 8.62923 41.4079 8.5721 41.4079 8.45781V1.25781H44.4752ZM32.8876 13.8292C32.8876 16.2864 34.7621 18.172 37.2045 18.172C39.6469 18.172 41.5214 16.2864 41.5214 13.8292C41.5214 11.3721 39.6469 9.48638 37.2045 9.48638C34.8188 9.48638 32.8876 11.3721 32.8876 13.8292Z" fill="#1B3139"/>
<path fill-rule="evenodd" clip-rule="evenodd" d="M60.7212 7.08649V20.515H57.7106V19.0864C57.7106 18.9722 57.6539 18.858 57.5402 18.858C57.4266 18.8007 57.313 18.858 57.2562 18.9151C56.177 20.1722 54.5866 20.8579 52.8256 20.8579C49.0768 20.8579 46.123 17.7722 46.123 13.8294C46.123 9.8865 49.0768 6.80078 52.8256 6.80078C54.6433 6.80078 56.2337 7.42935 57.2562 8.62935C57.313 8.6865 57.4266 8.74364 57.5402 8.6865C57.6539 8.62935 57.7106 8.57221 57.7106 8.45792V7.08649H60.7212ZM49.1903 13.8294C49.1903 16.2865 51.0648 18.1722 53.5072 18.1722C55.9498 18.1722 57.8243 16.2865 57.8243 13.8294C57.8243 11.3722 55.9498 9.48649 53.5072 9.48649C51.1216 9.48649 49.1903 11.3722 49.1903 13.8294Z" fill="#1B3139"/>
<path fill-rule="evenodd" clip-rule="evenodd" d="M86.5649 7.08649V20.515H83.5544V19.0864C83.5544 18.9722 83.4976 18.858 83.384 18.858C83.2703 18.8007 83.1568 18.858 83.0999 18.9151C82.0207 20.1722 80.4303 20.8579 78.6694 20.8579C74.9204 20.8579 71.9668 17.7722 71.9668 13.8294C71.9668 9.8865 74.9204 6.80078 78.6694 6.80078C80.4871 6.80078 82.0775 7.42935 83.0999 8.62935C83.1568 8.6865 83.2703 8.74364 83.384 8.6865C83.4976 8.62935 83.5544 8.57221 83.5544 8.45792V7.08649H86.5649ZM75.0341 13.8294C75.0341 16.2865 76.9085 18.1722 79.351 18.1722C81.7935 18.1722 83.668 16.2865 83.668 13.8294C83.668 11.3722 81.7935 9.48649 79.351 9.48649C76.9085 9.48649 75.0341 11.3722 75.0341 13.8294Z" fill="#1B3139"/>
<path fill-rule="evenodd" clip-rule="evenodd" d="M92.2459 18.915C92.1891 18.915 92.1891 18.915 92.1322 18.915C92.0187 18.9721 91.9618 19.0292 91.9618 19.1436V20.5149H88.8945V1.25781H91.9618V8.51496C91.9618 8.62923 92.0187 8.74352 92.1322 8.74352C92.2459 8.80066 92.3595 8.74352 92.4163 8.68638C93.4955 7.48638 95.086 6.74353 96.8468 6.74353C98.6645 6.74353 100.369 7.48638 101.618 8.74352C102.868 10.0578 103.549 11.8292 103.549 13.7721C103.549 17.715 100.596 20.8006 96.8468 20.8006C95.086 20.8006 93.4387 20.115 92.4163 18.9721C92.3595 18.9721 92.3026 18.915 92.2459 18.915ZM96.1652 9.48638C93.7228 9.48638 91.8483 11.3721 91.8483 13.8292C91.8483 16.2864 93.7228 18.172 96.1652 18.172C98.6076 18.172 100.482 16.2864 100.482 13.8292C100.482 11.3721 98.5509 9.48638 96.1652 9.48638Z" fill="#1B3139"/>
<path d="M112.354 9.82935C112.638 9.82935 112.922 9.82935 113.092 9.8865V6.85793C112.979 6.85793 112.808 6.80078 112.581 6.80078C110.991 6.80078 109.514 7.60077 108.775 8.85792C108.719 8.97221 108.605 9.02935 108.491 8.97221C108.378 8.91506 108.321 8.85792 108.321 8.74364V7.08649H105.311V20.515H108.378V14.6294C108.264 11.6579 109.855 9.82935 112.354 9.82935Z" fill="#1B3139"/>
<path d="M118.034 7.08594H114.967V20.5146H118.034V7.08594Z" fill="#1B3139"/>
<path d="M116.501 1.25781C115.479 1.25781 114.627 2.0578 114.627 3.08638C114.627 4.11495 115.479 4.91496 116.501 4.91496C117.524 4.91496 118.376 4.11495 118.376 3.08638C118.376 2.11495 117.524 1.25781 116.501 1.25781Z" fill="#1B3139"/>
<path d="M127.122 6.80078C122.919 6.80078 119.852 9.77221 119.852 13.8294C119.852 15.8294 120.59 17.6007 121.896 18.858C123.203 20.1151 125.077 20.8579 127.122 20.8579C128.826 20.8579 130.189 20.515 132.689 18.7436L130.985 16.9722C129.735 17.7722 128.599 18.1722 127.463 18.1722C124.907 18.1722 122.976 16.2865 122.976 13.8294C122.976 11.3722 124.907 9.48649 127.463 9.48649C128.655 9.48649 129.792 9.8865 130.928 10.6865L132.859 8.91506C130.53 6.97221 128.485 6.80078 127.122 6.80078Z" fill="#1B3139"/>
<path d="M137.971 14.6293C138.028 14.572 138.085 14.572 138.142 14.572C138.198 14.572 138.255 14.6293 138.312 14.6864L143.197 20.572H146.946L140.64 13.1436C140.527 13.0292 140.584 12.915 140.64 12.8007L146.435 7.14353H142.743L137.744 12.0007C137.688 12.0578 137.574 12.1149 137.46 12.0578C137.346 12.0007 137.289 11.9435 137.289 11.8292V1.25781H134.223V20.5149H137.289V15.315C137.289 15.2578 137.346 15.2007 137.346 15.1435L137.971 14.6293Z" fill="#1B3139"/>
<path d="M152.001 20.8579C154.5 20.8579 157.057 19.3722 157.057 16.5722C157.057 14.7436 155.863 13.4865 153.421 12.6865L151.774 12.1722C150.638 11.8293 150.127 11.3151 150.127 10.5722C150.127 9.77221 150.865 9.20078 151.944 9.20078C152.966 9.20078 153.876 9.82935 154.443 10.9722L156.886 9.71506C155.977 7.88649 154.103 6.80078 151.944 6.80078C149.217 6.80078 147.23 8.51507 147.23 10.8579C147.23 12.7436 148.366 14.0007 150.694 14.6865L152.399 15.2007C153.592 15.5437 154.103 16.0008 154.103 16.8008C154.103 17.9437 153.024 18.3436 152.115 18.3436C150.865 18.3436 149.786 17.5436 149.217 16.2865L146.719 17.5436C147.513 19.6008 149.558 20.8579 152.001 20.8579Z" fill="#1B3139"/>
<path d="M69.1851 20.744C70.1508 20.744 71.0028 20.6869 71.514 20.5727V18.0012C71.1163 18.0583 70.4347 18.1156 69.9804 18.1156C68.7307 18.1156 67.8219 17.887 67.8219 15.3155V9.82979C67.8219 9.71552 67.9355 9.60123 68.1059 9.60123H71.0596V7.20123H68.1059C67.9355 7.20123 67.8219 7.08694 67.8219 6.97265V2.97266H64.8113V6.85836C64.8113 6.97265 64.6978 7.08694 64.5274 7.08694H62.4258V9.48694H64.5274C64.6978 9.48694 64.8113 9.60123 64.8113 9.71552V15.944C64.7546 20.744 67.9923 20.744 69.1851 20.744Z" fill="#1B3139"/>
</g>
</g>
<defs>
<clipPath id="clip0_8970_19218">
<rect width="157" height="24" fill="white"/>
</clipPath>
</defs>
</svg>
