<svg width="107" height="48" viewBox="0 0 107 48" fill="none" xmlns="http://www.w3.org/2000/svg">
<g clip-path="url(#clip0_10789_57674)">
<path d="M3.80081 38.7477L1.86866 44.8446C1.77107 45.1525 2.07566 45.4349 2.37364 45.3128L11.2704 41.6661C11.4839 41.5786 11.7144 41.541 11.9445 41.5564L100.877 47.4851C101.695 47.5397 102.41 46.9306 102.488 46.1102L106.677 2.27885C106.767 1.3437 106 0.550874 105.067 0.612772L1.79486 7.45926C0.926357 7.51683 0.283905 8.2944 0.388028 9.16206L3.86136 38.1034C3.88736 38.3201 3.86671 38.5398 3.80081 38.7477Z" fill="#5E29BA"/>
<path d="M25.0594 30.6096C26.1245 29.8423 26.6639 28.7965 26.6639 27.5022V27.195C26.6639 26.325 26.4012 25.5748 25.8827 24.9665C25.3704 24.3635 24.6676 23.9142 23.7938 23.6322L18.4611 21.9169C18.1133 21.8058 17.8297 21.646 17.6189 21.4421C17.4216 21.2508 17.3261 21.0629 17.3261 20.8677V20.5203C17.3261 19.3098 18.3615 18.7023 20.4883 18.6628H20.6785C22.8097 18.6628 23.9048 19.2036 24.0264 20.3158L24.0443 20.4803H26.3252L26.3168 20.2886C26.2061 17.7605 24.3089 16.4785 20.6785 16.4785H20.4428C16.8784 16.521 15.0704 17.8806 15.0704 20.5203V20.8677C15.0704 21.6034 15.3092 22.2509 15.7794 22.7922C16.2442 23.3282 16.9223 23.7352 17.7928 24.0014L23.0639 25.717C23.9686 26.0049 24.4087 26.4887 24.4087 27.195V27.5022C24.4087 28.1315 24.0945 28.6173 23.4479 28.987C22.779 29.3691 21.8325 29.5633 20.6357 29.5633C19.4393 29.5633 18.5045 29.3691 17.8565 28.9878C17.2302 28.6192 16.9261 28.1328 16.9261 27.5022V27.2772H14.6484V27.5022C14.6484 28.7965 15.1884 29.8423 16.254 30.6096C17.3041 31.3656 18.778 31.7482 20.6357 31.7482C22.522 31.7482 24.0101 31.3656 25.0594 30.6096Z" fill="#FAF9F5"/>
<path d="M68.777 31.6992H66.4801V25.1883H59.4604V31.6992H57.1621V16.8203H59.4604V23.0239H66.4801V16.8203H68.777V31.6992Z" fill="#FAF9F5"/>
<path fill-rule="evenodd" clip-rule="evenodd" d="M91.2051 26.8739C91.2051 28.3461 90.7475 29.5495 89.8445 30.4524C88.9399 31.3571 87.6954 31.8154 86.1458 31.8154C84.6113 31.8154 83.3767 31.3563 82.4782 30.4516C81.5835 29.5495 81.1289 28.3461 81.1289 26.8739V16.8519L83.3425 16.8516V21.6709C84.0338 20.978 84.9741 20.6277 86.1458 20.6277C89.503 20.6277 91.2051 22.3244 91.2051 25.6699V26.8739ZM86.1458 22.7102C85.2328 22.7102 84.5294 22.9398 84.0551 23.392C83.5831 23.8434 83.3425 24.6102 83.3425 25.6699V26.8739C83.3425 27.7607 83.5846 28.4446 84.0824 28.9647C84.5696 29.4739 85.264 29.7319 86.1458 29.7319C87.0283 29.7319 87.7265 29.4739 88.2197 28.9642C88.7183 28.4504 88.9703 27.7473 88.9703 26.8739V25.6699C88.9703 24.6115 88.7305 23.8447 88.2577 23.3918C87.7834 22.9398 87.0731 22.7102 86.1458 22.7102Z" fill="#FAF9F5"/>
<path d="M78.3628 30.6352C79.0382 29.8615 79.3797 28.5581 79.3797 26.7616V20.9062H77.2032V26.7616C77.2032 27.8747 77.034 28.6606 76.7001 29.0968C76.3837 29.5125 75.8131 29.724 75.0043 29.728H74.9031C74.0931 29.724 73.5222 29.5125 73.2058 29.0968C72.8726 28.6606 72.7035 27.8747 72.7035 26.7616V20.9062H70.5273V26.7616C70.5273 28.5581 70.8693 29.862 71.5435 30.6352C72.195 31.381 73.2565 31.7764 74.6993 31.8119L75.0254 31.8177L75.2152 31.8151V31.8119C76.6553 31.7744 77.714 31.3789 78.3628 30.6352Z" fill="#FAF9F5"/>
<path fill-rule="evenodd" clip-rule="evenodd" d="M55.4305 26.8736C55.4305 28.3458 54.9722 29.5492 54.0692 30.4521C53.1639 31.3568 51.9195 31.8151 50.3707 31.8151C48.8357 31.8151 47.6014 31.356 46.7024 30.4521C45.8072 29.5488 45.3535 28.3445 45.3535 26.8736V16.8516H47.5672V21.6708C48.2586 20.978 49.1991 20.6274 50.3707 20.6274C53.7278 20.6274 55.4305 22.3241 55.4305 25.6696V26.8736ZM50.3707 22.7098C49.4574 22.7098 48.7535 22.9395 48.2792 23.3917C47.8073 23.8431 47.5672 24.6101 47.5672 25.6696V26.8736C47.5672 27.747 47.816 28.4506 48.3069 28.9644C48.7944 29.4736 49.4889 29.7316 50.3707 29.7316C51.2654 29.7316 51.9434 29.4807 52.4449 28.9639C52.9496 28.443 53.1949 27.7596 53.1949 26.8736V25.6696C53.1949 24.6106 52.9553 23.8436 52.4821 23.3914C52.0088 22.9395 51.2985 22.7098 50.3707 22.7098Z" fill="#FAF9F5"/>
<path d="M42.5884 30.637C43.2627 29.8618 43.6049 28.5588 43.6049 26.7634V20.9082H41.4278V26.7634C41.4278 27.8777 41.2588 28.6636 40.9262 29.0985C40.6092 29.5142 40.0378 29.7265 39.2283 29.7297H39.1295C38.3193 29.7265 37.7476 29.5142 37.4309 29.0985C37.0972 28.6618 36.9282 27.8759 36.9282 26.7634V20.9082H34.752V26.7634C34.752 28.5593 35.0941 29.8623 35.7687 30.637C36.4188 31.3827 37.4798 31.7781 38.9244 31.8137L39.2492 31.8194L39.4395 31.8168V31.8137C40.8806 31.7761 41.9396 31.3806 42.5884 30.637Z" fill="#FAF9F5"/>
<path d="M33.0018 23.0887H30.6286L30.6299 25.6641L30.6286 25.7027V26.9072C30.6286 27.7793 30.8776 28.4825 31.3688 28.9975C31.7476 29.3916 32.2289 29.6281 32.8413 29.7214L33.0018 29.7458V31.8374L32.7944 31.8183C31.5522 31.7071 30.5325 31.2586 29.7649 30.4845C28.87 29.5824 28.416 28.379 28.416 26.9072V16.8516H30.6286L30.6327 20.9028H33.0018V23.0887Z" fill="#FAF9F5"/>
</g>
<defs>
<clipPath id="clip0_10789_57674">
<rect width="107" height="48" fill="white"/>
</clipPath>
</defs>
</svg>
