<svg width="162" height="24" viewBox="0 0 162 24" fill="none" xmlns="http://www.w3.org/2000/svg">
<g clip-path="url(#clip0_9113_19321)">
<path fill-rule="evenodd" clip-rule="evenodd" d="M39.3123 2.43766C40.7346 4.73952 40.05 7.78645 37.7585 9.22326C36.2322 10.1822 34.3955 10.1689 32.9124 9.40634L32.9116 9.40753L32.8879 9.39716L32.863 9.3865C32.7276 9.32932 32.586 9.28577 32.3386 9.24815C32.0696 9.20697 31.7657 9.2363 31.4268 9.33495L31.4102 9.33998C31.2451 9.39923 31.0819 9.47893 30.9255 9.57995C29.9479 10.1991 29.6413 11.4961 30.2355 12.4773L32.506 16.1525C33.9283 18.4544 33.2436 21.5013 30.9519 22.9382C28.6737 24.375 25.6579 23.6832 24.2353 21.368L22.0096 17.7627C21.3907 16.7646 20.0869 16.4586 19.1122 17.0843C18.8128 17.2743 18.5657 17.5363 18.3932 17.8462C18.2208 18.1561 18.1285 18.5042 18.1248 18.8588V18.8801C18.1248 20.5302 17.3211 22.1401 15.833 23.0715C13.5549 24.5083 10.5391 23.8165 9.11646 21.5013L0.740584 7.95679C-0.681712 5.65463 0.0029216 2.608 2.29442 1.17059C4.57287 -0.266218 7.5887 0.425526 9.01099 2.74072L11.2501 6.35971C11.8627 7.3477 13.1466 7.65728 14.1178 7.05679L14.1474 7.03812C14.7665 6.6524 15.1087 5.98703 15.1351 5.30861C15.1087 3.63184 15.9252 1.99565 17.4266 1.05091C19.7047 -0.385903 22.7209 0.305841 24.1431 2.62103L26.3952 6.26639C27.0144 7.26446 28.3179 7.57048 29.2926 6.9451C29.5222 6.79934 29.7355 6.54812 29.9325 6.19114C29.8557 6.33631 29.8626 6.32209 29.9532 6.1473C30.0889 5.88571 30.1763 5.67833 30.2154 5.52606C30.2533 5.37853 30.2809 5.23574 30.2983 5.09828C30.4767 3.21353 31.113 1.81138 32.5958 0.867235C34.8739 -0.569578 37.89 0.122166 39.3123 2.43736V2.43766Z" fill="#67EADD"/>
</g>
<g clip-path="url(#clip1_9113_19321)">
<path d="M55.9861 23.5441L59.7126 12.7355L63.6033 23.5441H66.3825L71.973 8.2941H68.3771L64.8134 18.5809L61.2824 8.29443H58.1438L54.6128 18.5806L51.0819 8.29443H47.4854L53.2396 23.5444H55.9857L55.9861 23.5441ZM80.4957 23.8707C84.844 23.8707 88.5057 20.7033 88.5057 15.8701C88.5057 11.0376 84.844 7.96783 80.4957 7.96783C76.1802 7.96783 72.5509 11.0373 72.5509 15.8701C72.5509 20.7033 76.1802 23.8707 80.4957 23.8707ZM80.4957 20.6054C77.9783 20.6054 75.8857 18.7437 75.8857 15.8701C75.8857 13.0621 77.9783 11.2659 80.4957 11.2659C83.0459 11.2659 85.1382 13.0621 85.1382 15.8701C85.1382 18.7437 83.0459 20.6054 80.4957 20.6054ZM94.5107 23.5441V18.0581C94.5107 14.0088 95.7204 11.1352 98.5972 11.1352C99.2514 11.1352 100.003 11.2332 100.853 11.6577L101.409 8.55551C100.919 8.22891 99.7746 7.96783 98.6955 7.96783C96.7991 7.96783 95.2952 9.07801 94.5107 11.7884V8.29443H91.1432V23.5444L94.5107 23.5441ZM106.433 23.5441V17.497L112.106 23.5441H116.519L109.277 15.9622L116.519 8.29443H112.106L106.433 14.3623V0H103.098V23.5441H106.433ZM124.404 23.8707C126.301 23.8707 128.524 23.0216 129.537 21.3562V23.5441H132.872V8.2941H129.537V10.4496C128.491 8.71898 126.235 7.96783 124.404 7.96783C120.285 7.96783 116.656 11.0373 116.656 15.9029C116.656 20.7685 120.285 23.8707 124.404 23.8707H124.404ZM124.797 20.6054C122.246 20.6054 120.121 18.6788 120.121 15.8701C120.121 13.0621 122.246 11.2332 124.796 11.2332C127.085 11.2332 129.504 12.8659 129.504 15.8701C129.504 18.8744 127.281 20.6054 124.796 20.6054H124.797ZM141.067 23.5441V11.07H144.304V8.29443H141.067V2.51453H137.7V8.2941H134.953V11.07H137.7V23.5441H141.067ZM153.121 23.8707C157.469 23.8707 161.131 20.7033 161.131 15.8701C161.131 11.0376 157.469 7.96783 153.121 7.96783C148.805 7.96783 145.176 11.0373 145.176 15.8701C145.176 20.7033 148.805 23.8707 153.121 23.8707ZM153.121 20.6054C150.603 20.6054 148.511 18.7437 148.511 15.8701C148.511 13.0621 150.603 11.2659 153.121 11.2659C155.671 11.2659 157.763 13.0621 157.763 15.8701C157.763 18.7437 155.671 20.6054 153.121 20.6054Z" fill="black"/>
</g>
<defs>
<clipPath id="clip0_9113_19321">
<rect width="40.29" height="23.9963" fill="white" transform="translate(0 0.00195312)"/>
</clipPath>
<clipPath id="clip1_9113_19321">
<rect width="113.84" height="24.0005" fill="white" transform="translate(47.29)"/>
</clipPath>
</defs>
</svg>
