<svg width="61" height="36" viewBox="0 0 61 36" fill="none" xmlns="http://www.w3.org/2000/svg">
<g clip-path="url(#clip0_10789_57437)">
<mask id="mask0_10789_57437" style="mask-type:luminance" maskUnits="userSpaceOnUse" x="0" y="0" width="61" height="36">
<path d="M60.652 0H0V36H60.652V0Z" fill="white"/>
</mask>
<g mask="url(#mask0_10789_57437)">
<path d="M17.078 13.0469C17.078 13.7969 17.1788 14.3969 17.2795 14.8469C17.4306 15.2969 17.6322 15.7469 17.9344 16.2969C18.0352 16.4468 18.0855 16.5969 18.0855 16.7469C18.0855 16.9469 17.9848 17.1469 17.6825 17.3468L16.4231 18.1969C16.2217 18.2969 16.0705 18.3969 15.9194 18.3969C15.7179 18.3969 15.5164 18.2969 15.3149 18.0969C15.0126 17.7968 14.8112 17.4969 14.6096 17.1469C14.4081 16.7969 14.2066 16.4468 14.0051 15.9469C12.4434 17.7968 10.4788 18.6968 8.06082 18.6968C6.34806 18.6968 5.0383 18.1969 4.0308 17.2469C3.02328 16.2969 2.51953 14.9969 2.51953 13.3969C2.51953 11.6969 3.12404 10.2969 4.33304 9.29692C5.54206 8.29685 7.20445 7.74688 9.2698 7.74688C9.97509 7.74688 10.6804 7.79688 11.3856 7.89688C12.1413 7.99687 12.8968 8.14688 13.7029 8.34684V6.89688C13.7029 5.39687 13.4007 4.29688 12.7457 3.69688C12.0909 3.09687 11.0329 2.79688 9.47135 2.79688C8.76605 2.79688 8.06082 2.89688 7.3052 3.04687C6.54956 3.24688 5.84431 3.44688 5.13905 3.74688C4.8368 3.84688 4.58493 3.94687 4.43379 3.99687C4.28267 3.99687 4.18192 4.04687 4.13155 4.04687C3.82929 4.04687 3.72854 3.84688 3.72854 3.44688V2.44688C3.72854 2.14687 3.77892 1.89688 3.87967 1.74687C3.98042 1.59688 4.18192 1.44688 4.43379 1.34687C5.13905 0.996879 5.99544 0.696875 6.95257 0.446875C7.96007 0.196875 8.9676 0.046875 10.0758 0.046875C12.4939 0.046875 14.2066 0.596875 15.3653 1.64688C16.4735 2.74687 17.0277 4.34688 17.0277 6.59688L17.078 13.0469ZM8.91724 16.0969C9.57208 16.0969 10.2774 15.9968 10.9826 15.7469C11.6879 15.4969 12.3427 15.0469 12.8968 14.4469C13.1991 14.0469 13.451 13.6469 13.6021 13.1469C13.7029 12.6469 13.8036 12.0969 13.8036 11.3969V10.5469C13.1991 10.3969 12.5946 10.2969 11.9397 10.1968C11.2849 10.0969 10.6804 10.0969 10.0255 10.0969C8.66532 10.0969 7.7082 10.3469 7.00294 10.8969C6.34806 11.4469 5.99543 12.1969 5.99543 13.1969C5.99543 14.1469 6.24731 14.8469 6.75107 15.2969C7.25482 15.8969 7.96007 16.0969 8.91724 16.0969ZM25.0877 18.2969C24.7351 18.2969 24.4832 18.2468 24.3321 18.0969C24.1809 17.9969 24.0298 17.6969 23.9291 17.2969L19.1938 1.79687C19.093 1.39687 18.9923 1.14688 18.9923 0.996871C18.9923 0.696875 19.1434 0.496875 19.496 0.496875H21.4606C21.8637 0.496875 22.1156 0.546875 22.2667 0.696875C22.4178 0.796875 22.569 1.09688 22.6697 1.49688L26.0448 14.7469L29.1681 1.49688C29.2689 1.09688 29.3696 0.846874 29.5711 0.696875C29.7223 0.596875 30.0245 0.496875 30.3771 0.496875H31.9892C32.3921 0.496875 32.644 0.546875 32.7951 0.696875C32.9463 0.796875 33.0974 1.09688 33.1981 1.49688L36.3718 14.8969L39.8477 1.49688C39.9484 1.09688 40.0995 0.846874 40.2507 0.696875C40.4018 0.596875 40.6537 0.496875 41.0567 0.496875H42.9206C43.2228 0.496875 43.4244 0.646875 43.4244 0.996871C43.4244 1.09688 43.4244 1.19688 43.374 1.29687C43.374 1.39687 43.3236 1.59688 43.2228 1.79687L38.3364 17.2969C38.2357 17.6969 38.0846 17.9469 37.9335 18.0969C37.7823 18.1969 37.5304 18.2969 37.1778 18.2969H35.465C35.062 18.2969 34.8102 18.2468 34.659 18.0969C34.5079 17.9469 34.3568 17.6969 34.2561 17.2969L31.1328 4.39687L28.0095 17.2969C27.9088 17.6969 27.8079 17.9469 27.6065 18.0969C27.4554 18.2468 27.1531 18.2969 26.8005 18.2969H25.0877ZM51.0311 18.7969C49.9731 18.7969 48.9153 18.6968 47.9078 18.4469C46.9002 18.1969 46.0943 17.9469 45.5905 17.6469C45.2882 17.4469 45.0363 17.2469 44.986 17.0969C44.9356 16.9469 44.8349 16.6969 44.8349 16.5469V15.5468C44.8349 15.1469 44.986 14.9469 45.2882 14.9469C45.389 14.9469 45.5401 14.9469 45.6409 14.9969C45.7416 15.0469 45.9431 15.0968 46.1446 15.1969C46.8498 15.4969 47.5551 15.7469 48.3612 15.8969C49.1671 16.0469 49.9731 16.1469 50.7791 16.1469C52.0386 16.1469 53.046 15.9469 53.7009 15.4969C54.4062 15.0469 54.7588 14.3969 54.7588 13.5969C54.7588 13.0469 54.5573 12.5969 54.2046 12.1969C53.8521 11.7969 53.1468 11.4968 52.1896 11.1469L49.2679 10.2469C47.807 9.79691 46.6987 9.09687 46.0439 8.19687C45.389 7.29688 45.0363 6.34687 45.0363 5.29687C45.0363 4.44687 45.2379 3.69688 45.5905 3.09687C45.9431 2.49688 46.4468 1.89688 47.0514 1.44688C47.6559 0.996879 48.3612 0.646875 49.1671 0.396875C49.9731 0.146875 50.8295 0.046875 51.6859 0.046875C52.1393 0.046875 52.5927 0.046875 53.046 0.146875C53.4994 0.196875 53.9528 0.296875 54.3558 0.346875C54.7588 0.446875 55.1618 0.546875 55.5144 0.646875C55.867 0.746875 56.1693 0.896873 56.3708 0.996871C56.6731 1.14688 56.8745 1.29687 56.9753 1.49688C57.0761 1.64688 57.1768 1.89688 57.1768 2.14687V3.09687C57.1768 3.49687 57.0257 3.74688 56.7234 3.74688C56.5723 3.74688 56.3204 3.64687 55.9678 3.49687C54.8092 2.99688 53.5498 2.69687 52.0889 2.69687C50.9302 2.69687 50.0235 2.89688 49.419 3.24688C48.8145 3.59687 48.4619 4.19688 48.4619 5.04688C48.4619 5.59688 48.6634 6.09688 49.0664 6.44688C49.4694 6.84688 50.225 7.19687 51.2829 7.54687L54.1543 8.44691C55.6152 8.89691 56.6731 9.54687 57.2775 10.3469C57.8821 11.1469 58.1843 12.0969 58.1843 13.1469C58.1843 13.9969 57.9828 14.7969 57.6806 15.4469C57.3279 16.1469 56.8242 16.7469 56.2197 17.1969C55.6152 17.6969 54.8596 18.0469 54.0032 18.2969C52.9957 18.6968 52.0385 18.7969 51.0311 18.7969Z" fill="#FAF9F5"/>
<path fill-rule="evenodd" clip-rule="evenodd" d="M54.8581 28.5457C48.2086 33.3957 38.5365 35.9956 30.275 35.9956C18.6382 35.9956 8.16016 31.7457 0.251224 24.6456C-0.35328 24.0957 0.200848 23.3456 0.956477 23.7456C9.5203 28.6956 20.0487 31.6457 30.9802 31.6457C38.335 31.6457 46.4454 30.1456 53.901 26.9956C54.9589 26.5456 55.916 27.7457 54.8581 28.5457Z" fill="#FAF9F5"/>
<path fill-rule="evenodd" clip-rule="evenodd" d="M57.5779 25.4478C56.7216 24.3478 51.9862 24.9478 49.8201 25.1978C49.1652 25.2978 49.0645 24.6978 49.669 24.2978C53.4472 21.6478 59.6937 22.3977 60.399 23.2977C61.1042 24.1977 60.1975 30.3978 56.6712 33.3478C56.1171 33.7978 55.6133 33.5478 55.8652 32.9478C56.6712 30.9477 58.4343 26.4978 57.5779 25.4478Z" fill="#FAF9F5"/>
<path d="M17.078 13.0469C17.078 13.7969 17.1788 14.3969 17.2795 14.8469C17.4306 15.2969 17.6322 15.7469 17.9344 16.2969C18.0352 16.4468 18.0855 16.5969 18.0855 16.7469C18.0855 16.9469 17.9848 17.1469 17.6825 17.3468L16.4231 18.1969C16.2217 18.2969 16.0705 18.3969 15.9194 18.3969C15.7179 18.3969 15.5164 18.2969 15.3149 18.0969C15.0126 17.7968 14.8112 17.4969 14.6096 17.1469C14.4081 16.7969 14.2066 16.4468 14.0051 15.9469C12.4434 17.7968 10.4788 18.6968 8.06082 18.6968C6.34806 18.6968 5.0383 18.1969 4.0308 17.2469C3.02328 16.2969 2.51953 14.9969 2.51953 13.3969C2.51953 11.6969 3.12404 10.2969 4.33304 9.29692C5.54206 8.29685 7.20445 7.74688 9.2698 7.74688C9.97509 7.74688 10.6804 7.79688 11.3856 7.89688C12.1413 7.99687 12.8968 8.14688 13.7029 8.34684V6.89688C13.7029 5.39687 13.4007 4.29688 12.7457 3.69688C12.0909 3.09687 11.0329 2.79688 9.47135 2.79688C8.76605 2.79688 8.06082 2.89688 7.3052 3.04687C6.54956 3.24688 5.84431 3.44688 5.13905 3.74688C4.8368 3.84688 4.58493 3.94687 4.43379 3.99687C4.28267 3.99687 4.18192 4.04687 4.13155 4.04687C3.82929 4.04687 3.72854 3.84688 3.72854 3.44688V2.44688C3.72854 2.14687 3.77892 1.89688 3.87967 1.74687C3.98042 1.59688 4.18192 1.44688 4.43379 1.34687C5.13905 0.996879 5.99544 0.696875 6.95257 0.446875C7.96007 0.196875 8.9676 0.046875 10.0758 0.046875C12.4939 0.046875 14.2066 0.596875 15.3653 1.64688C16.4735 2.74687 17.0277 4.34688 17.0277 6.59688L17.078 13.0469ZM8.91724 16.0969C9.57208 16.0969 10.2774 15.9968 10.9826 15.7469C11.6879 15.4969 12.3427 15.0469 12.8968 14.4469C13.1991 14.0469 13.451 13.6469 13.6021 13.1469C13.7029 12.6469 13.8036 12.0969 13.8036 11.3969V10.5469C13.1991 10.3969 12.5946 10.2969 11.9397 10.1968C11.2849 10.0969 10.6804 10.0969 10.0255 10.0969C8.66532 10.0969 7.7082 10.3469 7.00294 10.8969C6.34806 11.4469 5.99543 12.1969 5.99543 13.1969C5.99543 14.1469 6.24731 14.8469 6.75107 15.2969C7.25482 15.8969 7.96007 16.0969 8.91724 16.0969ZM25.0877 18.2969C24.7351 18.2969 24.4832 18.2468 24.3321 18.0969C24.1809 17.9969 24.0298 17.6969 23.9291 17.2969L19.1938 1.79687C19.093 1.39687 18.9923 1.14688 18.9923 0.996871C18.9923 0.696875 19.1434 0.496875 19.496 0.496875H21.4606C21.8637 0.496875 22.1156 0.546875 22.2667 0.696875C22.4178 0.796875 22.569 1.09688 22.6697 1.49688L26.0448 14.7469L29.1681 1.49688C29.2689 1.09688 29.3696 0.846874 29.5711 0.696875C29.7223 0.596875 30.0245 0.496875 30.3771 0.496875H31.9892C32.3921 0.496875 32.644 0.546875 32.7951 0.696875C32.9463 0.796875 33.0974 1.09688 33.1981 1.49688L36.3718 14.8969L39.8477 1.49688C39.9484 1.09688 40.0995 0.846874 40.2507 0.696875C40.4018 0.596875 40.6537 0.496875 41.0567 0.496875H42.9206C43.2228 0.496875 43.4244 0.646875 43.4244 0.996871C43.4244 1.09688 43.4244 1.19688 43.374 1.29687C43.374 1.39687 43.3236 1.59688 43.2228 1.79687L38.3364 17.2969C38.2357 17.6969 38.0846 17.9469 37.9335 18.0969C37.7823 18.1969 37.5304 18.2969 37.1778 18.2969H35.465C35.062 18.2969 34.8102 18.2468 34.659 18.0969C34.5079 17.9469 34.3568 17.6969 34.2561 17.2969L31.1328 4.39687L28.0095 17.2969C27.9088 17.6969 27.8079 17.9469 27.6065 18.0969C27.4554 18.2468 27.1531 18.2969 26.8005 18.2969H25.0877ZM51.0311 18.7969C49.9731 18.7969 48.9153 18.6968 47.9078 18.4469C46.9002 18.1969 46.0943 17.9469 45.5905 17.6469C45.2882 17.4469 45.0363 17.2469 44.986 17.0969C44.9356 16.9469 44.8349 16.6969 44.8349 16.5469V15.5468C44.8349 15.1469 44.986 14.9469 45.2882 14.9469C45.389 14.9469 45.5401 14.9469 45.6409 14.9969C45.7416 15.0469 45.9431 15.0968 46.1446 15.1969C46.8498 15.4969 47.5551 15.7469 48.3612 15.8969C49.1671 16.0469 49.9731 16.1469 50.7791 16.1469C52.0386 16.1469 53.046 15.9469 53.7009 15.4969C54.4062 15.0469 54.7588 14.3969 54.7588 13.5969C54.7588 13.0469 54.5573 12.5969 54.2046 12.1969C53.8521 11.7969 53.1468 11.4968 52.1896 11.1469L49.2679 10.2469C47.807 9.79691 46.6987 9.09687 46.0439 8.19687C45.389 7.29688 45.0363 6.34687 45.0363 5.29687C45.0363 4.44687 45.2379 3.69688 45.5905 3.09687C45.9431 2.49688 46.4468 1.89688 47.0514 1.44688C47.6559 0.996879 48.3612 0.646875 49.1671 0.396875C49.9731 0.146875 50.8295 0.046875 51.6859 0.046875C52.1393 0.046875 52.5927 0.046875 53.046 0.146875C53.4994 0.196875 53.9528 0.296875 54.3558 0.346875C54.7588 0.446875 55.1618 0.546875 55.5144 0.646875C55.867 0.746875 56.1693 0.896873 56.3708 0.996871C56.6731 1.14688 56.8745 1.29687 56.9753 1.49688C57.0761 1.64688 57.1768 1.89688 57.1768 2.14687V3.09687C57.1768 3.49687 57.0257 3.74688 56.7234 3.74688C56.5723 3.74688 56.3204 3.64687 55.9678 3.49687C54.8092 2.99688 53.5498 2.69687 52.0889 2.69687C50.9302 2.69687 50.0235 2.89688 49.419 3.24688C48.8145 3.59687 48.4619 4.19688 48.4619 5.04688C48.4619 5.59688 48.6634 6.09688 49.0664 6.44688C49.4694 6.84688 50.225 7.19687 51.2829 7.54687L54.1543 8.44691C55.6152 8.89691 56.6731 9.54687 57.2775 10.3469C57.8821 11.1469 58.1843 12.0969 58.1843 13.1469C58.1843 13.9969 57.9828 14.7969 57.6806 15.4469C57.3279 16.1469 56.8242 16.7469 56.2197 17.1969C55.6152 17.6969 54.8596 18.0469 54.0032 18.2969C52.9957 18.6968 52.0385 18.7969 51.0311 18.7969Z" fill="#FAF9F5"/>
<path fill-rule="evenodd" clip-rule="evenodd" d="M54.8581 28.5457C48.2086 33.3957 38.5365 35.9956 30.275 35.9956C18.6382 35.9956 8.16016 31.7457 0.251224 24.6456C-0.35328 24.0957 0.200848 23.3456 0.956477 23.7456C9.5203 28.6956 20.0487 31.6457 30.9802 31.6457C38.335 31.6457 46.4454 30.1456 53.901 26.9956C54.9589 26.5456 55.916 27.7457 54.8581 28.5457Z" fill="#FF9900"/>
<path fill-rule="evenodd" clip-rule="evenodd" d="M57.5779 25.4478C56.7216 24.3478 51.9862 24.9478 49.8201 25.1978C49.1652 25.2978 49.0645 24.6978 49.669 24.2978C53.4472 21.6478 59.6937 22.3977 60.399 23.2977C61.1042 24.1977 60.1975 30.3978 56.6712 33.3478C56.1171 33.7978 55.6133 33.5478 55.8652 32.9478C56.6712 30.9477 58.4343 26.4978 57.5779 25.4478Z" fill="#FF9900"/>
</g>
</g>
<defs>
<clipPath id="clip0_10789_57437">
<rect width="61" height="36" fill="white"/>
</clipPath>
</defs>
</svg>
