<svg width="116" height="30" viewBox="0 0 116 30" fill="none" xmlns="http://www.w3.org/2000/svg">
<path d="M77.7976 6.19969C75.7917 6.19969 74.2451 6.92063 72.81 8.42531V6.55031H68.8708V25.0003H73.1092V14.2997C73.1092 11.85 74.5555 10.3003 76.75 10.3003C77.1488 10.3003 77.4983 10.35 77.7474 10.3997L80.6892 6.49969C79.5422 6.3 78.5458 6.19969 77.7976 6.19969ZM114.35 6.55031H109.462L104.95 12.5681L100.437 6.54938H95.5499L102.445 15.8466L95.5499 25.0003H100.537L104.925 19.1634L109.313 25.0003H114.35L107.408 15.8616L114.35 6.55031ZM25.3373 2.4C23.891 4.35 23.5416 4.99969 22.1455 4.99969H1.30078V30H9.47934C11.3244 30 13.1192 29.1 14.2662 27.6C15.7627 25.6003 15.9616 25.0003 17.4079 25.0003H38.3027V0H30.074C28.229 0 26.4341 0.9 25.3364 2.4H25.3373ZM31.8196 18.5503H23.0926C21.1974 18.5503 19.4527 19.35 18.3057 20.8997C16.8093 22.9003 16.51 23.5003 15.1139 23.5003H7.73376V11.5003H16.4607C18.355 11.5003 20.1006 10.6003 21.2476 9.10031C22.7441 7.15031 23.1428 6.55031 24.4887 6.55031H31.8196V18.5503ZM63.1358 12.4003C64.9818 11.3503 66.2775 9.49969 66.2775 7.05C66.2775 3.45 63.5355 0 59.5462 0H47.5781V25.0003H59.5462C63.8841 25.0003 66.8761 21.9 66.8761 18C66.8761 15.7003 65.8295 13.6997 63.1358 12.4003ZM51.8166 3.9H59.1967C61.0417 3.9 62.1385 5.65031 62.1385 7.2C62.1385 9.10031 60.4933 10.3997 58.9476 10.3997H51.8166V3.9ZM58.9476 21.1003H51.8166V14.2997H59.1967C61.0919 14.2997 62.6376 15.9497 62.6376 17.6503C62.6376 19.5497 60.6932 21.1003 58.9476 21.1003Z" fill="#FAF9F5"/>
<path d="M91.3109 19.6992C90.6129 20.7998 89.2661 21.4495 87.7696 21.4495C85.4273 21.4495 83.4819 19.8492 83.4819 17.3995H96.148C96.3478 16.6495 96.3971 16.2998 96.3971 15.6492C96.3971 10.0495 92.9561 6.19922 87.7705 6.19922C82.6834 6.19922 79.0938 9.84984 79.0938 15.7992C79.0938 21.5995 82.5338 25.3495 87.87 25.3495C91.6102 25.3495 94.9015 23.4998 95.8487 19.6992H91.3109ZM87.7696 10.0992C90.1138 10.0992 91.9095 11.5992 91.8593 13.8492H83.5311C83.5311 11.6498 85.4273 10.0992 87.7696 10.0992Z" fill="#FAF9F5"/>
</svg>
