<svg width="93" height="35" viewBox="0 0 93 35" fill="none" xmlns="http://www.w3.org/2000/svg">
<g clip-path="url(#clip0_9244_18782)">
<path fill-rule="evenodd" clip-rule="evenodd" d="M45.0812 18.0495H43.7511V15.0877H44.9463C46.3989 15.0877 47.1254 15.5848 47.1254 16.578C47.1254 17.5593 46.4442 18.0495 45.0812 18.0495ZM48.7651 13.1707C47.9936 12.5379 46.6758 12.2219 44.8115 12.2219H40.6074V24.8835H43.7511V20.9164H45.1586C46.8687 20.9164 48.1223 20.549 48.9191 19.8145C49.8185 18.9925 50.2692 17.8981 50.2692 16.5307C50.2692 15.1134 49.7682 13.9935 48.7651 13.1707ZM55.6499 12.2214H52.3713V24.8838H59.4496V22.0172H55.6501L55.6499 12.2214ZM65.8324 20.4799L67.1825 16.1516L68.5126 20.4799H65.8324ZM65.8707 12.2214L60.7219 24.8838H64.251L64.9261 23.0428H69.3999L70.0167 24.8838H73.5856L68.4743 12.2214H65.8707ZM75.2243 24.8838H78.5029V12.2214H75.2243V24.8838ZM85.9855 22.0173H84.5773V15.0877H86.0047C87.0077 15.0877 87.7783 15.3932 88.3186 16.0034C88.8588 16.6143 89.1284 17.4801 89.1284 18.5993C89.1284 20.8785 88.0803 22.0173 85.9855 22.0173ZM91.2311 14.5943C90.7943 13.9864 90.2732 13.4999 89.6695 13.1326C88.6788 12.5247 87.3287 12.2207 85.6187 12.2207H81.2989V24.8831H86.3519C88.1772 24.8831 89.6435 24.3017 90.7492 23.1372C91.8548 21.9727 92.4072 20.4289 92.4072 18.5049C92.407 16.9738 92.0148 15.6706 91.2311 14.5943Z" fill="#111111"/>
<path fill-rule="evenodd" clip-rule="evenodd" d="M31.1162 31.6966L33.8182 21.158L30.1575 17.5002L33.8181 13.8421L31.1161 3.30342L20.5698 0.603516L16.9092 4.26162L13.2483 0.603685L2.7019 3.30375L0 13.8421L3.66116 17.4999L0.000169091 21.1582L2.70207 31.6967L13.2484 34.3966L16.9092 30.7385L20.5699 34.3965L31.1162 31.6966ZM19.0011 28.6483L22.4874 25.1645L26.9231 29.5972L21.3726 31.0182L19.0011 28.6483ZM13.4229 11.9261L16.9095 8.44233L20.3957 11.9259L16.9092 15.4096L13.4229 11.9261ZM14.8174 17.5001L11.331 20.9838L7.84463 17.5001L11.331 14.0164L14.8174 17.5001ZM22.4875 14.0161L25.9739 17.5001L22.4874 20.9838L19.0011 17.5001L22.4875 14.0161ZM20.3956 23.0742L16.9092 26.5579L13.4228 23.0741L16.9092 19.5903L20.3956 23.0742ZM12.4456 31.0182L6.89485 29.5972L11.331 25.1643L14.8174 28.6483L12.4456 31.0182ZM5.75281 19.5903L9.23913 23.0741L4.80303 27.5069L3.38097 21.9604L5.75281 19.5903ZM4.80303 7.49292L9.2393 11.9259L5.75281 15.4098L3.38097 13.0395L4.80303 7.49292ZM14.8176 6.35189L11.3311 9.83579L6.89519 5.40298L12.4459 3.98198L14.8176 6.35189ZM21.373 3.98198L26.9235 5.40298L22.4874 9.83562L19.0011 6.35189L21.373 3.98198ZM28.0657 15.4098L24.5792 11.9259L29.0152 7.49342L30.4372 13.0401L28.0657 15.4098ZM29.0152 27.5069L24.5792 23.0742L28.0657 19.5905L30.4372 21.9604L29.0152 27.5069Z" fill="#111111"/>
</g>
<defs>
<clipPath id="clip0_9244_18782">
<rect width="93" height="35" fill="white"/>
</clipPath>
</defs>
</svg>
