<svg width="166" height="32" viewBox="0 0 166 32" fill="none" xmlns="http://www.w3.org/2000/svg">
<g clip-path="url(#clip0_12581_29580)">
<mask id="mask0_12581_29580" style="mask-type:luminance" maskUnits="userSpaceOnUse" x="0" y="0" width="166" height="32">
<path d="M166 0H0V32H166V0Z" fill="white"/>
</mask>
<g mask="url(#mask0_12581_29580)">
<path fill-rule="evenodd" clip-rule="evenodd" d="M159.527 12.2957C156.181 11.5418 155.011 11.4578 155.011 10.1284C155.011 8.89444 156.666 8.50977 157.621 8.50977C159.168 8.50977 160.985 8.86844 162.84 9.82044L164.189 6.6151C162.292 5.57844 159.85 5.14844 157.499 5.14844C152.884 5.14844 149.788 7.01644 149.661 10.6598C149.526 13.9804 152.234 15.2258 154.722 15.7391C157.119 16.2324 159.552 16.6557 159.6 18.0785C159.646 19.3905 158.466 19.9517 156.236 19.9517C154.169 19.9517 152.252 19.2891 150.288 18.4698L149.145 21.9517C151.396 22.9111 153.686 23.4378 156.048 23.4378C159.327 23.4378 161.716 22.9284 163.479 21.2778C164.7 20.1431 165.1 18.7745 165.1 17.4717C165.1 14.7171 163.382 13.1651 159.527 12.2957Z" fill="white"/>
<path fill-rule="evenodd" clip-rule="evenodd" d="M136.507 5.65625V16.7236C136.507 17.5909 136.507 17.8309 136.453 18.1676C136.298 19.2223 135.269 19.8343 133.636 19.8549C132.427 19.8362 131.542 19.4796 131.129 18.8482C130.921 18.5223 130.821 17.9402 130.821 17.0109V5.65625H125.68V17.6616C125.68 19.3249 125.902 20.0743 126.652 21.0229C127.895 22.5769 130.315 23.3909 133.648 23.3909C133.682 23.3909 133.718 23.3909 133.754 23.3909C133.774 23.3909 133.803 23.3909 133.826 23.3909C138.291 23.3909 140.591 21.6509 141.26 20.0269C141.593 19.2396 141.619 18.8656 141.619 17.2749V5.65625H136.507Z" fill="white"/>
<path fill-rule="evenodd" clip-rule="evenodd" d="M119.593 19.6383H112.034V5.65625H107.074V23.0756H119.593V19.6383Z" fill="white"/>
<path fill-rule="evenodd" clip-rule="evenodd" d="M98.2517 9.04359V5.65625H86.1562V23.0756H98.2517V19.5423H91.0567V15.6816H97.0416V12.2996H91.0567V9.04359H98.2517Z" fill="white"/>
<path fill-rule="evenodd" clip-rule="evenodd" d="M79.1212 9.09425V5.65625H63.9023V9.09425H69.0445V23.0756H73.9743V9.09425H79.1212Z" fill="white"/>
<path fill-rule="evenodd" clip-rule="evenodd" d="M66.2257 0.886445L37.3867 6.61844V8.62444L37.4803 8.60044C56.5304 3.97911 66.2257 1.20111 66.3045 1.17911C66.4127 1.15178 66.4494 1.06778 66.4348 0.997111C66.4201 0.922445 66.3419 0.861778 66.2257 0.886445Z" fill="white"/>
<path fill-rule="evenodd" clip-rule="evenodd" d="M42.7783 0.336831C41.3759 0.417498 38.7808 2.4895 37.357 3.72217C31.6818 8.6215 27.464 13.1268 24.3959 17.8448C18.0009 21.2622 9.84895 24.7782 1.75235 27.5241L1.55802 27.5902L0 31.7788L0.889531 31.4348C6.03906 29.4768 14.6339 25.7975 22.4259 21.7075C21.9865 22.8755 21.7655 23.9481 21.7655 24.9281C21.7655 25.6601 21.8876 26.3348 22.1334 26.9575C22.6243 28.1855 23.5879 29.1195 24.9276 29.6515C26.921 30.4455 29.6423 30.4608 32.7464 29.5228C40.6766 27.1208 50.0822 19.7568 52.1304 18.2921L52.2065 18.2361C52.2874 18.1795 52.2933 18.0915 52.2579 18.0328C52.2139 17.9655 52.1203 17.9495 52.0423 17.9942L51.9421 18.0568C49.7436 19.3681 39.0652 25.6988 32.1233 27.5588C28.5892 28.5062 25.8946 27.9868 24.8774 26.5681C24.5248 26.0841 24.3553 25.4695 24.3553 24.7528C24.3553 23.3588 25.0124 21.5788 26.2819 19.6041C27.4499 18.9382 28.5385 18.2902 29.5208 17.6775C36.2938 13.8768 44.0959 6.48883 44.4271 1.98083C44.4292 1.95016 44.4292 1.91483 44.4292 1.88017C44.4292 1.4935 44.2609 1.09016 43.9657 0.794164C43.6485 0.471498 43.229 0.310164 42.7783 0.336831ZM42.0236 2.4875C42.4691 2.2015 42.5973 2.3795 42.467 2.7035C42.2534 3.22017 41.2784 6.33683 34.0172 12.2862C32.1233 13.8355 30.775 14.7075 28.049 16.3175C32.5146 10.0675 39.0366 4.4255 42.0236 2.4875Z" fill="white"/>
<path fill-rule="evenodd" clip-rule="evenodd" d="M37.2916 6.63676L6.95003 13.1474L5.77734 16.2954L37.385 8.6241L37.4345 8.6121V6.60742L37.2916 6.63676Z" fill="white"/>
</g>
</g>
<defs>
<clipPath id="clip0_12581_29580">
<rect width="166" height="32" fill="white"/>
</clipPath>
</defs>
</svg>
