<svg width="165" height="44" viewBox="0 0 165 44" fill="none" xmlns="http://www.w3.org/2000/svg">
<g clip-path="url(#clip0_89_149)">
<mask id="mask0_89_149" style="mask-type:luminance" maskUnits="userSpaceOnUse" x="0" y="0" width="165" height="44">
<path d="M165 0H0V44H165V0Z" fill="white"/>
</mask>
<g mask="url(#mask0_89_149)">
<path d="M51.9574 34.6907V18.8936H45.9085V15.7882H61.4896V18.8936H55.4678V34.6907H51.9574ZM67.3026 34.9877C63.3063 34.9877 60.4708 32.0174 60.4708 27.8319C60.4708 23.5382 63.3332 20.6489 67.1676 20.6489C71.0561 20.6489 73.8644 23.3761 73.8644 27.5347V28.7769H63.7923C63.9811 30.9102 65.2234 32.3954 67.3026 32.3954C68.8957 32.3954 69.7869 31.6663 70.327 30.3432L73.4325 30.8292C72.6763 33.3676 70.732 34.9877 67.3026 34.9877ZM67.1676 23.2412C65.4124 23.2412 64.1432 24.4833 63.8462 26.4547H70.4891C70.246 24.4294 69.0309 23.2412 67.1676 23.2412ZM76.2529 34.6907V20.9459H79.3853V21.5129C79.3853 22.269 79.3584 22.8632 79.1422 23.9434L79.4664 24.0242C79.9795 22.2151 80.9246 20.9459 83.1389 20.9459H84.1381V24.2673H82.7609C80.7356 24.2673 79.6284 25.4824 79.6284 27.7508V34.6907H76.2529ZM85.9283 34.6907V20.9459H89.0608V21.5129C89.0608 22.269 89.0338 22.8632 88.8177 23.9434L89.1418 24.0242C89.6548 22.2151 90.6 20.9459 92.8143 20.9459H93.8133V24.2673H92.4363C90.411 24.2673 89.3039 25.4824 89.3039 27.7508V34.6907H85.9283ZM98.8537 34.9067C96.0993 34.9067 94.3169 33.3946 94.3169 31.0182C94.3169 28.1828 96.3422 27.2648 98.7455 26.6976L102.877 25.7255V25.4285C102.877 23.9973 101.959 23.1061 100.501 23.1061C99.0156 23.1061 98.1515 23.9162 97.8815 25.2124L94.9111 24.8613C95.3702 22.2961 97.5304 20.6489 100.636 20.6489C104.011 20.6489 106.253 22.7821 106.253 25.9146V31.5583C106.253 31.9094 106.334 32.0443 106.604 32.0443H107.333V34.6907H105.307C104.011 34.6907 103.417 34.2857 103.417 33.1786C103.417 32.8545 103.471 32.4495 103.606 31.9633L103.309 31.8553C102.364 33.9616 100.933 34.9067 98.8537 34.9067ZM97.6925 30.6942C97.6925 31.7743 98.4757 32.4495 99.7177 32.4495C101.581 32.4495 102.877 31.0992 102.877 28.966V27.9129L99.8257 28.6418C98.3406 28.9929 97.6925 29.5061 97.6925 30.6942ZM110.718 34.6907V23.6462H108.233V20.9459H110.718V18.8126C110.718 16.3283 111.879 15.2481 114.579 15.2481H117.631V17.9215H115.173C114.363 17.9215 114.039 18.2995 114.039 19.1906V20.9459H117.252V23.6462H114.093V34.6907H110.718ZM125.148 34.9877C121.097 34.9877 118.181 32.0174 118.181 27.8319C118.181 23.6462 121.07 20.6489 125.148 20.6489C129.198 20.6489 132.142 23.6462 132.142 27.8319C132.142 31.9904 129.198 34.9877 125.148 34.9877ZM125.148 32.2605C127.335 32.2605 128.766 30.4781 128.766 27.8319C128.766 25.1854 127.335 23.4033 125.148 23.4033C122.987 23.4033 121.529 25.1854 121.529 27.8319C121.529 30.4781 122.987 32.2605 125.148 32.2605ZM134.49 34.6907V20.9459H137.623V21.5129C137.623 22.269 137.596 22.8632 137.38 23.9434L137.704 24.0242C138.217 22.2151 139.162 20.9459 141.376 20.9459H142.375V24.2673H140.998C138.973 24.2673 137.866 25.4824 137.866 27.7508V34.6907H134.49ZM144.165 34.6907V20.9459H147.459V21.54C147.459 22.269 147.406 22.7552 147.216 23.7272L147.54 23.8082C148.243 21.675 149.62 20.6489 151.78 20.6489C153.967 20.6489 155.398 21.648 155.912 23.7542H156.209C156.938 21.675 158.315 20.6489 160.367 20.6489C163.203 20.6489 164.715 22.4851 164.715 25.6445V34.6907H161.528V25.7525C161.528 24.1863 160.745 23.3222 159.341 23.3222C157.505 23.3222 156.209 24.8613 156.209 27.1297V34.6907H152.833V25.7525C152.833 24.1863 152.077 23.3222 150.673 23.3222C148.864 23.3222 147.54 24.8613 147.54 27.1297V34.6907H144.165Z" fill="black"/>
<path fill-rule="evenodd" clip-rule="evenodd" d="M11.7698 12.1049L22.2578 18.1766V30.3266L11.7698 24.2517V12.1049Z" fill="#A067DA"/>
<path fill-rule="evenodd" clip-rule="evenodd" d="M23.4073 18.1766V30.3266L33.8919 24.2517V12.1049L23.4073 18.1766Z" fill="#A067DA"/>
<path fill-rule="evenodd" clip-rule="evenodd" d="M0.137848 5.32434V17.4711L10.6225 23.5461V11.3993L0.137848 5.32434Z" fill="#A067DA"/>
<path fill-rule="evenodd" clip-rule="evenodd" d="M11.7698 37.7298L22.2545 43.8048V31.7378V31.658L11.7698 25.5829V37.7298Z" fill="#A067DA"/>
<path d="M46.1019 9.0374V1.47641H47.4844V4.5872H50.8545V1.47641H52.2372V9.0374H50.8545V5.84018H47.4844V9.0374H46.1019ZM55.0145 9.12381C53.9126 9.12381 53.1998 8.51893 53.1998 7.5684C53.1998 6.43425 54.0098 6.067 54.9712 5.84018L56.6238 5.45133V5.33251C56.6238 4.76003 56.2566 4.40358 55.6734 4.40358C55.0792 4.40358 54.7336 4.72762 54.6256 5.24608L53.4374 5.10567C53.621 4.07953 54.4852 3.42065 55.7273 3.42065C57.0775 3.42065 57.974 4.27396 57.974 5.52693V7.78443C57.974 7.92484 58.0065 7.97885 58.1145 7.97885H58.4061V9.0374H57.596C57.0775 9.0374 56.8399 8.87537 56.8399 8.43251C56.8399 8.30289 56.8616 8.14088 56.9155 7.94646L56.7967 7.90325C56.4186 8.74575 55.8461 9.12381 55.0145 9.12381ZM54.5499 7.43879C54.5499 7.87085 54.8632 8.14088 55.3601 8.14088C56.1053 8.14088 56.6238 7.6008 56.6238 6.74749V6.32623L55.4033 6.61788C54.8091 6.75829 54.5499 6.96351 54.5499 7.43879ZM61.5072 9.15622C60.1894 9.15622 59.2282 8.62693 58.9904 7.54681L60.2543 7.28756C60.3948 7.89245 60.8808 8.19489 61.5072 8.19489C62.1445 8.19489 62.5009 7.92484 62.5009 7.5036C62.5009 7.06074 62.0798 6.97431 61.2804 6.8231C60.319 6.67189 59.0445 6.49906 59.0445 5.14888C59.0445 4.12275 59.9194 3.42065 61.3235 3.42065C62.5766 3.42065 63.5486 3.94992 63.7756 5.00847L62.5009 5.21369C62.3713 4.67361 61.9177 4.38198 61.3235 4.38198C60.6754 4.38198 60.3515 4.66281 60.3515 5.03006C60.3515 5.47292 60.7836 5.57013 61.5721 5.71056C62.5442 5.86177 63.8079 6.0454 63.8079 7.39558C63.8079 8.45412 62.9438 9.15622 61.5072 9.15622ZM66.0742 6.0346V9.0374H64.724V1.26038H66.0742V3.70148C66.0742 3.98231 66.0202 4.25236 65.9446 4.65201L66.0742 4.68442C66.409 3.88511 66.9275 3.42065 67.8672 3.42065C69.0662 3.42065 69.7035 4.17676 69.7035 5.46212V9.0374H68.3533V5.50532C68.3533 4.85723 68.0293 4.48998 67.3812 4.48998C66.6574 4.48998 66.0742 5.04086 66.0742 6.0346ZM71.8874 2.90219C71.4446 2.90219 71.0666 2.53493 71.0666 2.05968C71.0666 1.60602 71.4446 1.22797 71.8874 1.22797C72.3519 1.22797 72.7192 1.60602 72.7192 2.05968C72.7192 2.53493 72.3519 2.90219 71.8874 2.90219ZM72.6112 3.53947V9.0374H71.2609V4.61962H70.4724V3.53947H72.6112ZM77.3637 9.16702C75.2466 9.16702 73.7777 7.52519 73.7777 5.2569C73.7777 2.98859 75.236 1.34679 77.3421 1.34679C79.1136 1.34679 80.3449 2.39452 80.669 3.8311L79.2972 4.15514C79.0379 3.1398 78.379 2.55653 77.3421 2.55653C76.0459 2.55653 75.2143 3.67989 75.2143 5.2569C75.2143 6.8339 76.0676 7.95725 77.3854 7.95725C78.4439 7.95725 79.0812 7.36318 79.3512 6.28304L80.6582 6.43425C80.3341 8.11927 79.1028 9.16702 77.3637 9.16702ZM84.1038 9.15622C82.4837 9.15622 81.3171 7.96805 81.3171 6.29383C81.3171 4.61962 82.4729 3.42065 84.1038 3.42065C85.7241 3.42065 86.9015 4.61962 86.9015 6.29383C86.9015 7.95725 85.7241 9.15622 84.1038 9.15622ZM84.1038 8.06527C84.9788 8.06527 85.5512 7.35236 85.5512 6.29383C85.5512 5.23529 84.9788 4.52239 84.1038 4.52239C83.2397 4.52239 82.6564 5.23529 82.6564 6.29383C82.6564 7.35236 83.2397 8.06527 84.1038 8.06527ZM87.8412 9.0374V3.53947H89.0941V3.76629C89.0941 4.06874 89.0833 4.30637 88.997 4.73842L89.1266 4.77083C89.3317 4.04714 89.7098 3.53947 90.5954 3.53947H90.9951V4.86803H90.4444C89.6342 4.86803 89.1913 5.3541 89.1913 6.26142V9.0374H87.8412ZM91.7109 11.2517V3.53947H93.0393V3.8095C93.0393 4.05794 93.0178 4.25236 92.9421 4.69522L93.0717 4.72762C93.4067 3.8419 94.0439 3.42065 94.8539 3.42065C96.2042 3.42065 97.2627 4.52239 97.2627 6.28304C97.2627 8.05446 96.2042 9.15622 94.8539 9.15622C94.0439 9.15622 93.4389 8.73496 93.0934 7.84924L92.9746 7.89245C93.0393 8.32451 93.0609 8.52973 93.0609 8.76737V11.2517H91.7109ZM94.4867 8.06527C95.3185 8.06527 95.9233 7.38478 95.9233 6.29383C95.9233 5.19207 95.3185 4.52239 94.4867 4.52239C93.6443 4.52239 93.0501 5.19207 93.0501 6.29383C93.0501 7.38478 93.6443 8.06527 94.4867 8.06527Z" fill="black"/>
</g>
</g>
<defs>
<clipPath id="clip0_89_149">
<rect width="165" height="44" fill="white"/>
</clipPath>
</defs>
</svg>
