<svg width="142" height="28" viewBox="0 0 142 28" fill="none" xmlns="http://www.w3.org/2000/svg">
<g clip-path="url(#clip0_12977_31945)">
<path d="M19.2802 9.83081V18.1676L11.9375 22.3368V27.5476L23.873 20.7737V7.22461L19.2802 9.83081Z" fill="#00AC69"/>
<path d="M11.9356 5.66357L19.2783 9.83111L23.8711 7.2249L11.9356 0.451172L0 7.2249L4.59114 9.83111L11.9356 5.66357Z" fill="#1CE783"/>
<path d="M7.34444 16.6063V24.9431L11.9356 27.5476V14L0 7.22461V12.437L7.34444 16.6063Z" fill="#FAF9F5"/>
<path d="M40.2521 7.20703C37.6826 7.20703 36.4655 8.80245 36.4655 8.80245H36.3302L36.0615 7.47293H32.9492V21.034H36.3302V13.1933C36.3302 11.4649 37.5438 10.2683 39.3053 10.2683C41.067 10.2683 42.2806 11.4615 42.2806 13.1933V21.034H45.6616V12.924C45.6616 9.46721 43.3624 7.20703 40.2521 7.20703Z" fill="#FAF9F5"/>
<path d="M76.7142 16.3805H76.52L74.221 7.47266H70.7811L68.4821 16.3805H68.2897L65.9888 7.47266H62.4727L65.9888 21.0338H70.1066L72.404 12.2589H72.5981L74.8971 21.0338H79.0132L82.5294 7.47266H79.0132L76.7142 16.3805Z" fill="#FAF9F5"/>
<path d="M92.8823 8.66947H92.7471L92.4767 7.47631H89.6367V21.0358H93.0176V13.195C93.0176 11.4666 93.8291 10.6689 95.587 10.6689H97.3209V7.47461H95.3096C94.8387 7.47559 94.3742 7.58402 93.953 7.79136C93.532 7.99868 93.1654 8.29928 92.8823 8.66947Z" fill="#FAF9F5"/>
<path d="M104.804 7.20703C100.749 7.20703 97.7734 10.132 97.7734 14.2535C97.7734 18.3749 100.58 21.2999 104.804 21.2999C108.225 21.2999 110.285 19.321 111.143 17.8653L108.039 16.7779C107.732 17.3301 106.495 18.3921 104.804 18.3921C102.833 18.3921 101.425 17.1784 101.154 15.3239H111.431C111.526 14.887 111.571 14.4411 111.566 13.9944C111.566 10.132 108.591 7.20703 104.804 7.20703ZM101.154 13.0569C101.56 11.3285 102.777 9.99902 104.804 9.99902C106.699 9.99902 107.915 11.3285 108.185 13.0569H101.154Z" fill="#FAF9F5"/>
<path d="M54.8566 7.20703C50.7995 7.20703 47.8242 10.132 47.8242 14.2535C47.8242 18.3749 50.6261 21.2999 54.8566 21.2999C58.2775 21.2999 60.3355 19.321 61.1937 17.8653L58.0903 16.7779C57.7834 17.3301 56.5471 18.3921 54.8566 18.3921C52.8853 18.3921 51.4757 17.1784 51.2052 15.3239H61.4832C61.5783 14.887 61.6236 14.4411 61.6185 13.9944C61.6185 10.132 58.6434 7.20703 54.8566 7.20703ZM51.2052 13.0569C51.611 11.3285 52.8281 9.99902 54.8566 9.99902C56.75 9.99902 57.9671 11.3285 58.2376 13.0569H51.2052Z" fill="#FAF9F5"/>
<path d="M123.385 2.11914H120.004V5.44293H123.385V2.11914Z" fill="#FAF9F5"/>
<path d="M132.716 18.2421C130.687 18.2421 129.064 16.6466 129.064 14.2535C129.064 11.8604 130.687 10.2649 132.716 10.2649C134.744 10.2649 135.556 11.5944 135.826 12.3922L138.888 11.3217C138.146 9.42801 136.326 7.20703 132.716 7.20703C128.659 7.20703 125.684 10.132 125.684 14.2535C125.684 18.3749 128.659 21.2999 132.716 21.2999C136.357 21.2999 138.177 19.0432 138.906 17.0591L135.826 15.9819C135.556 16.9125 134.744 18.2421 132.716 18.2421Z" fill="#FAF9F5"/>
<path d="M111.941 5.07305H113.861V21.0341H117.242V2.11914H111.941V5.07305Z" fill="#FAF9F5"/>
<path d="M123.385 7.47266H120.004V21.0338H123.385V7.47266Z" fill="#FAF9F5"/>
<path d="M140.714 18.4319C140.455 18.428 140.201 18.5001 139.984 18.6387C139.767 18.7771 139.597 18.9761 139.496 19.2099C139.394 19.4437 139.365 19.702 139.413 19.9519C139.462 20.2018 139.584 20.4319 139.766 20.6131C139.947 20.7942 140.18 20.9183 140.433 20.9692C140.686 21.0203 140.95 20.996 141.189 20.8995C141.428 20.8031 141.633 20.6388 141.777 20.4276C141.921 20.2165 141.998 19.9678 141.998 19.7136C142.004 19.5454 141.975 19.3777 141.912 19.2209C141.85 19.0641 141.756 18.9215 141.636 18.8015C141.516 18.6816 141.372 18.5869 141.213 18.5234C141.055 18.4599 140.885 18.4287 140.714 18.4319ZM140.714 20.7994C140.494 20.8031 140.279 20.7426 140.095 20.6255C139.911 20.5086 139.766 20.3402 139.68 20.1423C139.593 19.9442 139.569 19.7253 139.609 19.5135C139.649 19.3016 139.753 19.1065 139.907 18.9527C140.06 18.799 140.257 18.6937 140.472 18.6503C140.687 18.6069 140.91 18.6272 141.113 18.7087C141.315 18.7904 141.489 18.9296 141.611 19.1084C141.734 19.2874 141.799 19.498 141.799 19.7136C141.804 19.8557 141.779 19.9971 141.727 20.1294C141.674 20.2618 141.594 20.3822 141.493 20.4832C141.391 20.5842 141.27 20.6638 141.136 20.717C141.002 20.7702 140.858 20.7959 140.714 20.7926V20.7994Z" fill="#FAF9F5"/>
<path d="M141.275 19.4769C141.275 19.4155 141.262 19.3548 141.237 19.2984C141.211 19.2421 141.175 19.1915 141.129 19.1497C141.083 19.1079 141.029 19.0757 140.97 19.0552C140.911 19.0347 140.849 19.0261 140.786 19.0303H140.207V20.3668H140.406V19.9031H140.588L141.058 20.3668H141.306L140.836 19.9031C140.952 19.9031 141.063 19.8584 141.145 19.7786C141.227 19.6988 141.274 19.5905 141.275 19.4769ZM140.408 19.7071V19.2263H140.786C140.822 19.2221 140.859 19.2253 140.894 19.236C140.929 19.2465 140.961 19.2641 140.989 19.2878C141.016 19.3114 141.038 19.3406 141.054 19.3732C141.069 19.4057 141.077 19.4411 141.077 19.4769C141.077 19.6185 140.986 19.7071 140.786 19.7071H140.408Z" fill="#FAF9F5"/>
</g>
<defs>
<clipPath id="clip0_12977_31945">
<rect width="142" height="28" fill="white"/>
</clipPath>
</defs>
</svg>
