<svg width="156" height="40" viewBox="0 0 156 40" fill="none" xmlns="http://www.w3.org/2000/svg">
<g clip-path="url(#clip0_12977_31444)">
<path d="M11.6537 4.51846C10.1268 2.72313 8.81195 0.899743 8.54334 0.521039C8.51505 0.492987 8.47263 0.492987 8.44436 0.521039C8.17573 0.899743 6.8609 2.72313 5.33398 4.51846C-7.77196 21.0832 7.39815 32.262 7.39815 32.262L7.52539 32.3462C7.63848 34.0713 7.92125 36.554 7.92125 36.554H8.48677H9.05229C9.05229 36.554 9.33506 34.0853 9.44817 32.3462L9.5754 32.248C9.58953 32.262 24.7597 21.0832 11.6537 4.51846ZM8.48677 32.0095C8.48677 32.0095 7.80816 31.4344 7.62435 31.14V31.1118L8.44436 13.0744C8.44436 13.0182 8.5292 13.0182 8.5292 13.0744L9.34919 31.1118V31.14C9.1654 31.4344 8.48677 32.0095 8.48677 32.0095Z" fill="#FAF9F5"/>
<path d="M36.8763 28.3295L30.5547 13.0286L30.5406 12.9863H25.6222V14.0148H26.4159C26.6568 14.0148 26.8836 14.1135 27.0538 14.2825C27.2238 14.4516 27.3089 14.6771 27.3089 14.9165L27.1672 30.3161C27.1672 30.795 26.7704 31.1895 26.2884 31.2037L25.4805 31.2177V32.2321H30.2713V31.2177L29.7751 31.2037C29.2933 31.1895 28.8963 30.795 28.8963 30.3161V15.8041L35.785 32.2321C35.8841 32.4716 36.1108 32.6266 36.3661 32.6266C36.6212 32.6266 36.8479 32.4716 36.9472 32.2321L43.6798 16.1704L43.779 30.3161C43.779 30.8092 43.3821 31.2037 42.8861 31.2177H42.3758V32.2321H47.9886V31.2177H47.2232C46.7413 31.2177 46.3444 30.8092 46.3303 30.3301L46.2878 14.9306C46.2878 14.4375 46.6846 14.043 47.1666 14.0289L47.9886 14.0148V12.9863H43.1978L36.8763 28.3295Z" fill="#FAF9F5"/>
<path d="M80.9541 30.9484C80.7977 30.7933 80.7125 30.5816 80.7125 30.3275V22.7626C80.7125 21.3231 80.2862 20.194 79.4335 19.3896C78.5951 18.585 77.4298 18.1758 75.9804 18.1758C73.9481 18.1758 72.3424 18.9944 71.2197 20.6033C71.2055 20.6315 71.1629 20.6457 71.1203 20.6457C71.0776 20.6457 71.0492 20.6173 71.0492 20.5751L70.5233 18.5568H69.6423L67.3828 19.8411V20.5468H67.9655C68.2354 20.5468 68.4628 20.6173 68.6192 20.7586C68.7755 20.8997 68.8607 21.1114 68.8607 21.4077V30.3133C68.8607 30.5674 68.7755 30.7791 68.6192 30.9344C68.4628 31.0896 68.2497 31.1743 67.9939 31.1743H67.4254V32.2046H72.6265V31.1743H72.0581C71.8023 31.1743 71.5891 31.0896 71.4329 30.9344C71.2766 30.7791 71.1912 30.5674 71.1912 30.3133V24.414C71.1912 23.6659 71.3618 22.9179 71.6745 22.1839C72.0012 21.4643 72.4844 20.8574 73.124 20.3916C73.7634 19.9259 74.5308 19.7 75.4119 19.7C76.4066 19.7 77.1598 20.0105 77.6287 20.6315C78.0977 21.2526 78.3393 22.057 78.3393 23.0167V30.2993C78.3393 30.5532 78.254 30.7649 78.0977 30.9202C77.9414 31.0755 77.7282 31.1601 77.4724 31.1601H76.904V32.1904H82.1051V31.1601H81.5368C81.3236 31.1885 81.1245 31.1037 80.9541 30.9484Z" fill="#FAF9F5"/>
<path d="M128.473 14.1384C127.036 13.3797 125.429 12.9863 123.695 12.9863H116.93V14.0119H117.592C117.846 14.0119 118.071 14.1103 118.297 14.3351C118.508 14.5458 118.621 14.7847 118.621 15.0375V30.1546C118.621 30.4074 118.508 30.6463 118.297 30.857C118.086 31.0677 117.846 31.1801 117.592 31.1801H116.93V32.2058H123.695C125.429 32.2058 127.036 31.8124 128.473 31.0537C129.911 30.295 131.081 29.171 131.927 27.7381C132.772 26.3051 133.209 24.577 133.209 22.6101C133.209 20.6432 132.772 18.9292 131.927 17.4821C131.067 16.021 129.911 14.9111 128.473 14.1384ZM130.489 22.582C130.489 24.3804 130.165 25.8976 129.53 27.1199C128.896 28.3422 128.05 29.2554 127.007 29.8456C125.965 30.4356 124.809 30.7306 123.568 30.7306H122.201C121.947 30.7306 121.722 30.6323 121.496 30.4074C121.285 30.1967 121.172 29.9579 121.172 29.705V15.445C121.172 15.1921 121.271 14.9673 121.496 14.7425C121.708 14.5317 121.947 14.4194 122.201 14.4194H123.568C124.809 14.4194 125.965 14.7144 127.007 15.3044C128.05 15.8945 128.896 16.8078 129.53 18.03C130.165 19.2663 130.489 20.7977 130.489 22.582Z" fill="#FAF9F5"/>
<path d="M149.203 23.6077C148.577 22.8911 147.369 22.287 145.95 21.9638C147.91 20.9944 148.918 19.6316 148.918 17.8755C148.918 16.9201 148.663 16.0631 148.151 15.3325C147.64 14.602 146.915 14.0119 145.992 13.6045C145.068 13.1971 143.988 12.9863 142.766 12.9863H135.108V14.0119H135.719C135.974 14.0119 136.202 14.1103 136.429 14.3351C136.642 14.5458 136.756 14.7847 136.756 15.0375V30.1546C136.756 30.4074 136.642 30.6463 136.429 30.857C136.216 31.0677 135.974 31.1801 135.719 31.1801H135.051V32.2058H143.363C144.627 32.2058 145.807 31.995 146.873 31.5735C147.938 31.1521 148.791 30.5339 149.402 29.719C150.026 28.9042 150.339 27.9066 150.339 26.7546C150.325 25.5182 149.956 24.4645 149.203 23.6077ZM139.669 30.4214C139.455 30.2107 139.342 29.972 139.342 29.719V22.9332H143.292C144.684 22.9332 145.75 23.2844 146.489 23.9869C147.228 24.6894 147.597 25.6025 147.597 26.7265C147.597 27.4009 147.426 28.0612 147.115 28.6653C146.788 29.2836 146.303 29.7753 145.651 30.1546C145.011 30.5339 144.215 30.7306 143.292 30.7306H140.379C140.123 30.7306 139.896 30.6323 139.669 30.4214ZM139.356 21.4861V15.459C139.356 15.2061 139.455 14.9814 139.683 14.7565C139.896 14.5458 140.137 14.4334 140.393 14.4334H142.269C143.618 14.4334 144.613 14.7706 145.239 15.4168C145.863 16.0771 146.176 16.9201 146.176 17.9598C146.176 19.0275 145.877 19.8846 145.296 20.5307C144.712 21.163 143.832 21.4861 142.667 21.4861H139.356Z" fill="#FAF9F5"/>
<path d="M61.153 19.0719C60.0672 18.4839 58.8546 18.1758 57.5434 18.1758C56.2321 18.1758 55.0053 18.4698 53.9337 19.0719C52.8479 19.6599 51.9878 20.514 51.3533 21.5921C50.7188 22.6702 50.3945 23.9304 50.3945 25.3305C50.3945 26.7305 50.7188 27.9907 51.3533 29.0688C51.9878 30.147 52.8479 31.001 53.9337 31.5891C55.0195 32.1771 56.2321 32.4851 57.5434 32.4851C58.8546 32.4851 60.0814 32.1911 61.153 31.5891C62.2388 31.001 63.0989 30.147 63.7334 29.0688C64.3679 27.9907 64.6922 26.7305 64.6922 25.3305C64.6922 23.9304 64.3679 22.6702 63.7334 21.5921C63.0989 20.514 62.2388 19.6599 61.153 19.0719ZM62.1965 25.3305C62.1965 27.0526 61.7735 28.4527 60.9274 29.4608C60.0956 30.4689 58.9534 30.987 57.5434 30.987C56.1334 30.987 54.9912 30.4689 54.1593 29.4608C53.3132 28.4527 52.8902 27.0526 52.8902 25.3305C52.8902 23.6083 53.3132 22.2082 54.1593 21.2001C54.9912 20.192 56.1334 19.6739 57.5434 19.6739C58.9534 19.6739 60.0956 20.192 60.9274 21.2001C61.7735 22.2082 62.1965 23.6083 62.1965 25.3305Z" fill="#FAF9F5"/>
<path d="M111.126 19.0719C110.04 18.4839 108.827 18.1758 107.516 18.1758C106.205 18.1758 104.978 18.4698 103.906 19.0719C102.821 19.6599 101.96 20.514 101.326 21.5921C100.692 22.6702 100.367 23.9304 100.367 25.3305C100.367 26.7305 100.692 27.9907 101.326 29.0688C101.96 30.147 102.821 31.001 103.906 31.5891C104.992 32.1771 106.205 32.4851 107.516 32.4851C108.827 32.4851 110.054 32.1911 111.126 31.5891C112.211 31.001 113.072 30.147 113.706 29.0688C114.341 27.9907 114.665 26.7305 114.665 25.3305C114.665 23.9304 114.341 22.6702 113.706 21.5921C113.072 20.514 112.197 19.6599 111.126 19.0719ZM112.169 25.3305C112.169 27.0526 111.746 28.4527 110.9 29.4608C110.068 30.4689 108.926 30.987 107.516 30.987C106.106 30.987 104.964 30.4689 104.132 29.4608C103.286 28.4527 102.863 27.0526 102.863 25.3305C102.863 23.5943 103.286 22.2082 104.132 21.2001C104.964 20.192 106.106 19.6739 107.516 19.6739C108.926 19.6739 110.068 20.192 110.9 21.2001C111.732 22.2082 112.169 23.6083 112.169 25.3305Z" fill="#FAF9F5"/>
<path d="M90.9716 18.1758C89.8355 18.1758 88.7989 18.4148 87.8617 18.8931C86.9244 19.3713 86.186 20.0185 85.6605 20.8483C85.1352 21.664 84.8654 22.5784 84.8654 23.5489C84.8654 24.421 85.0641 25.2227 85.4759 25.9401C85.8736 26.6294 86.4132 27.206 87.0948 27.6842L85.0641 30.4131C84.8085 30.7506 84.7802 31.2007 84.9648 31.5664C85.1635 31.9461 85.5327 32.1713 85.9588 32.1713H86.541C85.973 32.5511 85.5186 33.0011 85.2061 33.5356C84.8369 34.1404 84.6523 34.7734 84.6523 35.4204C84.6523 36.6301 85.192 37.6288 86.2569 38.3743C87.3079 39.1198 88.7846 39.4995 90.6449 39.4995C91.9372 39.4995 93.1726 39.2885 94.2945 38.8806C95.4305 38.4728 96.3535 37.8678 97.0351 37.0803C97.731 36.2925 98.086 35.3361 98.086 34.2389C98.086 33.0856 97.6599 32.2697 96.6659 31.4821C95.814 30.8209 94.4791 30.4693 92.8176 30.4693H87.1374C87.1233 30.4693 87.109 30.4552 87.109 30.4552C87.109 30.4552 87.0948 30.4271 87.109 30.4131L88.5859 28.4439C88.9835 28.6267 89.3527 28.7392 89.6793 28.8095C90.02 28.8799 90.4035 28.9079 90.8295 28.9079C92.0224 28.9079 93.1017 28.6689 94.0388 28.1906C94.9761 27.7124 95.7288 27.0654 96.2684 26.2355C96.8079 25.4197 97.0777 24.5054 97.0777 23.5349C97.0777 22.494 96.5665 20.595 95.1748 19.6245C95.1748 19.6105 95.1891 19.6105 95.1891 19.6105L98.2422 19.948V18.5555H93.3572C92.5904 18.3165 91.7952 18.1758 90.9716 18.1758ZM92.6756 26.9809C92.136 27.2622 91.5537 27.417 90.9716 27.417C90.0202 27.417 89.1823 27.0794 88.4722 26.4184C87.7623 25.7572 87.4073 24.7867 87.4073 23.5489C87.4073 22.3112 87.7623 21.3405 88.4722 20.6795C89.1823 20.0185 90.0202 19.6808 90.9716 19.6808C91.568 19.6808 92.136 19.8215 92.6756 20.1168C93.2152 20.3982 93.6555 20.8342 94.0105 21.411C94.3512 21.9877 94.5358 22.705 94.5358 23.5489C94.5358 24.4069 94.3654 25.1242 94.0105 25.6869C93.6696 26.2637 93.2152 26.6997 92.6756 26.9809ZM88.8273 32.1571H92.6756C93.7407 32.1571 94.4223 32.3681 94.8767 32.8183C95.3311 33.2684 95.5583 33.8731 95.5583 34.5765C95.5583 35.6033 95.1465 36.4473 94.3229 37.0803C93.4992 37.7132 92.3916 38.0367 91.0284 38.0367C89.8355 38.0367 88.8414 37.7695 88.1172 37.2631C87.393 36.7568 87.0238 35.9831 87.0238 34.9985C87.0238 34.3796 87.1942 33.8029 87.5351 33.2966C87.8758 32.7901 88.2876 32.4244 88.8273 32.1571Z" fill="#FAF9F5"/>
<path d="M153.219 31.9698C152.939 31.8178 152.728 31.5969 152.56 31.3345C152.405 31.0584 152.32 30.7685 152.32 30.4509C152.32 30.1333 152.405 29.8295 152.56 29.5672C152.714 29.291 152.939 29.0839 153.219 28.932C153.501 28.7802 153.81 28.6973 154.161 28.6973C154.512 28.6973 154.82 28.7802 155.102 28.932C155.382 29.0839 155.593 29.3049 155.762 29.5672C155.916 29.8433 156.001 30.1333 156.001 30.4509C156.001 30.7685 155.916 31.0722 155.762 31.3345C155.607 31.6108 155.382 31.8178 155.102 31.9698C154.82 32.1215 154.512 32.2045 154.161 32.2045C153.824 32.2045 153.501 32.1354 153.219 31.9698ZM154.948 31.7764C155.186 31.6521 155.355 31.4588 155.496 31.2379C155.622 31.0032 155.692 30.7408 155.692 30.4509C155.692 30.1609 155.622 29.8985 155.496 29.6638C155.368 29.4291 155.186 29.2496 154.948 29.1253C154.708 29.001 154.455 28.932 154.161 28.932C153.866 28.932 153.613 29.001 153.374 29.1253C153.136 29.2496 152.966 29.4429 152.826 29.6638C152.7 29.8985 152.629 30.1609 152.629 30.4509C152.629 30.7408 152.7 31.0032 152.826 31.2379C152.953 31.4726 153.136 31.6521 153.374 31.7764C153.613 31.9007 153.866 31.9698 154.161 31.9698C154.455 31.9698 154.723 31.9007 154.948 31.7764ZM153.402 31.2932V31.1689L153.43 31.1551H153.515C153.542 31.1551 153.57 31.1412 153.584 31.1275C153.613 31.0998 153.613 31.0861 153.613 31.0584V29.7743C153.613 29.7466 153.599 29.7191 153.584 29.7052C153.556 29.6776 153.542 29.6776 153.515 29.6776H153.43L153.402 29.6638V29.5396L153.43 29.5258H154.161C154.372 29.5258 154.526 29.5672 154.652 29.6638C154.779 29.7605 154.834 29.8848 154.834 30.0505C154.834 30.1748 154.793 30.2989 154.694 30.3818C154.597 30.4785 154.483 30.5338 154.343 30.5475L154.512 30.6028L154.834 31.1136C154.863 31.1551 154.891 31.1689 154.934 31.1689H155.017L155.031 31.1827V31.3069L155.017 31.3208H154.582L154.554 31.3069L154.104 30.5613H153.992V31.0584C153.992 31.0861 154.006 31.1136 154.02 31.1275C154.049 31.1551 154.063 31.1551 154.09 31.1551H154.175L154.203 31.1689V31.2932L154.175 31.3069H153.43L153.402 31.2932ZM154.118 30.3818C154.231 30.3818 154.329 30.3542 154.386 30.2852C154.441 30.2299 154.483 30.1333 154.483 30.0228C154.483 29.9123 154.455 29.8295 154.4 29.7605C154.343 29.6915 154.258 29.6638 154.161 29.6638H154.104C154.076 29.6638 154.049 29.6776 154.035 29.6915C154.006 29.719 154.006 29.7329 154.006 29.7605V30.3818H154.118Z" fill="#FAF9F5"/>
</g>
<defs>
<clipPath id="clip0_12977_31444">
<rect width="156" height="39" fill="white" transform="translate(0 0.5)"/>
</clipPath>
</defs>
</svg>
