<svg width="143" height="40" viewBox="0 0 143 40" fill="none" xmlns="http://www.w3.org/2000/svg">
<g clip-path="url(#clip0_12988_13626)">
<path d="M32.3 0H3.6C1.6 0 0 1.6 0 3.6V36.4C0 38.4 1.6 40 3.6 40H32.3C34.3 40 35.9 38.4 35.9 36.4V3.6C35.9 1.6 34.3 0 32.3 0ZM33.9 36.4C33.9 37.3 33.2 38 32.3 38H3.6C2.7 38 2 37.3 2 36.4V3.6C2 2.7 2.7 2 3.6 2H32.3C33.2 2 33.9 2.7 33.9 3.6V36.4ZM9 34L13.5 30L9 26V34ZM25.2 17.8C24.4 17 22.9 16 20.4 16C17.7 16 14.9 16.7 12.9 17.4V6H8.9V23.3L11.7 22C11.7 22 16.3 19.9 20.3 19.9C22.3 19.9 22.8 21 22.8 22V34H26.8V22C26.9 21.7 26.9 19.5 25.2 17.8ZM19.9 12.5H23.9C25.7 10.4 26.6 8.3 26.9 6H22.9C22.5 8.3 21.5 10.4 19.9 12.5ZM130.4 21.9V13.1H134.4V21.9C134.4 23.9 135.1 24.9 136.7 24.9C138.3 24.9 138.9 24 138.9 21.9V13.1H142.8V22C142.8 25.9 140.9 28.2 136.6 28.2C132.3 28.1 130.4 25.8 130.4 21.9ZM113.6 13.1H117.6V18.5L121.7 13.1H126.3L121.3 18.9L126.7 27.9H122.2L118.7 22L117.6 23.3V27.9H113.6V13.1ZM94.6 20.4C94.6 15 98.3 12.7 101.9 12.7C105.5 12.7 109.2 15 109.2 20.4C109.2 25.8 105.5 28.1 101.9 28.1C98.3 28.1 94.6 25.9 94.6 20.4ZM105.1 20.4C105.1 17.7 103.9 16 101.8 16C99.7 16 98.5 17.7 98.5 20.4C98.5 23.1 99.7 24.9 101.8 24.9C103.9 24.9 105.1 23.2 105.1 20.4ZM78.5 13.1H84.3C88.1 13.1 90.4 14.4 90.4 17.9C90.4 20.2 89.4 21.6 87.5 22.2L90.6 27.9H86.4L83.5 22.8H82.4V27.9H78.5V13.1ZM84.2 19.7C85.8 19.7 86.6 19.2 86.6 18C86.6 16.8 85.9 16.3 84.2 16.3H82.5V19.7H84.2ZM63.2 13.1H73.8V16.4H67.2V18.8H71.9V21.9H67.2V24.6H74.1V27.8H63.2V13.1ZM45.1 13.1H49.1V18.6H54V13.1H58V27.9H54V21.9H49.1V27.9H45.1V13.1Z" fill="#430098"/>
</g>
<defs>
<clipPath id="clip0_12988_13626">
<rect width="143" height="40" fill="white"/>
</clipPath>
</defs>
</svg>
