<svg width="117" height="40" viewBox="0 0 117 40" fill="none" xmlns="http://www.w3.org/2000/svg">
<path d="M15.7843 17.2258L24.5751 21.2309L33.4339 13.4583C33.5696 12.8134 33.6205 12.1855 33.6205 11.5066C33.6205 6.04203 29.1742 1.5957 23.7096 1.5957C20.4343 1.5957 17.3965 3.20792 15.5467 5.90627L14.0703 13.5601L15.7843 17.2258Z" fill="#FED10A"/>
<path d="M6.68668 26.5253C6.55091 27.1702 6.5 27.832 6.5 28.5108C6.5 33.9924 10.9633 38.4388 16.4448 38.4388C19.7371 38.4388 22.8088 36.8095 24.6587 34.0942L26.1181 26.4744L24.1665 22.7409L15.3417 18.7188L6.68668 26.5253Z" fill="#24BBB1"/>
<path d="M6.63616 11.3205L12.6608 12.746L13.9845 5.90679C13.1699 5.27887 12.1517 4.93945 11.0995 4.93945C8.48597 4.93945 6.34766 7.06079 6.34766 9.69125C6.34766 10.2513 6.44948 10.8114 6.63616 11.3205Z" fill="#EF5098"/>
<path d="M6.10809 12.7617C3.42672 13.6441 1.54297 16.2237 1.54297 19.0578C1.54297 21.824 3.25701 24.2848 5.81959 25.2691L14.2711 17.6323L12.7267 14.323L6.10809 12.7617Z" fill="#1BA9F5"/>
<path d="M26.1875 34.0938C27.0191 34.7217 28.0204 35.0781 29.0556 35.0781C31.6691 35.0781 33.8074 32.9567 33.8074 30.3263C33.8074 29.7493 33.7056 29.1892 33.5189 28.6801L27.5113 27.2715L26.1875 34.0938Z" fill="#93C83E"/>
<path d="M27.4082 25.6936L34.0268 27.2379C36.7252 26.3554 38.5919 23.7759 38.5919 20.9248C38.5919 18.1756 36.8779 15.6978 34.3153 14.7305L25.6602 22.3164L27.4082 25.6936Z" fill="#0B64DD"/>
<path fill-rule="evenodd" clip-rule="evenodd" d="M60.3467 29.8166V9.96094H62.4171V29.8166H60.3467ZM56.1377 28.0856L56.9354 28.0008L56.9863 29.63C54.8819 29.9185 53.083 30.0712 51.5896 30.0712C49.604 30.0712 48.1954 29.4942 47.3639 28.3402C46.5323 27.1862 46.125 25.3873 46.125 22.9605C46.125 18.1068 48.0597 15.68 51.912 15.68C53.7788 15.68 55.1704 16.2061 56.0868 17.2413C57.0032 18.2766 57.4614 19.9227 57.4614 22.1459L57.3427 23.7242H48.2124C48.2124 25.2515 48.4839 26.3886 49.044 27.1183C49.604 27.848 50.5544 28.2214 51.929 28.2214C53.3206 28.2553 54.7122 28.2044 56.1377 28.0856ZM55.391 22.095C55.391 20.3979 55.1195 19.193 54.5764 18.4972C54.0334 17.8014 53.1509 17.445 51.929 17.445C50.7071 17.445 49.7737 17.8183 49.1628 18.5481C48.5518 19.2778 48.2294 20.4658 48.2124 22.095H55.391ZM75.5015 26.9656V20.1603C75.5015 18.6329 75.1452 17.4959 74.4154 16.7831C73.7026 16.0534 72.5656 15.697 71.0043 15.697H65.6925V17.5298H71.1401C71.8359 17.5298 72.3959 17.7335 72.8032 18.1408C73.2105 18.5481 73.4141 19.2269 73.4141 20.1603V21.3482L69.0696 21.7555C67.6101 21.8913 66.541 22.2986 65.8622 22.9265C65.1833 23.5544 64.8439 24.5557 64.8439 25.8964C64.8439 27.2541 65.1833 28.2893 65.8452 29.002C66.5071 29.7318 67.4744 30.0882 68.7472 30.0882C70.4103 30.0882 72.0565 29.7827 73.7196 29.053C74.3541 29.6579 75.3477 29.6471 76.5556 29.634C76.7368 29.632 76.9234 29.63 77.1138 29.63L77.2156 27.7971C77.2156 27.7971 75.5015 27.6614 75.5015 26.9656ZM69.0866 28.3402C67.678 28.3402 66.9822 27.4916 66.9822 25.7946C66.9822 25.0309 67.1519 24.4369 67.5253 24.0296C67.8986 23.6223 68.4926 23.3847 69.3242 23.3169L73.4141 22.9265V27.4916L72.7862 27.7123C71.5813 28.1365 70.3424 28.3402 69.0866 28.3402ZM83.5966 17.5468C81.594 17.5468 80.5758 18.2426 80.5758 19.6512C80.5758 20.2961 80.8134 20.7543 81.2716 21.0258C81.7298 21.2974 82.782 21.5689 84.4281 21.8574C86.0743 22.1459 87.2283 22.5362 87.9072 23.0623C88.586 23.5715 88.9254 24.5388 88.9254 25.9643C88.9254 27.3899 88.4672 28.4251 87.5508 29.0869C86.6343 29.7488 85.3106 30.0882 83.5457 30.0882C82.4086 30.0882 78.5902 29.6639 78.5902 29.6639L78.709 27.865C79.0517 27.8969 79.3799 27.928 79.6938 27.9577C81.3848 28.1177 82.6608 28.2384 83.5626 28.2384C84.6318 28.2384 85.4464 28.0687 86.0064 27.7293C86.5665 27.3899 86.855 26.8129 86.855 26.0152C86.855 25.2176 86.6174 24.6745 86.1422 24.386C85.667 24.0975 84.6148 23.826 82.9856 23.5715C81.3564 23.3169 80.2024 22.9435 79.5236 22.4344C78.8447 21.9423 78.5053 21.0089 78.5053 19.6682C78.5053 18.3275 78.9805 17.3262 79.9309 16.6813C80.8812 16.0365 82.0692 15.714 83.4778 15.714C84.5978 15.714 88.5011 16.0025 88.5011 16.0025V17.8184C87.8173 17.7788 87.1748 17.7355 86.5788 17.6953C85.3851 17.6148 84.3776 17.5468 83.5966 17.5468ZM94.542 17.7844H98.9374V15.9685H94.542V11.7428H92.4885V15.9855H90.5199V17.7844H92.4885V25.0648C92.4885 27.0335 92.7601 28.3741 93.3201 29.0699C93.8801 29.7657 94.8644 30.1221 96.3069 30.1221C96.9518 30.1221 97.8852 30.0203 99.1241 29.8167L98.9883 28.1026L96.5275 28.2723C95.662 28.2723 95.119 28.0178 94.8814 27.5256C94.6608 27.0335 94.542 25.9813 94.542 24.403V17.7844ZM101.822 12.846V10.4531H103.893V12.8629L101.822 12.846ZM101.822 29.8167V15.9855H103.893V29.8167H101.822ZM115.993 16.0364C114.533 15.8158 113.498 15.697 112.887 15.697C110.817 15.697 109.34 16.2401 108.441 17.2922C107.558 18.3444 107.117 20.1942 107.117 22.8247C107.117 25.4552 107.541 27.3219 108.356 28.425C109.17 29.5281 110.664 30.0882 112.819 30.0882C113.668 30.0882 114.957 29.9524 116.672 29.6978L116.587 27.9838L113.328 28.2384C111.665 28.2384 110.579 27.848 110.053 27.0504C109.527 26.2528 109.272 24.8442 109.272 22.8247C109.272 20.8052 109.561 19.4136 110.121 18.6669C110.681 17.9202 111.75 17.5468 113.311 17.5468C114.007 17.5468 115.093 17.6317 116.57 17.8014L116.655 16.1213L115.993 16.0364Z" fill="#FAF9F5"/>
</svg>
