<svg width="81" height="28" viewBox="0 0 81 28" fill="none" xmlns="http://www.w3.org/2000/svg">
<g clip-path="url(#clip0_12634_25712)">
<path d="M4.33989 20.0949C4.68218 20.9994 5.15609 21.7728 5.76168 22.4151C6.36728 23.0575 7.08473 23.549 7.91404 23.8899C8.74343 24.2307 9.64518 24.4011 10.6194 24.4011C11.5673 24.4011 12.4558 24.2241 13.2852 23.8701C14.1146 23.5161 14.8386 23.0181 15.4573 22.3758C16.076 21.7334 16.5566 20.9666 16.8989 20.0752C17.2412 19.1838 17.4123 18.1877 17.4123 17.0865V0.0976562H21.5591V27.6258H17.4518V25.0696C16.5303 26.0395 15.4441 26.7867 14.1935 27.3112C12.9428 27.8355 11.5936 28.0977 10.1455 28.0977C8.67099 28.0977 7.29533 27.842 6.01834 27.3308C4.74143 26.8196 3.63554 26.0921 2.70094 25.1482C1.76633 24.2043 1.02904 23.0706 0.489333 21.7466C-0.0504599 20.4226 -0.320312 18.9479 -0.320312 17.3224V0.0976562H3.82649V17.0865C3.82649 18.1877 3.99759 19.1904 4.33989 20.0949Z" fill="#010202"/>
<path d="M28.7076 0.0976562V10.1257C29.6291 9.20814 30.6954 8.48068 31.9065 7.94318C33.1176 7.40567 34.4341 7.13697 35.8558 7.13697C37.3303 7.13697 38.7125 7.4122 40.0026 7.96276C41.2927 8.51331 42.4117 9.26052 43.3596 10.2044C44.3074 11.1483 45.0578 12.2624 45.6107 13.5471C46.1636 14.8318 46.44 16.1951 46.44 17.637C46.44 19.0789 46.1636 20.4357 45.6107 21.7071C45.0578 22.9787 44.3074 24.0864 43.3596 25.0301C42.4117 25.974 41.2927 26.7212 40.0026 27.2718C38.7125 27.8223 37.3302 28.0976 35.8558 28.0976C34.4341 28.0976 33.1111 27.8289 31.8868 27.2914C30.6625 26.7539 29.5896 26.0264 28.6681 25.1088V27.6257H24.7188V0.0976562H28.7076ZM29.1617 20.3505C29.5171 21.1895 30.0108 21.9236 30.6427 22.5528C31.2746 23.182 32.0118 23.6802 32.8544 24.0472C33.6969 24.4142 34.6052 24.5978 35.5794 24.5978C36.5273 24.5978 37.4224 24.4142 38.2649 24.0472C39.1075 23.6802 39.838 23.1821 40.4569 22.5528C41.0756 21.9236 41.5692 21.1895 41.9378 20.3505C42.3064 19.5115 42.4907 18.6071 42.4907 17.637C42.4907 16.667 42.3064 15.7559 41.9378 14.9038C41.5692 14.0518 41.0756 13.3112 40.4569 12.6819C39.8381 12.0528 39.1075 11.5612 38.2649 11.2073C37.4224 10.8534 36.5272 10.6763 35.5794 10.6763C34.6316 10.6763 33.7364 10.8533 32.8939 11.2073C32.0514 11.5612 31.3142 12.0528 30.6822 12.6819C30.0504 13.3112 29.5501 14.0518 29.1815 14.9038C28.8129 15.7559 28.6286 16.667 28.6286 17.637C28.6286 18.6071 28.8063 19.5115 29.1617 20.3505Z" fill="#010202"/>
<path d="M48.6921 13.5858C49.2186 12.3273 49.9428 11.2197 50.8642 10.2628C51.7856 9.30587 52.8784 8.55213 54.1422 8.00157C55.406 7.45102 56.7751 7.17578 58.2495 7.17578C59.6976 7.17578 61.0404 7.43796 62.2778 7.96224C63.5153 8.4866 64.5816 9.21415 65.4768 10.1449C66.372 11.0755 67.0697 12.1767 67.5699 13.4482C68.0702 14.7198 68.3203 16.1027 68.3203 17.5972V18.8949H51.9306C52.0623 19.7077 52.3256 20.4614 52.7205 21.1561C53.1154 21.8508 53.609 22.4538 54.2014 22.9651C54.7938 23.4764 55.4652 23.8762 56.2156 24.1645C56.966 24.4529 57.7624 24.5972 58.605 24.5972C61.0009 24.5972 62.9361 23.6139 64.4105 21.6476L67.2935 23.7712C66.293 25.1083 65.0556 26.157 63.5812 26.9173C62.1067 27.6775 60.448 28.0577 58.605 28.0577C57.1042 28.0577 55.7023 27.7955 54.399 27.2712C53.0957 26.7469 51.9636 26.0127 51.0026 25.0689C50.0416 24.125 49.2846 23.0174 48.7317 21.7459C48.1788 20.4744 47.9023 19.0913 47.9023 17.597C47.9022 16.1813 48.1656 14.8442 48.6921 13.5858ZM54.2409 12.0324C53.1219 12.9631 52.3782 14.2019 52.0096 15.7487H64.292C63.9497 14.2019 63.2191 12.9631 62.1001 12.0324C60.9811 11.1017 59.6713 10.6364 58.1706 10.6364C56.6698 10.6364 55.3599 11.1017 54.2409 12.0324Z" fill="#010202"/>
<path d="M75.7839 12.4852C74.9414 13.4028 74.5201 14.6481 74.5201 16.2212V27.6258H70.5312V7.56952H74.4806V10.0471C74.9808 9.23433 75.6325 8.59197 76.4355 8.12008C77.2385 7.6481 78.193 7.41211 79.2988 7.41211H80.681V11.1088H79.0223C77.7059 11.1088 76.6264 11.5676 75.7839 12.4852Z" fill="#010202"/>
</g>
<defs>
<clipPath id="clip0_12634_25712">
<rect width="81" height="28" fill="white"/>
</clipPath>
</defs>
</svg>
