<svg width="178" height="47" viewBox="0 0 178 47" fill="none" xmlns="http://www.w3.org/2000/svg">
<path d="M58.0179 24.7378C58.3457 24.3704 58.6735 24.003 59.0423 23.6356C59.3848 23.2558 59.7262 22.8749 60.0666 22.493C60.3944 22.0843 60.7222 21.7169 61.0093 21.39C61.2965 21.0631 61.5828 20.7373 61.7875 20.4925H65.7622C64.9836 21.3904 64.205 22.2886 63.4268 23.1048C62.6892 23.9213 61.8697 24.7786 60.9683 25.6766C61.4624 26.1376 61.9276 26.6284 62.3614 27.1461C62.8529 27.7175 63.3037 28.2888 63.7545 28.8601C64.2013 29.4329 64.6118 30.0329 64.9836 30.6567C65.3524 31.2688 65.6805 31.7993 65.9263 32.2893H62.0751C61.8285 31.8806 61.5418 31.4728 61.255 31.0236C60.9553 30.5289 60.6268 30.052 60.2713 29.5953C59.9383 29.1056 59.5686 28.6417 59.1653 28.2075C58.8388 27.8003 58.4677 27.4306 58.059 27.1053V32.2484H54.6992V15.3902L58.059 14.8594V24.7378" fill="white"/>
<path d="M77.6052 31.8807C76.8793 32.0823 76.14 32.2324 75.3928 32.3298C74.4583 32.4819 73.5119 32.5501 72.5652 32.5338C71.6998 32.5651 70.8367 32.4265 70.025 32.1259C69.4141 31.8959 68.8737 31.5116 68.4571 31.0106C68.0404 30.5096 67.7618 29.9092 67.6486 29.2685C67.4813 28.5456 67.3987 27.8059 67.4025 27.0641V20.4922H70.7626V26.6558C70.7626 27.7171 70.8861 28.4928 71.1728 28.9828C71.4596 29.4728 71.9917 29.7176 72.7703 29.7176C73.0305 29.7233 73.2907 29.7096 73.5489 29.6767C73.8356 29.6358 74.0407 29.6358 74.2864 29.595V20.4922H77.6462L77.6052 31.8807Z" fill="white"/>
<path d="M88.3813 26.2888C88.3813 24.1256 87.6027 23.0643 86.0045 23.0643C85.6594 23.0647 85.3156 23.1057 84.9802 23.1865C84.6928 23.2558 84.417 23.3658 84.1609 23.513V29.5953C84.3246 29.6362 84.5297 29.6362 84.7755 29.6771C85.0212 29.6771 85.3079 29.7179 85.5951 29.7179C85.9929 29.7358 86.3894 29.6601 86.7525 29.4969C87.1155 29.3338 87.4349 29.0878 87.6848 28.7788C88.175 28.0428 88.4186 27.1712 88.3813 26.2888ZM91.7821 26.3705C91.7993 27.2451 91.6606 28.1159 91.3723 28.9423C91.1256 29.6744 90.72 30.3433 90.1843 30.9014C89.6259 31.4378 88.973 31.8669 88.2583 32.1671C87.4154 32.4573 86.5273 32.5955 85.6357 32.575C85.2263 32.575 84.8165 32.5341 84.3656 32.4936C83.9148 32.4532 83.5054 32.4119 83.0546 32.3706C82.6447 32.3302 82.2349 32.2484 81.8251 32.1667C81.4747 32.1068 81.1315 32.011 80.8008 31.881V15.3898L84.1609 14.8594V20.7373C84.5424 20.5722 84.9407 20.449 85.349 20.3699C85.7811 20.2869 86.2203 20.246 86.6604 20.2477C87.422 20.2337 88.1773 20.3868 88.8728 20.6961C89.5077 20.9714 90.0691 21.391 90.512 21.9213C90.9835 22.4924 91.3197 23.1621 91.4958 23.8804C91.6814 24.6977 91.7775 25.5326 91.7825 26.3705" fill="white"/>
<path d="M93.791 26.4933C93.7688 25.558 93.936 24.6279 94.2825 23.7584C94.5786 23.0314 95.0096 22.3665 95.5529 21.7984C96.0553 21.2722 96.6719 20.8675 97.3555 20.6153C98.0312 20.3389 98.7557 20.1999 99.4862 20.2066C100.221 20.1731 100.954 20.2939 101.639 20.5612C102.324 20.8284 102.945 21.2362 103.461 21.758C104.445 22.7784 104.936 24.2893 104.936 26.2481C104.941 26.4666 104.928 26.6853 104.895 26.9015C104.895 27.1055 104.854 27.3094 104.854 27.5137H97.232C97.2654 27.8412 97.3708 28.1573 97.5408 28.4395C97.7109 28.7217 97.9413 28.9631 98.2157 29.1464C98.898 29.5832 99.7 29.7972 100.51 29.7586C101.115 29.7669 101.719 29.7123 102.313 29.5955C102.818 29.5108 103.312 29.3738 103.788 29.1868L104.239 31.9221C104.075 32.0038 103.829 32.0855 103.502 32.2077C103.17 32.3188 102.826 32.3875 102.477 32.4121C102.085 32.4918 101.688 32.5462 101.289 32.5747C100.879 32.616 100.428 32.6569 100.018 32.6569C99.0662 32.6787 98.1192 32.5123 97.232 32.1673C96.4998 31.8774 95.8317 31.4474 95.2654 30.9016C94.7593 30.3287 94.3697 29.6633 94.1184 28.9424C93.9034 28.1436 93.7931 27.3203 93.7902 26.4933M101.699 25.1871C101.688 24.908 101.632 24.6324 101.534 24.3706C101.453 24.107 101.329 23.8586 101.166 23.6358C100.971 23.3918 100.721 23.1978 100.436 23.07C100.151 22.9421 99.839 22.8842 99.5268 22.901C99.1884 22.9013 98.8536 22.9707 98.5431 23.105C98.2864 23.21 98.0609 23.3787 97.888 23.5949C97.7038 23.8105 97.5644 24.0602 97.4777 24.3297C97.3903 24.5968 97.3219 24.8696 97.273 25.1463H101.699" fill="white"/>
<path d="M114.643 23.4315C114.295 23.3323 113.938 23.2639 113.578 23.2272C113.146 23.1439 112.707 23.1027 112.267 23.1042C112.006 23.1175 111.746 23.145 111.488 23.1863C111.268 23.2159 111.049 23.2568 110.833 23.3089V32.3296H107.473V21.1045C108.17 20.8695 108.882 20.6786 109.603 20.5332C110.504 20.3288 111.425 20.2329 112.349 20.2476C112.568 20.2431 112.787 20.2566 113.004 20.288C113.265 20.2971 113.525 20.3244 113.783 20.3698C114.029 20.4106 114.275 20.4515 114.561 20.4924C114.807 20.5332 115.053 20.615 115.217 20.655L114.643 23.4315Z" fill="white"/>
<path d="M117.023 20.9007C118.668 20.4683 120.362 20.2488 122.063 20.2476C122.916 20.2122 123.766 20.351 124.563 20.6555C125.189 20.8657 125.743 21.2478 126.161 21.7577C126.547 22.2685 126.825 22.8514 126.98 23.4716C127.152 24.1938 127.235 24.9343 127.226 25.6764V32.33H123.866V26.0847C123.866 25.0234 123.743 24.2477 123.457 23.7986C123.17 23.3494 122.637 23.1455 121.858 23.1455C121.598 23.1398 121.338 23.1534 121.08 23.1864C120.832 23.1912 120.586 23.2185 120.343 23.2681V32.3709H117.023V20.9007Z" fill="white"/>
<path d="M129.725 26.4933C129.702 25.558 129.869 24.6279 130.216 23.7584C130.512 23.0314 130.943 22.3665 131.486 21.7984C131.989 21.2721 132.605 20.8674 133.289 20.6153C133.965 20.3389 134.689 20.1999 135.42 20.2066C136.154 20.1731 136.888 20.2939 137.573 20.5612C138.258 20.8284 138.878 21.2362 139.394 21.758C140.377 22.7784 140.869 24.2893 140.869 26.2481C140.875 26.4667 140.861 26.6853 140.828 26.9015C140.828 27.1055 140.787 27.3094 140.787 27.5137H133.166C133.199 27.8412 133.305 28.1573 133.475 28.4395C133.645 28.7217 133.875 28.9631 134.15 29.1464C134.832 29.5831 135.634 29.7971 136.444 29.7586C137.049 29.767 137.653 29.7123 138.247 29.5955C138.752 29.5108 139.246 29.3738 139.722 29.1868L140.173 31.9221C140.009 32.0038 139.763 32.0855 139.435 32.2077C139.104 32.3188 138.76 32.3874 138.411 32.4121C138.019 32.4919 137.622 32.5462 137.222 32.5747C136.813 32.616 136.362 32.6569 135.952 32.6569C135 32.6787 134.053 32.5123 133.166 32.1673C132.434 31.8774 131.766 31.4474 131.199 30.9016C130.693 30.3287 130.304 29.6633 130.052 28.9424C129.837 28.1436 129.727 27.3203 129.724 26.4933M137.632 25.1871C137.621 24.9081 137.566 24.6325 137.469 24.3706C137.388 24.1069 137.263 23.8586 137.1 23.6358C136.905 23.3918 136.655 23.1977 136.37 23.0699C136.085 22.942 135.773 22.8841 135.46 22.901C135.122 22.9013 134.787 22.9708 134.477 23.105C134.22 23.21 133.995 23.3786 133.822 23.5949C133.638 23.8105 133.498 24.0602 133.412 24.3297C133.324 24.5968 133.256 24.8696 133.207 25.1463H137.632" fill="white"/>
<path d="M143.368 17.5539L146.727 17.0234V20.4931H150.743V23.2684H146.727V27.432C146.699 28.0125 146.826 28.59 147.096 29.1055C147.342 29.5141 147.874 29.7181 148.612 29.7181C148.982 29.7111 149.351 29.6839 149.718 29.6363C150.081 29.5706 150.437 29.4751 150.784 29.3507L151.275 31.9629C150.841 32.1474 150.387 32.2842 149.923 32.3712C149.317 32.4974 148.698 32.552 148.079 32.5339C147.298 32.5553 146.52 32.4309 145.785 32.1673C145.233 31.944 144.742 31.5942 144.351 31.1464C143.971 30.6676 143.705 30.1094 143.572 29.5137C143.435 28.8283 143.366 28.1309 143.367 27.432V17.5539" fill="white"/>
<path d="M152.463 26.4933C152.441 25.558 152.608 24.6279 152.955 23.7584C153.251 23.0314 153.682 22.3665 154.225 21.7984C154.727 21.2722 155.344 20.8674 156.028 20.6153C156.703 20.3389 157.428 20.1999 158.158 20.2066C158.893 20.1731 159.626 20.2939 160.311 20.5612C160.996 20.8284 161.617 21.2362 162.133 21.758C163.117 22.7784 163.608 24.2893 163.608 26.2481C163.613 26.4667 163.6 26.6853 163.567 26.9015C163.567 27.1055 163.526 27.3094 163.526 27.5137H155.905C155.938 27.8412 156.043 28.1573 156.213 28.4395C156.383 28.7217 156.614 28.9631 156.888 29.1464C157.57 29.5831 158.372 29.7971 159.182 29.7586C159.787 29.767 160.392 29.7123 160.986 29.5955C161.49 29.5108 161.984 29.3738 162.46 29.1868L162.911 31.9221C162.748 32.0038 162.501 32.0855 162.174 32.2077C161.842 32.3188 161.498 32.3874 161.149 32.4121C160.757 32.4918 160.36 32.5462 159.961 32.5747C159.551 32.616 159.101 32.6569 158.691 32.6569C157.739 32.6787 156.792 32.5123 155.905 32.1673C155.172 31.8774 154.504 31.4474 153.938 30.9016C153.432 30.3287 153.042 29.6633 152.791 28.9424C152.556 28.1477 152.445 27.3216 152.463 26.4933M160.33 25.1871C160.319 24.908 160.264 24.6324 160.166 24.3706C160.085 24.107 159.96 23.8586 159.797 23.6358C159.603 23.3918 159.352 23.1978 159.067 23.07C158.782 22.9421 158.471 22.8842 158.158 22.901C157.82 22.9013 157.485 22.9707 157.175 23.105C156.918 23.21 156.692 23.3786 156.519 23.5949C156.335 23.8105 156.196 24.0603 156.11 24.3297C156.022 24.5968 155.954 24.8696 155.905 25.1463H160.33" fill="white"/>
<path d="M169.55 29.8814C169.994 29.9139 170.439 29.8585 170.862 29.7183C170.984 29.651 171.085 29.5495 171.15 29.4261C171.215 29.3027 171.243 29.1629 171.23 29.024C171.23 28.7383 171.067 28.5344 170.738 28.3305C170.26 28.0455 169.751 27.8127 169.222 27.6362C168.69 27.4322 168.198 27.2283 167.789 27.024C167.396 26.8369 167.037 26.5889 166.723 26.2892C166.422 25.9854 166.185 25.6245 166.026 25.2278C165.852 24.758 165.768 24.2595 165.78 23.7586C165.758 23.2566 165.858 22.7566 166.072 22.3015C166.286 21.8465 166.608 21.4499 167.01 21.146C167.829 20.4929 168.977 20.166 170.411 20.166C171.112 20.1714 171.811 20.2397 172.5 20.3703C173.033 20.4511 173.555 20.5881 174.058 20.779L173.484 23.3913C173.062 23.2631 172.639 23.1406 172.214 23.0239C171.718 22.9023 171.208 22.8474 170.697 22.8604C169.632 22.8604 169.14 23.1461 169.14 23.7174C169.148 23.8435 169.176 23.9677 169.222 24.0852C169.28 24.2221 169.38 24.3367 169.509 24.4117C169.633 24.4934 169.837 24.6156 170.042 24.7382C170.288 24.8604 170.574 24.9422 170.943 25.1056C171.577 25.3315 172.194 25.6043 172.787 25.9218C173.218 26.1183 173.596 26.4117 173.894 26.7788C174.176 27.0591 174.375 27.4127 174.467 27.7996C174.59 28.2238 174.645 28.6645 174.631 29.1057C174.657 29.6226 174.55 30.1376 174.321 30.6019C174.091 31.0662 173.747 31.4646 173.32 31.7593C172.459 32.3715 171.23 32.6571 169.591 32.6571C168.708 32.6842 167.825 32.588 166.969 32.3714C166.477 32.2701 165.997 32.1196 165.535 31.9223L166.109 29.1875C166.682 29.4071 167.271 29.5844 167.87 29.7179C168.422 29.8349 168.986 29.8897 169.55 29.8814Z" fill="white"/>
<path d="M4.10938 27.582H6.0533V29.1203H4.10977L4.10938 27.582Z" fill="white"/>
<path d="M27.24 26.7119C27.1884 26.7017 27.1359 26.6977 27.0834 26.7C26.9928 26.7048 26.9041 26.7277 26.8226 26.7675C26.6643 26.8435 26.5417 26.9775 26.4802 27.1414C26.4186 27.3054 26.423 27.4867 26.4924 27.6475L26.4876 27.6542L28.0488 31.4115C29.5424 30.4619 30.6757 29.0435 31.2696 27.3805L27.2471 26.704L27.24 26.7119ZM20.9804 27.2436C20.9466 27.0955 20.8638 26.963 20.7454 26.8673C20.627 26.7716 20.4797 26.7183 20.3273 26.7159C20.2823 26.7154 20.2373 26.7193 20.1931 26.7278L20.1863 26.7199L16.1985 27.3943C16.7974 29.0441 17.926 30.4509 19.4093 31.3964L20.9546 27.6764L20.9426 27.6618C20.9997 27.5301 21.0129 27.3833 20.9804 27.2436ZM24.3203 28.7029C24.262 28.5947 24.1754 28.5043 24.0696 28.4413C23.9638 28.3784 23.8428 28.3452 23.7196 28.3454C23.5964 28.3455 23.4755 28.379 23.3699 28.4423C23.2643 28.5055 23.1779 28.5961 23.1199 28.7044H23.1167L21.1557 32.2372C22.5598 32.7134 24.0693 32.7907 25.5151 32.4605C25.7832 32.3997 26.0452 32.3268 26.3008 32.2419L24.335 28.7029H24.3203ZM30.5284 20.4971L27.5112 23.1871L27.5128 23.1959C27.4201 23.2766 27.3511 23.3808 27.3131 23.4975C27.275 23.6141 27.2694 23.7388 27.2968 23.8584C27.3242 23.978 27.3836 24.0879 27.4687 24.1766C27.5538 24.2652 27.6613 24.3293 27.78 24.3619L27.784 24.3778L31.6921 25.4998C31.8611 23.7504 31.4525 21.9942 30.5284 20.4971ZM24.9229 20.7983C24.9285 20.9208 24.9674 21.0395 25.0354 21.1418C25.1033 21.2441 25.1978 21.3262 25.3088 21.3793C25.4198 21.4324 25.5432 21.4545 25.6658 21.4434C25.7885 21.4323 25.9058 21.3882 26.0053 21.316L26.0173 21.3212L29.3189 18.9891C28.0622 17.7626 26.4358 16.9814 24.6899 16.7656L24.9193 20.7967L24.9229 20.7983ZM21.4265 21.3311C21.5261 21.4032 21.6435 21.4471 21.7661 21.4581C21.8888 21.4691 22.0121 21.4467 22.123 21.3934C22.2339 21.34 22.3282 21.2577 22.3959 21.1553C22.4636 21.0528 22.5021 20.9339 22.5074 20.8114L22.5241 20.8034L22.7535 16.766C22.4766 16.7991 22.2016 16.8462 21.9295 16.9073C20.4823 17.2314 19.1549 17.952 18.097 18.9879L21.4201 21.3347L21.4265 21.3311ZM19.655 24.3818C19.774 24.3494 19.8819 24.2855 19.9672 24.1969C20.0526 24.1082 20.1122 23.9982 20.1397 23.8784C20.1671 23.7587 20.1615 23.6337 20.1232 23.517C20.085 23.4002 20.0157 23.2959 19.9227 23.2153L19.9258 23.1994L16.8919 20.4959C15.9662 21.9968 15.569 23.7621 15.7628 25.5129L19.6518 24.3949L19.655 24.3818ZM22.6022 25.5693L23.7213 26.1049L24.8368 25.5705L25.114 24.3703L24.3418 23.4081H23.0992L22.3242 24.3683L22.6022 25.5693Z" fill="#326CE5"/>
<path d="M42.2215 27.9343L39.0322 14.1339C38.9465 13.7769 38.7822 13.4434 38.5514 13.1573C38.3205 12.8712 38.0288 12.6397 37.6973 12.4795L24.7879 6.33926C24.4534 6.1802 24.0873 6.09766 23.7166 6.09766C23.3459 6.09766 22.9799 6.1802 22.6453 6.33926L9.73875 12.4826C9.4071 12.6427 9.11528 12.8742 8.88434 13.1603C8.65341 13.4464 8.48913 13.7801 8.40337 14.1371L5.21925 27.9371C5.14073 28.2859 5.14046 28.6476 5.21846 28.9965C5.24147 29.1028 5.27154 29.2075 5.30846 29.3099C5.37074 29.4845 5.4532 29.6514 5.55419 29.807C5.598 29.8737 5.6442 29.938 5.69438 30.001L14.6282 41.0666C14.6673 41.1142 14.7103 41.1587 14.7529 41.2035C14.8931 41.3521 15.0513 41.4828 15.224 41.5923C15.4425 41.7292 15.6806 41.8322 15.9302 41.8978C16.1347 41.9538 16.3457 41.9828 16.5578 41.9843H16.6972L30.8846 41.9811C30.9708 41.9808 31.057 41.9757 31.1426 41.966C31.2655 41.9522 31.3872 41.9291 31.5067 41.897C31.5923 41.8746 31.6767 41.8477 31.7595 41.8165C31.8243 41.7927 31.8881 41.7662 31.9507 41.7371C32.0439 41.6928 32.1344 41.6428 32.2215 41.5875C32.4464 41.4467 32.6465 41.2702 32.8142 41.065L33.0866 40.7278L41.7448 29.9975C41.9109 29.7902 42.0415 29.5569 42.1311 29.3071C42.1685 29.2045 42.1991 29.0995 42.2227 28.9929C42.3008 28.644 42.3004 28.2822 42.2215 27.9335V27.9343ZM28.8319 33.3017C28.868 33.4078 28.9108 33.5116 28.9602 33.6123C28.8813 33.75 28.8598 33.913 28.9004 34.0662C29.0883 34.4948 29.3177 34.9041 29.5854 35.2882C29.7352 35.4846 29.8735 35.6894 29.9996 35.9016C30.0307 35.9591 30.0713 36.048 30.1008 36.1087C30.1565 36.2013 30.1921 36.3045 30.2054 36.4116C30.2186 36.5188 30.2092 36.6275 30.1778 36.7308C30.1463 36.8341 30.0935 36.9297 30.0227 37.0114C29.9519 37.0931 29.8647 37.1592 29.7668 37.2053C29.6688 37.2515 29.5622 37.2767 29.4539 37.2793C29.3456 37.2819 29.2379 37.2619 29.1378 37.2206C29.0377 37.1793 28.9474 37.1175 28.8727 37.0393C28.798 36.9611 28.7405 36.8682 28.7041 36.7665C28.6746 36.7062 28.6336 36.6261 28.6085 36.5694C28.5202 36.3387 28.4454 36.1032 28.3843 35.8639C28.2504 35.4164 28.073 34.9829 27.8546 34.5697C27.7595 34.4419 27.618 34.3563 27.4603 34.3313C27.4352 34.2888 27.3436 34.1218 27.2946 34.0353C24.9965 34.9023 22.4585 34.8958 20.1649 34.017L19.9901 34.3328C19.8653 34.3521 19.7493 34.4084 19.6571 34.4943C19.3937 34.925 19.1923 35.3905 19.0589 35.877C18.9984 36.1163 18.9239 36.3518 18.8359 36.5825C18.8112 36.6388 18.7698 36.7181 18.7403 36.7781V36.7796L18.7391 36.7812C18.7027 36.883 18.6452 36.976 18.5705 37.0543C18.4957 37.1325 18.4053 37.1943 18.3052 37.2356C18.205 37.277 18.0972 37.2969 17.9888 37.2942C17.8804 37.2914 17.7737 37.2661 17.6758 37.2198C17.5778 37.1734 17.4907 37.1072 17.42 37.0252C17.3493 36.9433 17.2967 36.8475 17.2654 36.7441C17.2342 36.6406 17.2251 36.5318 17.2387 36.4246C17.2523 36.3174 17.2883 36.2143 17.3444 36.1218C17.3735 36.0607 17.4125 35.9722 17.4432 35.9147C17.5692 35.7019 17.7075 35.4966 17.8574 35.2997C18.13 34.9055 18.3641 34.4862 18.5567 34.0476C18.5772 33.8989 18.5532 33.7475 18.4878 33.6123L18.6284 33.2767C16.5139 32.0335 14.9291 30.0624 14.173 27.7352L13.8365 27.7923C13.7059 27.7 13.5519 27.6459 13.392 27.6364C12.9315 27.7242 12.4807 27.8564 12.0459 28.0312C11.8199 28.1324 11.5882 28.2208 11.3521 28.2958C11.2964 28.3109 11.2159 28.3263 11.1522 28.3402C11.147 28.3418 11.1426 28.3442 11.1375 28.3454L11.1255 28.3466C11.0229 28.3802 10.9144 28.3922 10.8069 28.3817C10.6994 28.3711 10.5954 28.3383 10.5013 28.2854C10.4073 28.2325 10.3254 28.1605 10.2609 28.0742C10.1964 27.9879 10.1507 27.8892 10.1267 27.7843C10.1028 27.6793 10.1011 27.5706 10.1218 27.465C10.1424 27.3594 10.185 27.2593 10.2468 27.171C10.3086 27.0827 10.3882 27.0083 10.4805 26.9525C10.5729 26.8967 10.6759 26.8607 10.783 26.8468L10.7937 26.8441L10.8005 26.8421C10.865 26.827 10.9479 26.8056 11.0068 26.7945C11.2525 26.7605 11.5 26.7406 11.748 26.7349C12.2159 26.7045 12.6797 26.6286 13.1328 26.5084C13.267 26.4232 13.3805 26.3092 13.4649 26.1747L13.7883 26.0807C13.4374 23.6518 13.999 21.1793 15.3654 19.1374L15.1173 18.9176C15.1083 18.758 15.0545 18.604 14.962 18.4733C14.6062 18.1686 14.2214 17.8992 13.813 17.669C13.5925 17.5571 13.3787 17.4325 13.1726 17.2961C13.1256 17.2612 13.0635 17.2088 13.0125 17.1675L13.0009 17.1596C12.8252 17.0339 12.7066 16.8439 12.671 16.6313C12.6354 16.4187 12.6857 16.2007 12.811 16.0249C12.885 15.9346 12.9793 15.863 13.0863 15.8159C13.1932 15.7687 13.3099 15.7474 13.4267 15.7535C13.6232 15.7619 13.812 15.8328 13.9651 15.9559C14.0177 15.9971 14.0898 16.0519 14.1364 16.0919C14.3163 16.2614 14.4862 16.441 14.6454 16.6299C14.9612 16.9755 15.3101 17.2895 15.6872 17.5675C15.8284 17.6415 15.9931 17.6574 16.146 17.6119C16.1902 17.6445 16.3396 17.7508 16.4248 17.8091C17.7824 16.3716 19.5403 15.3711 21.4728 14.9362C21.9328 14.8323 22.3995 14.7607 22.8695 14.7219L22.8878 14.3966C23.0078 14.2905 23.0948 14.1524 23.1387 13.9987C23.1556 13.5317 23.1268 13.0642 23.0527 12.6029C23.0035 12.3611 22.9683 12.1167 22.9472 11.8708C22.9452 11.8149 22.9484 11.7375 22.9492 11.6737C22.9492 11.6665 22.9472 11.6594 22.9472 11.6522C22.9361 11.5446 22.9479 11.4358 22.9816 11.333C23.0154 11.2302 23.0705 11.1355 23.1432 11.0552C23.216 10.9749 23.3049 10.9107 23.4041 10.8667C23.5034 10.8227 23.6107 10.8 23.7194 10.7999C23.828 10.7999 23.9354 10.8225 24.0347 10.8664C24.1339 10.9102 24.2229 10.9744 24.2957 11.0546C24.3686 11.1349 24.4237 11.2294 24.4576 11.3322C24.4915 11.435 24.5034 11.5438 24.4924 11.6514C24.4924 11.7189 24.4964 11.8086 24.494 11.8704C24.4729 12.1161 24.4375 12.3604 24.3881 12.6021C24.3135 13.0635 24.2842 13.5311 24.3005 13.9983C24.331 14.1544 24.4216 14.2926 24.553 14.3831C24.5558 14.4387 24.5649 14.6243 24.5717 14.7267C27.014 14.9479 29.2927 16.0448 30.9845 17.8135L31.2784 17.6044C31.4364 17.6314 31.5988 17.6138 31.7472 17.5536C32.1241 17.2751 32.4729 16.9607 32.7887 16.6149C32.9481 16.4259 33.1185 16.2462 33.2988 16.0769C33.3466 16.0364 33.4183 15.9816 33.4701 15.9408C33.5476 15.8646 33.6404 15.8055 33.7423 15.7674C33.8442 15.7292 33.9531 15.7129 34.0618 15.7193C34.1705 15.7258 34.2766 15.755 34.3732 15.805C34.4699 15.855 34.5549 15.9246 34.6228 16.0095C34.6906 16.0943 34.7398 16.1924 34.7672 16.2974C34.7945 16.4024 34.7994 16.512 34.7814 16.619C34.7635 16.726 34.7232 16.828 34.6631 16.9185C34.603 17.009 34.5245 17.0859 34.4327 17.1441C34.3809 17.1858 34.3124 17.2441 34.2626 17.281C34.056 17.4176 33.8417 17.5421 33.6206 17.654C33.2124 17.8843 32.8275 18.1536 32.4716 18.4582C32.368 18.5791 32.316 18.7356 32.3267 18.8942C32.2837 18.9335 32.1327 19.0668 32.0527 19.139C33.4227 21.1736 33.9954 23.6383 33.6621 26.0656L33.9739 26.1561C34.0519 26.296 34.1673 26.4116 34.3072 26.4901C34.7605 26.6104 35.2244 26.6864 35.6924 26.7171C35.9403 26.7228 36.1876 26.7425 36.4332 26.7762C36.4981 26.7881 36.5925 26.8139 36.6582 26.829C36.7651 26.8431 36.868 26.8793 36.9601 26.9352C37.0522 26.9912 37.1316 27.0657 37.1931 27.1539C37.2547 27.2422 37.2971 27.3423 37.3176 27.4478C37.3381 27.5533 37.3363 27.6619 37.3123 27.7667C37.2883 27.8715 37.2426 27.9701 37.1782 28.0563C37.1137 28.1425 37.0319 28.2143 36.938 28.2672C36.8441 28.3201 36.7401 28.3529 36.6327 28.3635C36.5254 28.3741 36.417 28.3622 36.3145 28.3287L36.3033 28.3271C36.2982 28.3259 36.2934 28.3232 36.2882 28.322C36.2245 28.3081 36.1448 28.2942 36.0891 28.2795C35.8531 28.204 35.6217 28.115 35.3961 28.0129C34.9607 27.838 34.5092 27.7058 34.048 27.6181C33.8884 27.6131 33.7331 27.6705 33.6155 27.778C33.5058 27.7569 33.3957 27.7377 33.2853 27.7205C32.5383 30.0621 30.9533 32.0485 28.8319 33.3017Z" fill="#326CE5"/>
<path d="M43.9073 28.2879L40.4281 13.2322C40.3345 12.8426 40.1553 12.4786 39.9033 12.1664C39.6514 11.8542 39.333 11.6017 38.9712 11.4269L24.8878 4.72849C24.5228 4.55492 24.1234 4.46484 23.7189 4.46484C23.3144 4.46484 22.9151 4.55492 22.55 4.72849L8.46781 11.4309C8.106 11.6055 7.78761 11.8579 7.53561 12.17C7.2836 12.482 7.10427 12.8459 7.01056 13.2354L3.5381 28.2919C3.45975 28.6389 3.45166 28.998 3.5143 29.3482C3.57694 29.6983 3.70906 30.0325 3.90291 30.3312C3.9504 30.4045 4.00157 30.4753 4.05624 30.5435L13.8033 42.6168C14.0588 42.9275 14.3798 43.1782 14.7436 43.3511C15.1075 43.5241 15.5051 43.615 15.9082 43.6174L31.5388 43.6134C31.9419 43.6112 32.3394 43.5205 32.7033 43.3479C33.0672 43.1752 33.3884 42.9248 33.6441 42.6144L43.3876 30.5399C43.6371 30.2269 43.8132 29.8623 43.9032 29.4727C43.9932 29.0832 43.9947 28.6785 43.9077 28.2883L43.9073 28.2879ZM42.2238 28.9933C42.2004 29.1 42.1699 29.2049 42.1326 29.3076C42.043 29.5574 41.9124 29.7906 41.7463 29.9979L33.0881 40.7278L32.8161 41.0651C32.6484 41.2704 32.448 41.4471 32.223 41.588C32.1362 41.6434 32.046 41.6935 31.953 41.738C31.8904 41.7668 31.8266 41.793 31.7619 41.8165C31.6789 41.8479 31.5944 41.8749 31.5086 41.8975C31.3891 41.9295 31.2675 41.9526 31.1445 41.9665C31.0589 41.9762 30.9727 41.9812 30.8865 41.9816L16.6987 41.9848H16.5597C16.3476 41.9834 16.1366 41.9545 15.9321 41.8987C15.6826 41.8329 15.4447 41.7297 15.2263 41.5928C15.0535 41.4832 14.8951 41.3526 14.7548 41.2039C14.7122 41.1591 14.6692 41.1151 14.6301 41.0671L5.69669 30.0015C5.64677 29.9391 5.60004 29.8743 5.5565 29.8071C5.45551 29.6514 5.37305 29.4846 5.31077 29.31C5.27385 29.2076 5.24378 29.1029 5.22076 28.9965C5.14276 28.6477 5.14303 28.2859 5.22156 27.9372L8.40568 14.1368C8.49144 13.7797 8.65572 13.4461 8.88665 13.16C9.11758 12.8739 9.40941 12.6424 9.74106 12.4823L22.6476 6.34011C22.9822 6.18106 23.3482 6.09851 23.7189 6.09851C24.0896 6.09851 24.4557 6.18106 24.7902 6.34011L37.6992 12.4803C38.0307 12.6405 38.3224 12.872 38.5533 13.1581C38.7841 13.4442 38.9484 13.7778 39.0342 14.1348L42.2234 27.9352C42.302 28.2838 42.3021 28.6455 42.2238 28.9941V28.9933Z" fill="white"/>
<path d="M36.6588 26.8279C36.5927 26.8128 36.4987 26.787 36.4342 26.7751C36.1886 26.7413 35.9413 26.7214 35.6934 26.7156C35.2253 26.6851 34.7612 26.6092 34.3079 26.4891C34.1679 26.4106 34.0525 26.2949 33.9745 26.155L33.6627 26.0645C33.9961 23.6373 33.4236 21.1725 32.0537 19.138C32.1333 19.0657 32.2847 18.9324 32.3273 18.8932C32.3165 18.7344 32.3685 18.5777 32.4723 18.4567C32.8282 18.1523 33.213 17.8831 33.6213 17.6529C33.8423 17.541 34.0567 17.4165 34.2633 17.2799C34.313 17.243 34.3811 17.1847 34.4333 17.1431C34.5253 17.0849 34.604 17.0081 34.6643 16.9176C34.7246 16.8271 34.765 16.725 34.7831 16.6179C34.8011 16.5108 34.7963 16.4012 34.769 16.2961C34.7417 16.1909 34.6925 16.0927 34.6246 16.0078C34.5567 15.9229 34.4716 15.8531 34.3749 15.8031C34.2781 15.7531 34.1719 15.7239 34.0631 15.7175C33.9543 15.7111 33.8454 15.7276 33.7434 15.7658C33.6414 15.8041 33.5486 15.8634 33.4711 15.9397C33.4185 15.981 33.3469 16.0349 33.2999 16.0758C33.1194 16.2451 32.9489 16.4248 32.7893 16.6138C32.4735 16.9596 32.1247 17.274 31.7478 17.5525C31.5994 17.6127 31.437 17.6303 31.2791 17.6033L30.9852 17.8124C29.2933 16.0437 27.0146 14.9469 24.5723 14.7256C24.5651 14.6233 24.5564 14.438 24.5536 14.382C24.4224 14.2914 24.3319 14.1533 24.3015 13.9972C24.2852 13.5299 24.3145 13.0622 24.3891 12.6006C24.4383 12.3591 24.4734 12.1149 24.4943 11.8694C24.4966 11.8075 24.4931 11.7174 24.4931 11.6504C24.504 11.5427 24.4921 11.434 24.4583 11.3312C24.4244 11.2284 24.3692 11.1338 24.2964 11.0535C24.2235 10.9733 24.1346 10.9092 24.0353 10.8653C23.936 10.8214 23.8286 10.7988 23.72 10.7988C23.6114 10.7989 23.504 10.8216 23.4047 10.8656C23.3055 10.9096 23.2166 10.9738 23.1439 11.0541C23.0711 11.1345 23.016 11.2291 22.9823 11.3319C22.9485 11.4348 22.9368 11.5435 22.9478 11.6512C22.9478 11.6583 22.9494 11.6654 22.9498 11.6726C22.949 11.7361 22.9458 11.8138 22.9478 11.8698C22.9689 12.1156 23.0042 12.36 23.0533 12.6018C23.1274 13.0632 23.1562 13.5306 23.1394 13.9976C23.0955 14.1513 23.0084 14.2894 22.8885 14.3955L22.8701 14.7209C22.4001 14.7596 21.9334 14.8312 21.4734 14.9351C19.5411 15.37 17.7834 16.3703 16.4258 17.8076C16.3318 17.7434 16.2389 17.6778 16.147 17.6108C15.994 17.6565 15.8292 17.6405 15.6878 17.5664C15.3109 17.2884 14.9621 16.9744 14.6464 16.6289C14.4874 16.44 14.3175 16.2603 14.1378 16.0909C14.0908 16.0508 14.0187 15.9956 13.9665 15.9544C13.8133 15.8313 13.6244 15.7604 13.4277 15.752C13.3109 15.7459 13.1943 15.7673 13.0873 15.8144C12.9803 15.8616 12.886 15.9332 12.812 16.0234C12.6867 16.1992 12.6364 16.4172 12.672 16.6298C12.7076 16.8424 12.8262 17.0324 13.002 17.1581L13.0139 17.1661C13.0645 17.2077 13.1266 17.2605 13.1736 17.2946C13.3797 17.4311 13.5935 17.5556 13.814 17.6676C14.2224 17.898 14.6072 18.1676 14.963 18.4726C15.0554 18.6032 15.1092 18.757 15.1183 18.9166L15.3657 19.1368C13.9995 21.1787 13.4382 23.6512 13.7893 26.08L13.4659 26.1736C13.3815 26.308 13.268 26.4219 13.1338 26.5069C12.6807 26.6274 12.2169 26.7035 11.749 26.7343C11.5012 26.7399 11.2538 26.7598 11.0082 26.7938C10.9485 26.8045 10.8661 26.8255 10.8015 26.8414L10.7948 26.843L10.7836 26.8462C10.6766 26.8602 10.5737 26.8963 10.4816 26.9522C10.3894 27.0081 10.3099 27.0826 10.2483 27.1709C10.1866 27.2591 10.1442 27.3592 10.1236 27.4648C10.103 27.5703 10.1048 27.679 10.1288 27.7838C10.1528 27.8886 10.1985 27.9873 10.2629 28.0735C10.3274 28.1597 10.4093 28.2316 10.5032 28.2845C10.5972 28.3374 10.7012 28.3702 10.8086 28.3808C10.916 28.3913 11.0244 28.3795 11.1269 28.3459L11.1389 28.3443C11.1437 28.3431 11.148 28.3403 11.1532 28.3395C11.2169 28.3253 11.297 28.3098 11.3531 28.2947C11.589 28.2197 11.8204 28.1313 12.0461 28.0301C12.4812 27.8553 12.9323 27.7231 13.393 27.6353C13.5528 27.6451 13.7067 27.6992 13.8371 27.7916L14.174 27.7341C14.9301 30.0613 16.5149 32.0324 18.6294 33.2756L18.4888 33.6113C18.5542 33.7464 18.5782 33.8978 18.5577 34.0465C18.3651 34.485 18.131 34.9041 17.8584 35.2983C17.7085 35.4951 17.5703 35.7005 17.4442 35.9132C17.4135 35.9712 17.3745 36.06 17.345 36.1207C17.2892 36.2132 17.2535 36.3163 17.2401 36.4233C17.2268 36.5304 17.236 36.639 17.2673 36.7423C17.2987 36.8456 17.3513 36.9412 17.422 37.023C17.4926 37.1047 17.5796 37.1709 17.6775 37.2171C17.7753 37.2633 17.8818 37.2887 17.99 37.2915C18.0983 37.2942 18.2059 37.2744 18.306 37.2333C18.4061 37.1921 18.4964 37.1305 18.5712 37.0525C18.646 36.9744 18.7035 36.8817 18.7401 36.7802L18.7413 36.7786V36.777C18.7708 36.7167 18.8122 36.6377 18.8369 36.5814C18.9249 36.3507 18.9994 36.1152 19.0599 35.8759C19.1933 35.3894 19.3947 34.9239 19.6581 34.4932C19.7502 34.4071 19.8663 34.3507 19.9911 34.3314L20.1663 34.0159C22.4598 34.8945 24.9977 34.9008 27.2956 34.0338C27.3446 34.1211 27.4362 34.2877 27.4605 34.3298C27.6183 34.3549 27.7598 34.4407 27.8548 34.5686C28.0735 34.9818 28.2512 35.4153 28.3853 35.8629C28.4464 36.1021 28.5213 36.3376 28.6095 36.5683C28.6346 36.625 28.6756 36.7052 28.7051 36.7655C28.7416 36.8671 28.799 36.96 28.8737 37.0382C28.9484 37.1164 29.0387 37.1782 29.1388 37.2195C29.2389 37.2609 29.3466 37.2809 29.4549 37.2782C29.5632 37.2756 29.6698 37.2504 29.7678 37.2043C29.8657 37.1581 29.9529 37.0921 30.0237 37.0103C30.0945 36.9286 30.1473 36.833 30.1788 36.7297C30.2103 36.6264 30.2197 36.5177 30.2064 36.4106C30.1931 36.3034 30.1575 36.2002 30.1018 36.1076C30.0723 36.0469 30.0317 35.9581 30.001 35.9005C29.875 35.6883 29.7367 35.4835 29.5869 35.2872C29.3191 34.903 29.0897 34.4937 28.9018 34.0651C28.8612 33.9119 28.8827 33.7489 28.9616 33.6113C28.912 33.5105 28.8689 33.4068 28.8325 33.3006C30.954 32.0474 32.5389 30.061 33.2859 27.7194C33.3859 27.7353 33.5599 27.7654 33.6165 27.7769C33.734 27.6695 33.8891 27.6121 34.0486 27.617C34.5095 27.7047 34.9607 27.837 35.3959 28.0118C35.6217 28.1139 35.8532 28.203 36.0893 28.2784C36.1451 28.2931 36.2247 28.307 36.2888 28.3209C36.294 28.3225 36.2988 28.3249 36.304 28.3261L36.3151 28.3276C36.4176 28.3612 36.526 28.373 36.6334 28.3624C36.7407 28.3518 36.8447 28.319 36.9386 28.2662C37.0325 28.2133 37.1143 28.1414 37.1788 28.0552C37.2432 27.9691 37.2889 27.8704 37.313 27.7656C37.337 27.6609 37.3388 27.5522 37.3182 27.4467C37.2977 27.3412 37.2553 27.2411 37.1937 27.1529C37.1322 27.0646 37.0528 26.9901 36.9607 26.9342C36.8686 26.8782 36.7658 26.842 36.6588 26.8279ZM29.318 18.9888L26.0164 21.3205L26.0049 21.3154C25.9054 21.3877 25.788 21.4318 25.6653 21.443C25.5427 21.4543 25.4192 21.4321 25.3082 21.379C25.1971 21.3259 25.1026 21.2438 25.0347 21.1414C24.9667 21.039 24.9279 20.9202 24.9224 20.7976L24.9188 20.796L24.6894 16.765C26.4352 16.9809 28.0614 17.7622 29.318 18.9888ZM23.0983 23.4067H24.3409L25.1136 24.3688L24.8364 25.569L23.7204 26.1038L22.6013 25.5678L22.3237 24.3672L23.0983 23.4067ZM21.929 16.9058C22.2012 16.8447 22.4764 16.7976 22.7534 16.7646L22.5236 20.8016L22.5069 20.8095C22.5017 20.9321 22.4631 21.0509 22.3954 21.1534C22.3278 21.2559 22.2334 21.3382 22.1225 21.3915C22.0116 21.4448 21.8883 21.4672 21.7657 21.4562C21.643 21.4453 21.5256 21.4014 21.426 21.3292L21.4197 21.3332L18.0965 18.986C19.1545 17.9503 20.4819 17.2298 21.929 16.9058ZM16.8914 20.4953L19.9254 23.1984L19.9222 23.215C20.0151 23.2957 20.0843 23.3999 20.1225 23.5166C20.1607 23.6334 20.1663 23.7582 20.1388 23.8779C20.1114 23.9976 20.0518 24.1076 19.9665 24.1962C19.8812 24.2848 19.7734 24.3487 19.6546 24.3811L19.6514 24.3942L15.7623 25.5123C15.5685 23.7614 15.9658 21.9961 16.8914 20.4953ZM20.9537 27.6766L19.4084 31.3962C17.9253 30.4504 16.797 29.0435 16.1984 27.3937L20.1858 26.7192L20.1926 26.7279C20.2367 26.7195 20.2815 26.7155 20.3264 26.716C20.4382 26.7177 20.5479 26.7468 20.6457 26.8007C20.7436 26.8546 20.8266 26.9317 20.8874 27.0251C20.9483 27.1186 20.9851 27.2255 20.9947 27.3365C21.0042 27.4475 20.9862 27.5591 20.9421 27.6615L20.9537 27.6766ZM25.5146 32.4603C24.0688 32.7905 22.5593 32.7131 21.1552 32.2369L23.1163 28.7042H23.1194C23.1777 28.5962 23.2643 28.5059 23.3699 28.443C23.4755 28.38 23.5962 28.3467 23.7193 28.3466C23.8423 28.3465 23.9631 28.3796 24.0689 28.4423C24.1746 28.505 24.2613 28.5951 24.3198 28.703H24.3345L26.3004 32.2416C26.0455 32.3263 25.7836 32.3994 25.5146 32.4603ZM28.0484 31.4112L26.4872 27.6536L26.4919 27.6468C26.4227 27.486 26.4184 27.3048 26.48 27.1409C26.5416 26.977 26.6643 26.8432 26.8225 26.7672C26.9039 26.7275 26.9925 26.7046 27.083 26.6997C27.1354 26.6973 27.188 26.7012 27.2395 26.7113L27.2463 26.7029L31.2691 27.3802C30.6753 29.0432 29.542 30.4616 28.0484 31.4112ZM31.6917 25.4992L27.7831 24.3775L27.7795 24.3613C27.6608 24.3286 27.5532 24.2645 27.4681 24.1758C27.383 24.0871 27.3236 23.9771 27.2963 23.8575C27.2689 23.7378 27.2746 23.613 27.3127 23.4964C27.3508 23.3797 27.4199 23.2755 27.5127 23.1948L27.5107 23.1869L30.5279 20.4968C31.4519 21.9937 31.8605 23.75 31.6917 25.4992Z" fill="white"/>
</svg>
