<svg width="213" height="33" viewBox="0 0 213 33" fill="none" xmlns="http://www.w3.org/2000/svg">
<g clip-path="url(#clip0_13023_22140)">
<mask id="mask0_13023_22140" style="mask-type:alpha" maskUnits="userSpaceOnUse" x="0" y="0" width="33" height="33">
<path fill-rule="evenodd" clip-rule="evenodd" d="M23.3577 32.6786C23.8759 32.8805 24.4668 32.8676 24.9899 32.6159L31.7641 29.3563C32.4759 29.0138 32.9286 28.2933 32.9286 27.503V5.40062C32.9286 4.61028 32.476 3.88987 31.7641 3.54734L24.9899 0.287606C24.3034 -0.0427046 23.5001 0.0382008 22.8976 0.476205C22.8115 0.538774 22.7295 0.608634 22.6526 0.685621L9.68417 12.517L4.03537 8.22908C3.50951 7.82993 2.774 7.86263 2.28562 8.30689L0.473872 9.95495C-0.123513 10.4983 -0.124198 11.4382 0.472391 11.9825L5.37121 16.4518L0.472391 20.921C-0.124198 21.4653 -0.123513 22.4052 0.473872 22.9486L2.28562 24.5966C2.774 25.0409 3.50951 25.0736 4.03537 24.6744L9.68417 20.3865L22.6526 32.2179C22.8578 32.4232 23.0986 32.5777 23.3577 32.6786ZM24.7078 8.98233L14.8677 16.4518L24.7078 23.9212V8.98233Z" fill="white"/>
</mask>
<g mask="url(#mask0_13023_22140)">
<path d="M31.7638 3.55214L24.9842 0.287923C24.1995 -0.0899099 23.2617 0.069468 22.6458 0.685324L0.452156 20.9208C-0.144798 21.465 -0.144112 22.4049 0.453637 22.9483L2.26649 24.5963C2.75517 25.0406 3.49114 25.0733 4.01729 24.6741L30.7436 4.39897C31.6403 3.71876 32.9281 4.35827 32.9281 5.48372V5.40502C32.9281 4.61501 32.4756 3.89486 31.7638 3.55214Z" fill="#0065A9"/>
<g filter="url(#filter0_d_13023_22140)">
<path d="M31.7648 29.3509L24.9852 32.6151C24.2005 32.993 23.2627 32.8336 22.6468 32.2177L0.453133 11.9823C-0.143821 11.438 -0.143135 10.4982 0.454614 9.9548L2.26746 8.30674C2.75614 7.86248 3.49211 7.82977 4.01827 8.22892L30.7446 28.5041C31.6413 29.1843 32.9291 28.5448 32.9291 27.4194V27.4981C32.9291 28.288 32.4765 29.0082 31.7648 29.3509Z" fill="#007ACC"/>
</g>
<g filter="url(#filter1_d_13023_22140)">
<path d="M24.9852 32.6159C24.2002 32.9935 23.2624 32.8338 22.6465 32.2179C23.4054 32.9768 24.7029 32.4393 24.7029 31.3661V1.53743C24.7029 0.464216 23.4054 -0.0732565 22.6465 0.685622C23.2624 0.0697106 24.2002 -0.0898924 24.9852 0.287606L31.7635 3.54735C32.4758 3.88987 32.9287 4.61029 32.9287 5.40063V27.503C32.9287 28.2933 32.4758 29.0138 31.7635 29.3563L24.9852 32.6159Z" fill="#1F9CF0"/>
</g>
<g style="mix-blend-mode:overlay" opacity="0.25">
<path fill-rule="evenodd" clip-rule="evenodd" d="M23.3372 32.6787C23.8554 32.8805 24.4463 32.8676 24.9694 32.6159L31.7436 29.3563C32.4554 29.0138 32.9081 28.2934 32.9081 27.503V5.40064C32.9081 4.61027 32.4555 3.88985 31.7436 3.54733L24.9694 0.287606C24.283 -0.0427044 23.4796 0.038201 22.8771 0.476203C22.791 0.538775 22.709 0.608635 22.6321 0.685622L9.66365 12.517L4.01486 8.2291C3.48903 7.82992 2.7535 7.86265 2.26511 8.30688L0.453364 9.95494C-0.144021 10.4984 -0.144706 11.4382 0.451884 11.9825L5.3507 16.4517L0.451884 20.9211C-0.144706 21.4653 -0.144021 22.4052 0.453364 22.9486L2.26511 24.5966C2.7535 25.0409 3.48903 25.0736 4.01486 24.6744L9.66365 20.3865L22.6321 32.2179C22.8372 32.4231 23.0781 32.5777 23.3372 32.6787ZM24.6873 8.98235L14.8472 16.4517L24.6873 23.9212V8.98235Z" fill="url(#paint0_linear_13023_22140)"/>
</g>
</g>
</g>
<g clip-path="url(#clip1_13023_22140)">
<path d="M107.88 20.6105C107.88 21.0203 107.791 21.3821 107.613 21.7003C107.443 22.0132 107.181 22.27 106.862 22.4385C106.535 22.6119 106.169 22.6991 105.749 22.6991H103.667V25.6558H106.189C107.139 25.6558 107.989 25.4484 108.746 25.0333C109.489 24.6306 110.105 24.0366 110.526 23.3162C110.956 22.5882 111.174 21.7682 111.174 20.8517V11.1323H107.88V20.6105ZM116.748 19.7275H123.647V17.0121H116.748V13.93H124.374V11.1323H113.538V25.6509H124.587V22.8532H116.748V19.7275ZM125.621 14.0119H130.032V25.6466H133.326V14.0119H137.718V11.1323H125.616V14.0167L125.621 14.0119ZM148.974 18.3722C148.71 18.2371 148.431 18.132 148.143 18.0588C148.361 17.999 148.573 17.9199 148.776 17.8224C149.321 17.5473 149.751 17.1618 150.057 16.6648C150.364 16.1678 150.522 15.5992 150.522 14.9525C150.522 14.2143 150.314 13.5536 149.904 12.97C149.494 12.3911 148.915 11.9378 148.173 11.6098C147.431 11.2863 146.581 11.1226 145.631 11.1226H139.018V25.6412H145.76C146.758 25.6412 147.649 25.4727 148.435 25.1302C149.216 24.7878 149.825 24.315 150.26 23.7023C150.69 23.0944 150.908 22.3998 150.908 21.6185C150.908 20.8997 150.74 20.2584 150.398 19.6892C150.064 19.1256 149.572 18.667 148.979 18.3674L148.974 18.3722ZM142.218 13.5682H145.141C145.547 13.5682 145.903 13.6408 146.215 13.7803C146.513 13.9092 146.766 14.1205 146.942 14.3882C147.115 14.6483 147.203 14.9574 147.203 15.3095C147.203 15.6616 147.115 15.9944 146.942 16.2691C146.768 16.5442 146.526 16.7515 146.215 16.9012C145.903 17.0508 145.547 17.123 145.141 17.123H142.218V13.5628V13.5677V13.5682ZM147.253 22.3518C147.065 22.6265 146.798 22.8391 146.457 22.9883C146.111 23.138 145.72 23.2101 145.27 23.2101H142.218V19.4863H145.27C145.71 19.4863 146.101 19.5686 146.447 19.7275C146.788 19.8868 147.06 20.1087 147.248 20.3983C147.436 20.6875 147.535 21.0154 147.535 21.387C147.535 21.7585 147.441 22.0767 147.253 22.3518ZM161.952 19.7808C162.778 19.3947 163.415 18.8498 163.871 18.1504C164.326 17.4509 164.553 16.6406 164.553 15.7144C164.553 14.7883 164.331 14.007 163.886 13.3124C163.44 12.6178 162.808 12.0821 161.992 11.7014C161.175 11.3202 160.23 11.1323 159.152 11.1323H152.634V25.6509H155.933V20.3644H158.079L161.101 25.6509H164.865L161.462 19.974C161.63 19.9159 161.798 19.8529 161.957 19.7808H161.952ZM160.884 16.8145C160.7 17.12 160.426 17.364 160.097 17.5139C159.756 17.6776 159.355 17.7595 158.895 17.7595H155.928V13.7416H158.895C159.355 13.7416 159.756 13.8239 160.097 13.9828C160.425 14.1324 160.699 14.3743 160.884 14.6774C161.066 14.9763 161.161 15.3337 161.161 15.7382C161.161 16.1436 161.066 16.5006 160.884 16.8048V16.8145ZM171.111 11.1323L165.794 25.6509H169.143L170.196 22.4482H175.716L176.843 25.6509H180.127L174.682 11.1323H171.111ZM170.943 20.0171L172.654 14.8944L172.857 13.9634L173.06 14.8944L174.89 20.0171H170.943ZM181.22 25.6509H184.623V11.1323H181.22V25.6509ZM196.626 20.9525L190.221 11.1323H187.011V25.6509H190.019V15.8302L196.389 25.6509H199.633V11.1323H196.626V20.9525ZM212.284 19.3274C211.963 18.7243 211.507 18.2182 210.929 17.8079C210.35 17.3981 209.683 17.1278 208.931 16.9879L206.399 16.4817C206.003 16.3897 205.687 16.2308 205.454 15.9993C205.221 15.7677 205.103 15.4781 205.103 15.1356C205.103 14.8222 205.187 14.5519 205.36 14.3204C205.528 14.0889 205.771 13.9106 206.077 13.7803C206.384 13.65 206.74 13.5876 207.145 13.5876C207.551 13.5876 207.917 13.6549 208.229 13.79C208.54 13.9252 208.782 14.1131 208.956 14.3592C209.13 14.604 209.222 14.8957 209.218 15.1937H212.517C212.497 14.3495 212.254 13.6016 211.8 12.9554C211.345 12.3044 210.706 11.7978 209.895 11.4311C209.084 11.0644 208.155 10.8813 207.116 10.8813C206.077 10.8813 205.157 11.0693 204.351 11.4505C203.545 11.8317 202.912 12.3572 202.462 13.0325C202.012 13.7082 201.785 14.4749 201.785 15.3381C201.785 16.0375 201.928 16.6696 202.22 17.2291C202.507 17.7879 202.929 18.2699 203.451 18.6328C203.985 19.0043 204.599 19.2644 205.301 19.4093L207.981 19.9493C208.421 20.0511 208.768 20.239 209.025 20.5093C209.282 20.7791 209.406 21.1118 209.406 21.5168C209.41 21.8297 209.311 22.1357 209.124 22.3901C208.936 22.6458 208.674 22.8435 208.337 22.9835C208.001 23.1234 207.605 23.1908 207.15 23.1908C206.696 23.1908 206.265 23.1138 205.894 22.9592C205.523 22.8052 205.236 22.5834 205.034 22.2937C204.826 22.0094 204.727 21.6761 204.727 21.3051H201.429C201.443 22.2118 201.69 23.0077 202.18 23.7023C202.665 24.392 203.332 24.9326 204.183 25.3181C205.034 25.7042 206.008 25.897 207.106 25.897C208.204 25.897 209.193 25.6993 210.044 25.3036C210.9 24.9084 211.562 24.363 212.042 23.6684C212.522 22.9738 212.759 22.1876 212.759 21.3095C212.759 20.5911 212.596 19.9304 212.274 19.3225L212.284 19.3274ZM71.3848 23.7173H79.8277V25.6548H71.3848V23.7173Z" fill="#5E5D59"/>
<path fill-rule="evenodd" clip-rule="evenodd" d="M75.0305 2.72447L68.9019 8.70166L66.7464 10.8038C65.5824 11.9397 64.9286 13.4798 64.9287 15.0857V29.5298C64.9287 30.8667 66.0412 31.9517 67.4119 31.9517H82.2219C83.8707 31.9517 85.4451 31.3123 86.6122 30.1788L88.7676 28.0767L94.8962 22.0995C96.0584 20.966 96.7139 19.4257 96.7139 17.8176V3.37354C96.7139 2.03666 95.6015 0.95166 94.2307 0.95166H79.4208C77.7719 0.95166 76.1976 1.59104 75.0305 2.72447ZM88.7676 28.0767V8.70166H68.9019V28.0767H88.7676Z" fill="#5E5D59"/>
</g>
<defs>
<filter id="filter0_d_13023_22140" x="-2.73608" y="5.20826" width="38.4067" height="30.352" filterUnits="userSpaceOnUse" color-interpolation-filters="sRGB">
<feFlood flood-opacity="0" result="BackgroundImageFix"/>
<feColorMatrix in="SourceAlpha" type="matrix" values="0 0 0 0 0 0 0 0 0 0 0 0 0 0 0 0 0 0 127 0" result="hardAlpha"/>
<feOffset/>
<feGaussianBlur stdDeviation="1.37097"/>
<feColorMatrix type="matrix" values="0 0 0 0 0 0 0 0 0 0 0 0 0 0 0 0 0 0 0.25 0"/>
<feBlend mode="overlay" in2="BackgroundImageFix" result="effect1_dropShadow_13023_22140"/>
<feBlend mode="normal" in="SourceGraphic" in2="effect1_dropShadow_13023_22140" result="shape"/>
</filter>
<filter id="filter1_d_13023_22140" x="19.9045" y="-2.65698" width="15.7661" height="38.2178" filterUnits="userSpaceOnUse" color-interpolation-filters="sRGB">
<feFlood flood-opacity="0" result="BackgroundImageFix"/>
<feColorMatrix in="SourceAlpha" type="matrix" values="0 0 0 0 0 0 0 0 0 0 0 0 0 0 0 0 0 0 127 0" result="hardAlpha"/>
<feOffset/>
<feGaussianBlur stdDeviation="1.37097"/>
<feColorMatrix type="matrix" values="0 0 0 0 0 0 0 0 0 0 0 0 0 0 0 0 0 0 0.25 0"/>
<feBlend mode="overlay" in2="BackgroundImageFix" result="effect1_dropShadow_13023_22140"/>
<feBlend mode="normal" in="SourceGraphic" in2="effect1_dropShadow_13023_22140" result="shape"/>
</filter>
<linearGradient id="paint0_linear_13023_22140" x1="16.4565" y1="0.0849608" x2="16.4565" y2="32.8186" gradientUnits="userSpaceOnUse">
<stop stop-color="white"/>
<stop offset="1" stop-color="white" stop-opacity="0"/>
</linearGradient>
<clipPath id="clip0_13023_22140">
<rect width="32.9032" height="32.9032" fill="white" transform="translate(0.0253906)"/>
</clipPath>
<clipPath id="clip1_13023_22140">
<rect width="148" height="31" fill="white" transform="translate(64.9287 0.95166)"/>
</clipPath>
</defs>
</svg>
