<?xml version="1.0" encoding="UTF-8"?>
<svg
  xmlns="http://www.w3.org/2000/svg"
  width="48"
  height="48"
  viewBox="0 0 500 500"
  fill="none"
>
  <path
    d="M310.873 259.336L405.483 33.816L470.373 65.236L371.733 288.446L310.873 259.336Z"
    fill="#D97757"
  ></path>
  <path
    d="M79.5329 467.236C106.324 467.236 128.043 445.517 128.043 418.726C128.043 391.935 106.324 370.216 79.5329 370.216C52.7416 370.216 31.0229 391.935 31.0229 418.726C31.0229 445.517 52.7416 467.236 79.5329 467.236Z"
    fill="#D97757"
  ></path>
  <path
    d="M306.293 249.296C311.563 237.206 311.173 237.036 316.443 224.956C321.713 212.876 321.323 212.706 326.593 200.626C330.106 192.566 333.616 184.506 337.123 176.446C342.393 164.366 343.023 164.636 348.293 152.556C353.563 140.466 352.393 139.956 357.663 127.876C362.933 115.796 363.933 116.226 369.203 104.136C374.473 92.046 373.663 91.696 378.933 79.606C384.203 67.526 384.903 67.826 390.173 55.746C392.813 49.706 394.203 46.716 395.603 43.726C396.293 42.226 396.993 40.736 397.853 38.866C398.113 38.286 398.393 37.676 398.683 37.026C399.113 36.106 399.503 35.066 400.053 34.106C400.623 33.146 401.263 32.336 402.183 31.616C403.103 30.896 404.293 30.336 405.623 30.106C406.603 29.946 407.533 29.976 408.363 30.136C409.213 30.296 410.043 30.576 410.773 30.906C411.773 31.366 412.713 31.806 413.603 32.226C414.123 32.456 414.613 32.666 415.073 32.866C416.013 33.266 416.853 33.616 417.653 33.926C419.243 34.556 420.623 35.056 422.043 35.586C424.893 36.646 427.953 37.836 433.343 40.446C445.213 46.196 445.053 46.536 456.923 52.286C459.893 53.726 462.103 54.826 463.933 55.766C464.843 56.246 465.673 56.666 466.443 57.076C467.633 57.686 468.743 58.266 469.863 58.836C470.543 59.196 471.193 59.596 471.733 60.066C472.303 60.516 472.753 61.026 473.203 61.616C474.073 62.806 474.703 64.376 474.793 66.126C474.833 67.0061 474.733 67.856 474.483 68.826C474.243 69.7961 473.713 70.826 473.233 71.916C472.643 73.236 471.983 74.7061 471.233 76.3861C465.903 88.4461 465.613 88.326 460.283 100.386C454.953 112.456 455.703 112.786 450.373 124.856C445.043 136.916 445.213 136.986 439.883 149.046C434.553 161.106 434.023 160.876 428.693 172.936C425.173 180.996 421.653 189.053 418.133 197.106C412.803 209.166 412.283 208.936 406.953 221.006C401.623 233.076 402.783 233.586 397.453 245.656C393.913 253.703 390.373 261.749 386.833 269.796C384.163 275.836 382.673 278.776 381.173 281.726C380.803 282.466 380.433 283.206 380.033 283.986C379.933 284.186 379.833 284.386 379.733 284.586C379.613 284.846 379.483 285.106 379.353 285.366C378.973 286.176 378.583 287.026 378.163 287.916C377.273 289.686 376.113 291.116 374.093 292.156C373.103 292.666 371.923 292.986 370.693 293.046C369.463 293.106 368.223 292.916 366.763 292.336C366.643 292.286 366.533 292.246 366.533 292.246C362.993 290.656 360.343 289.466 358.123 288.466C356.263 287.616 354.763 286.926 353.263 286.236C350.273 284.856 347.273 283.476 341.273 280.806C329.213 275.426 329.333 275.156 317.273 269.776C307.963 265.626 308.473 263.636 309.743 260.786C311.013 257.936 312.543 255.326 321.863 259.476C333.903 264.846 333.733 265.236 345.773 270.606C351.783 273.286 354.713 274.806 357.643 276.326C359.103 277.086 360.573 277.846 362.413 278.746C363.343 279.186 364.363 279.676 365.523 280.226C366.343 280.606 367.263 281.026 368.313 281.506C368.473 281.576 368.613 281.656 368.763 281.676C368.913 281.696 369.053 281.656 369.163 281.586C369.403 281.436 369.433 281.156 369.493 280.966C369.523 280.866 369.543 280.776 369.563 280.686C369.573 280.646 369.563 280.686 369.593 280.576L369.723 280.256C369.803 280.046 369.883 279.836 369.963 279.636C370.283 278.816 370.583 278.046 370.873 277.276C372.063 274.196 373.253 271.116 375.913 265.086C381.243 253.026 380.933 252.896 386.263 240.836C389.843 232.809 393.423 224.779 397.003 216.746C402.333 204.686 402.493 204.756 407.823 192.696C413.153 180.636 413.783 180.916 419.113 168.846C424.443 156.786 424.063 156.616 429.393 144.556C434.723 132.496 433.943 132.146 439.273 120.086C444.603 108.016 445.703 108.506 451.033 96.436C456.363 84.376 455.243 83.8761 460.573 71.8161C460.913 71.0661 461.223 70.356 461.523 69.696C461.673 69.366 461.823 69.0461 461.963 68.736C462.033 68.576 462.103 68.4261 462.173 68.2761C462.203 68.2061 462.193 68.256 462.203 68.246C462.233 68.246 462.303 68.246 462.373 68.196C462.523 68.106 462.613 67.926 462.563 67.746C463.103 67.836 460.903 66.606 459.263 65.6861C457.453 64.6861 455.263 63.536 452.293 62.106C440.423 56.356 440.193 56.826 428.323 51.076C422.973 48.486 419.973 47.176 417.163 45.976C415.753 45.376 414.393 44.786 412.803 44.096C412.013 43.746 411.163 43.366 410.213 42.936C409.743 42.716 409.253 42.496 408.733 42.256C408.543 42.166 408.643 42.216 408.613 42.206L408.603 42.216C408.603 42.216 408.593 42.226 408.583 42.226C408.583 42.226 408.553 42.206 408.523 42.206C408.503 42.206 408.483 42.206 408.453 42.206H408.423L408.333 42.386C408.213 42.626 408.093 42.866 407.973 43.096C407.043 44.936 406.233 46.386 405.423 47.826C403.813 50.716 402.203 53.616 399.563 59.656C394.293 71.746 394.863 71.996 389.593 84.086C384.323 96.176 384.753 96.366 379.473 108.456C374.203 120.546 373.623 120.296 368.353 132.386C363.083 144.476 362.613 144.276 357.343 156.366C352.073 168.456 353.263 168.976 347.993 181.056C342.713 193.156 342.503 193.056 337.233 205.156C331.953 217.266 331.673 217.136 326.393 229.246C321.113 241.346 320.723 241.176 315.443 253.286C314.423 255.626 313.523 257.366 312.703 258.636L312.623 258.756C312.073 258.526 311.523 258.296 310.983 258.066H310.943L310.913 258.046C310.913 258.046 310.933 258.046 310.943 258.046C310.953 258.046 310.973 258.046 310.943 258.046C310.933 258.046 310.923 258.066 310.933 258.056C310.843 258.166 310.643 258.506 310.533 258.776C310.293 259.356 310.053 260.046 309.733 260.756C309.413 261.466 309.113 262.096 308.493 262.446C307.903 262.766 306.863 262.856 305.593 261.826C304.983 261.306 304.333 260.476 303.953 259.256C303.773 258.646 303.663 257.946 303.693 257.156C303.713 256.766 303.763 256.356 303.853 255.946C303.893 255.736 303.963 255.536 304.023 255.316L304.113 255.036L304.153 254.896C304.563 253.436 305.243 251.606 306.263 249.266L306.293 249.296Z"
    fill="currentColor"
  ></path>
  <path
    d="M371.033 295.856C365.413 299.586 364.983 298.946 359.373 302.676C353.753 306.416 353.603 306.186 347.983 309.916C342.363 313.646 342.803 314.316 337.183 318.056C331.563 321.796 331.743 322.066 326.123 325.806C325.473 326.236 324.863 326.636 324.283 327.016C323.663 327.406 323.093 327.776 322.543 328.126C322.003 328.486 321.473 328.736 320.993 328.966C320.513 329.126 320.043 329.336 319.643 329.386C318.793 329.576 318.163 329.586 317.493 329.546C316.833 329.496 316.183 329.386 315.553 329.166C314.303 328.746 313.063 328.066 311.963 326.896C311.413 326.316 310.923 325.626 310.543 324.816C310.173 323.976 309.723 322.946 309.553 321.476C309.543 321.376 309.523 321.226 309.503 321.066C309.323 319.606 309.173 318.326 309.033 317.186C308.943 316.536 308.863 315.956 308.783 315.436C308.623 314.396 308.483 313.556 308.333 312.726C308.043 311.066 307.753 309.396 307.363 306.046C306.583 299.336 306.443 299.356 305.663 292.646C304.883 285.936 305.363 285.876 304.583 279.166C303.803 272.456 303.303 272.516 302.513 265.806C301.933 260.846 304.103 259.926 306.993 259.586C309.883 259.246 311.813 259.696 312.393 264.656C313.173 271.356 314.163 271.236 314.943 277.936C315.723 284.636 314.613 284.766 315.393 291.476C316.173 298.176 315.973 298.206 316.763 304.906C317.153 308.256 317.653 309.896 318.153 311.536C318.403 312.356 318.653 313.176 318.883 314.206C319.003 314.726 319.113 315.296 319.223 315.946C319.233 315.996 319.253 316.166 319.253 316.136C319.253 316.136 319.253 316.136 319.263 316.136L319.283 316.156C319.283 316.156 319.303 316.176 319.303 316.196C319.283 316.296 319.103 316.686 319.223 317.026C319.273 317.186 319.373 317.296 319.513 317.286C319.583 317.286 319.673 317.266 319.783 317.226C319.833 317.206 319.893 317.176 319.953 317.146L320.043 317.096C320.093 317.066 320.153 317.026 320.213 316.986C323.973 314.519 327.736 312.056 331.503 309.596C337.123 305.856 337.053 305.746 342.673 302.016C348.303 298.276 347.833 297.576 353.463 293.836C359.093 290.096 358.953 289.896 364.583 286.156C368.743 283.396 370.123 286.036 371.743 288.456C373.353 290.886 375.193 293.096 371.033 295.856Z"
    fill="currentColor"
  ></path>
  <path
    d="M109.833 389.386C109.253 388.746 108.703 388.136 108.193 387.566C107.633 387.046 107.113 386.556 106.623 386.096C106.123 385.646 105.693 385.166 105.223 384.806C104.753 384.436 104.323 384.076 103.903 383.746C103.493 383.406 103.093 383.076 102.713 382.766C102.313 382.486 101.923 382.226 101.543 381.966C101.173 381.706 100.803 381.446 100.443 381.196C100.093 380.936 99.7328 380.696 99.3528 380.496C98.6028 380.066 97.8528 379.636 97.0628 379.176C96.2428 378.766 95.3328 378.396 94.3428 377.946C93.3528 377.506 92.1828 377.206 90.8928 376.766C90.2428 376.566 89.5228 376.446 88.7728 376.276C88.0128 376.106 87.2128 375.916 86.3328 375.836C85.4628 375.736 84.6428 375.606 83.8628 375.526C83.0828 375.486 82.3528 375.446 81.6628 375.416C81.3128 375.396 80.9828 375.376 80.6528 375.356C80.3228 375.356 80.0028 375.366 79.7028 375.376C79.0828 375.376 78.5028 375.396 77.9428 375.406C75.7228 375.516 73.9328 375.646 72.1528 375.946C71.2628 376.076 70.3728 376.186 69.4428 376.416C68.5128 376.646 67.5028 376.776 66.4228 377.126C65.3428 377.466 64.1228 377.736 62.8128 378.266C62.1528 378.506 61.4428 378.766 60.6928 379.046C59.9628 379.366 59.1828 379.716 58.3528 380.086C55.0828 381.636 52.7528 383.066 50.9528 384.406C49.1228 385.706 47.7928 386.926 46.5028 388.136C45.8828 388.766 45.2628 389.396 44.6028 390.066C43.9928 390.766 43.3428 391.506 42.6328 392.326C41.3228 394.026 39.6828 396.046 38.1228 398.976C36.5928 401.906 36.0428 404.236 35.6528 406.146C35.6128 406.626 35.5628 407.076 35.5228 407.516C35.4828 407.966 35.4128 408.326 35.4228 408.846C35.4128 409.816 35.3728 410.736 35.3928 411.646C35.4228 413.466 35.4728 415.296 35.6728 417.546C35.8528 419.796 36.1728 422.486 36.9128 425.976C37.6628 429.456 38.4728 431.976 39.1628 434.066C39.5228 435.106 39.8428 436.046 40.1928 436.906C40.5028 437.796 40.8728 438.586 41.2228 439.396C41.5528 440.216 41.9928 440.976 42.4028 441.826C42.8628 442.636 43.3428 443.506 43.9628 444.416C45.1728 446.256 46.8528 448.326 49.4828 450.676C52.1328 453.006 54.4228 454.386 56.3628 455.436C58.3028 456.506 59.9628 457.166 61.6228 457.796C64.9728 458.976 68.4028 460.086 75.6328 460.976C82.9928 461.666 86.4728 461.266 89.9728 460.686C90.8428 460.536 91.7028 460.326 92.6228 460.136C93.5428 459.936 94.4828 459.626 95.5428 459.346C97.6128 458.646 100.123 457.796 103.203 456.136C106.273 454.456 108.353 452.856 110.063 451.506C111.733 450.106 113.013 448.916 114.203 447.636C114.783 446.986 115.413 446.366 115.963 445.616C116.543 444.886 117.163 444.116 117.743 443.186C118.983 441.376 120.283 439.066 121.503 435.766C121.843 434.956 122.043 434.156 122.273 433.406C122.383 433.036 122.493 432.676 122.593 432.326C122.673 431.966 122.743 431.626 122.813 431.286C122.943 430.616 123.123 429.986 123.203 429.376C123.283 428.766 123.363 428.196 123.433 427.646C123.683 425.456 123.703 423.686 123.643 421.926C123.563 420.166 123.413 418.406 123.063 416.216C122.933 415.116 122.613 413.936 122.373 412.566C121.993 411.226 121.683 409.696 121.083 408.006C120.883 407.376 120.693 406.776 120.513 406.216C120.313 405.656 120.123 405.126 119.963 404.626C119.803 404.126 119.663 403.646 119.523 403.186C119.363 402.746 119.233 402.316 119.113 401.916C118.883 401.116 118.723 400.406 118.623 399.766C118.493 399.146 118.423 398.586 118.423 398.096C118.403 396.126 119.333 395.116 120.593 394.386C121.853 393.656 123.073 393.386 124.723 394.706C125.133 395.036 125.583 395.466 126.053 396.006C126.493 396.566 126.963 397.256 127.473 398.066C127.723 398.476 127.983 398.916 128.253 399.396C128.503 399.886 128.743 400.416 129.003 400.986C129.253 401.556 129.513 402.166 129.793 402.816C130.053 403.466 130.273 404.186 130.523 404.936C131.233 406.946 131.633 408.796 132.083 410.406C132.403 412.056 132.783 413.496 132.973 414.836C133.433 417.506 133.673 419.676 133.813 421.856C133.843 422.946 133.933 424.046 133.903 425.226C133.843 426.396 133.863 427.646 133.683 429.016C133.523 430.396 133.343 431.906 132.943 433.606C132.853 434.036 132.753 434.466 132.663 434.916C132.533 435.356 132.403 435.816 132.273 436.296C131.993 437.236 131.723 438.246 131.303 439.286C129.763 443.476 128.063 446.406 126.473 448.676C125.703 449.836 124.913 450.806 124.153 451.706C123.423 452.636 122.623 453.406 121.863 454.206C120.323 455.786 118.663 457.246 116.543 458.966C114.373 460.626 111.763 462.606 107.953 464.696C104.133 466.766 101.033 467.806 98.4728 468.646C97.1628 468.986 96.0028 469.336 94.8828 469.566C93.7628 469.776 92.7028 470.006 91.6428 470.176C87.4328 470.806 82.9928 471.196 74.7228 470.406C70.5528 469.946 67.4228 469.356 64.8228 468.806C63.5228 468.516 62.3528 468.226 61.2428 467.956C60.1428 467.636 59.0928 467.366 58.0628 467.036C56.0028 466.356 53.9328 465.626 51.4828 464.376C49.0328 463.136 46.1428 461.436 42.7828 458.516C39.4528 455.566 37.3128 452.976 35.7428 450.706C34.9328 449.586 34.3128 448.516 33.6928 447.516C33.1428 446.486 32.5828 445.536 32.1328 444.546C31.6728 443.556 31.1828 442.586 30.7628 441.506C30.5428 440.976 30.3128 440.426 30.0728 439.856C29.8628 439.276 29.6328 438.676 29.4028 438.046C28.5028 435.516 27.4928 432.456 26.5828 428.306C25.6928 424.156 25.3528 421.006 25.1828 418.386C24.9928 415.766 24.9828 413.676 25.0128 411.586C25.0128 410.536 25.0928 409.506 25.1328 408.396C25.1328 407.866 25.2228 407.216 25.3028 406.556C25.3828 405.896 25.4728 405.216 25.5628 404.486C26.1328 401.666 27.0028 398.286 29.0728 394.306C31.1928 390.356 33.2828 387.806 35.0328 385.716C35.9328 384.696 36.7928 383.836 37.5828 382.996C38.3928 382.186 39.2128 381.486 40.0028 380.746C40.7828 379.996 41.6528 379.376 42.5328 378.646C43.4028 377.906 44.4028 377.236 45.5028 376.476C47.6928 374.946 50.4428 373.306 54.2928 371.466C55.2628 371.036 56.1728 370.626 57.0328 370.236C57.9128 369.896 58.7328 369.576 59.5028 369.276C61.0428 368.636 62.4628 368.246 63.7228 367.806C64.9828 367.346 66.1628 367.096 67.2528 366.776C68.3428 366.446 69.3928 366.216 70.4528 365.996C72.5528 365.506 74.7028 365.186 77.4128 364.936C78.0928 364.906 78.8128 364.866 79.5628 364.826C79.9428 364.806 80.3328 364.796 80.7328 364.776C81.1328 364.786 81.5528 364.796 81.9828 364.806C82.8428 364.836 83.7428 364.876 84.7128 364.916C85.6828 364.996 86.7028 365.146 87.8028 365.276C88.9028 365.386 89.9128 365.606 90.8728 365.806C91.8228 366.016 92.7328 366.166 93.5728 366.396C95.2328 366.906 96.7228 367.266 98.0228 367.756C99.3228 368.256 100.503 368.696 101.593 369.146C102.663 369.666 103.663 370.156 104.663 370.646C105.173 370.876 105.663 371.156 106.143 371.456C106.633 371.746 107.123 372.046 107.633 372.356C108.143 372.666 108.663 372.986 109.203 373.316C109.713 373.696 110.243 374.086 110.803 374.496C111.363 374.916 111.943 375.356 112.563 375.816C113.193 376.276 113.763 376.856 114.413 377.426C115.053 378.016 115.733 378.636 116.453 379.296C117.113 380.016 117.813 380.776 118.553 381.586C119.693 382.766 120.473 383.926 121.143 384.946C121.793 385.976 122.363 386.836 122.683 387.656C123.343 389.286 123.533 390.446 123.423 391.306C123.203 393.026 121.823 393.586 120.573 394.326C119.313 395.066 118.143 395.916 116.583 395.466C115.803 395.246 114.923 394.706 113.903 393.676C113.403 393.156 112.753 392.606 112.103 391.866C111.443 391.136 110.753 390.246 109.853 389.336L109.833 389.386Z"
    fill="currentColor"
  ></path>
  <path
    d="M233.323 407.576C234.633 402.136 236.213 398.216 237.663 395.036C239.163 391.866 240.573 389.426 242.083 387.056C243.643 384.716 245.273 382.416 247.543 379.716C249.833 377.046 252.723 373.896 257.253 370.406C261.783 366.906 265.743 365.016 269.093 363.676C272.463 362.356 275.293 361.646 278.153 361.186C281.003 360.706 283.913 360.446 287.503 360.586C288.403 360.586 289.343 360.676 290.333 360.766C291.323 360.826 292.393 360.986 293.523 361.176C295.793 361.536 298.293 362.166 301.033 363.166C306.493 365.236 310.163 367.596 313.053 369.696C315.923 371.826 318.043 373.726 320.073 375.706C322.063 377.726 323.943 379.846 326.023 382.706C328.083 385.566 330.333 389.186 332.563 394.366C334.783 399.556 335.843 403.706 336.573 407.186C337.293 410.676 337.593 413.566 337.713 416.476C337.813 419.386 337.753 422.346 337.093 426.056C336.933 426.986 336.683 427.956 336.463 428.976C336.173 429.986 335.863 431.106 335.463 432.186C335.043 433.246 334.603 434.366 334.133 435.556C333.613 436.736 332.973 437.946 332.333 439.256C329.553 444.416 326.593 447.756 324.033 450.326C322.703 451.576 321.503 452.696 320.243 453.596C319.633 454.066 319.033 454.516 318.443 454.956C317.823 455.356 317.213 455.746 316.603 456.136C315.403 456.946 314.123 457.616 312.783 458.346C312.443 458.526 312.103 458.716 311.763 458.896C311.403 459.066 311.043 459.226 310.673 459.406C309.933 459.746 309.163 460.106 308.343 460.476C305.033 461.816 301.013 463.306 295.423 464.316C289.833 465.286 285.543 465.276 282.003 465.066C281.113 465.026 280.283 464.896 279.473 464.816C278.673 464.716 277.893 464.676 277.153 464.526C276.413 464.386 275.683 464.256 274.973 464.126C274.263 464.006 273.563 463.866 272.873 463.676C271.503 463.296 270.093 463.016 268.673 462.476C267.953 462.226 267.213 461.966 266.453 461.706C265.693 461.426 264.923 461.056 264.103 460.706C262.443 460.036 260.733 459.046 258.773 457.976C257.833 457.366 256.843 456.716 255.783 456.026C254.733 455.316 253.713 454.456 252.573 453.586C251.623 452.866 250.843 452.056 250.043 451.346C249.653 450.986 249.263 450.626 248.893 450.286C248.533 449.926 248.203 449.556 247.873 449.206C247.213 448.496 246.593 447.826 245.993 447.186C245.413 446.526 244.923 445.856 244.413 445.236C243.913 444.606 243.443 444.006 242.983 443.426C242.573 442.816 242.173 442.226 241.783 441.656C241.003 440.516 240.263 439.446 239.663 438.326C239.043 437.216 238.383 436.156 237.823 435.016C237.283 433.866 236.723 432.696 236.133 431.446C235.823 430.826 235.613 430.146 235.333 429.466C235.223 429.176 235.103 428.876 234.983 428.566C234.943 428.486 234.923 428.386 234.843 428.326C234.763 428.266 234.643 428.286 234.543 428.276C234.383 428.276 234.863 428.286 233.253 428.256C232.013 428.226 230.413 428.196 228.653 428.166C207.923 427.736 207.933 427.246 187.203 426.816C166.473 426.386 166.463 426.886 145.733 426.456C130.423 426.136 128.423 423.836 128.483 420.926C128.543 418.016 130.633 416.196 145.943 416.516C166.633 416.946 166.653 415.946 187.353 416.376C208.053 416.806 208.033 417.926 228.733 418.356C232.803 418.446 236.173 418.526 236.873 418.536C238.473 418.596 239.753 418.986 240.883 419.806C242.003 420.636 242.683 421.646 243.213 422.846C244.343 425.766 244.493 426.326 245.003 427.536C245.493 428.606 245.953 429.606 246.403 430.596C246.853 431.576 247.413 432.466 247.913 433.416C248.183 433.876 248.413 434.376 248.713 434.836C249.013 435.296 249.323 435.766 249.643 436.246C249.963 436.726 250.283 437.226 250.623 437.746C250.983 438.246 251.393 438.736 251.793 439.256C252.203 439.776 252.623 440.336 253.083 440.896C253.573 441.426 254.093 441.986 254.633 442.566C254.903 442.856 255.183 443.156 255.463 443.466C255.773 443.746 256.083 444.036 256.413 444.336C257.073 444.916 257.713 445.586 258.483 446.186C262.103 449.196 265.283 450.806 267.973 451.926C268.653 452.196 269.293 452.466 269.913 452.696C270.553 452.886 271.163 453.076 271.753 453.246C272.923 453.646 274.083 453.826 275.213 454.076L276.063 454.256C276.353 454.296 276.643 454.336 276.933 454.376C277.513 454.456 278.103 454.536 278.713 454.616C279.313 454.726 279.953 454.726 280.603 454.786C281.263 454.826 281.933 454.906 282.653 454.926C285.523 454.996 288.973 454.976 293.483 454.196C297.993 453.396 301.223 452.196 303.873 451.146C306.463 449.966 308.533 448.946 310.453 447.696C310.933 447.386 311.423 447.076 311.913 446.756C312.393 446.426 312.853 446.046 313.333 445.676C313.813 445.296 314.343 444.946 314.823 444.496C315.303 444.046 315.803 443.586 316.333 443.096C318.363 441.066 320.703 438.446 322.923 434.366C323.433 433.326 323.913 432.346 324.373 431.426C324.753 430.466 325.113 429.576 325.443 428.726C325.783 427.886 325.953 427.126 326.213 426.386C326.383 425.626 326.553 424.916 326.713 424.236C327.253 421.476 327.343 419.166 327.323 416.846C327.293 414.526 327.093 412.186 326.543 409.276C325.973 406.386 325.123 402.886 323.253 398.476C321.373 394.066 319.493 390.976 317.803 388.526C316.093 386.086 314.573 384.246 312.963 382.516C311.323 380.816 309.623 379.186 307.323 377.406C305.013 375.656 302.083 373.736 297.853 372.126C293.603 370.526 290.253 370.316 287.343 370.266C284.473 370.246 282.213 370.596 280.003 371.086C277.793 371.566 275.633 372.246 273.043 373.356C271.743 373.906 270.353 374.586 268.813 375.456C268.033 375.866 267.253 376.416 266.393 376.926C265.583 377.526 264.663 378.076 263.773 378.806C260.133 381.596 257.783 384.216 255.953 386.476C254.143 388.766 252.863 390.746 251.653 392.756C250.483 394.796 249.393 396.896 248.203 399.606C247.063 402.336 245.763 405.666 244.653 410.306C243.813 413.726 243.293 416.266 242.723 418.126C242.463 419.056 242.183 419.826 241.893 420.446C241.623 421.076 241.343 421.566 241.043 421.946C239.833 423.466 238.383 423.206 236.923 423.136C235.463 423.066 234.013 423.276 233.043 421.446C232.803 420.986 232.593 420.396 232.423 419.646C232.283 418.896 232.183 417.976 232.143 416.856C232.113 414.626 232.333 411.576 233.323 407.566V407.576Z"
    fill="currentColor"
  ></path>
</svg>
