<?xml version="1.0" encoding="UTF-8"?>
<svg
  xmlns="http://www.w3.org/2000/svg"
  width="48"
  height="48"
  viewBox="0 0 96 96"
  fill="none"
>
  <path
    d="M16.9381 67.8586C16.9381 69.7229 16.8287 84.8621 16.9381 85.5188C17.0476 86.1754 22.0396 86.1217 24.2322 86.1217C26.4249 86.1217 29.8271 86.1773 30.1554 85.9028C30.4837 85.6282 30.5951 78.8276 30.5951 75.9745C30.5951 73.1213 30.6412 68.6842 30.6412 66.5933C30.6412 64.0513 30.9426 60.7988 30.6681 60.5799C30.3935 60.361 25.4399 60.3994 22.2028 60.3994C18.9657 60.3994 17.0591 60.2343 16.8882 60.3994C16.7173 60.5645 16.9497 63.9649 16.8882 66.7066C16.8268 69.4484 16.8441 74.2196 16.8997 76.1396"
    fill="#D97757"
  />
  <path
    d="M40.0473 65.3127C40.0473 67.7933 39.7938 84.5108 39.9033 85.3863C40.0127 86.2618 45.1487 85.7645 47.3433 85.7645C49.5378 85.7645 52.9381 85.8375 53.2665 85.4727C53.5948 85.1079 53.6178 76.0609 53.7061 72.2689C53.8943 64.1242 53.7522 61.3057 53.7522 58.5255C53.7522 55.1444 54.0537 50.8186 53.7791 50.5268C53.5045 50.2349 48.5509 50.2868 45.3138 50.2868C42.0767 50.2868 40.1317 50.5037 39.9609 50.7226C39.79 50.9415 40.0607 55.0292 39.9993 58.6753C39.9378 62.3213 39.9551 69.9341 40.0108 72.4877"
    fill="#D97757"
  />
  <path
    d="M78.9945 65.9751C78.9945 62.7284 79.1135 40.2164 78.9945 39.0701C78.8754 37.9239 73.4783 38.0199 71.1052 38.0199C68.7321 38.0199 64.6713 37.5399 64.3141 38.018C63.957 38.4961 64.2239 50.7188 64.2239 55.6839C64.2239 60.649 64.174 71.2205 64.174 74.8589C64.174 79.2845 63.8476 84.9466 64.1452 85.3287C64.4428 85.7108 69.7996 85.6436 73.2997 85.6436C76.7999 85.6436 78.862 85.9297 79.0463 85.6436C79.2306 85.3575 78.981 79.4381 79.0463 74.6631C79.1116 69.8881 79.0943 58.7405 79.0348 55.3978"
    fill="#D97757"
  />
  <path
    d="M15.746 73.0905C15.7345 70.8844 15.7786 69.7824 15.8247 68.6784C15.8478 68.1254 15.8708 67.5724 15.9015 66.8812C15.9322 66.1996 15.9457 65.4009 15.9246 64.3084C15.9054 63.2179 15.8823 62.3942 15.8766 61.6953C15.8766 61.5955 15.8766 61.4995 15.8766 61.4054C15.8766 61.2556 15.8785 61.1078 15.8804 60.9638C15.8842 60.6758 15.9054 60.4032 15.9745 60.1804C15.986 60.119 16.0206 60.0787 16.0455 60.0326L16.1262 59.9001L16.2087 59.7676L16.2318 59.7331L16.2663 59.71C16.2894 59.6947 16.3124 59.6812 16.3354 59.6697C16.4276 59.6217 16.5159 59.5737 16.6081 59.5296L16.7617 59.4758C16.8116 59.4566 16.8634 59.4393 16.9249 59.4374C17.0458 59.4278 17.1591 59.4048 17.2858 59.4048C17.4106 59.4048 17.5374 59.4009 17.6641 59.399C17.7812 59.399 17.9002 59.4028 18.0212 59.4048C18.0942 59.4067 18.1671 59.4086 18.242 59.4105C18.5358 59.4201 18.8449 59.4297 19.1905 59.4412C19.8759 59.4624 20.6938 59.4854 21.7825 59.4912C23.9713 59.4931 25.0791 59.4489 26.1812 59.4144C26.7342 59.3971 27.2852 59.3817 27.9802 59.376C28.3278 59.374 28.7098 59.376 29.1495 59.3836C29.2609 59.3875 29.3742 59.3894 29.4913 59.3932C29.5508 59.3952 29.6103 59.3971 29.6718 59.4009C29.762 59.4048 29.8522 59.4105 29.9463 59.4144C30.3822 59.4489 30.9486 59.4585 31.2884 59.7292C31.3345 59.76 31.3806 59.7888 31.4209 59.831L31.4247 59.8348C31.4055 59.856 31.4209 59.8425 31.419 59.8483L31.4266 59.856L31.4401 59.8732L31.4689 59.9059L31.5226 59.9692C31.5937 60.0499 31.6513 60.1382 31.6916 60.24C31.7742 60.4416 31.8126 60.672 31.8298 60.9043C31.849 61.1347 31.851 61.367 31.8529 61.584C31.8529 61.7049 31.8529 61.824 31.851 61.9392C31.8394 62.3769 31.8298 62.7628 31.8222 63.1123C31.8049 63.7977 31.7895 64.3449 31.7761 64.894C31.7665 65.4374 31.7588 65.9769 31.7646 66.6432C31.7646 67.3305 31.7646 68.1561 31.7607 69.2544C31.7377 73.6588 31.5092 73.6435 31.4804 78.0652C31.4478 80.2752 31.4324 81.3811 31.4151 82.4851C31.4017 83.04 31.3902 83.5948 31.3518 84.2976C31.3422 84.4742 31.3306 84.6585 31.3153 84.8582C31.3057 84.9638 31.2961 85.0713 31.2865 85.1827C31.2654 85.3651 31.2442 85.5609 31.2097 85.7529C31.1559 86.1523 30.9812 86.4883 30.6529 86.7283C30.4878 86.8377 30.2804 86.9049 30.05 86.9491C29.9329 86.9683 29.8158 86.9875 29.6929 86.999C29.6314 87.0048 29.57 87.0124 29.5066 87.0182C29.451 87.022 29.3934 87.0278 29.3377 87.0316C28.7502 87.072 28.2625 87.0796 27.8247 87.0892C27.3908 87.0931 27.0068 87.0988 26.6593 87.1008C25.97 87.1027 25.417 87.1046 24.866 87.1065C23.7716 87.1027 22.6753 87.1411 20.4385 87.0873C19.3134 87.0508 18.4705 86.9952 17.7025 86.8665C17.3876 86.8128 17.0881 86.7417 16.8308 86.6342C16.5735 86.5248 16.3662 86.3808 16.2126 86.1811C16.1262 86.0832 16.1089 85.9641 16.0705 85.8528L16.0186 85.6857C16.011 85.6569 15.9994 85.632 15.9956 85.6012L15.9898 85.5052C15.9841 85.3766 15.9706 85.2537 15.9726 85.1251L15.9687 84.7852C15.9745 83.6659 15.9956 82.5676 15.9956 80.3616C16.0033 75.9532 15.9092 75.9532 15.9303 71.5488C15.9476 68.2944 16.3796 67.8662 16.9402 67.8643C17.499 67.8643 17.858 68.3059 17.8407 71.5584C17.8196 75.9552 18.0097 75.9552 18.0001 80.3481C18.0001 82.5427 17.9482 83.6448 17.9118 84.7276C17.9118 84.8198 17.906 84.8006 17.9041 84.8121L17.8945 84.8409C17.8887 84.862 17.881 84.8851 17.881 84.91C17.8983 84.9523 17.9482 84.9696 18.0058 84.9907L18.0462 84.9984L18.1038 85.008C18.1422 85.0137 18.1825 85.0214 18.2228 85.0291C18.3054 85.0406 18.3898 85.054 18.4762 85.0656C18.6529 85.0886 18.843 85.1097 19.0484 85.127C19.4593 85.1635 19.9278 85.1884 20.4692 85.2057C22.635 85.2595 23.737 85.2384 24.843 85.2576C25.3921 85.2633 25.9393 85.2672 26.6266 85.2729C27.3044 85.2729 28.1396 85.2806 29.1802 85.2211C29.211 85.2192 29.2398 85.2172 29.2686 85.2134L29.3166 85.2076C29.3473 85.2038 29.378 85.198 29.4049 85.1904C29.4183 85.1865 29.4337 85.1827 29.4433 85.1712C29.451 85.1596 29.4548 85.1443 29.4567 85.1308C29.4625 85.104 29.4644 85.0771 29.4663 85.0502C29.4663 85.0252 29.4682 85.0003 29.4702 84.9772C29.4759 84.8928 29.4817 84.8121 29.4874 84.7315C29.499 84.5491 29.5066 84.3744 29.5124 84.2054C29.5335 83.5334 29.5278 82.9881 29.5182 82.4428C29.499 81.3523 29.474 80.2579 29.5028 78.0691C29.5182 76.9728 29.5258 76.1587 29.547 75.4694C29.5662 74.782 29.5911 74.2329 29.6161 73.6819C29.666 72.5817 29.714 71.4816 29.7255 69.2812C29.7313 68.1811 29.737 67.3574 29.7409 66.67C29.7428 65.9673 29.7601 65.4086 29.7812 64.8537C29.8042 64.3027 29.8273 63.7516 29.8561 63.0643C29.8695 62.7225 29.8849 62.3481 29.8945 61.9315C29.8945 61.8278 29.8964 61.7222 29.8983 61.6128C29.8983 61.582 29.8983 61.5513 29.8983 61.5187C29.8983 61.4937 29.8983 61.4668 29.8945 61.44C29.8887 61.4169 29.8945 61.3766 29.8618 61.3708C29.8042 61.3574 29.7582 61.3574 29.6948 61.3536C29.4932 61.3459 29.3031 61.3382 29.1246 61.3305C28.7041 61.319 28.3297 61.3132 27.9879 61.3094C27.3044 61.3075 26.7572 61.3056 26.21 61.3036C25.1098 61.3075 24.0097 61.3094 21.8074 61.3152C20.6977 61.3075 19.8663 61.3036 19.1732 61.2998C18.8295 61.2998 18.5223 61.3017 18.2305 61.3036C18.1594 61.3036 18.0884 61.3056 18.0174 61.3075H17.9655C17.9559 61.3075 17.9598 61.3094 17.954 61.3094L17.9406 61.3132C17.9233 61.319 17.9079 61.3228 17.8945 61.3286C17.881 61.3344 17.8695 61.3401 17.8599 61.3478C17.8465 61.3536 17.858 61.3785 17.8599 61.392C17.8638 61.4054 17.8676 61.4208 17.8734 61.4342L17.8791 61.4534C17.8791 61.4534 17.8791 61.4534 17.8791 61.4611V61.5225C17.883 61.5628 17.8849 61.6051 17.8849 61.6473C17.9098 62.3212 17.9463 63.1468 17.9674 64.2585C17.9886 65.3664 17.9866 66.2208 17.9751 66.9158C17.9655 67.5974 17.9655 68.1446 17.9674 68.6918C17.9732 69.7881 17.977 70.8864 17.9866 73.079C17.9982 74.6995 17.8714 75.456 17.6679 75.815C17.4644 76.1721 17.1802 76.1337 16.9018 76.1414C16.6234 76.1491 16.347 76.2086 16.13 75.8515C15.915 75.4963 15.7614 74.7264 15.7498 73.0944L15.746 73.0905Z"
    fill="currentColor"
  />
  <path
    d="M38.859 68.7859C38.8455 66.1132 38.8858 64.7788 38.9262 63.4425C38.9684 62.11 39.0049 60.7622 39.0433 58.103C39.051 55.4668 38.9991 54.1344 38.9876 52.7961C38.9838 52.4582 38.9818 52.1203 38.978 51.7612C38.978 51.6384 38.978 51.5136 38.9799 51.3849C38.9799 51.2179 38.9876 51.0489 39.001 50.8819C39.0202 50.7168 39.0394 50.544 39.1124 50.4096C39.145 50.3404 39.1796 50.2694 39.2122 50.1984C39.2199 50.1811 39.2334 50.1638 39.2449 50.1465L39.2948 50.1062C39.3274 50.0774 39.3601 50.0524 39.3927 50.0275C39.625 49.8009 40.011 49.7049 40.4199 49.632C40.5236 49.6166 40.6292 49.5993 40.7348 49.584C40.802 49.5763 40.8711 49.5667 40.9402 49.559C41.0727 49.5436 41.2033 49.5321 41.3396 49.5187C41.883 49.4688 42.4801 49.4361 43.1598 49.4112C44.5191 49.3632 45.531 49.3689 46.3585 49.3497C47.1937 49.3286 47.8618 49.3113 48.53 49.296C49.2001 49.2787 49.8701 49.2614 50.7111 49.2576C51.1335 49.2576 51.5962 49.2595 52.1319 49.2748C52.2663 49.2806 52.4065 49.2844 52.5486 49.2902C52.6215 49.294 52.6945 49.2979 52.7693 49.3017C52.8692 49.3075 52.969 49.3152 53.0727 49.3209C53.3569 49.3459 53.6526 49.3747 53.929 49.4496C54.0692 49.4841 54.1921 49.5456 54.3015 49.6185C54.3553 49.6569 54.409 49.6953 54.4647 49.7337C54.4916 49.7529 54.5223 49.774 54.5511 49.7971L54.6106 49.8854C54.6471 49.943 54.6836 50.0006 54.7201 50.0563C54.7508 50.1177 54.7853 50.1753 54.8122 50.2406C54.8333 50.3097 54.8545 50.3769 54.8698 50.446C54.8814 50.519 54.8948 50.592 54.9063 50.663C54.9236 50.8108 54.937 50.9587 54.9428 51.1046C54.9447 51.1776 54.9485 51.2505 54.9505 51.3235C54.9505 51.383 54.9524 51.4406 54.9543 51.5001C54.9601 51.8131 54.9562 52.0953 54.9543 52.3622C54.9447 52.8883 54.937 53.3529 54.9293 53.7734C54.914 54.6067 54.9005 55.2729 54.8871 55.9392C54.8775 56.6016 54.8698 57.264 54.8698 58.0857C54.8698 58.9036 54.8871 59.8963 54.9044 61.2326C54.939 63.911 54.8718 65.255 54.8046 66.5932C54.7354 67.9315 54.6625 69.2697 54.6049 71.9443C54.5492 74.6016 54.5588 75.9379 54.555 77.2723C54.5492 78.6086 54.5607 79.9411 54.4762 82.6252C54.4513 83.3548 54.4225 83.9865 54.386 84.4992C54.3802 84.5645 54.3764 84.6259 54.3706 84.6873C54.3668 84.7276 54.3649 84.766 54.361 84.8044C54.3553 84.8563 54.3495 84.9062 54.3437 84.9542C54.3226 85.15 54.3034 85.3305 54.265 85.4822C54.2458 85.6473 54.1729 85.7548 54.1268 85.8624C54.073 85.9622 54.027 86.0448 53.9847 86.1197C53.9271 86.1696 53.8695 86.2176 53.8138 86.2637L53.7293 86.3289C53.6986 86.3481 53.666 86.3635 53.6353 86.3808C53.5086 86.4499 53.3646 86.494 53.2225 86.5324C53.0766 86.567 52.9306 86.5939 52.7847 86.6131C52.6484 86.6361 52.4602 86.6515 52.4046 86.6572C52.0686 86.688 51.7671 86.7033 51.4791 86.7148C50.9012 86.7379 50.3751 86.7456 49.8145 86.7494C49.2596 86.7494 48.6721 86.7494 47.977 86.7494C47.8062 86.7494 47.6276 86.7494 47.4414 86.7494C47.2551 86.7494 47.0785 86.7513 46.8788 86.7571C46.4852 86.7667 46.0474 86.784 45.5617 86.8051C44.2273 86.8627 43.2078 86.8934 42.3418 86.878C41.9079 86.8704 41.5124 86.8531 41.1207 86.8147C40.9153 86.7897 40.7751 86.7859 40.418 86.711C40.2625 86.686 40.1204 86.6342 39.9745 86.5939C39.8382 86.5363 39.7018 86.4825 39.5828 86.4057C39.4599 86.3328 39.3543 86.2406 39.2583 86.135C39.2142 86.0812 39.1681 86.0217 39.1335 85.9603C39.1182 85.9296 39.0951 85.9008 39.0855 85.8681L39.0625 85.7625C39.0318 85.6224 39.001 85.4822 38.9703 85.3401C38.9569 85.1885 38.953 85.0272 38.953 84.8678C38.953 84.6681 38.953 84.4627 38.953 84.2477C38.953 84.0557 38.9569 83.856 38.9588 83.6467C38.9665 82.8096 38.9761 81.8054 38.9876 80.4672C39.0356 75.12 38.9434 75.12 39.0049 69.7766C39.051 65.831 39.481 65.3145 40.0417 65.3126C40.6004 65.3107 40.9614 65.854 40.9153 69.7977C40.8558 75.1315 41.0401 75.1353 40.9921 80.4633C40.9825 81.7958 40.9633 82.7942 40.9441 83.6237C40.9345 84.0173 40.9249 84.3724 40.9153 84.7084C40.9057 84.7372 40.8769 84.7872 40.9095 84.814C40.923 84.8275 40.9383 84.8371 40.9594 84.8486L40.9748 84.8563C40.9748 84.8563 40.9902 84.862 41.0324 84.8678C41.1015 84.8812 41.1802 84.8908 41.257 84.9004C41.57 84.9408 41.9252 84.9657 42.3265 84.9792C43.131 85.0061 44.1159 84.9868 45.4484 84.9292C45.938 84.9081 46.3854 84.8908 46.8039 84.8812C47.0113 84.8755 47.2206 84.8736 47.4126 84.8755C47.6007 84.8755 47.7812 84.8755 47.9559 84.8774C48.6471 84.8812 49.2308 84.8851 49.7837 84.8889C50.3329 84.8889 50.8474 84.8889 51.3927 84.8736C51.6654 84.8659 51.9457 84.8524 52.2298 84.8294C52.2663 84.8256 52.3009 84.8236 52.3393 84.8198C52.3585 84.8179 52.3777 84.816 52.3969 84.8121C52.4353 84.8045 52.4794 84.8025 52.5121 84.7737C52.5255 84.7545 52.5294 84.7219 52.537 84.6816C52.539 84.6604 52.5428 84.6374 52.5466 84.6124C52.5524 84.5414 52.5601 84.4646 52.5658 84.3801C52.6004 83.9117 52.6292 83.303 52.6542 82.5964C52.7367 79.9468 52.6868 78.6086 52.6522 77.2761C52.6157 75.9417 52.5658 74.6112 52.6215 71.9308C52.6791 69.2678 52.7367 67.9392 52.7924 66.6105C52.8442 65.28 52.898 63.9532 52.8634 61.2921C52.8462 59.9596 52.8327 58.9536 52.8404 58.1068C52.8481 57.262 52.8673 56.592 52.8865 55.9219C52.9076 55.2537 52.9287 54.5875 52.9556 53.7542C52.9652 53.3414 52.9767 52.8864 52.9902 52.3699C52.994 52.1145 52.9978 51.8438 52.994 51.5635C52.994 51.5136 52.9921 51.4598 52.9902 51.406C52.9882 51.3734 52.9863 51.3388 52.9786 51.3062C52.9709 51.2678 52.923 51.2736 52.8942 51.2659C52.8615 51.262 52.8308 51.2582 52.8001 51.2563C52.6906 51.2505 52.585 51.2428 52.4814 51.2371C52.347 51.2313 52.2164 51.2256 52.0916 51.2198C51.5828 51.2006 51.1278 51.1929 50.715 51.1891C49.8874 51.1795 49.2231 51.1814 48.5569 51.1833C47.8906 51.1872 47.2244 51.1891 46.3911 51.1929C45.5521 51.2006 44.5594 51.1852 43.2519 51.2313C42.5972 51.2544 42.0289 51.2889 41.5335 51.3388C41.4106 51.3523 41.2897 51.3638 41.1764 51.3792C41.1207 51.3868 41.065 51.3945 41.0094 51.4003C40.9825 51.4041 40.9844 51.406 40.971 51.408C40.9326 51.4176 40.898 51.4252 40.8692 51.4406C40.8519 51.4464 40.8481 51.4656 40.85 51.4828C40.85 51.5001 40.8519 51.5155 40.8538 51.5308L40.8596 51.575L40.8634 51.5961L40.8673 51.7132C40.8846 52.0627 40.8999 52.391 40.9153 52.7193C40.9806 54.0499 41.0881 55.3843 41.0804 58.0934C41.042 60.7737 41.0535 62.0928 41.0612 63.431C41.0689 64.7654 41.0766 66.0979 41.0919 68.7667C41.1188 72.7027 40.5678 72.4627 40.0033 72.478C39.4503 72.4934 38.882 72.7353 38.8551 68.7782L38.859 68.7859Z"
    fill="currentColor"
  />
  <path
    d="M80.187 60.1747C80.2004 63.6172 80.162 65.3395 80.1236 67.0598C80.0833 68.782 80.0487 70.5004 80.0161 73.9488C79.9911 75.671 79.9911 76.942 79.995 78.0172C80.0007 79.0905 80.0065 79.9488 80.0103 80.807C80.0161 81.6691 80.0218 82.5312 80.0295 83.6102C80.0295 83.8828 80.0295 84.1689 80.0295 84.4723C80.0295 84.5587 80.0276 84.647 80.0257 84.7372C80.0218 84.8755 80.018 85.0176 80.0141 85.1597C80.0026 85.2979 80.0026 85.4476 79.9777 85.584C79.9661 85.6512 79.9565 85.7222 79.9412 85.7894C79.9181 85.8489 79.8951 85.9104 79.8721 85.9718C79.8241 86.0928 79.7857 86.208 79.6743 86.2944C79.5841 86.4019 79.4689 86.4672 79.3441 86.5228C79.0964 86.638 78.77 86.6726 78.4301 86.6803C78.3457 86.6841 78.2593 86.6803 78.171 86.6822C78.0884 86.6822 78.0058 86.6803 77.9233 86.6784C77.8215 86.6764 77.7198 86.6726 77.6161 86.6707C77.4126 86.663 77.2014 86.6553 76.9844 86.6477C75.266 86.5728 74.0065 86.5612 72.937 86.5804C71.8618 86.6016 70.9998 86.6188 70.1396 86.638C69.2756 86.6553 68.4135 86.6745 67.3249 86.6688C66.7796 86.6649 66.1806 86.6572 65.4798 86.6208C65.3914 86.615 65.3012 86.6092 65.211 86.6035C65.1092 86.5958 65.0074 86.5881 64.9038 86.5785C64.5639 86.5382 64.1991 86.5036 63.8766 86.3865C63.8036 86.35 63.7191 86.3232 63.6538 86.2771C63.5905 86.2272 63.5271 86.1753 63.4657 86.1216C63.2986 86.0409 63.2506 85.8624 63.1642 85.7203C63.1239 85.6454 63.1028 85.5532 63.0721 85.4688C63.0509 85.3766 63.0375 85.2787 63.0202 85.1846C62.9991 84.9869 62.9799 84.7853 62.9722 84.5721C62.9684 84.4435 62.9645 84.3187 62.9607 84.1958C62.9607 84.0883 62.9588 83.9808 62.9569 83.8752V83.2742C62.9607 82.8902 62.9665 82.5292 62.9703 82.1894C62.9838 81.5155 62.9933 80.9222 63.0049 80.3827C63.0221 79.3094 63.0356 78.4512 63.049 77.5929C63.0586 76.7366 63.0644 75.8822 63.0586 74.8185C63.0586 73.7433 63.0586 72.4531 63.0586 70.7328C63.0759 63.8476 63.3102 63.8476 63.3274 56.9644C63.337 53.5315 63.2794 51.815 63.2487 50.0947C63.2141 48.3744 63.17 46.656 63.1623 43.2057C63.1623 41.9193 63.1681 40.871 63.1873 40.0147C63.1969 39.5865 63.2084 39.2083 63.2257 38.8665C63.2295 38.8032 63.2334 38.7398 63.2372 38.6764C63.243 38.6035 63.2468 38.5324 63.2564 38.4633C63.2737 38.3251 63.289 38.1926 63.3044 38.064C63.3332 37.9449 63.3754 37.8393 63.4081 37.7318C63.4465 37.63 63.4887 37.5417 63.5309 37.4496L63.5962 37.3689C63.6346 37.3555 63.65 37.3209 63.6788 37.2998C63.7287 37.2518 63.7786 37.2038 63.8382 37.1673C63.9495 37.0886 64.0781 37.0348 64.2106 36.9907C64.4813 36.9062 64.7751 36.8736 65.065 36.8524L65.1745 36.8467L65.2686 36.8428L65.3972 36.839C65.4797 36.839 65.5623 36.8371 65.6449 36.8352C65.8081 36.8352 65.9655 36.8352 66.121 36.839C66.745 36.8505 67.3422 36.8793 67.9854 36.912C68.6266 36.9446 69.3159 36.9849 70.0993 37.0156C70.2932 37.0214 70.4948 37.0272 70.7041 37.0329C70.9114 37.0368 71.1169 37.0368 71.3511 37.0368C71.8158 37.0368 72.3169 37.0368 72.8583 37.0368C74.6017 37.0464 75.9226 37.1059 77.0631 37.2576C77.3492 37.296 77.6238 37.342 77.8964 37.4016C78.0308 37.4284 78.169 37.4668 78.3054 37.5014C78.3764 37.5225 78.4455 37.5436 78.5146 37.5648C78.5454 37.5724 78.6049 37.5974 78.651 37.6147L78.7988 37.6723C79.1866 37.8355 79.5303 38.064 79.7377 38.3961C79.849 38.5593 79.8932 38.7456 79.9047 38.9414C79.9239 39.1334 79.9431 39.3254 79.9623 39.5155C79.9585 41.2435 79.9546 42.9734 79.9489 46.4294C79.9412 53.3241 80.0334 53.3222 80.0122 60.215C79.993 65.3049 79.561 65.9827 79.0004 65.9827C78.4417 65.9827 78.0826 65.2953 78.1018 60.2073C78.1249 53.328 77.9367 53.328 77.9444 46.4524C77.9444 43.0176 77.9943 41.2876 78.0212 39.5942V39.5424L78.027 39.5212C78.0289 39.5059 78.0346 39.4886 78.027 39.4771C78.0212 39.4464 77.9943 39.4272 77.9655 39.408L77.9425 39.3945C77.9022 39.3811 77.8618 39.3676 77.8215 39.3542C77.7313 39.3273 77.6372 39.2985 77.5316 39.2755C77.3262 39.2256 77.0958 39.1833 76.8481 39.1449C75.8535 38.9971 74.5844 38.926 72.8833 38.9164C72.3418 38.9164 71.8446 38.9164 71.3818 38.9164C71.1514 38.9164 70.9153 38.9164 70.6926 38.9126C70.4718 38.9068 70.2586 38.8992 70.0513 38.8934C69.2334 38.8608 68.5402 38.8147 67.899 38.7782C67.2596 38.7417 66.674 38.7072 66.0903 38.6918C65.9444 38.688 65.8004 38.686 65.6564 38.686C65.5854 38.686 65.5143 38.686 65.4414 38.686C65.3914 38.686 65.3396 38.688 65.2897 38.6899C65.2532 38.6899 65.2167 38.6937 65.1783 38.6976C65.1438 38.7052 65.0938 38.7052 65.0785 38.7456C65.0708 38.7705 65.0669 38.8012 65.0612 38.832C65.0612 38.8473 65.0574 38.8646 65.0554 38.8819C65.0554 38.9068 65.0516 38.9318 65.0497 38.9587C65.0305 39.264 65.017 39.6249 65.0055 40.0358C64.9844 40.8595 64.9748 41.8886 64.9748 43.1539C64.9825 46.5868 65.067 48.3072 65.1418 50.0256C65.2129 51.744 65.3108 53.4662 65.3012 56.9184C65.2839 63.8016 65.1073 63.8016 65.09 70.6867C65.0842 72.407 65.0804 73.6972 65.0766 74.7724C65.0746 75.8572 65.0593 76.7212 65.0401 77.5852C65.019 78.4473 64.9959 79.3075 64.969 80.3846C64.9556 80.9203 64.9422 81.5097 64.9268 82.1798C64.9153 82.8441 64.898 83.6006 64.9191 84.4185C64.9191 84.4665 64.923 84.5068 64.9287 84.5491C64.9326 84.5683 64.9326 84.5913 64.9479 84.6067C64.9652 84.6182 64.9844 84.622 65.0036 84.6278C65.042 84.6355 65.0804 84.6393 65.1169 84.6432C65.1802 84.6489 65.2436 84.6547 65.307 84.6585C65.3895 84.6643 65.4702 84.67 65.5508 84.6758C66.1959 84.7142 66.7815 84.7276 67.3134 84.7372C68.377 84.7545 69.2353 84.7526 70.0935 84.7507C70.9537 84.7469 71.8138 84.743 72.889 84.7372C73.9681 84.7296 75.2929 84.7488 77.0132 84.8237C77.2263 84.8313 77.4318 84.839 77.6334 84.8467C77.7313 84.8486 77.8273 84.8524 77.9233 84.8544C77.9578 84.8544 77.9905 84.8544 78.0231 84.8544C78.0577 84.8544 78.0922 84.8544 78.123 84.8486C78.1383 84.8467 78.1556 84.8429 78.1671 84.8352C78.1825 84.8275 78.1786 84.8064 78.1806 84.7929C78.1806 84.7622 78.1806 84.7315 78.1806 84.7046C78.1806 84.6624 78.1786 84.7046 78.1786 84.503C78.1748 84.2073 78.171 83.9289 78.1671 83.664C78.1422 82.5964 78.1076 81.7344 78.075 80.8723C78.0423 80.0102 78.0097 79.1481 77.9847 78.0672C77.9617 76.99 77.9463 75.6768 77.9713 73.9545C78.0039 70.5196 77.9886 68.7955 77.9809 67.0752C77.9713 65.3529 77.9636 63.6326 77.9463 60.19C77.9175 55.1097 78.4686 55.4208 79.035 55.4073C79.5879 55.3939 80.1562 55.0848 80.185 60.1804L80.187 60.1747Z"
    fill="currentColor"
  />
  <path
    d="M69.0893 21.911C68.857 22.2201 68.6535 22.4908 68.473 22.7328C68.2772 22.9632 68.1025 23.1648 67.945 23.3491C67.6263 23.7139 67.3671 24.0019 67.1079 24.288C66.8449 24.5721 66.5972 24.8678 66.2631 25.2172C65.9271 25.5648 65.5297 25.9872 65.0093 26.5593C64.7482 26.8435 64.5236 27.0969 64.3143 27.3139C64.0993 27.5251 63.9092 27.7113 63.7364 27.8803C63.3889 28.2163 63.1105 28.4832 62.8321 28.752C62.2868 29.2992 61.6877 29.7907 60.5396 30.8256C60.3956 30.9542 60.2612 31.0752 60.1345 31.1904C60.002 31.2998 59.8791 31.4016 59.7639 31.4976C59.5335 31.6934 59.33 31.8643 59.1457 32.0198C58.7789 32.3347 58.489 32.5939 58.201 32.8512C57.913 33.1104 57.602 33.3427 57.2218 33.6422C56.8359 33.936 56.3789 34.2969 55.7396 34.7385C55.0925 35.1667 54.6068 35.4873 54.2017 35.7561C53.9981 35.8905 53.8215 36.0172 53.6468 36.1267C53.4701 36.2342 53.305 36.336 53.138 36.4358C52.8058 36.6374 52.4737 36.839 52.057 37.0905C51.8458 37.2115 51.6231 37.3612 51.3524 37.4976C51.0817 37.6377 50.7802 37.7952 50.4346 37.9737C50.089 38.1523 49.7837 38.3059 49.5111 38.4384C49.2404 38.5766 48.985 38.6668 48.7623 38.7609C48.3092 38.9414 47.9425 39.0758 47.5777 39.2102C47.3933 39.2755 47.2129 39.3465 47.017 39.4137C46.8212 39.479 46.6119 39.5462 46.3815 39.623C46.1511 39.7017 45.8996 39.79 45.6154 39.8956C45.4733 39.9494 45.3236 40.0051 45.1623 40.0646C45.0029 40.128 44.8321 40.1913 44.6458 40.2489C43.9085 40.4928 43.3575 40.6809 42.8967 40.8403C42.434 40.9881 42.0577 41.0899 41.6852 41.2032C41.499 41.2588 41.3108 41.3145 41.113 41.3721C40.9134 41.4278 40.706 41.4988 40.466 41.5468C39.9898 41.6544 39.4177 41.7811 38.6535 41.9424C37.8798 42.0614 37.298 42.1497 36.8142 42.2246C36.3322 42.2918 35.9521 42.3264 35.5681 42.3744C34.8039 42.4684 34.0359 42.5414 32.4999 42.6585C31.73 42.7027 31.154 42.7372 30.6721 42.7488C30.1902 42.7545 29.8062 42.7584 29.4202 42.7641C29.0343 42.7699 28.6503 42.7584 28.1684 42.7603C27.9284 42.7603 27.6634 42.7603 27.362 42.7603C27.0606 42.7584 26.7246 42.7564 26.3386 42.7526C24.7988 42.7372 24.027 42.7315 23.257 42.7238C22.4852 42.7104 21.7134 42.7008 20.1735 42.5664C19.035 42.4627 18.3994 42.2726 18.0615 42.048C17.7236 41.8214 17.6814 41.5622 17.7274 41.2876C17.7735 41.0112 17.8772 40.798 18.2439 40.6867C18.6106 40.5753 19.2404 40.5638 20.3425 40.6636C21.8343 40.7923 22.5889 40.7769 23.3396 40.7673C24.0903 40.75 24.841 40.7366 26.3406 40.7481C26.715 40.7481 27.0433 40.7539 27.337 40.7596C27.6308 40.7635 27.8881 40.7692 28.1223 40.7731C28.5908 40.7827 28.9671 40.8115 29.3434 40.8211C29.7198 40.8345 30.0961 40.846 30.5665 40.8499C31.0369 40.8499 31.6014 40.8249 32.3521 40.7827C33.8516 40.6694 34.6023 40.6137 35.3492 40.5369C35.7217 40.4985 36.1018 40.4716 36.5626 40.414C37.0196 40.3468 37.5706 40.2662 38.3022 40.1568C39.0279 40.0032 39.5694 39.8726 40.0186 39.7555C40.2433 39.7017 40.441 39.6288 40.6273 39.5654C40.8135 39.5001 40.9882 39.4368 41.1649 39.3753C41.5143 39.2524 41.8657 39.1296 42.3015 38.9779C42.7354 38.8108 43.2577 38.6227 43.9604 38.3904C44.0487 38.3616 44.1332 38.3328 44.2157 38.3059C44.2964 38.2752 44.3751 38.2444 44.4519 38.2156C44.6055 38.158 44.7495 38.1043 44.8839 38.0524C45.1565 37.9545 45.3965 37.8662 45.6135 37.7875C45.8343 37.7126 46.0321 37.6454 46.2183 37.582C46.4045 37.5187 46.5773 37.4457 46.7521 37.3804C47.0996 37.248 47.4471 37.1136 47.8791 36.9369C48.0922 36.8448 48.3341 36.7584 48.5953 36.6259C48.8545 36.4934 49.1463 36.3456 49.4785 36.1785C50.1409 35.8368 50.642 35.5872 51.0394 35.3433C51.4426 35.111 51.7671 34.9248 52.0897 34.7385C52.2509 34.6464 52.4122 34.5523 52.585 34.4544C52.7578 34.3564 52.9287 34.2355 53.1265 34.1107C53.5181 33.8553 53.9866 33.55 54.6125 33.143C55.2289 32.7206 55.6724 32.3769 56.0525 32.1024C56.4269 31.822 56.7361 31.6108 57.0241 31.3728C57.314 31.1347 57.602 30.8985 57.9629 30.6009C58.1434 30.4531 58.3431 30.2918 58.5697 30.1056C58.6829 30.0134 58.8039 29.9155 58.9325 29.8118C59.0554 29.7024 59.186 29.5852 59.3261 29.4604C60.4378 28.4563 60.985 27.9456 61.4746 27.3753C61.7261 27.0969 61.9777 26.8204 62.2983 26.4806C62.4596 26.3116 62.6381 26.1273 62.8397 25.918C63.0356 25.7011 63.2545 25.4592 63.506 25.1827C64.0071 24.6278 64.3834 24.2131 64.6964 23.8656C65.0055 23.5161 65.2263 23.2128 65.4625 22.9248C65.6967 22.6329 65.929 22.3411 66.2209 21.9763C66.3687 21.7958 66.53 21.5961 66.7124 21.3676C66.8852 21.1334 67.0791 20.8684 67.3018 20.5689C68.6132 18.7968 69.0029 19.2288 69.4599 19.5513C69.9169 19.8739 70.4525 20.0736 69.0874 21.9168L69.0893 21.911Z"
    fill="currentColor"
  />
  <path
    d="M61.73 15.4137C63.9226 14.3481 63.9879 14.4825 66.1825 13.4169C68.377 12.3513 68.4001 12.3974 70.5946 11.3318C71.691 10.798 72.2228 10.4985 72.7546 10.1971C72.8871 10.1222 73.0215 10.0473 73.1617 9.9686C73.2327 9.9302 73.3057 9.88988 73.3825 9.84764C73.465 9.80348 73.5514 9.7574 73.6398 9.7094C73.9662 9.5462 74.331 9.3542 74.7438 9.15836C74.9511 9.06236 75.1604 9.02972 75.3466 9.02588C75.3927 9.02588 75.4388 9.02588 75.4868 9.02588C75.529 9.03164 75.5713 9.03548 75.6154 9.04124C75.6999 9.05276 75.7978 9.07772 75.9034 9.11804C76.13 9.20252 76.3374 9.35804 76.4718 9.51164C76.61 9.67292 76.6695 9.78812 76.729 9.92828C76.8481 10.199 76.8634 10.51 76.8519 10.6713C76.825 10.992 76.8001 11.2857 76.777 11.5622C76.7617 11.758 76.7463 11.9424 76.7329 12.1209C76.7156 12.3782 76.6983 12.6163 76.681 12.8697C76.6446 13.3766 76.6004 13.9411 76.5178 14.8339C76.2913 17.2627 76.059 17.2416 75.8324 19.6723C75.7191 20.8857 75.6807 21.4944 75.6423 22.1049C75.6212 22.4083 75.602 22.7136 75.5751 23.0937C75.5521 23.3587 75.529 23.6486 75.5002 23.9788C75.481 24.1996 75.4599 24.4339 75.4369 24.6816C75.4119 24.9254 75.4042 25.2172 75.3178 25.4227C75.3025 25.4822 75.2794 25.5264 75.2583 25.5705C75.2372 25.6147 75.2161 25.6627 75.195 25.7011C75.1508 25.7683 75.1066 25.8432 75.0644 25.8988C75.0222 25.9488 74.9818 25.9987 74.9434 26.0448C74.9031 26.087 74.8589 26.1292 74.7994 26.1753C74.6861 26.2617 74.5364 26.3347 74.3924 26.3769C74.2465 26.4172 74.1044 26.4326 73.9873 26.4288C73.8663 26.4211 73.7876 26.4096 73.707 26.3808C73.6666 26.3692 73.6263 26.3577 73.5879 26.3462C73.5495 26.3366 73.5015 26.3116 73.4612 26.2944C73.2941 26.2272 73.1041 26.11 72.9217 25.9219C72.8295 25.8297 72.7412 25.7126 72.651 25.6012C72.5607 25.488 72.4686 25.3747 72.3726 25.2556C72.1902 25.0291 71.9982 24.7891 71.7831 24.5222C71.545 24.2246 71.259 23.8675 70.8769 23.3913C70.1953 22.535 69.8324 22.0512 69.4964 21.5961C69.3274 21.3696 69.1662 21.1507 68.9761 20.8953C68.8801 20.7686 68.7764 20.6323 68.6612 20.4806C68.6093 20.4134 68.5556 20.3443 68.4999 20.2694C68.4884 20.2521 68.475 20.2348 68.4615 20.2156C68.45 20.2118 68.4346 20.208 68.4135 20.2003C68.3425 20.1811 68.2599 20.16 68.1716 20.135C65.81 19.511 65.785 19.6051 63.4234 18.9811C61.6801 18.5203 61.5553 18.0403 61.6993 17.4988C61.8414 16.9574 62.1677 16.6752 63.9111 17.134C66.2689 17.7561 66.3169 17.5718 68.6746 18.1939C69.0279 18.2899 69.3486 18.3763 69.6135 18.4473C69.7537 18.6278 69.8862 18.7987 70.0129 18.9619C70.0532 19.0156 70.0916 19.0675 70.13 19.1174C70.1588 19.1577 70.1876 19.1961 70.2145 19.2345C70.3258 19.3862 70.4218 19.5244 70.5121 19.6531C70.6906 19.9123 70.8385 20.1388 70.994 20.3731C71.305 20.8416 71.6468 21.3408 72.3361 22.2067C72.7143 22.6848 72.9985 23.0438 73.2346 23.3433C73.2519 23.3644 73.2673 23.3856 73.2846 23.4067L73.3018 23.4297C73.3134 23.4451 73.323 23.4604 73.3345 23.4758C73.3556 23.5065 73.3767 23.5353 73.3959 23.566C73.4401 23.6236 73.4765 23.6966 73.5457 23.7619C73.586 23.7868 73.6513 23.7811 73.682 23.7312C73.7089 23.6812 73.7012 23.6121 73.7127 23.5392C73.7204 23.4643 73.7223 23.3971 73.7204 23.3395C73.7204 23.326 73.7204 23.3107 73.7204 23.2972V23.278C73.7204 23.278 73.7166 23.2742 73.7204 23.2377C73.7242 23.1321 73.73 23.0323 73.7338 22.9363C73.7473 22.5542 73.7473 22.2489 73.7454 21.9417C73.7454 21.3292 73.7415 20.7168 73.8548 19.5014C74.0814 17.0726 74.2561 17.088 74.4826 14.6592C74.569 13.7644 74.6228 13.198 74.6708 12.6912C74.6958 12.4377 74.7207 12.1996 74.7457 11.9424C74.7572 11.831 74.7706 11.71 74.786 11.568C74.7879 11.5507 74.7918 11.518 74.7975 11.472C74.7975 11.4489 74.8071 11.422 74.7937 11.3952C74.7821 11.3683 74.7572 11.3452 74.7226 11.3414C74.69 11.3356 74.6631 11.3548 74.6382 11.3664C74.6132 11.3798 74.5902 11.3913 74.5671 11.4009C74.523 11.424 74.4846 11.4432 74.45 11.4604C74.1198 11.6256 73.8548 11.7561 73.5898 11.8886C73.0446 12.1612 72.4974 12.4339 71.3991 12.9657C69.2026 14.0332 69.2737 14.1792 67.0753 15.2467C64.8788 16.3142 64.898 16.3564 62.7015 17.424C62.498 17.5219 62.3194 17.6006 62.1582 17.6582C62.139 17.6659 62.1178 17.6716 62.0986 17.6793C62.0045 17.4892 61.9124 17.2992 61.8222 17.1129L61.8126 17.0976L61.801 17.0803L61.7933 17.0726C61.7933 17.0726 61.7972 17.0745 61.8087 17.0764C61.8317 17.0803 61.8241 17.0764 61.8087 17.0822C61.7972 17.088 61.7876 17.0976 61.7953 17.0899L61.8029 17.0784L61.8087 17.063C61.8087 17.063 61.8145 17.0496 61.8145 17.0457C61.8145 17.0457 61.8183 17.0342 61.8145 17.0476L61.801 17.0956C61.7665 17.2243 61.7319 17.3606 61.6954 17.495C61.657 17.6294 61.6378 17.7696 61.5706 17.8848C61.5034 17.9923 61.3729 18.1094 61.0791 18.0268C60.9351 17.9846 60.7565 17.8732 60.6049 17.662C60.4609 17.4508 60.338 17.136 60.4071 16.727C60.4397 16.5254 60.53 16.2988 60.6932 16.0972C60.7738 15.9955 60.8737 15.9052 60.9812 15.8265C61.033 15.79 61.0964 15.7516 61.1502 15.7228C61.1674 15.7113 61.1847 15.7017 61.2039 15.6902C61.3498 15.6019 61.5207 15.5078 61.7242 15.4099L61.73 15.4137Z"
    fill="currentColor"
  />
</svg>
