<?xml version="1.0" encoding="UTF-8"?>
<svg
  xmlns="http://www.w3.org/2000/svg"
  width="48"
  height="48"
  viewBox="0 0 500 500"
  fill="none"
>
  <path
    d="M19.6398 137.69H47.4298L46.0298 202.08L44.8098 335.22L44.9798 376.71C44.9798 376.71 88.3498 378.18 106.38 373.92C146.48 364.44 170.32 369.82 213.7 381.45C266.28 395.54 251.86 394.58 251.86 394.58C251.86 394.58 289.95 379.59 314.23 374.58C314.23 374.58 355.37 372.01 390.51 373.57C436.21 375.6 459.71 376.72 459.71 376.72C459.71 376.72 458.95 323.92 457.79 302.78C456.63 281.64 458.74 134.54 458.74 134.54L484.07 135.6C484.07 135.6 485.43 194.44 485.28 217.8C485.13 241.15 484.32 351.83 484.2 367.94C484.08 384.05 484.07 413.26 484.07 413.26H16.4698C16.4698 413.26 15.1798 371.65 15.8198 343.01C16.4598 314.37 15.8698 245.11 15.6398 217.8C15.4098 190.49 13.8298 149.52 15.1498 142.56C16.4698 135.6 19.6398 137.71 19.6398 137.71V137.69Z"
    fill="#D97757"
  ></path>
  <path
    d="M79.91 369.24C105.28 368.07 118.02 367.89 130.77 367.85C133.96 367.86 137.15 367.87 140.54 367.89C143.94 367.96 147.53 367.96 151.53 368.07C153.53 368.12 155.63 368.18 157.86 368.24C160.09 368.34 162.45 368.44 164.96 368.55C169.98 368.79 175.63 369.19 182.12 369.93C183.75 370.14 185.34 370.41 186.88 370.63C187.65 370.75 188.4 370.86 189.15 370.98C189.91 371.15 190.65 371.31 191.38 371.47C192.83 371.8 194.3 372.09 195.59 372.44C196.87 372.79 198.11 373.13 199.32 373.46C204.14 374.8 208.37 376.04 212.19 377.22C219.84 379.58 225.92 381.64 231.95 383.8C234.96 384.88 237.97 385.99 241.13 387.17C242.68 387.75 244.28 388.35 245.95 388.97C246.26 389.09 246.58 389.22 246.94 389.32C247.03 389.34 247.12 389.37 247.22 389.37C247.34 389.39 247.36 389.26 247.36 389.17C247.37 388.98 247.38 388.78 247.39 388.58C247.39 388.3 247.41 388.01 247.41 387.71C247.43 386.55 247.45 385.36 247.46 384.13C247.52 379.2 247.55 373.66 247.55 367.33C247.55 341.99 247.26 329.3 247 316.63C246.74 303.95 246.45 291.28 246.29 265.89C246.26 253.25 246.03 243.76 245.89 235.83C245.74 227.89 245.62 221.54 245.5 215.19C245.39 208.83 245.3 202.47 245.32 194.48C245.32 190.48 245.37 186.09 245.57 180.97C245.64 179.66 245.67 178.39 245.82 176.9C245.93 175.62 246.05 174.3 246.16 172.94C246.25 171.69 246.29 170.27 246.35 168.87C246.37 167.42 246.4 165.93 246.42 164.38C246.46 157.84 246.35 152.09 246.25 146.98C246.14 141.86 246.04 137.39 245.96 133.32C245.87 129.25 245.78 125.59 245.7 122.12C245.66 120.38 245.62 118.69 245.58 117.02C245.56 116.21 245.54 115.41 245.52 114.61L245.57 114.33L245.41 114.13C245.41 114.13 245.39 114.1 245.29 114.02L244.87 113.69L244.03 113.02C242.88 112.13 241.69 111.22 240.4 110.34C237.86 108.54 235.04 106.73 231.83 104.85C228.62 102.98 225.02 101.02 220.84 99.06C216.66 97.12 211.92 95.1 206.43 93.37C204.98 92.95 203.58 92.47 202.22 92.15C201.54 91.97 200.87 91.8 200.2 91.63C199.54 91.47 198.99 91.35 198.34 91.24C195.83 90.78 193.3 90.5 190.91 90.27C186.11 89.82 181.81 89.6 177.9 89.43C170.07 89.1 163.76 89.03 157.46 88.97C144.85 88.92 132.21 88.94 106.92 89.45C94.27 89.73 84.78 90.06 76.89 90.4C69.01 90.74 62.68 91.07 56.48 91.55C55.81 91.61 55.13 91.67 54.46 91.72L54.16 91.76C54.07 91.78 53.94 91.76 53.88 91.85C53.86 91.95 53.86 92.06 53.85 92.17C53.83 93.2 53.81 94.25 53.79 95.35C53.78 97.14 53.77 99 53.76 100.96C53.76 108.83 53.88 118.34 54.05 131.02C54.22 143.72 54.32 153.25 54.29 161.24C54.27 165.25 54.24 168.82 54.09 172.36C53.9 175.73 53.72 178.9 53.53 182.07C52.8 194.75 52.07 207.43 50.85 232.79C50.55 239.13 50.29 244.68 50.06 249.63C49.95 252.11 49.85 254.44 49.75 256.64C49.64 258.86 49.64 260.85 49.61 262.82C49.54 270.7 49.6 277.06 49.63 283.39C49.71 296.08 49.79 308.77 49.94 334.16C50.09 371.66 47.89 376.71 44.97 376.73C42.06 376.75 40.14 371.72 39.99 334.2C39.91 308.83 39.65 296.15 39.43 283.46C39.33 277.1 39.21 270.77 39.24 262.78C39.26 260.79 39.26 258.6 39.35 256.41C39.44 254.21 39.54 251.88 39.64 249.41C39.87 244.46 40.12 238.92 40.41 232.58C41.63 207.23 42.52 194.57 43.41 181.91C43.63 178.74 43.85 175.58 44.08 172.22C44.27 169.02 44.33 165.46 44.39 161.53C44.48 153.65 44.42 144.14 44.25 131.46C44.08 118.77 43.98 109.25 44.01 101.27C44.03 99.27 44.05 97.37 44.06 95.54C44.08 94.62 44.1 93.71 44.12 92.82C44.14 92.21 44.16 91.61 44.19 91.01C44.22 90.25 44.27 89.5 44.33 88.76C44.4 88.03 44.49 87.31 44.67 86.66C44.86 86.02 45.16 85.48 45.41 84.92C45.47 84.78 45.55 84.65 45.64 84.53C45.68 84.47 45.73 84.41 45.78 84.35L45.86 84.26C45.86 84.26 46.03 84.39 45.96 84.32L45.98 84.3L46.03 84.26C46.29 84.07 46.53 83.92 46.77 83.76C47.02 83.6 47.26 83.44 47.52 83.28L47.91 83.04C47.98 83 48.04 82.96 48.11 82.92L48.36 82.86L49.34 82.62C49.67 82.55 50.03 82.51 50.37 82.46C51.06 82.35 51.76 82.28 52.46 82.21L53.51 82.11L54.18 82.05L55.4 81.95C61.85 81.48 68.19 81.2 76.15 80.88C84.1 80.57 93.63 80.26 106.35 79.97C131.8 79.43 144.52 79.2 157.27 79.04C163.65 78.98 170.03 78.96 178.05 79.21C182.07 79.35 186.48 79.53 191.58 79.98C194.14 80.22 196.84 80.48 199.88 81.02C200.63 81.15 201.43 81.31 202.25 81.49C203 81.68 203.76 81.87 204.53 82.07C206.08 82.44 207.62 82.93 209.23 83.41C215.37 85.32 220.51 87.5 225.04 89.59C229.56 91.7 233.43 93.78 236.89 95.78C240.36 97.78 243.4 99.72 246.21 101.68C247.62 102.64 248.96 103.64 250.27 104.63L251.24 105.39L251.72 105.77C251.92 105.92 252.21 106.15 252.49 106.39C253.6 107.31 254.69 108.23 255.79 109.14C255.86 110.71 255.92 112.28 255.99 113.85C256.02 114.72 256.05 115.59 256.07 116.46C256.12 118.14 256.17 119.84 256.22 121.58C256.32 125.06 256.42 128.73 256.53 132.81C256.63 136.89 256.74 141.38 256.86 146.51C256.97 151.64 257.08 157.4 257.05 164.1C257.05 165.71 257 167.29 256.98 168.81C256.94 170.35 256.87 171.85 256.79 173.32C256.52 176.63 256.27 178.6 256.18 181.12C255.96 185.92 255.91 190.26 255.88 194.19C255.82 202.06 255.86 208.39 255.91 214.71C255.98 221.04 256.06 227.37 256.15 235.29C256.24 243.21 256.45 252.73 256.49 265.45C256.68 290.83 256.77 303.52 256.87 316.21C256.96 328.91 257.09 341.6 257.08 367.01C257.06 373.38 257.05 378.95 257.04 383.92C257.04 385.17 257.02 386.38 257.01 387.56C257 388.47 256.98 389.37 256.97 390.25C256.95 391.29 256.92 392.3 256.88 393.3C256.85 393.79 256.81 394.28 256.78 394.76C256.78 395.02 256.72 395.22 256.66 395.41L256.48 396.01C256.37 396.43 256.23 396.77 256.1 397.12C255.98 397.49 255.82 397.78 255.66 398.08C255.51 398.39 255.3 398.59 255.11 398.82L254.96 398.98L254.87 399.06L254.81 399.12C254.81 399.12 254.63 398.92 254.7 399.03C254.55 399.16 254.4 399.28 254.26 399.39C253.73 399.89 253.09 399.99 252.46 400.16C252.12 400.2 251.8 400.27 251.44 400.28C251.07 400.28 250.72 400.29 250.35 400.28C249.96 400.23 249.57 400.17 249.18 400.12C248.79 400.07 248.38 399.93 247.98 399.85C246.37 399.45 244.75 398.86 243.17 398.32C241.36 397.68 239.63 397.07 237.95 396.48C234.78 395.36 231.81 394.34 228.82 393.34C222.86 391.36 216.87 389.46 209.34 387.25C205.57 386.15 201.42 384.97 196.68 383.68C195.49 383.36 194.27 383.04 193.01 382.7C192.36 382.51 191.77 382.39 191.16 382.26C190.55 382.13 189.93 381.99 189.3 381.86C188.67 381.72 188.03 381.58 187.38 381.44C186.71 381.32 186.01 381.23 185.32 381.12C183.92 380.91 182.47 380.69 180.97 380.47C174.88 379.78 169.46 379.4 164.59 379.19C162.15 379.1 159.86 379.02 157.68 378.94C155.5 378.9 153.44 378.87 151.48 378.84C147.56 378.77 144.01 378.84 140.67 378.83C137.32 378.88 134.17 378.93 131.02 378.98C118.4 379.27 105.77 379.7 80.43 380.87C42.99 382.65 45.1 379.58 44.97 376.67C44.85 373.76 42.4 371.01 79.89 369.23L79.91 369.24Z"
    fill="currentColor"
  ></path>
  <path
    d="M424.22 380.81C398.93 379.64 386.32 379.08 373.72 378.66C370.57 378.58 367.42 378.5 364.08 378.41C360.74 378.39 357.2 378.3 353.28 378.34C351.32 378.36 349.26 378.38 347.08 378.41C344.9 378.45 342.61 378.55 340.17 378.63C335.3 378.82 329.87 379.19 323.77 379.88C321.54 380.18 319.44 380.53 317.42 380.82C315.47 381.25 313.65 381.63 311.84 382.06C308.1 383.05 304.7 384 301.55 384.9C295.25 386.71 289.96 388.34 284.98 389.96C280 391.58 275.33 393.18 270.3 394.98C267.77 395.9 265.14 396.85 262.33 397.87C261.77 398.07 261.21 398.27 260.65 398.47C260 398.7 259.34 398.94 258.68 399.14C258.02 399.35 257.35 399.58 256.7 399.73L255.71 399.98L254.75 400.12C253.48 400.27 252.35 400.18 251.35 399.84C250.8 399.78 250.49 399.17 249.85 399.01C249.5 398.66 249.21 398.28 248.92 397.82C248.72 397.24 248.43 396.59 248.17 395.63C248.11 395.39 248.01 395.18 247.98 394.89C247.96 394.59 247.94 394.29 247.92 393.97C247.87 393.34 247.84 392.66 247.82 391.93C247.8 391.2 247.78 390.43 247.76 389.62C247.75 388.96 247.74 388.27 247.72 387.55C247.71 386.56 247.7 385.5 247.68 384.35C247.66 379.79 247.64 374 247.61 367.33C247.61 341.93 247.5 329.25 247.36 316.56C247.23 303.88 247.12 291.17 247.27 265.83C247.3 253.1 247.49 243.57 247.57 235.65C247.63 227.73 247.68 221.4 247.73 215.07C247.75 208.74 247.76 202.42 247.69 194.56C247.65 190.63 247.59 186.3 247.37 181.52C247.3 180.35 247.27 179.07 247.14 177.94C247.02 176.6 246.9 175.22 246.77 173.79C246.65 172.25 246.62 170.78 246.55 169.2C246.53 167.67 246.5 166.09 246.47 164.47C246.43 157.68 246.59 151.86 246.76 146.68C246.93 141.5 247.14 136.99 247.36 132.89C247.58 128.79 247.81 125.12 248.04 121.62C248.33 117.34 248.61 113.28 248.89 109.16C250 108.27 251.12 107.39 252.24 106.49C252.52 106.26 252.81 106.04 253.02 105.89L253.51 105.53L254.5 104.81C255.84 103.87 257.2 102.92 258.63 102.02C261.48 100.17 264.56 98.34 268.03 96.44C271.5 94.54 275.36 92.54 279.84 90.51C284.32 88.49 289.39 86.38 295.38 84.48C296.97 84.02 298.49 83.5 300.02 83.14C300.78 82.94 301.53 82.75 302.26 82.56C303.01 82.38 303.84 82.2 304.57 82.07C307.57 81.52 310.26 81.22 312.8 80.96C317.87 80.47 322.27 80.21 326.27 80C334.27 79.59 340.64 79.42 347.02 79.27C359.76 79.02 372.49 78.85 397.92 79.37C410.64 79.65 420.19 79.97 428.15 80.28C436.12 80.6 442.47 80.9 448.93 81.36C449.84 81.44 450.74 81.51 451.66 81.59C453.13 81.75 454.65 81.87 456.03 82.21L456.55 82.34C456.72 82.38 456.91 82.42 457.02 82.52L457.82 83.04C458.34 83.38 458.78 83.76 459.4 84.11C459.62 84.34 459.72 84.65 459.87 84.93C460.01 85.22 460.15 85.51 460.29 85.82C460.56 86.43 460.68 87.19 460.78 87.94C460.87 88.7 460.93 89.49 460.97 90.29C461 91 461.03 91.72 461.06 92.44C461.08 93.33 461.1 94.24 461.12 95.17C461.14 97 461.15 98.91 461.17 100.92C461.19 108.91 461.09 118.44 460.92 131.14C460.76 143.82 460.63 153.32 460.53 161.24C460.5 165.17 460.48 168.75 460.57 171.95C460.7 175.32 460.82 178.49 460.95 181.66C461.44 194.35 461.93 207.05 463.15 232.42C463.46 238.76 463.74 244.31 463.98 249.27C464.11 251.75 464.23 254.08 464.34 256.28C464.47 258.47 464.49 260.65 464.55 262.64C464.68 270.6 464.78 276.97 464.88 283.34C465.04 296.06 465.15 308.76 465.07 334.17C464.92 371.69 462.6 376.72 459.69 376.7C456.77 376.68 454.97 371.64 455.12 334.13C455.2 308.78 454.96 296.11 454.68 283.45C454.53 277.14 454.38 270.82 454.19 262.93C454.12 260.96 454.08 258.99 453.95 256.78C453.83 254.58 453.7 252.26 453.56 249.78C453.31 244.83 453.03 239.3 452.71 232.97C451.49 207.64 451.16 194.96 450.83 182.29C450.74 179.12 450.66 175.95 450.57 172.58C450.5 169.04 450.57 165.47 450.62 161.47C450.75 153.53 450.9 144 451.11 131.29C451.28 118.61 451.4 109.11 451.42 101.23C451.42 99.27 451.4 97.41 451.4 95.62C451.38 94.36 451.35 93.14 451.33 91.96C451.33 91.77 451.32 91.59 451.29 91.41C451.29 91.3 451.21 91.25 451.12 91.24C451.03 91.22 450.94 91.21 450.86 91.19L450.33 91.12L448.52 90.96C442.32 90.46 435.99 90.13 428.11 89.77C420.22 89.43 410.74 89.09 398.09 88.8C372.79 88.28 360.14 88.66 347.53 89.11C341.23 89.36 334.93 89.64 327.11 90.1C323.21 90.35 318.91 90.62 314.14 91.11C311.77 91.36 309.24 91.64 306.77 92.1C306.14 92.21 305.55 92.34 304.96 92.47C304.31 92.64 303.65 92.81 302.97 92.98C301.62 93.3 300.23 93.75 298.8 94.18C293.3 95.89 288.53 97.87 284.32 99.77C280.11 101.69 276.47 103.57 273.21 105.37C269.95 107.16 267.07 108.89 264.47 110.59C263.15 111.43 261.93 112.29 260.74 113.12L259.87 113.76L259.44 114.08C259.33 114.16 259.32 114.16 259.31 114.17L259.09 114.3L259.03 114.57C258.98 115.36 258.92 116.16 258.87 116.95C258.76 118.62 258.66 120.3 258.55 122.03C258.36 125.49 258.15 129.13 257.93 133.18C257.73 137.23 257.53 141.68 257.38 146.75C257.22 151.82 257.08 157.53 257.11 164.03C257.11 165.59 257.16 167.08 257.18 168.54C257.22 169.98 257.29 171.36 257.35 172.68C257.52 174.95 257.89 178.2 257.96 180.63C258.19 185.73 258.23 190.11 258.25 194.1C258.29 202.08 258.23 208.43 258.15 214.79C258.06 221.14 257.96 227.48 257.85 235.42C257.74 243.35 257.52 252.85 257.48 265.48C257.36 290.87 257.29 303.56 257.23 316.25C257.21 328.93 257.19 341.62 257.15 366.99C257.15 372.64 257.19 377.66 257.24 382.11C257.28 384.21 257.31 386.18 257.35 388.03C257.37 388.37 257.39 388.67 257.42 388.94C257.42 389.01 257.43 389.07 257.45 389.13C257.48 389.2 257.57 389.18 257.63 389.17C257.77 389.15 257.89 389.1 258.01 389.06C258.25 388.97 258.46 388.87 258.66 388.78C261.29 387.77 263.75 386.83 266.13 385.91C270.98 384.05 275.55 382.35 280.53 380.61C285.52 378.87 290.92 377.08 297.5 375.11C300.79 374.12 304.37 373.09 308.34 372.01C309.3 371.73 310.41 371.48 311.54 371.23C312.66 370.98 313.82 370.72 315 370.46C317.33 370.05 319.76 369.7 322.32 369.32C328.85 368.58 334.52 368.18 339.56 367.95C342.08 367.85 344.44 367.76 346.68 367.67C348.91 367.62 351.02 367.58 353.03 367.54C357.05 367.45 360.64 367.48 364.05 367.45C367.45 367.47 370.64 367.49 373.84 367.51C386.61 367.68 399.38 367.99 424.79 369.17C462.28 370.96 459.83 373.81 459.7 376.72C459.58 379.63 461.69 382.59 424.25 380.81H424.22Z"
    fill="currentColor"
  ></path>
  <path
    d="M464.07 127.82C464.09 128.09 464.1 128.35 464.12 128.6C464.12 128.63 464.16 128.61 464.17 128.62H464.19C464.48 128.62 464.77 128.61 465.05 128.6C465.85 128.58 466.63 128.57 467.41 128.55C468.97 128.54 470.49 128.52 471.96 128.51C473.44 128.51 474.89 128.53 476.32 128.57C477.04 128.59 477.75 128.62 478.46 128.66C478.82 128.68 479.18 128.71 479.54 128.73C479.7 128.73 480.1 128.77 480.39 128.8L481.34 128.89C483.84 129.18 486.21 129.73 487.72 131.21L487.98 131.53L488.19 131.81C488.19 131.81 488.35 131.71 488.3 131.78L488.75 132.4C488.92 132.59 488.99 132.86 489.1 133.1L489.4 133.83L489.54 134.19L489.63 134.6L489.81 135.41C489.91 135.95 490.09 136.47 490.11 137.02C490.16 137.56 490.21 138.1 490.27 138.63L490.35 139.43C490.38 139.7 490.37 139.76 490.38 139.93C490.41 140.52 490.45 141.1 490.48 141.68C490.52 142.81 490.56 143.91 490.6 144.99C490.67 147.14 490.7 149.18 490.72 151.15C490.76 155.1 490.76 158.81 490.75 162.51C490.68 169.9 490.61 177.29 490.53 186.52C490.48 191.13 490.43 196.2 490.37 201.96C490.3 207.72 490.29 214.17 490.26 221.41C489.833 260.75 489.407 300.087 488.98 339.42C488.93 346.8 488.89 353.25 488.85 359.01C488.87 364.62 489.11 369.7 489.27 374.29C489.63 383.5 489.96 390.88 490.13 398.34C490.17 400.21 490.2 402.08 490.2 404.01C490.2 404.98 490.18 405.96 490.17 406.95C490.16 407.46 490.14 407.96 490.13 408.48C490.13 408.66 490.09 409.26 490.06 409.68L489.96 411.06C489.74 412.87 489.47 414.76 488.44 416.05C488.21 416.38 488.02 416.8 487.69 417.09L486.66 417.82C486 418.33 485.09 418.58 484.16 418.79C483.22 419 482.21 419.11 481.19 419.21C480.71 419.26 480.11 419.31 479.71 419.34L478.85 419.4C477.7 419.48 476.54 419.54 475.37 419.6C465.97 420 454.9 420.07 440.1 419.95C432.71 419.85 426.24 419.77 420.47 419.69C414.71 419.58 409.64 419.48 405.03 419.38C402.86 419.35 400.62 419.38 398.54 419.38C396.44 419.39 394.43 419.4 392.48 419.41C388.57 419.44 384.89 419.48 381.2 419.51C366.46 419.63 351.72 419.76 322.24 420.01C292.75 420.19 278 419.97 263.25 419.74C248.5 419.49 233.76 419.31 204.23 419.3C196.85 419.3 190.4 419.28 184.58 419.21C183.13 419.19 181.73 419.17 180.36 419.15C179.04 419.15 177.75 419.14 176.5 419.13C173.94 419.13 171.53 419.15 169.23 419.15C160.02 419.22 152.65 419.28 145.29 419.33C130.55 419.45 115.81 419.61 86.32 419.58C56.79 419.51 42.05 419.45 27.18 419.11C25.32 419.06 23.45 419 21.52 418.91C20.67 418.86 19.82 418.81 18.96 418.76C18.08 418.7 17.2 418.62 16.36 418.48C15.53 418.32 14.73 418.1 14.1 417.73C13.79 417.53 13.56 417.26 13.3 417.03L12.93 416.66C12.93 416.66 12.64 416.91 12.76 416.77L12.42 416.35C12.07 415.7 11.7 415.08 11.55 414.2C11.45 413.79 11.35 413.37 11.24 412.96C11.18 412.52 11.17 412.03 11.13 411.57C11.07 410.63 10.99 409.68 10.97 408.72C10.95 408.14 10.93 407.55 10.91 406.95C10.86 404.83 10.81 402.62 10.75 400.29C10.58 391.02 10.5 379.94 10.5 365.16C10.52 350.37 10.65 339.28 10.88 330C10.95 327.67 11.01 325.47 11.11 323.31C11.16 322.23 11.21 321.18 11.29 320.06L11.36 319.21L11.48 318.2C11.51 317.8 11.53 317.4 11.56 317C11.58 316.59 11.63 316.3 11.63 315.81C11.64 315.34 11.66 314.87 11.67 314.4C11.7 313.47 11.72 312.55 11.75 311.63C11.78 309.77 11.8 307.94 11.83 306.11C11.97 291.42 11.95 276.65 11.58 247.14C11.21 218.77 10.85 204.04 10.56 189.66C10.43 182.48 10.31 175.4 10.16 166.76C10.08 162.43 10 157.7 10 152.33C10 149.64 10.02 146.8 10.12 143.72C10.15 142.94 10.19 142.15 10.22 141.35C10.25 140.94 10.27 140.53 10.3 140.11C10.35 139.45 10.41 138.66 10.5 137.94C10.67 136.47 10.92 134.99 11.5 133.74C11.79 133.12 12.15 132.57 12.61 132.06C12.72 131.92 12.9 131.85 12.99 131.7L13.4 131.42C13.67 131.22 13.95 131.04 14.25 130.9C14.64 130.78 15.16 130.62 15.78 130.44C16.46 130.33 17.24 130.21 18.1 130.07C18.52 129.99 18.99 129.95 19.47 129.91C19.91 129.88 20.36 129.85 20.82 129.82C21.38 129.79 21.97 129.76 22.56 129.73C27.95 129.49 32.66 129.47 36.9 129.48C37.96 129.48 38.98 129.5 39.98 129.5C40.48 129.5 40.97 129.51 41.45 129.52C41.68 129.52 41.91 129.52 42.14 129.53L42.35 129.55C42.49 129.56 42.63 129.57 42.76 129.58L42.99 129.62C43.16 129.65 43.33 129.68 43.49 129.7C43.55 129.49 43.61 129.29 43.67 129.1C43.7 128.98 43.74 128.87 43.77 128.76C43.78 128.8 43.81 128.39 43.84 128.15C43.87 127.88 43.89 127.62 43.92 127.36C44.12 125.29 44.33 123.46 44.54 121.85C44.97 118.63 45.42 116.28 45.9 114.57C46.85 111.16 47.89 110.36 49 110.4C50.11 110.44 51.03 111.32 51.66 114.78C51.98 116.51 52.22 118.89 52.38 122.13C52.46 123.75 52.52 125.59 52.55 127.67C52.55 127.93 52.55 128.19 52.56 128.46C52.56 128.79 52.56 129.12 52.56 129.46C52.55 130.42 52.54 131.4 52.53 132.41C52.5 134.47 52.46 136.65 52.43 138.94C49.62 138.99 46.62 139.04 43.41 139.09C41.41 139.14 39.28 139.18 37.01 139.24C32.84 139.35 28.14 139.43 23.03 139.66C22.48 139.69 21.94 139.72 21.42 139.74C21.27 139.74 21.13 139.76 21 139.77C20.82 139.78 20.68 139.8 20.59 139.82C20.52 139.84 20.42 139.84 20.38 139.9C20.34 139.97 20.33 140.04 20.31 140.12C20.28 140.27 20.27 140.42 20.25 140.57C20.22 141.02 20.2 141.46 20.17 141.9C20.14 142.63 20.11 143.36 20.08 144.07C19.99 146.95 19.98 149.72 19.98 152.34C20 157.59 20.1 162.28 20.2 166.58C20.41 175.21 20.59 182.28 20.77 189.45C21.18 203.76 21.65 218.47 22.02 246.81C22.39 276.31 22.25 291.06 21.96 305.87C21.92 307.73 21.87 309.58 21.82 311.47C21.78 312.43 21.75 313.39 21.71 314.37C21.69 314.86 21.67 315.35 21.66 315.84C21.65 316.1 21.65 316.31 21.63 316.61L21.56 317.5C21.51 318.09 21.46 318.69 21.41 319.3C21.36 319.91 21.32 319.92 21.28 320.49C21.2 321.37 21.14 322.39 21.08 323.4C20.97 325.44 20.89 327.62 20.81 329.9C20.51 339.05 20.35 350.1 20.32 364.81C20.31 379.53 20.37 390.57 20.51 399.74C20.55 402.02 20.6 404.19 20.64 406.28C20.66 406.96 20.68 407.63 20.7 408.29C20.7 408.51 20.71 408.73 20.73 408.95C20.73 409 20.74 409.06 20.75 409.11C20.78 409.15 20.85 409.15 20.89 409.16C20.99 409.18 21.1 409.19 21.2 409.2C21.41 409.22 21.62 409.23 21.83 409.25C22.67 409.29 23.5 409.33 24.33 409.37C25.24 409.4 26.15 409.44 27.06 409.47C41.69 409.9 56.44 410.05 85.9 410.12C115.37 410.15 130.11 409.79 144.85 409.46C152.22 409.29 159.59 409.12 168.81 408.99C171.12 408.97 173.54 408.94 176.11 408.91C178.64 408.88 181.58 408.91 184.35 408.94C187.21 408.95 190.24 408.97 193.47 408.98C196.72 408.98 200.16 408.99 203.84 409C233.3 409 248.05 409.12 262.79 409.29C277.54 409.44 292.28 409.59 321.77 409.41C351.25 409.27 365.99 409.2 380.73 409.13C388.13 409.12 395.42 409.08 404.78 409.13C409.39 409.23 414.46 409.35 420.21 409.48C425.95 409.59 432.39 409.69 439.74 409.76C454.45 409.88 465.5 409.86 474.56 409.54C475.68 409.49 476.77 409.44 477.84 409.39C478.28 409.36 478.71 409.33 479.14 409.31L479.46 409.28C479.66 409.24 479.91 409.27 480.04 409.11C480.11 408.92 480.12 408.71 480.14 408.52C480.16 408.01 480.19 407.51 480.21 407.01C480.23 406.09 480.25 405.18 480.27 404.28C480.29 402.46 480.29 400.64 480.27 398.82C480.19 391.53 479.94 384.18 479.65 374.97C479.52 370.35 479.31 365.31 479.29 359.39C479.34 353.63 479.39 347.18 479.45 339.81C479.95 280.8 479.11 280.81 479.61 221.81C479.66 207 479.69 195.89 479.72 186.63C479.72 177.42 479.69 170.06 479.59 162.71C479.54 159.04 479.48 155.37 479.38 151.49C479.32 149.56 479.25 147.58 479.18 145.51C479.13 144.49 479.08 143.45 479.03 142.38C479 141.86 478.96 141.33 478.93 140.8L478.9 140.37V140.3C478.88 140.24 478.87 140.27 478.86 140.26C478.86 140.26 478.9 140.26 478.8 140.26C478.51 140.24 478.22 140.23 477.92 140.21C477.31 140.19 476.69 140.16 476.06 140.14C474.78 140.11 473.43 140.1 472.04 140.1C470.63 140.12 469.18 140.14 467.68 140.16C465.67 140.21 463.59 140.27 461.45 140.32C459.82 140.37 458.18 140.38 456.53 140.39C455.7 140.39 454.87 140.4 454.03 140.41H453.39C453.32 140.26 453.34 140.01 453.31 139.81L453.2 138.54C453.06 136.83 452.89 135.13 452.78 133.33C452.67 131.78 452.56 130.21 452.45 128.61C449.45 85.11 452.59 87.56 455.5 87.36C458.41 87.16 461.08 84.31 464.08 127.81L464.07 127.82Z"
    fill="currentColor"
  ></path>
</svg>
