<svg xmlns="http://www.w3.org/2000/svg" viewBox="0 0 750 471">
  <g fill="none" fill-rule="evenodd">
    <rect fill="#016FD0" width="750" height="471" rx="40"/>
    <path fill="#fff" d="M0 221.729l36.298-85.023h42.149l20.79 48.765 20.424-48.765h41.783v80.854l-32.502-80.854h-35.382l-34.702 80.854h-22.47l-6.564-15.655H8.252l-6.564 15.655H0zM18.818 190.48l-10.565 25.286h21.129l-10.564-25.286zm67.5-48.774h32.869l18.625 43.085V141.706h40.311l14.726 41.195 13.463-41.195h39.578v80.023h-24.27V155.48l-15.826 46.249h-22.204l-16.192-46.249v46.249h-50.144l-6.565-15.656H88.651l-6.565 15.656h-26.52l30.752-59.523zM750 221.729H718.96l-18.259-24.653-18.624 24.653h-95.755v-80.023h97.754l17.892 24.287 18.625-24.287H750l-29.853 39.828L750 221.729zm-123.171-15.289h57.808l-28.904-38.889-28.904 38.889zm-26.521-15.656v-12.87h39.578v-16.208h-39.578v-12.137h44.349l19.358 20.608-20.09 20.607h-43.617zm-264.01 30.945l36.298-85.023h42.149l20.79 48.765 20.424-48.765h41.783v80.854l-32.502-80.854h-35.382l-34.702 80.854h-22.47l-6.564-15.655h-21.572l-6.564 15.655h-1.688zm18.818-31.249l-10.565 25.286h21.129l-10.564-25.286z"/>
    <path fill="#fff" d="M331.002 245.996v80.023h37.397l23.537-29.379 23.904 29.379h30.586v-80.023h-24.636v49.465l-26.803-32.888h-3.7l-26.803 32.888v-49.465h-33.482zM483.53 245.996v80.023h77.296v-16.94h-52.66v-14.667h51.394v-16.575h-51.394v-15.633h52.66v-16.208H483.53zm87.495 0v80.023h24.636v-25.468h11.114l21.338 25.468h30.22l-23.538-27.724c10.565-3.73 17.162-13.136 17.162-25.835 0-16.94-11.664-26.464-30.586-26.464h-50.346zm24.636 16.208h23.537c6.598 0 10.932 3.547 10.932 9.953 0 5.673-3.968 10.137-10.932 10.137h-23.537v-20.09zM627.93 245.996v16.208h29.487v63.815h24.636v-63.815h29.486v-16.208H627.93zm-290.674 0l-30.586 80.023h26.07l5.099-14.117h34.336l5.098 14.117h26.803l-30.586-80.023h-36.234zm18.442 22.062l10.565 28.829h-21.13l10.565-28.829z"/>
  </g>
</svg>
