<svg role="img" viewBox="0 0 24 24" xmlns="http://www.w3.org/2000/svg">
  <title>Apple Pay</title>
  <path fill="#000000" d="M4.13 8.508c-.16.002-.363.016-.578.046-.15.005-.303.013-.452.04a1.44 1.44 0 0 0-1.06.772c-.07.138-.114.278-.14.43-.028.148-.037.3-.04.45A10.2 10.2 0 0 0 1.857 10.222v5.557c0 .07.002.138.003.207.004.15.013.303.04.452.027.15.072.291.142.429a1.436 1.436 0 0 0 .63.63c.138.07.278.115.43.142.148.027.3.036.45.04l.208.003h14.48l.207-.003c.15-.004.303-.013.452-.04.15-.027.291-.071.428-.141a1.432 1.432 0 0 0 .631-.631c.07-.138.115-.278.141-.43.027-.148.036-.3.04-.45.002-.07.003-.138.003-.208l.001-.246V10.222c0-.07-.002-.138-.004-.207a2.995 2.995 0 0 0-.04-.452 1.446 1.446 0 0 0-1.2-1.201 3.022 3.022 0 0 0-.452-.04 10.448 10.448 0 0 0-.453-.003zm6.5 1.85c-.3.016-.668.199-.88.456-.191.22-.36.58-.316.918.338.03.675-.169.888-.418.205-.258.345-.603.308-.955zm2.207.42v3.493h.852v-1.177h.8c.678 0 1.235-.439 1.235-1.162 0-.72-.542-1.155-1.208-1.155zm.852.519h.582c.439 0 .761.246.761.639 0 .392-.322.642-.764.642h-.579z"/>
</svg>
