<svg xmlns="http://www.w3.org/2000/svg" viewBox="0 0 750 471">
  <g fill="none" fill-rule="evenodd">
    <rect fill="#000" width="750" height="471" rx="40"/>
    <path fill="#fff" d="M238.19 186.027c6.376-8.044 10.684-19.081 9.5-30.203-9.191.4-20.396 6.132-26.962 13.9-5.888 6.8-11.073 17.893-9.681 28.44 10.267.8 20.762-5.088 27.143-12.137zm9.395 15.459c-14.95-.849-27.673 8.494-34.762 8.494-7.09 0-17.912-8.042-29.67-7.836-15.302.219-29.49 8.918-37.29 22.595-16.006 27.51-4.189 68.297 11.306 90.697 7.564 10.985 16.578 23.305 28.509 22.856 11.31-.447 15.698-7.329 29.388-7.329 13.688 0 17.614 7.329 29.56 7.103 12.428-.219 20.045-11.2 27.609-22.187 8.668-12.674 12.177-24.922 12.428-25.594-.27-.219-23.93-9.26-24.198-36.545-.27-22.855 18.633-33.798 19.503-34.439-10.766-15.786-27.376-17.523-33.183-17.815h-.2zm108.99-29.88v164.767h24.528v-56.298h33.95c31.032 0 52.836-21.298 52.836-54.318 0-33.02-21.44-54.15-51.98-54.15H356.575zm24.528 21.17h28.265c21.3 0 33.489 11.385 33.489 33.063 0 21.68-12.19 33.148-33.588 33.148h-28.166v-66.211zm128.88 145.122c15.42 0 29.737-7.802 36.252-20.164h.494v18.938h22.704V236.655c0-22.828-18.238-37.53-46.286-37.53-26.09 0-45.473 14.954-46.199 35.496h22.088c1.788-9.754 10.955-16.178 23.506-16.178 15.182 0 23.702 7.088 23.702 20.163v8.856l-30.985 1.88c-28.812 1.715-44.41 13.52-44.41 33.94 0 20.67 16.093 34.498 39.134 34.498zm6.533-18.441c-13.254 0-21.683-6.36-21.683-16.095 0-10.048 8.134-15.871 23.65-16.806l27.615-1.798v9.105c0 15.035-12.737 25.594-29.582 25.594zm75.36 60.916c23.94 0 35.181-9.168 44.993-36.93l43.143-120.52h-24.808l-28.9 93.594h-.494l-28.9-93.594h-25.466l41.407 114.621-2.235 6.991c-3.747 11.972-9.805 16.597-20.619 16.597-1.917 0-5.639-.169-7.146-.423v18.269c1.408.31 7.378.395 9.025.395z"/>
  </g>
</svg>
