<svg xmlns="http://www.w3.org/2000/svg" viewBox="0 0 48 32" fill="none">
  <rect width="48" height="32" rx="4" fill="#fff"/>
  <path d="M12.3 11.2c-.5.6-.8 1.4-.7 2.2.8.1 1.6-.4 2.1-1 .5-.6.7-1.3.6-2.1-.7 0-1.4.4-2 .9zm.7 2.6c-1.1-.1-2 .6-2.5.6s-1.3-.6-2.2-.6c-1.1 0-2.1.6-2.7 1.6-1.2 2-.3 5 .8 6.6.6.8 1.2 1.7 2.1 1.7s1.2-.5 2.2-.5 1.3.5 2.2.5 1.5-.8 2-1.6c.6-.9.9-1.8.9-1.9-1-.4-1.8-1.5-1.8-2.7 0-1.1.6-2.1 1.6-2.6-.6-.9-1.5-1.1-1.9-1.1h-.7z" fill="#000"/>
  <path d="M22.3 10.5c1.8 0 3 1.2 3 3s-1.3 3-3.1 3h-2v3.1h-1.4v-9h3.5zm-2.1 4.8h1.6c1.2 0 1.9-.7 1.9-1.8s-.7-1.8-1.9-1.8h-1.6v3.6zM26 17c0-1.4 1.1-2.3 3-2.4l2.2-.1v-.6c0-.9-.6-1.4-1.6-1.4-.8 0-1.4.4-1.5 1h-1.3c0-1.2 1.2-2.1 2.9-2.1 1.7 0 2.8.9 2.8 2.3v4.8h-1.3v-1.2h-.1c-.4.8-1.2 1.3-2.1 1.3-1.3 0-2.2-.8-2.2-2zm5.2-.7v-.6l-2 .1c-1 .1-1.6.5-1.6 1.1 0 .7.6 1.1 1.4 1.1 1.1 0 2.2-.7 2.2-1.7zM33.3 21.4l1.3.1c.2.7.9 1.2 2 1.2 1.3 0 2.1-.6 2.1-1.6v-1.6h-.1c-.4.8-1.2 1.2-2.2 1.2-1.7 0-2.9-1.4-2.9-3.4 0-2 1.2-3.5 2.9-3.5 1 0 1.8.5 2.2 1.3h.1v-1.2h1.3v7.1c0 1.6-1.3 2.7-3.4 2.7-1.9 0-3.1-.9-3.3-2.3zm5.4-4.1c0-1.3-.8-2.2-2-2.2s-2 .9-2 2.2.8 2.2 2 2.2 2-.9 2-2.2z" fill="#000"/>
</svg>
