<svg xmlns="http://www.w3.org/2000/svg" viewBox="0 0 48 32" fill="none">
  <rect width="48" height="32" rx="4" fill="#fff"/>
  <path d="M22.3 16.5v3.4h-1.1v-8h2.9c.7 0 1.3.2 1.8.7.5.5.8 1 .8 1.7s-.3 1.2-.8 1.7c-.5.5-1.1.7-1.8.7h-1.8v-.2zm0-3.6v2.6h1.9c.4 0 .8-.2 1.1-.5.3-.3.4-.6.4-1 0-.4-.1-.7-.4-1-.3-.3-.6-.4-1.1-.4h-1.9v.3z" fill="#5F6368"/>
  <path d="M29.8 13.4c.8 0 1.4.2 1.9.7.5.4.7 1 .7 1.8v4h-1v-.9h-.1c-.4.7-1 1.1-1.8 1.1-.6 0-1.2-.2-1.6-.6-.4-.4-.6-.8-.6-1.4 0-.6.2-1 .6-1.4.4-.4 1-.5 1.6-.5.6 0 1.1.1 1.4.4v-.3c0-.4-.2-.7-.5-1-.3-.3-.6-.4-1-.4-.6 0-1 .2-1.3.7l-1-.6c.5-.7 1.2-1.1 2.2-1.1h-.5zm-1.3 4.5c0 .3.1.5.4.7.2.2.5.3.8.3.4 0 .9-.2 1.2-.5.4-.3.5-.7.5-1.1-.3-.2-.7-.4-1.3-.4-.5 0-.9.1-1.2.3-.3.2-.4.5-.4.7z" fill="#5F6368"/>
  <path d="M38 13.6l-3.5 8h-1.1l1.3-2.8-2.3-5.2h1.2l1.6 3.9h.1l1.6-3.9H38z" fill="#5F6368"/>
  <path d="M15.9 15.5c0-.3 0-.6-.1-.9h-4.4v1.7h2.5c-.1.6-.4 1-.9 1.4v1.1h1.4c.9-.8 1.4-2 1.4-3.3h.1z" fill="#4285F4"/>
  <path d="M11.4 19.8c1.2 0 2.2-.4 2.9-1.1l-1.4-1.1c-.4.3-.9.4-1.5.4-1.1 0-2.1-.8-2.4-1.8H7.5v1.2c.8 1.4 2.3 2.4 3.9 2.4z" fill="#34A853"/>
  <path d="M9 16.2c-.2-.5-.2-1.1 0-1.6v-1.1H7.5c-.6 1.1-.6 2.5 0 3.6L9 16.2z" fill="#FBBC04"/>
  <path d="M11.4 12.7c.6 0 1.2.2 1.6.6l1.2-1.2c-.8-.7-1.7-1.1-2.8-1.1-1.6 0-3.1 1-3.9 2.4l1.5 1.2c.3-1 1.3-1.9 2.4-1.9z" fill="#EA4335"/>
</svg>
