<svg xmlns="http://www.w3.org/2000/svg" viewBox="0 0 750 471">
  <g fill="none" fill-rule="evenodd">
    <rect fill="#fff" width="750" height="471" rx="40"/>
    <rect stroke="#D9D9D9" x="1" y="1" width="748" height="469" rx="40"/>
    <path fill="#5F6368" d="M352.56 246.05V297.28H337.2V175.42H378.6c10.38 0 19.26 3.42 26.58 10.26 7.44 6.84 11.16 15.18 11.16 25.02 0 10.08-3.72 18.48-11.16 25.2-7.2 6.72-16.08 10.08-26.58 10.08l-26.04.07zm0-55.8v41.04H379.02c6.12 0 11.22-2.04 15.18-6.12 4.08-4.08 6.12-9.06 6.12-14.46 0-5.28-2.04-10.14-6.12-14.34-3.96-4.08-9.06-6.12-15.18-6.12H352.56z"/>
    <path fill="#5F6368" d="M440.64 209.54c11.58 0 20.7 3.12 27.42 9.36 6.72 6.24 10.08 14.82 10.08 25.68v51.84h-14.7V284.9h-.66c-6.48 9.6-15.12 14.4-25.92 14.4-9.18 0-16.86-2.76-23.04-8.28-6.18-5.52-9.24-12.48-9.24-20.88 0-8.82 3.3-15.84 9.96-21.06 6.66-5.22 15.48-7.8 26.52-7.8 9.42 0 17.16 1.74 23.28 5.16v-3.6c0-5.46-2.22-10.08-6.66-13.86-4.44-3.78-9.66-5.7-15.66-5.7-9.06 0-16.2 3.84-21.48 11.52l-13.56-8.52c7.86-11.28 19.44-16.92 34.66-16.74zm-20.46 60.66c0 4.14 1.8 7.62 5.34 10.38 3.54 2.76 7.74 4.14 12.54 4.14 6.78 0 12.72-2.52 17.88-7.56 5.16-5.04 7.74-10.98 7.74-17.82-4.92-3.9-11.76-5.82-20.52-5.82-6.36 0-11.7 1.56-15.96 4.68-4.38 3.18-6.54 7.08-7.02 12z"/>
    <path fill="#5F6368" d="M555.6 211.76l-51.36 118.2h-15.48l19.08-41.1-33.78-77.1h16.32l24.6 59.1h.36l23.94-59.1H555.6z"/>
    <path fill="#4285F4" d="M268.92 233.16c0-5.04-.42-9.9-1.2-14.58H195V242.34h41.52c-1.74 9.54-7.14 17.64-15.24 23.04v18.9h24.54c14.4-13.32 22.68-33.06 23.1-51.12z"/>
    <path fill="#34A853" d="M195 303c20.52 0 37.8-6.72 50.4-18.36l-24.54-18.9c-6.84 4.62-15.66 7.26-25.86 7.26-19.8 0-36.6-13.32-42.66-31.26h-25.32v19.5c12.72 25.2 38.64 41.76 67.98 41.76z"/>
    <path fill="#FBBC04" d="M152.34 241.74c-1.56-4.62-2.4-9.54-2.4-14.64 0-5.1.84-10.02 2.4-14.64v-19.5h-25.32c-5.28 10.44-8.28 22.2-8.28 34.14 0 11.94 3 23.7 8.28 34.14l25.32-19.5z"/>
    <path fill="#EA4335" d="M195 181.2c11.16 0 21.18 3.84 29.1 11.34l21.66-21.66c-13.14-12.24-30.24-19.68-50.76-19.68-29.34 0-55.26 16.56-67.98 41.76l25.32 19.5c6.06-17.94 22.86-31.26 42.66-31.26z"/>
  </g>
</svg>
