<svg xmlns="http://www.w3.org/2000/svg" viewBox="0 0 48 32" fill="none">
  <rect width="48" height="32" rx="4" fill="#fff"/>
  <path d="M10 13h4v1h-2.8v1.4h2.5v1H11.2v1.5H14v1h-4v-6z" fill="#006A4D"/>
  <path d="M15 13h1.5l1.3 4.3 1.3-4.3H21v6h-1.2v-4.5l-1.4 4.5h-1l-1.4-4.5V19H15v-6z" fill="#006A4D"/>
  <path d="M22 16c0-1.8 1.2-3.1 2.9-3.1.9 0 1.6.3 2.1.9l-.8.7c-.3-.4-.7-.6-1.2-.6-.9 0-1.6.8-1.6 2s.7 2 1.6 2c.6 0 1-.3 1.3-.7l.8.6c-.5.6-1.2 1-2.1 1-1.7 0-3-1.3-3-3.1v.3z" fill="#006A4D"/>
  <path d="M28 16c0-1.8 1.2-3.1 2.8-3.1 1.6 0 2.8 1.3 2.8 3s-1.2 3-2.8 3-2.8-1.3-2.8-3zm4.3 0c0-1.2-.6-2-1.5-2s-1.5.8-1.5 2 .6 2 1.5 2 1.5-.8 1.5-2z" fill="#006A4D"/>
  <circle cx="38" cy="16" r="4" fill="#006A4D"/>
  <circle cx="38" cy="16" r="2" fill="#fff"/>
</svg>
