<svg xmlns="http://www.w3.org/2000/svg" viewBox="0 0 750 471">
  <g fill="none" fill-rule="evenodd">
    <rect fill="#fff" width="750" height="471" rx="40"/>
    <rect stroke="#D9D9D9" x="1" y="1" width="748" height="469" rx="40"/>
    <path fill="#003087" d="M466.693 167.098h-62.863c-4.294 0-7.97 3.137-8.63 7.38l-25.443 161.275a5.2 5.2 0 0 0 5.14 6.019h32.456c3.002 0 5.565-2.19 6.03-5.155l7.222-45.773c.66-4.243 4.335-7.38 8.629-7.38h19.917c41.43 0 65.335-20.051 71.575-59.78 2.81-17.381.112-31.038-8.01-40.605-8.94-10.514-24.782-16.29-45.723-16.29l-.3.31zm7.259 58.86c-3.44 22.594-20.709 22.594-37.416 22.594h-9.505l6.666-42.215c.403-2.552 2.594-4.436 5.178-4.436h4.359c11.37 0 22.099 0 27.634 6.478 3.307 3.877 4.306 9.627 3.084 17.579zm181.095-.619h-32.56c-2.583 0-4.774 1.884-5.177 4.436l-1.436 9.095-2.277-3.3c-7.054-10.241-22.776-13.665-38.47-13.665-35.986 0-66.736 27.267-72.736 65.495-3.121 19.076 1.312 37.315 12.17 50.035 9.963 11.675 24.193 16.536 41.133 16.536 29.092 0 45.214-18.696 45.214-18.696l-1.446 9.076a5.2 5.2 0 0 0 5.14 6.019h29.32c4.293 0 7.968-3.137 8.628-7.38l17.635-111.633a5.191 5.191 0 0 0-5.138-6.018zm-45.542 63.383c-3.143 18.618-17.908 31.115-36.783 31.115-9.48 0-17.064-3.049-21.925-8.821-4.823-5.736-6.64-13.903-5.116-22.987 2.931-18.473 17.927-31.408 36.506-31.408 9.276 0 16.815 3.085 21.798 8.928 5.002 5.889 6.98 14.101 5.52 23.173z"/>
    <path fill="#009CDE" d="M232.392 167.098h-62.863c-4.294 0-7.97 3.137-8.63 7.38l-25.443 161.275a5.2 5.2 0 0 0 5.14 6.019h30.048c4.294 0 7.97-3.138 8.63-7.381l6.869-43.547c.659-4.244 4.334-7.381 8.629-7.381h19.916c41.431 0 65.336-20.051 71.576-59.78 2.81-17.381.112-31.038-8.01-40.605-8.94-10.514-24.782-16.29-45.723-16.29l-.139.31zm7.259 58.86c-3.439 22.594-20.708 22.594-37.415 22.594h-9.506l6.667-42.215c.402-2.552 2.593-4.436 5.177-4.436h4.36c11.37 0 22.098 0 27.634 6.478 3.306 3.877 4.306 9.627 3.083 17.579zm181.096-.619h-32.56c-2.584 0-4.775 1.884-5.178 4.436l-1.435 9.095-2.278-3.3c-7.054-10.241-22.775-13.665-38.47-13.665-35.985 0-66.736 27.267-72.736 65.495-3.12 19.076 1.313 37.315 12.171 50.035 9.963 11.675 24.193 16.536 41.133 16.536 29.092 0 45.214-18.696 45.214-18.696l-1.447 9.076a5.2 5.2 0 0 0 5.14 6.019h29.32c4.294 0 7.969-3.137 8.629-7.38l17.635-111.633a5.191 5.191 0 0 0-5.138-6.018zm-45.542 63.383c-3.143 18.618-17.908 31.115-36.783 31.115-9.48 0-17.064-3.049-21.925-8.821-4.823-5.736-6.64-13.903-5.116-22.987 2.932-18.473 17.928-31.408 36.507-31.408 9.275 0 16.814 3.085 21.797 8.928 5.003 5.889 6.98 14.101 5.52 23.173z"/>
  </g>
</svg>
