<svg xmlns="http://www.w3.org/2000/svg" viewBox="0 0 48 32" fill="none">
  <rect width="48" height="32" rx="4" fill="#fff"/>
  <path d="M19.5 21h-3l1.9-11h3l-1.9 11zm8.2-10.7c-.6-.2-1.5-.5-2.7-.5-3 0-5.1 1.5-5.1 3.7 0 1.6 1.5 2.5 2.6 3 1.2.6 1.6 1 1.6 1.5 0 .8-1 1.2-1.9 1.2-1.2 0-1.9-.2-2.9-.6l-.4-.2-.4 2.5c.7.3 2.1.6 3.5.6 3.2 0 5.2-1.5 5.2-3.8 0-1.3-.8-2.3-2.6-3.1-1.1-.5-1.7-.9-1.7-1.4 0-.5.6-1 1.8-1 1 0 1.8.2 2.4.5l.3.1.4-2.5zm7.8-.3h-2.3c-.7 0-1.3.2-1.6 1l-4.5 10h3.2l.6-1.7h3.9l.4 1.7h2.8l-2.5-11zm-3.7 7.1l1.2-3.2.3-.9.2 1 .7 3.1h-2.4zM17.3 10l-3 7.5-.3-1.5-1-5.2c-.2-.7-.7-1-1.4-1h-4.8l-.1.3c1.1.3 2.4.7 3.1 1.2.5.3.6.5.7.9l2.3 8.8h3.2l4.8-11h-3.5z" fill="#1A1F71"/>
</svg>
