<svg width="12" height="17" viewBox="0 0 12 17" fill="none" xmlns="http://www.w3.org/2000/svg">
<path fill-rule="evenodd" clip-rule="evenodd" d="M5.84041 2H6.15959C7.17602 2 8 2.82398 8 3.84041V5.5546H4V3.84041C4 2.82398 4.82398 2 5.84041 2ZM2 5.5546V3.84041C2 1.71941 3.71941 0 5.84041 0H6.15959C8.28059 0 10 1.71941 10 3.84041V5.5546C11.1046 5.5546 12 6.45003 12 7.5546V14.5546C12 15.6592 11.1046 16.5546 10 16.5546H2C0.895431 16.5546 0 15.6592 0 14.5546V7.5546C0 6.45003 0.895431 5.5546 2 5.5546Z" fill="#4A5568"/>
</svg>
