<svg width="458" height="458" viewBox="0 0 458 458" fill="none" xmlns="http://www.w3.org/2000/svg">
<path fill-rule="evenodd" clip-rule="evenodd" d="M458 229L343.5 30H114.5L0 229L114.5 428H343.5L458 229ZM426.718 247.276L344.5 294.557V390.169L426.718 247.276ZM408.479 237L344.5 273.793V237H408.479ZM407.751 220H344.5V183.329L407.751 220ZM326.5 220V172.893L282.402 147.325L243.76 220H326.5ZM229.441 210.719L267.685 138.793L230.25 117.089L191.579 139.51L229.441 210.719ZM215.123 220H134V172.893L176.862 148.042L215.123 220ZM183.123 123.606L212.307 106.686L157.11 74.6841L183.123 123.606ZM134 67.4306L168.406 132.138L134 152.086V67.4306ZM229.441 246.93L267.324 318.176L230.25 339.496L191.938 317.464L229.441 246.93ZM282.069 309.696L243.415 237H326.5V284.145L282.069 309.696ZM275.779 334.078L248.303 349.878L299.982 379.598L275.779 334.078ZM326.5 393.26L290.524 325.598L326.5 304.909V393.26ZM315.886 409.508L316.147 410H143.758L230.25 360.26L315.886 409.508ZM326.5 152.086L290.858 131.422L326.5 64.3891V152.086ZM276.141 122.889L301.052 76.0396L248.193 106.686L276.141 122.889ZM134 237H215.467L177.193 308.984L134 284.145V237ZM134 304.909L168.738 324.886L134 390.218V304.909ZM183.483 333.365L158.188 380.937L212.197 349.878L183.483 333.365ZM116 220V183.329L52.7493 220H116ZM52.0205 237H116V273.793L52.0205 237ZM426.257 209.923L344.5 162.522V67.8307L426.257 209.923ZM230.25 96.2824L146.973 48H313.527L230.25 96.2824ZM116 63.4857V162.522L30.492 212.098L116 63.4857ZM116 394.514L30.046 245.127L116 294.557V394.514Z" fill="white"/>
</svg>
