<svg width="458" height="458" viewBox="0 0 458 458" fill="none" xmlns="http://www.w3.org/2000/svg">
<circle cx="136" cy="41" r="39" fill="white" fill-opacity="0.5"/>
<circle cx="322" cy="41" r="39" fill="white" fill-opacity="0.5"/>
<circle cx="415" cy="41" r="39" fill="white" fill-opacity="0.5"/>
<circle cx="43" cy="134" r="39" fill="white" fill-opacity="0.5"/>
<circle cx="136" cy="134" r="39" fill="white" fill-opacity="0.5"/>
<circle cx="229" cy="134" r="39" fill="white" fill-opacity="0.5"/>
<circle cx="415" cy="134" r="39" fill="white" fill-opacity="0.5"/>
<circle cx="43" cy="227" r="39" fill="white" fill-opacity="0.5"/>
<circle cx="136" cy="227" r="39" fill="white" fill-opacity="0.5"/>
<circle cx="322" cy="227" r="39" fill="white" fill-opacity="0.5"/>
<circle cx="415" cy="227" r="39" fill="white" fill-opacity="0.5"/>
<circle cx="136" cy="320" r="39" fill="white" fill-opacity="0.5"/>
<circle cx="229" cy="320" r="39" fill="white" fill-opacity="0.5"/>
<circle cx="322" cy="320" r="39" fill="white" fill-opacity="0.5"/>
<circle cx="43" cy="413" r="39" fill="white" fill-opacity="0.5"/>
<circle cx="229" cy="413" r="39" fill="white" fill-opacity="0.5"/>
<circle cx="322" cy="413" r="39" fill="white" fill-opacity="0.5"/>
<circle cx="415" cy="413" r="39" fill="white" fill-opacity="0.5"/>
<circle cx="43" cy="41" r="39" fill="white"/>
<circle cx="229" cy="41" r="39" fill="white"/>
<circle cx="322" cy="134" r="39" fill="white"/>
<circle cx="229" cy="227" r="39" fill="white"/>
<circle cx="43" cy="320" r="39" fill="white"/>
<circle cx="415" cy="320" r="39" fill="white"/>
<circle cx="136" cy="413" r="39" fill="white"/>
</svg>
