<svg width="458" height="458" viewBox="0 0 458 458" fill="none" xmlns="http://www.w3.org/2000/svg">
<path fill-rule="evenodd" clip-rule="evenodd" d="M281 229C281 257.719 257.719 281 229 281C200.281 281 177 257.719 177 229C177 200.281 200.281 177 229 177C257.719 177 281 200.281 281 229ZM253 229C253 242.255 242.255 253 229 253C215.745 253 205 242.255 205 229C205 215.745 215.745 205 229 205C242.255 205 253 215.745 253 229Z" fill="white"/>
<path fill-rule="evenodd" clip-rule="evenodd" d="M339 229C339 289.751 289.751 339 229 339C168.249 339 119 289.751 119 229C119 168.249 168.249 119 229 119C289.751 119 339 168.249 339 229ZM311 229C311 274.287 274.287 311 229 311C183.713 311 147 274.287 147 229C147 183.713 183.713 147 229 147C274.287 147 311 183.713 311 229Z" fill="white"/>
<path fill-rule="evenodd" clip-rule="evenodd" d="M229 397C321.784 397 397 321.784 397 229C397 136.216 321.784 61 229 61C136.216 61 61 136.216 61 229C61 321.784 136.216 397 229 397ZM229 369C306.32 369 369 306.32 369 229C369 151.68 306.32 89 229 89C151.68 89 89 151.68 89 229C89 306.32 151.68 369 229 369Z" fill="white"/>
<path fill-rule="evenodd" clip-rule="evenodd" d="M458 229C458 355.473 355.473 458 229 458C102.527 458 0 355.473 0 229C0 102.527 102.527 0 229 0C355.473 0 458 102.527 458 229ZM430 229C430 340.009 340.009 430 229 430C117.991 430 28 340.009 28 229C28 117.991 117.991 28 229 28C340.009 28 430 117.991 430 229Z" fill="white"/>
</svg>
