<svg width="24" height="24" viewBox="0 0 24 24" fill="none" xmlns="http://www.w3.org/2000/svg">
<path fill-rule="evenodd" clip-rule="evenodd" d="M23 12C23 18.0751 18.0751 23 12 23C5.92487 23 1 18.0751 1 12C1 5.92487 5.92487 1 12 1C18.0751 1 23 5.92487 23 12ZM24 12C24 18.6274 18.6274 24 12 24C5.37258 24 0 18.6274 0 12C0 5.37258 5.37258 0 12 0C18.6274 0 24 5.37258 24 12ZM8.44638 11.0864C9.27481 11.0864 9.94638 10.191 9.94638 9.08645C9.94638 7.98188 9.27481 7.08645 8.44638 7.08645C7.61796 7.08645 6.94638 7.98188 6.94638 9.08645C6.94638 10.191 7.61796 11.0864 8.44638 11.0864ZM15.5536 11.0864C16.3821 11.0864 17.0536 10.191 17.0536 9.08645C17.0536 7.98188 16.3821 7.08645 15.5536 7.08645C14.7252 7.08645 14.0536 7.98188 14.0536 9.08645C14.0536 10.191 14.7252 11.0864 15.5536 11.0864ZM5.04677 13.6039H5.74228H5.75437H5.76645H5.77852H5.79059H5.80265H5.8147H5.82674H5.83878H5.85081H5.86283H5.87485H5.88686H5.89886H5.91086H5.92285H5.93483H5.94681H5.95878H5.97074H5.9827H5.99465H6.00659H6.01853H6.03046H6.04239H6.05431H6.06622H6.07813H6.09003H6.10192H6.11381H6.1257H6.13758H6.14945H6.16131H6.17317H6.18503H6.19688H6.20872H6.22056H6.23239H6.24422H6.25604H6.26786H6.27967H6.29148H6.30328H6.31507H6.32687H6.33865H6.35043H6.36221H6.37398H6.38575H6.39751H6.40926H6.42102H6.43276H6.4445H6.45624H6.46798H6.4797H6.49143H6.50315H6.51486H6.52658H6.53828H6.54999H6.56169H6.57338H6.58507H6.59676H6.60844H6.62012H6.63179H6.64346H6.65513H6.66679H6.67845H6.69011H6.70176H6.71341H6.72505H6.73669H6.74833H6.75997H6.7716H6.78323H6.79485H6.80647H6.81809H6.82971H6.84132H6.85293H6.86453H6.87614H6.88774H6.89933H6.91093H6.92252H6.93411H6.9457H6.95728H6.96886H6.98044H6.99202H7.00359H7.01516H7.02673H7.0383H7.04986H7.06142H7.07298H7.08454H7.0961H7.10765H7.1192H7.13075H7.1423H7.15385H7.16539H7.17694H7.18848H7.20002H7.21155H7.22309H7.23462H7.24616H7.25769H7.26922H7.28075H7.29228H7.3038H7.31533H7.32685H7.33837H7.3499H7.36142H7.37294H7.38446H7.39597H7.40749H7.41901H7.43052H7.44204H7.45355H7.46507H7.47658H7.48809H7.4996H7.51111H7.52263H7.53414H7.54565H7.55716H7.56867H7.58018H7.59169H7.6032H7.61471H7.62622H7.63773H7.64924H7.66075H7.67226H7.68377H7.69528H7.70679H7.7183H7.72981H7.74133H7.75284H7.76435H7.77587H7.78738H7.7989H7.81042H7.82193H7.83345H7.84497H7.85649H7.86801H7.87953H7.89106H7.90258H7.91411H7.92563H7.93716H7.94869H7.96022H7.97175H7.98328H7.99482H8.00636H8.01789H8.02943H8.04097H8.05252H8.06406H8.07561H8.08716H8.09871H8.11026H8.12181H8.13337H8.14493H8.15649H8.16805H8.17962H8.19118H8.20275H8.21432H8.2259H8.23748H8.24905H8.26064H8.27222H8.28381H8.2954H8.30699H8.31859H8.33018H8.34178H8.35339H8.36499H8.3766H8.38822H8.39983H8.41145H8.42307H8.4347H8.44633H8.45796H8.46959H8.48123H8.49288H8.50452H8.51617H8.52782H8.53948H8.55114H8.5628H8.57447H8.58614H8.59782H8.6095H8.62118H8.63287H8.64456H8.65625H8.66795H8.67966H8.69136H8.70308H8.71479H8.72651H8.73824H8.74997H8.7617H8.77344H8.78518H8.79693H8.80868H8.82044H8.8322H8.84397H8.85574H8.86752H8.8793H8.89109H8.90288H8.91468H8.92648H8.93829H8.9501H8.96192H8.97374H8.98557H8.9974H9.00924H9.02109H9.03294H9.04479H9.05665H9.06852H9.08039H9.09227H9.10416H9.11605H9.12794H9.13985H9.15176H9.16367H9.17559H9.18752H9.19945H9.21139H9.22334H9.23529H9.24724H9.25921H9.27118H9.28316H9.29514H9.30713H9.31913H9.33113H9.34315H9.35516H9.36719H9.37922H9.39126H9.4033H9.41536H9.42741H9.43948H9.45156H9.46364H9.47572H9.48782H9.49992H9.51203H9.52415H9.53627H9.54841H9.56055H9.5727H9.58485H9.59701H9.60919H9.62136H9.63355H9.64574H9.65795H9.67016H9.68237H9.6946H9.70684H9.71908H9.73133H9.74359H9.75586H9.76813H9.78042H9.79271H9.80501H9.81732H9.82964H9.84196H9.8543H9.86664H9.879H9.89136H9.90373H9.91611H9.9285H9.94089H9.9533H9.96572H9.97814H9.99057H10.003H10.0155H10.0279H10.0404H10.0529H10.0654H10.0779H10.0904H10.1029H10.1154H10.128H10.1405H10.1531H10.1656H10.1782H10.1908H10.2034H10.216H10.2286H10.2412H10.2539H10.2665H10.2792H10.2919H10.3045H10.3172H10.3299H10.3426H10.3553H10.3681H10.3808H10.3936H10.4063H10.4191H10.4319H10.4447H10.4575H10.4703H10.4831H10.496H10.5088H10.5217H10.5345H10.5474H10.5603H10.5732H10.5861H10.5991H10.612H10.625H10.6379H10.6509H10.6639H10.6769H10.6899H10.7029H10.7159H10.729H10.742H10.7551H10.7682H10.7813H10.7944H10.8075H10.8206H10.8338H10.8469H10.8601H10.8733H10.8864H10.8996H10.9129H10.9261H10.9393H10.9526H10.9658H10.9791H10.9924H11.0057H11.019H11.0323H11.0457H11.059H11.0724H11.0858H11.0992H11.1126H11.126H11.1394H11.1529H11.1663H11.1798H11.1933H11.2068H11.2203H11.2338H11.2474H11.2609H11.2745H11.2881H11.3017H11.3153H11.3289H11.3426H11.3562H11.3699H11.3835H11.3972H11.4109H11.4247H11.4384H11.4521H11.4659H11.4797H11.4935H11.5073H11.5211H11.535H11.5488H11.5627H11.5765H11.5904H11.6044H11.6183H11.6322H11.6462H11.6601H11.6741H11.6881H11.7021H11.7162H11.7302H11.7443H11.7583H11.7724H11.7865H11.8007H11.8148H11.829H11.8431H11.8573H11.8715H11.8857H11.9H11.9142H11.9285H11.9427H11.957H11.9713H11.9857H12H12.0144H12.0287H12.043H12.0573H12.0716H12.0858H12.1001H12.1143H12.1285H12.1427H12.1569H12.1711H12.1852H12.1994H12.2135H12.2276H12.2417H12.2558H12.2698H12.2839H12.2979H12.3119H12.3259H12.3399H12.3539H12.3678H12.3818H12.3957H12.4096H12.4235H12.4374H12.4512H12.4651H12.4789H12.4927H12.5065H12.5203H12.5341H12.5479H12.5616H12.5754H12.5891H12.6028H12.6165H12.6302H12.6438H12.6575H12.6711H12.6847H12.6983H12.7119H12.7255H12.7391H12.7526H12.7662H12.7797H12.7932H12.8067H12.8202H12.8337H12.8471H12.8606H12.874H12.8874H12.9008H12.9142H12.9276H12.941H12.9543H12.9677H12.981H12.9943H13.0076H13.0209H13.0342H13.0475H13.0607H13.0739H13.0872H13.1004H13.1136H13.1268H13.1399H13.1531H13.1663H13.1794H13.1925H13.2056H13.2188H13.2318H13.2449H13.258H13.271H13.2841H13.2971H13.3101H13.3231H13.3361H13.3491H13.3621H13.3751H13.388H13.401H13.4139H13.4268H13.4397H13.4526H13.4655H13.4783H13.4912H13.5041H13.5169H13.5297H13.5425H13.5553H13.5681H13.5809H13.5937H13.6065H13.6192H13.6319H13.6447H13.6574H13.6701H13.6828H13.6955H13.7082H13.7208H13.7335H13.7461H13.7588H13.7714H13.784H13.7966H13.8092H13.8218H13.8344H13.847H13.8595H13.8721H13.8846H13.8971H13.9096H13.9222H13.9347H13.9471H13.9596H13.9721H13.9846H13.997H14.0095H14.0219H14.0343H14.0467H14.0591H14.0715H14.0839H14.0963H14.1087H14.121H14.1334H14.1457H14.1581H14.1704H14.1827H14.195H14.2073H14.2196H14.2319H14.2442H14.2564H14.2687H14.2809H14.2932H14.3054H14.3176H14.3299H14.3421H14.3543H14.3665H14.3787H14.3908H14.403H14.4152H14.4273H14.4395H14.4516H14.4637H14.4759H14.488H14.5001H14.5122H14.5243H14.5364H14.5485H14.5605H14.5726H14.5847H14.5967H14.6088H14.6208H14.6328H14.6449H14.6569H14.6689H14.6809H14.6929H14.7049H14.7169H14.7288H14.7408H14.7528H14.7647H14.7767H14.7886H14.8006H14.8125H14.8244H14.8364H14.8483H14.8602H14.8721H14.884H14.8959H14.9078H14.9196H14.9315H14.9434H14.9552H14.9671H14.9789H14.9908H15.0026H15.0145H15.0263H15.0381H15.0499H15.0617H15.0735H15.0853H15.0971H15.1089H15.1207H15.1325H15.1443H15.1561H15.1678H15.1796H15.1913H15.2031H15.2148H15.2266H15.2383H15.2501H15.2618H15.2735H15.2852H15.297H15.3087H15.3204H15.3321H15.3438H15.3555H15.3672H15.3788H15.3905H15.4022H15.4139H15.4256H15.4372H15.4489H15.4605H15.4722H15.4839H15.4955H15.5072H15.5188H15.5304H15.5421H15.5537H15.5653H15.577H15.5886H15.6002H15.6118H15.6234H15.635H15.6466H15.6582H15.6698H15.6814H15.693H15.7046H15.7162H15.7278H15.7394H15.751H15.7625H15.7741H15.7857H15.7973H15.8088H15.8204H15.832H15.8435H15.8551H15.8667H15.8782H15.8898H15.9013H15.9129H15.9244H15.936H15.9475H15.9591H15.9706H15.9821H15.9937H16.0052H16.0167H16.0283H16.0398H16.0513H16.0629H16.0744H16.0859H16.0974H16.109H16.1205H16.132H16.1435H16.1551H16.1666H16.1781H16.1896H16.2011H16.2126H16.2242H16.2357H16.2472H16.2587H16.2702H16.2817H16.2932H16.3047H16.3163H16.3278H16.3393H16.3508H16.3623H16.3738H16.3853H16.3968H16.4083H16.4198H16.4314H16.4429H16.4544H16.4659H16.4774H16.4889H16.5004H16.5119H16.5234H16.535H16.5465H16.558H16.5695H16.581H16.5925H16.6041H16.6156H16.6271H16.6386H16.6501H16.6617H16.6732H16.6847H16.6962H16.7078H16.7193H16.7308H16.7423H16.7539H16.7654H16.7769H16.7885H16.8H16.8116H16.8231H16.8346H16.8462H16.8577H16.8693H16.8808H16.8924H16.9039H16.9155H16.927H16.9386H16.9502H16.9617H16.9733H16.9849H16.9964H17.008H17.0196H17.0312H17.0427H17.0543H17.0659H17.0775H17.0891H17.1007H17.1123H17.1239H17.1355H17.1471H17.1587H17.1703H17.1819H17.1936H17.2052H17.2168H17.2284H17.2401H17.2517H17.2633H17.275H17.2866H17.2983H17.3099H17.3216H17.3332H17.3449H17.3566H17.3682H17.3799H17.3916H17.4033H17.415H17.4266H17.4383H17.45H17.4617H17.4734H17.4852H17.4969H17.5086H17.5203H17.5321H17.5438H17.5555H17.5673H17.579H17.5908H17.6025H17.6143H17.626H17.6378H17.6496H17.6614H17.6732H17.685H17.6967H17.7085H17.7204H17.7322H17.744H17.7558H17.7676H17.7795H17.7913H17.8031H17.815H17.8269H17.8387H17.8506H17.8625H17.8743H17.8862H17.8981H17.91H17.9219H17.9338H17.9457H17.9576H17.9696H17.9815H17.9934H18.0054H18.0173H18.0293H18.0413H18.0532H18.0652H18.0772H18.0892H18.1012H18.1132H18.1252H18.1372H18.1492H18.1612H18.1733H18.1853H18.1974H18.2094H18.2215H18.2336H18.2457H18.2577H18.9533L18.7317 14.2632C17.787 17.0742 15.1308 19.1001 12 19.1001C8.86927 19.1001 6.21302 17.0742 5.26833 14.2632L5.04677 13.6039ZM6.4818 14.6039C7.45888 16.6709 9.56307 18.1001 12 18.1001C14.437 18.1001 16.5411 16.6709 17.5182 14.6039H17.5086H17.4969H17.4852H17.4734H17.4617H17.45H17.4383H17.4266H17.415H17.4033H17.3916H17.3799H17.3682H17.3566H17.3449H17.3332H17.3216H17.3099H17.2983H17.2866H17.275H17.2633H17.2517H17.2401H17.2284H17.2168H17.2052H17.1936H17.1819H17.1703H17.1587H17.1471H17.1355H17.1239H17.1123H17.1007H17.0891H17.0775H17.0659H17.0543H17.0427H17.0312H17.0196H17.008H16.9964H16.9849H16.9733H16.9617H16.9502H16.9386H16.927H16.9155H16.9039H16.8924H16.8808H16.8693H16.8577H16.8462H16.8346H16.8231H16.8116H16.8H16.7885H16.7769H16.7654H16.7539H16.7423H16.7308H16.7193H16.7078H16.6962H16.6847H16.6732H16.6617H16.6501H16.6386H16.6271H16.6156H16.6041H16.5925H16.581H16.5695H16.558H16.5465H16.535H16.5234H16.5119H16.5004H16.4889H16.4774H16.4659H16.4544H16.4429H16.4314H16.4198H16.4083H16.3968H16.3853H16.3738H16.3623H16.3508H16.3393H16.3278H16.3163H16.3047H16.2932H16.2817H16.2702H16.2587H16.2472H16.2357H16.2242H16.2126H16.2011H16.1896H16.1781H16.1666H16.1551H16.1435H16.132H16.1205H16.109H16.0974H16.0859H16.0744H16.0629H16.0513H16.0398H16.0283H16.0167H16.0052H15.9937H15.9821H15.9706H15.9591H15.9475H15.936H15.9244H15.9129H15.9013H15.8898H15.8782H15.8667H15.8551H15.8435H15.832H15.8204H15.8088H15.7973H15.7857H15.7741H15.7625H15.751H15.7394H15.7278H15.7162H15.7046H15.693H15.6814H15.6698H15.6582H15.6466H15.635H15.6234H15.6118H15.6002H15.5886H15.577H15.5653H15.5537H15.5421H15.5304H15.5188H15.5072H15.4955H15.4839H15.4722H15.4605H15.4489H15.4372H15.4256H15.4139H15.4022H15.3905H15.3788H15.3672H15.3555H15.3438H15.3321H15.3204H15.3087H15.297H15.2852H15.2735H15.2618H15.2501H15.2383H15.2266H15.2148H15.2031H15.1913H15.1796H15.1678H15.1561H15.1443H15.1325H15.1207H15.1089H15.0971H15.0853H15.0735H15.0617H15.0499H15.0381H15.0263H15.0145H15.0026H14.9908H14.9789H14.9671H14.9552H14.9434H14.9315H14.9196H14.9078H14.8959H14.884H14.8721H14.8602H14.8483H14.8364H14.8244H14.8125H14.8006H14.7886H14.7767H14.7647H14.7528H14.7408H14.7288H14.7169H14.7049H14.6929H14.6809H14.6689H14.6569H14.6449H14.6328H14.6208H14.6088H14.5967H14.5847H14.5726H14.5605H14.5485H14.5364H14.5243H14.5122H14.5001H14.488H14.4759H14.4637H14.4516H14.4395H14.4273H14.4152H14.403H14.3908H14.3787H14.3665H14.3543H14.3421H14.3299H14.3176H14.3054H14.2932H14.2809H14.2687H14.2564H14.2442H14.2319H14.2196H14.2073H14.195H14.1827H14.1704H14.1581H14.1457H14.1334H14.121H14.1087H14.0963H14.0839H14.0715H14.0591H14.0467H14.0343H14.0219H14.0095H13.997H13.9846H13.9721H13.9596H13.9471H13.9347H13.9222H13.9096H13.8971H13.8846H13.8721H13.8595H13.847H13.8344H13.8218H13.8092H13.7966H13.784H13.7714H13.7588H13.7461H13.7335H13.7208H13.7082H13.6955H13.6828H13.6701H13.6574H13.6447H13.6319H13.6192H13.6065H13.5937H13.5809H13.5681H13.5553H13.5425H13.5297H13.5169H13.5041H13.4912H13.4783H13.4655H13.4526H13.4397H13.4268H13.4139H13.401H13.388H13.3751H13.3621H13.3491H13.3361H13.3231H13.3101H13.2971H13.2841H13.271H13.258H13.2449H13.2318H13.2188H13.2056H13.1925H13.1794H13.1663H13.1531H13.1399H13.1268H13.1136H13.1004H13.0872H13.0739H13.0607H13.0475H13.0342H13.0209H13.0076H12.9943H12.981H12.9677H12.9543H12.941H12.9276H12.9142H12.9008H12.8874H12.874H12.8606H12.8471H12.8337H12.8202H12.8067H12.7932H12.7797H12.7662H12.7526H12.7391H12.7255H12.7119H12.6983H12.6847H12.6711H12.6575H12.6438H12.6302H12.6165H12.6028H12.5891H12.5754H12.5616H12.5479H12.5341H12.5203H12.5065H12.4927H12.4789H12.4651H12.4512H12.4374H12.4235H12.4096H12.3957H12.3818H12.3678H12.3539H12.3399H12.3259H12.3119H12.2979H12.2839H12.2698H12.2558H12.2417H12.2276H12.2135H12.1994H12.1852H12.1711H12.1569H12.1427H12.1285H12.1143H12.1001H12.0858H12.0716H12.0573H12.043H12.0287H12.0144H12H11.9857H11.9713H11.957H11.9427H11.9285H11.9142H11.9H11.8857H11.8715H11.8573H11.8431H11.829H11.8148H11.8007H11.7865H11.7724H11.7583H11.7443H11.7302H11.7162H11.7021H11.6881H11.6741H11.6601H11.6462H11.6322H11.6183H11.6044H11.5904H11.5765H11.5627H11.5488H11.535H11.5211H11.5073H11.4935H11.4797H11.4659H11.4521H11.4384H11.4247H11.4109H11.3972H11.3835H11.3699H11.3562H11.3426H11.3289H11.3153H11.3017H11.2881H11.2745H11.2609H11.2474H11.2338H11.2203H11.2068H11.1933H11.1798H11.1663H11.1529H11.1394H11.126H11.1126H11.0992H11.0858H11.0724H11.059H11.0457H11.0323H11.019H11.0057H10.9924H10.9791H10.9658H10.9526H10.9393H10.9261H10.9129H10.8996H10.8864H10.8733H10.8601H10.8469H10.8338H10.8206H10.8075H10.7944H10.7813H10.7682H10.7551H10.742H10.729H10.7159H10.7029H10.6899H10.6769H10.6639H10.6509H10.6379H10.625H10.612H10.5991H10.5861H10.5732H10.5603H10.5474H10.5345H10.5217H10.5088H10.496H10.4831H10.4703H10.4575H10.4447H10.4319H10.4191H10.4063H10.3936H10.3808H10.3681H10.3553H10.3426H10.3299H10.3172H10.3045H10.2919H10.2792H10.2665H10.2539H10.2412H10.2286H10.216H10.2034H10.1908H10.1782H10.1656H10.1531H10.1405H10.128H10.1154H10.1029H10.0904H10.0779H10.0654H10.0529H10.0404H10.0279H10.0155H10.003H9.99057H9.97814H9.96572H9.9533H9.94089H9.9285H9.91611H9.90373H9.89136H9.879H9.86664H9.8543H9.84196H9.82964H9.81732H9.80501H9.79271H9.78042H9.76813H9.75586H9.74359H9.73133H9.71908H9.70684H9.6946H9.68237H9.67016H9.65795H9.64574H9.63355H9.62136H9.60919H9.59701H9.58485H9.5727H9.56055H9.54841H9.53627H9.52415H9.51203H9.49992H9.48782H9.47572H9.46364H9.45156H9.43948H9.42741H9.41536H9.4033H9.39126H9.37922H9.36719H9.35516H9.34315H9.33113H9.31913H9.30713H9.29514H9.28316H9.27118H9.25921H9.24724H9.23529H9.22334H9.21139H9.19945H9.18752H9.17559H9.16367H9.15176H9.13985H9.12794H9.11605H9.10416H9.09227H9.08039H9.06852H9.05665H9.04479H9.03294H9.02109H9.00924H8.9974H8.98557H8.97374H8.96192H8.9501H8.93829H8.92648H8.91468H8.90288H8.89109H8.8793H8.86752H8.85574H8.84397H8.8322H8.82044H8.80868H8.79693H8.78518H8.77344H8.7617H8.74997H8.73824H8.72651H8.71479H8.70308H8.69136H8.67966H8.66795H8.65625H8.64456H8.63287H8.62118H8.6095H8.59782H8.58614H8.57447H8.5628H8.55114H8.53948H8.52782H8.51617H8.50452H8.49288H8.48123H8.46959H8.45796H8.44633H8.4347H8.42307H8.41145H8.39983H8.38822H8.3766H8.36499H8.35339H8.34178H8.33018H8.31859H8.30699H8.2954H8.28381H8.27222H8.26064H8.24905H8.23748H8.2259H8.21432H8.20275H8.19118H8.17962H8.16805H8.15649H8.14493H8.13337H8.12181H8.11026H8.09871H8.08716H8.07561H8.06406H8.05252H8.04097H8.02943H8.01789H8.00636H7.99482H7.98328H7.97175H7.96022H7.94869H7.93716H7.92563H7.91411H7.90258H7.89106H7.87953H7.86801H7.85649H7.84497H7.83345H7.82193H7.81042H7.7989H7.78738H7.77587H7.76435H7.75284H7.74133H7.72981H7.7183H7.70679H7.69528H7.68377H7.67226H7.66075H7.64924H7.63773H7.62622H7.61471H7.6032H7.59169H7.58018H7.56867H7.55716H7.54565H7.53414H7.52263H7.51111H7.4996H7.48809H7.47658H7.46507H7.45355H7.44204H7.43052H7.41901H7.40749H7.39597H7.38446H7.37294H7.36142H7.3499H7.33837H7.32685H7.31533H7.3038H7.29228H7.28075H7.26922H7.25769H7.24616H7.23462H7.22309H7.21155H7.20002H7.18848H7.17694H7.16539H7.15385H7.1423H7.13075H7.1192H7.10765H7.0961H7.08454H7.07298H7.06142H7.04986H7.0383H7.02673H7.01516H7.00359H6.99202H6.98044H6.96886H6.95728H6.9457H6.93411H6.92252H6.91093H6.89933H6.88774H6.87614H6.86453H6.85293H6.84132H6.82971H6.81809H6.80647H6.79485H6.78323H6.7716H6.75997H6.74833H6.73669H6.72505H6.71341H6.70176H6.69011H6.67845H6.66679H6.65513H6.64346H6.63179H6.62012H6.60844H6.59676H6.58507H6.57338H6.56169H6.54999H6.53828H6.52658H6.51486H6.50315H6.49143H6.4818Z" fill="#D9D9D9"/>
</svg>
