<svg viewBox="0 0 17.0186 17.0186" fill="none" xmlns="http://www.w3.org/2000/svg">
<path d="M8.50977 0C9.00657 0.00029319 9.40918 0.403515 9.40918 0.900391C9.40897 1.39709 9.00644 1.80049 8.50977 1.80078C6.73037 1.80078 5.02385 2.5074 3.76562 3.76563C2.5074 5.02385 1.80078 6.73037 1.80078 8.50977C1.80092 10.289 2.50753 11.9958 3.76562 13.2539C5.0238 14.5118 6.73062 15.2187 8.50977 15.2188C9.00657 15.219 9.40918 15.6223 9.40918 16.1191C9.40881 16.6157 9.00634 17.0183 8.50977 17.0186C6.25324 17.0186 4.0889 16.1218 2.49316 14.5264C0.897503 12.9307 0.000143708 10.7664 0 8.50977C1.97295e-07 6.25298 0.897375 4.08895 2.49316 2.49316C4.08895 0.897375 6.25298 -2.69119e-08 8.50977 0ZM12.0156 14.2305C12.4394 13.971 12.9933 14.1036 13.2529 14.5273C13.5121 14.9509 13.3793 15.5049 12.9561 15.7646C12.8929 15.8033 12.8289 15.8418 12.7646 15.8789C12.3345 16.1273 11.7839 15.9796 11.5352 15.5498C11.2867 15.1194 11.4339 14.5689 11.8643 14.3203C11.915 14.291 11.9658 14.261 12.0156 14.2305ZM14.4062 11.7109C14.6435 11.2743 15.1892 11.1126 15.626 11.3496C16.0624 11.5869 16.2244 12.1336 15.9873 12.5703C15.952 12.6353 15.9159 12.7005 15.8789 12.7646C15.8418 12.8289 15.8033 12.8929 15.7646 12.9561C15.5049 13.3793 14.9509 13.5121 14.5273 13.2529C14.1036 12.9933 13.971 12.4394 14.2305 12.0156C14.261 11.9658 14.291 11.915 14.3203 11.8643C14.3496 11.8136 14.3784 11.7623 14.4062 11.7109ZM12.1582 4.57227C12.339 4.4343 12.594 4.45157 12.7549 4.6123C12.9118 4.76924 12.9326 5.0166 12.8037 5.19727L9.84473 9.33984C9.40737 9.95176 8.52519 10.0248 7.99316 9.49316C7.4724 8.97236 7.52917 8.11139 8.11426 7.66406L12.1582 4.57227ZM16.0928 7.41113C16.5894 7.39838 17.0026 7.79038 17.0156 8.28711C17.0176 8.36107 17.0186 8.43566 17.0186 8.50977C17.0185 8.58391 17.0176 8.65843 17.0156 8.73242C17.0024 9.22893 16.5893 9.62113 16.0928 9.6084C15.5961 9.59539 15.2042 9.18214 15.2168 8.68555C15.2183 8.62724 15.2187 8.56819 15.2188 8.50977C15.2188 8.4513 15.2183 8.39233 15.2168 8.33398C15.2038 7.8371 15.5959 7.42414 16.0928 7.41113ZM14.5273 3.7666C14.9511 3.50702 15.5049 3.63984 15.7646 4.06348C15.8033 4.12658 15.8418 4.19069 15.8789 4.25488C15.9159 4.31901 15.952 4.38426 15.9873 4.44922C16.2241 4.88592 16.0625 5.43279 15.626 5.66992C15.1895 5.90675 14.6436 5.74465 14.4062 5.30859C14.3785 5.25745 14.3495 5.20576 14.3203 5.15527C14.2911 5.10469 14.2609 5.05363 14.2305 5.00391C13.9708 4.58011 14.1036 4.02632 14.5273 3.7666ZM11.5352 1.46973C11.7837 1.03944 12.3343 0.892142 12.7646 1.14063C12.8287 1.17762 12.8931 1.21531 12.9561 1.25391C13.3794 1.51376 13.5125 2.06856 13.2529 2.49219C12.9933 2.91555 12.4393 3.04809 12.0156 2.78906C11.9659 2.75859 11.9149 2.72843 11.8643 2.69922C11.4338 2.45071 11.2867 1.90017 11.5352 1.46973Z" fill="currentColor"/>
</svg>
