<svg viewBox="0 0 34.8246 23" fill="none" xmlns="http://www.w3.org/2000/svg">
<path d="M24.0819 11.1627C26.8567 11.1627 29.2114 8.69341 29.2114 5.49862C29.2114 2.38019 26.8439 0 24.0819 0C21.3199 0 18.9397 2.41837 18.9524 5.52407C18.9524 8.69341 21.3071 11.1627 24.0819 11.1627ZM9.36801 11.4555C11.7864 11.4555 13.8356 9.29164 13.8356 6.51688C13.8356 3.79303 11.7737 1.73105 9.36801 1.73105C6.96237 1.73105 4.88766 3.83121 4.90039 6.54234C4.90039 9.29164 6.94964 11.4555 9.36801 11.4555ZM2.35473 23H11.8882C10.539 21.0526 12.0282 17.2086 14.8921 14.9685C13.492 14.052 11.6591 13.3901 9.36801 13.3901C3.67847 13.3901 0 17.5778 0 21.0398C0 22.2872 0.636414 23 2.35473 23ZM16.1395 23H32.0116C34.0991 23 34.8246 22.3636 34.8246 21.2053C34.8246 17.9214 30.6752 13.4156 24.0692 13.4156C17.4759 13.4156 13.3265 17.9214 13.3265 21.2053C13.3265 22.3636 14.052 23 16.1395 23Z" fill="var(--fill-0, white)"/>
</svg>
