<svg viewBox="0 0 14.2019 9.1364" fill="none" xmlns="http://www.w3.org/2000/svg">
<path fill-rule="evenodd" clip-rule="evenodd" d="M14.0446 1.16309C14.2916 0.854863 14.2425 0.404973 13.9345 0.157596C13.6262 -0.0898557 13.175 -0.0405248 12.9276 0.267769L7.24333 7.34919L6.80805 6.91428C6.5285 6.63497 6.07482 6.63536 5.79536 6.91482C5.51604 7.19436 5.51643 7.64804 5.79589 7.9275L6.79588 8.9266C6.93971 9.07043 7.13778 9.14611 7.34088 9.13503C7.54393 9.12391 7.7325 9.02698 7.85979 8.86839L14.0446 1.16309ZM9.95869 1.16341C10.2058 0.855121 10.156 0.404613 9.84787 0.157258C9.53958 -0.0899703 9.08911 -0.0401324 8.84172 0.26808L3.15747 7.3495L1.22142 5.4146C0.941919 5.13537 0.488847 5.13511 0.209385 5.4144C-0.0701436 5.69394 -0.0696226 6.14756 0.209915 6.42709L2.71001 8.92691C2.85382 9.07056 3.05204 9.14642 3.25501 9.13534C3.45794 9.12414 3.6467 9.02721 3.77393 8.8687L9.95869 1.16341Z" fill="currentColor"/>
</svg>
