<svg viewBox="0 0 25.5997 16.5996" fill="none" xmlns="http://www.w3.org/2000/svg">
<path fill-rule="evenodd" clip-rule="evenodd" d="M15.7998 1.59961C16.7387 1.59961 17.5 2.36092 17.5 3.2998V13.2998C17.5 14.2387 16.7387 15 15.7998 15H3.2998C2.36092 15 1.59961 14.2387 1.59961 13.2998V3.2998C1.59961 2.36092 2.36092 1.59961 3.2998 1.59961H15.7998ZM15.7998 16.5996C17.6223 16.5996 19.0996 15.1223 19.0996 13.2998V11.3262L22.6182 14.3892C23.7829 15.4029 25.5995 14.5759 25.5997 13.0318V3.56792C25.5995 2.02376 23.783 1.19672 22.6182 2.2105L19.0996 5.27348V3.2998C19.0996 1.47727 17.6223 0 15.7998 0H3.2998C1.47727 0 1.61075e-07 1.47727 0 3.2998V13.2998C4.02651e-08 15.1223 1.47727 16.5996 3.2998 16.5996H15.7998ZM19.0996 7.39522V9.20448L23.669 13.1822C23.7984 13.2946 23.9999 13.2031 24.0001 13.0318V3.56792C23.9999 3.39652 23.7984 3.3051 23.669 3.41753L19.0996 7.39522Z" fill="currentColor"/>
</svg>
