<svg viewBox="0 0 12 10.5" fill="none" xmlns="http://www.w3.org/2000/svg">
<path d="M4.75 8C5.44036 8 6 8.55964 6 9.25C6 9.94036 5.44036 10.5 4.75 10.5H1.25C0.559644 10.5 0 9.94036 0 9.25C0 8.55964 0.559644 8 1.25 8H4.75ZM10.75 4C11.4404 4 12 4.55964 12 5.25C12 5.94036 11.4404 6.5 10.75 6.5H1.25C0.559644 6.5 0 5.94036 0 5.25C0 4.55964 0.559644 4 1.25 4H10.75ZM7.25 0C7.94036 0 8.5 0.559644 8.5 1.25C8.5 1.94036 7.94036 2.5 7.25 2.5H1.25C0.559644 2.5 0 1.94036 0 1.25C0 0.559644 0.559644 0 1.25 0H7.25Z" fill="currentColor"/>
</svg>
