<svg viewBox="0 0 31.4848 20.9336" fill="none" xmlns="http://www.w3.org/2000/svg">
<path d="M15.7436 12.167C19.0624 12.167 21.3513 13.2452 22.9008 14.6455C24.4335 16.0306 25.1912 17.6831 25.5522 18.7695C25.9429 19.946 24.991 20.9335 23.9282 20.9336H7.56003C6.49729 20.9335 5.5445 19.9459 5.93503 18.7695C6.29607 17.6832 7.05478 16.0306 8.58737 14.6455C10.1369 13.2453 12.4252 12.1671 15.7436 12.167ZM5.62155 12.5C6.58947 12.5 7.4108 12.672 8.103 12.9629C7.61258 13.3541 7.16822 13.7744 6.76804 14.2148C6.42775 14.1411 6.04716 14.0996 5.62155 14.0996C4.02141 14.0998 3.10322 14.7506 2.53561 15.5195C1.98558 16.2648 1.73573 17.1678 1.62546 17.833H4.53171C4.37934 18.3846 4.303 18.967 4.26413 19.4336H1.49362C0.659725 19.4334 -0.118848 18.732 0.0151056 17.7773L0.0658868 17.458C0.208557 16.6638 0.526653 15.5474 1.2485 14.5693C2.10366 13.4108 3.49023 12.5001 5.62155 12.5ZM25.6216 12.5C27.8305 12.5 29.2733 13.3972 30.1704 14.5547C31.0374 15.6736 31.3509 16.9764 31.4682 17.7725C31.6094 18.7315 30.8264 19.4336 29.9936 19.4336H27.2251C27.1862 18.9671 27.1108 18.3846 26.9585 17.833H29.8569C29.7412 17.1724 29.4806 16.2759 28.9057 15.5342C28.3088 14.7641 27.3311 14.0996 25.6216 14.0996C25.2818 14.0996 24.9732 14.131 24.6919 14.1846C24.2862 13.7413 23.837 13.3174 23.3393 12.9248C23.9823 12.6587 24.7374 12.5001 25.6216 12.5ZM15.7436 13.7666C12.8047 13.7667 10.903 14.7094 9.65964 15.833C8.39963 16.9718 7.76154 18.3469 7.45358 19.2734C7.45079 19.2819 7.44986 19.2875 7.44968 19.29C7.45009 19.291 7.45089 19.2928 7.45261 19.2949C7.46183 19.3064 7.49444 19.333 7.56003 19.333H23.9282C23.993 19.333 24.025 19.3066 24.0346 19.2949C24.0388 19.2897 24.039 19.2878 24.0385 19.29C24.0384 19.2876 24.0376 19.2824 24.0346 19.2734C23.7267 18.3469 23.0886 16.9718 21.8286 15.833C20.5852 14.7093 18.6827 13.7666 15.7436 13.7666ZM6.07761 3.5C7.99102 3.50015 9.3772 5.22347 9.37741 7.13281C9.37741 9.04233 7.99117 10.7664 6.07761 10.7666C4.16391 10.7666 2.7778 9.04241 2.7778 7.13281C2.77801 5.22339 4.16405 3.5 6.07761 3.5ZM25.4106 3.5C27.3242 3.5 28.7102 5.22339 28.7104 7.13281C28.7104 9.04241 27.3243 10.7666 25.4106 10.7666C23.4969 10.7666 22.1108 9.04239 22.1108 7.13281C22.111 5.22341 23.4971 3.50004 25.4106 3.5ZM15.7436 0C18.3781 1.29911e-05 20.3773 2.34051 20.3774 5.0498C20.3774 7.75918 18.3782 10.0996 15.7436 10.0996C13.1092 10.0994 11.1108 7.75905 11.1108 5.0498C11.1109 2.34064 13.1093 0.00023961 15.7436 0ZM6.07761 5.09961C5.22998 5.09961 4.37762 5.91304 4.37741 7.13281C4.37741 8.35283 5.22988 9.16602 6.07761 9.16602C6.92524 9.16585 7.7778 8.3527 7.7778 7.13281C7.7776 5.91317 6.92514 5.09977 6.07761 5.09961ZM25.4106 5.09961C24.563 5.09965 23.7106 5.91308 23.7104 7.13281C23.7104 8.35279 24.5629 9.16597 25.4106 9.16602C26.2583 9.16602 27.1108 8.35283 27.1108 7.13281C27.1106 5.91304 26.2582 5.09961 25.4106 5.09961ZM15.7436 1.59961C14.1442 1.59986 12.7105 3.06504 12.7104 5.0498C12.7104 7.03467 14.1442 8.49975 15.7436 8.5C17.3432 8.49999 18.7768 7.03483 18.7768 5.0498C18.7767 3.06488 17.3432 1.59962 15.7436 1.59961Z" fill="currentColor"/>
</svg>
