<svg viewBox="0 0 16.2661 10.6006" fill="none" xmlns="http://www.w3.org/2000/svg">
<path d="M10.1686 0.308043C10.4399 -0.0400006 10.9422 -0.102389 11.2907 0.168394C11.6394 0.439629 11.7025 0.942709 11.4313 1.29144L4.43134 10.2905C4.29052 10.4715 4.07822 10.5838 3.84931 10.5981C3.62041 10.6122 3.39526 10.5278 3.2331 10.3657L0.234072 7.36468C-0.0778538 7.05222 -0.0781944 6.54607 0.234072 6.23382C0.546348 5.92182 1.05256 5.92199 1.36493 6.23382L3.72431 8.5932L10.1686 0.308043ZM14.8356 0.309019C15.1069 -0.0394132 15.609 -0.102554 15.9577 0.168394C16.3064 0.439666 16.3686 0.942712 16.0974 1.29144L9.09833 10.2905C8.95752 10.4715 8.74519 10.5847 8.5163 10.5991C8.28739 10.6132 8.06228 10.5278 7.90009 10.3657L6.90106 9.36664C6.58877 9.05437 6.58811 8.54727 6.90009 8.2348C7.21239 7.92247 7.71947 7.92172 8.03192 8.23382L8.3913 8.59222L14.8356 0.309019Z" fill="currentColor"/>
</svg>
