<svg viewBox="0 0 20.0566 20.0569" fill="none" xmlns="http://www.w3.org/2000/svg">
<path d="M14.9092 20.0569C11.9868 20.0569 8.4082 18.2317 5.1167 14.9402C1.80469 11.6282 0 8.05983 0 5.12721C0 3.35328 0.481934 2.17408 1.65088 1.12819C1.73291 1.05641 1.81494 0.984631 1.90723 0.9026C2.59424 0.287366 3.271 -0.00999761 3.91699 0.0002563C4.65527 0.0105102 5.34229 0.43092 5.97803 1.34352L8.04932 4.3274C8.68506 5.24 8.75684 6.32692 7.89551 7.18824L7.11621 7.9778C6.88037 8.21364 6.87012 8.40846 7.00342 8.6443C7.41357 9.2903 8.18262 10.1721 8.98242 10.9617C9.74121 11.7205 10.8589 12.6946 11.4126 13.0432C11.6382 13.1868 11.8433 13.1765 12.0791 12.9407L12.8687 12.1511C13.73 11.3001 14.8066 11.3718 15.7295 12.0076L18.7134 14.0789C19.626 14.7146 20.0566 15.4016 20.0566 16.1399C20.0566 16.7859 19.7695 17.4627 19.1543 18.1497C19.0825 18.2317 19.0005 18.324 18.9185 18.406C17.8828 19.575 16.7036 20.0569 14.9092 20.0569ZM14.9194 18.4778C16.0576 18.4573 17.0317 18.0676 17.729 17.2678C17.7905 17.1961 17.8315 17.1448 17.8931 17.073C18.1597 16.7654 18.3032 16.4373 18.3032 16.1399C18.3032 15.8323 18.1904 15.5759 17.8828 15.3709L14.8989 13.3816C14.5708 13.1765 14.2222 13.156 13.9043 13.4739L13.002 14.3762C12.2944 15.0838 11.4331 15.0325 10.7461 14.5198C9.94629 13.9251 8.70557 12.8176 7.92627 12.0281C7.13672 11.2488 6.12158 10.1004 5.53711 9.3108C5.02441 8.62379 4.97314 7.76246 5.68066 7.05494L6.58301 6.1526C6.90088 5.83473 6.88037 5.47584 6.66504 5.15797L4.67578 2.17408C4.48096 1.86647 4.21436 1.75367 3.91699 1.75367C3.61963 1.75367 3.2915 1.89723 2.98389 2.16383C2.91211 2.2151 2.86084 2.26637 2.78906 2.32789C1.98926 3.02516 1.58936 3.99928 1.56885 5.12721C1.51758 7.74196 3.61963 11.2078 6.2959 13.8738C8.95166 16.5193 12.3047 18.5291 14.9194 18.4778Z" fill="currentColor"/>
</svg>
