<svg viewBox="0 0 31.5566 21.9033" fill="none" xmlns="http://www.w3.org/2000/svg">
<path d="M11.9941 0C18.435 3.13791e-05 23.9883 4.13054 23.9883 9.58887C23.9883 15.0472 18.435 19.1777 11.9941 19.1777C11.6053 19.1777 11.2205 19.1627 10.8408 19.1338C9.44282 20.4897 8.08837 21.1848 7.06055 21.5391C6.54475 21.7168 6.11383 21.8079 5.80371 21.8545C5.64863 21.8778 5.52299 21.8901 5.43262 21.8965C5.38781 21.8996 5.3515 21.9014 5.32422 21.9023C5.31069 21.9028 5.29904 21.9032 5.29004 21.9033H5.26953C4.98137 21.9033 4.71691 21.7425 4.58496 21.4863C4.45322 21.2303 4.47563 20.922 4.64258 20.6875L4.64648 20.6826C4.64877 20.6794 4.65196 20.6742 4.65625 20.668C4.65795 20.6655 4.66011 20.6631 4.66211 20.6602C4.67634 20.6395 4.69811 20.6078 4.72559 20.5664C4.78068 20.4834 4.85809 20.3615 4.94727 20.2129C5.12754 19.9125 5.34428 19.5155 5.50879 19.1045C5.67906 18.679 5.76458 18.3106 5.75195 18.0459C5.7415 17.8288 5.67832 17.747 5.55176 17.6826C5.19702 17.5021 4.85417 17.3067 4.52539 17.0977C1.81574 15.3748 1.05869e-05 12.6821 0 9.58887C0 4.13052 5.55325 0 11.9941 0ZM20.2998 0.749023C26.3291 0.74932 31.5565 4.61829 31.5566 9.76172C31.5566 12.6758 29.8452 15.2077 27.3027 16.8242C27.0163 17.0063 26.398 17.3853 26.0498 17.5625C25.977 17.5995 25.9452 17.626 25.9414 17.7715C25.9363 17.9728 26.0117 18.272 26.1719 18.6367C26.3253 18.986 26.5252 19.3252 26.6924 19.583C26.7748 19.7101 26.8468 19.814 26.8975 19.8848C26.9227 19.92 26.9432 19.9475 26.9561 19.9648C26.9623 19.9732 26.967 19.9798 26.9697 19.9834L26.9727 19.9873C27.1541 20.2245 27.1857 20.5445 27.0537 20.8125C26.9214 21.0807 26.6477 21.2508 26.3486 21.251C25.5447 21.251 24.6601 20.8338 23.915 20.3887C23.1354 19.9227 22.3602 19.3334 21.7383 18.8242C21.6905 18.7851 21.6269 18.7627 21.5605 18.7637C21.1197 18.771 20.4828 18.7754 20.2998 18.7754C20.0883 18.7754 19.8773 18.7682 19.668 18.7588C23.4862 16.8818 26.1035 13.5506 26.1035 9.59863C26.1033 5.85622 23.756 2.67047 20.2646 0.749023C20.2761 0.748996 20.2883 0.749023 20.2998 0.749023Z" fill="currentColor"/>
</svg>
