<svg viewBox="0 0 24.2674 24.2672" fill="none" xmlns="http://www.w3.org/2000/svg">
<path d="M2.06899 5.35642C2.31572 4.99024 2.81296 4.89324 3.17934 5.13962C3.54584 5.38639 3.64291 5.88446 3.39614 6.25095C2.30062 7.87828 1.68138 9.77985 1.60805 11.7402C1.53485 13.7006 2.01006 15.643 2.9811 17.3476C3.08222 17.5253 3.11173 17.735 3.06313 17.9336L2.03384 22.1367L6.652 21.3388L6.78481 21.3271C6.91697 21.3265 7.04791 21.3589 7.16567 21.4219C8.82453 22.3091 10.6913 22.7362 12.5709 22.6582C14.4504 22.5801 16.2746 21.9991 17.8541 20.9775C18.225 20.7376 18.7206 20.8441 18.9606 21.2148C19.2005 21.5858 19.0942 22.0813 18.7233 22.3213C16.9038 23.498 14.8023 24.1669 12.6374 24.2568C10.5656 24.3428 8.50851 23.894 6.66079 22.9599L2.1061 23.748C1.06493 23.9277 0.181265 22.9804 0.432273 21.9541L1.4352 17.8535C0.422684 15.9597 -0.0719252 13.8295 0.00844518 11.6797C0.0929599 9.42141 0.806894 7.23098 2.06899 5.35642ZM12.1334 4.33298C16.4411 4.33298 19.933 7.82517 19.9332 12.1328C19.9332 16.4406 16.4413 19.9326 12.1334 19.9326C7.82584 19.9323 4.33364 16.4405 4.33364 12.1328C4.33388 7.82532 7.82599 4.33324 12.1334 4.33298ZM21.277 5.38865C21.6501 5.15216 22.1439 5.26273 22.3805 5.63572C23.6539 7.64388 24.3096 9.98192 24.2653 12.3594C24.2209 14.7369 23.479 17.0494 22.1315 19.0088C21.8811 19.3728 21.3823 19.4652 21.0182 19.2148C20.6543 18.9644 20.5628 18.4655 20.8131 18.1015C21.9827 16.4008 22.6271 14.3938 22.6657 12.3301C22.7042 10.266 22.1345 8.23557 21.029 6.49216C20.7927 6.1191 20.9041 5.62517 21.277 5.38865ZM12.1334 5.93259C8.70964 5.93285 5.93349 8.70898 5.93325 12.1328C5.93325 15.5568 8.7095 18.3327 12.1334 18.333C15.5576 18.333 18.3336 15.557 18.3336 12.1328C18.3334 8.70882 15.5575 5.93259 12.1334 5.93259ZM12.2858 0.00095157C14.6831 0.0310689 17.0185 0.771085 18.9957 2.12693C19.3598 2.37682 19.4524 2.87399 19.2028 3.23826C18.9529 3.60264 18.4549 3.69613 18.0905 3.44626C16.374 2.26929 14.3473 1.62674 12.2663 1.60056C10.1852 1.57445 8.14262 2.16534 6.39712 3.2988C6.02657 3.5394 5.5313 3.43398 5.29067 3.06345C5.05031 2.69302 5.15479 2.19765 5.52505 1.95701C7.53566 0.651299 9.8886 -0.0290571 12.2858 0.00095157Z" fill="currentColor"/>
</svg>
