<svg viewBox="0 0 9.51074 14.3955" fill="none" xmlns="http://www.w3.org/2000/svg">
<path d="M7.71191 0C8.13772 0.000122403 8.48242 0.345648 8.48242 0.771484V1.11621C8.48242 1.38892 8.37447 1.65092 8.18164 1.84375L7.45508 2.56934V5.91309L9.20996 7.66797C9.40262 7.86073 9.51068 8.122 9.51074 8.39453V8.74023C9.51064 9.16593 9.16591 9.51054 8.74023 9.51074H5.65527V10.584C5.65527 11.907 5.34754 13.2122 4.75586 14.3955C4.16418 13.2122 3.85547 11.907 3.85547 10.584V9.51074H0.770508C0.344876 9.51049 0.000104211 9.1659 0 8.74023V8.39453C6.36616e-05 8.12202 0.108147 7.86072 0.300781 7.66797L2.05664 5.91211V2.57031L1.3291 1.84375C1.13627 1.65092 1.02832 1.38892 1.02832 1.11621V0.771484C1.02832 0.345728 1.37313 0.000251736 1.79883 0H7.71191Z" fill="currentColor"/>
</svg>
