<svg viewBox="0 0 27.3369 13.6699" fill="none" xmlns="http://www.w3.org/2000/svg">
<path id="Union" d="M19.0801 0C21.152 0 22.1881 0.000150659 22.9795 0.40332C23.6757 0.758052 24.2419 1.32431 24.5967 2.02051C24.9998 2.81195 25 3.84795 25 5.91992V7.75C25 9.82196 24.9998 10.858 24.5967 11.6494C24.2419 12.3456 23.6757 12.9119 22.9795 13.2666C22.188 13.6698 21.1521 13.6699 19.0801 13.6699H5.91992C3.84793 13.6699 2.81195 13.6698 2.02051 13.2666C1.32431 12.9119 0.758052 12.3456 0.40332 11.6494C0.00017723 10.858 0 9.82197 0 7.75V5.91992C0 3.84795 0.000150276 2.81195 0.40332 2.02051C0.758052 1.32431 1.32431 0.758052 2.02051 0.40332C2.81195 0.000150634 3.84795 0 5.91992 0H19.0801ZM26 4.43066C26.8017 4.93145 27.3368 5.82004 27.3369 6.83496C27.3369 7.84955 26.8013 8.73643 26 9.2373V4.43066Z" fill="currentColor"/>
</svg>
