<svg viewBox="0 0 23.0576 23.0579" fill="none" xmlns="http://www.w3.org/2000/svg">
<path d="M4.43164 0.000291427C5.22087 0.0245753 5.94967 0.449575 6.58105 1.37236L9.00977 4.89385C9.70153 5.88937 9.8102 7.06718 8.77832 8.12334L7.9043 9.00908C7.63723 9.27615 7.5885 9.56804 7.77051 9.8958C8.25618 10.7457 9.0583 11.6562 10.1875 12.7854C11.2195 13.8175 12.5672 14.9222 13.1621 15.2864C13.4898 15.4685 13.7808 15.4204 14.0479 15.1536L14.9346 14.2786C15.9908 13.2469 17.1686 13.3563 18.1641 14.0481L21.6855 16.4769C22.6083 17.1082 23.0576 17.8371 23.0576 18.6263C23.0575 19.3668 22.705 20.1682 21.9766 20.9573C21.9159 21.0301 21.8433 21.1029 21.7705 21.1878C20.5442 22.5113 19.1234 23.0579 17.1807 23.0579C13.7931 23.0578 9.70154 20.8234 5.96191 17.096C2.2101 13.3442 4.33543e-05 9.24028 0 5.82842C0 3.90999 0.558789 2.50159 1.87012 1.2874C1.95508 1.21457 2.02775 1.14106 2.10059 1.08037C2.87754 0.352059 3.6911 -0.0117938 4.43164 0.000291427ZM4.40723 1.61553C4.01875 1.61563 3.55754 1.82194 3.1084 2.23467C3.04775 2.2832 2.99858 2.33164 2.92578 2.38017C1.9425 3.29078 1.48089 4.4808 1.46875 5.82842C1.43238 8.9366 3.83676 12.9067 7.04199 16.0999C10.2232 19.2932 14.0972 21.6246 17.1934 21.5882C18.5652 21.576 19.7672 21.1146 20.6777 20.1312C20.7262 20.0585 20.7627 20.0222 20.8232 19.9495C21.2361 19.5003 21.4424 19.0504 21.4424 18.6497C21.4423 18.2614 21.2843 17.9339 20.8838 17.679L17.375 15.3235C16.9257 15.02 16.4158 14.9712 15.918 15.469L14.9346 16.4642C14.2062 17.1926 13.2714 17.1688 12.543 16.6712C11.6931 16.0884 10.2963 14.8986 9.19141 13.7815C8.09863 12.6766 6.96953 11.3649 6.38672 10.5149C5.88901 9.78652 5.86453 8.85179 6.59277 8.12334L7.58887 7.13994C8.08662 6.64219 8.03781 6.13211 7.73438 5.68291L5.37891 2.17314C5.12395 1.77269 4.79567 1.61553 4.40723 1.61553Z" fill="currentColor"/>
</svg>
