<svg viewBox="0 0 22.9004 22.9004" fill="none" xmlns="http://www.w3.org/2000/svg">
<path d="M11.4502 0C17.7738 0.000105566 22.9004 5.1266 22.9004 11.4502C22.9003 17.7737 17.7737 22.9003 11.4502 22.9004C5.1266 22.9004 0.000105569 17.7738 0 11.4502C0 5.12653 5.12653 0 11.4502 0ZM11.4502 1.40039C5.89973 1.40039 1.40039 5.89973 1.40039 11.4502C1.4005 17.0006 5.8998 21.5 11.4502 21.5C17.0005 21.4999 21.4999 17.0005 21.5 11.4502C21.5 5.8998 17.0006 1.4005 11.4502 1.40039ZM14.9551 6.95508C15.2284 6.68171 15.6719 6.68171 15.9453 6.95508C16.2184 7.22846 16.2186 7.67203 15.9453 7.94531L12.4404 11.4502L15.9453 14.9551C16.2184 15.2285 16.2186 15.672 15.9453 15.9453C15.672 16.2186 15.2285 16.2184 14.9551 15.9453L11.4502 12.4404L7.94531 15.9453C7.67203 16.2186 7.22846 16.2184 6.95508 15.9453C6.68171 15.6719 6.68171 15.2284 6.95508 14.9551L10.46 11.4502L6.95508 7.94531C6.68171 7.67195 6.68171 7.22845 6.95508 6.95508C7.22845 6.68171 7.67195 6.68171 7.94531 6.95508L11.4502 10.46L14.9551 6.95508Z" fill="currentColor"/>
</svg>
