<svg viewBox="0 0 27.0002 26.6" fill="none" xmlns="http://www.w3.org/2000/svg">
<path d="M13.5001 24.9643C13.8026 24.9643 14.0926 24.9391 14.4077 24.9139L15.0884 26.2122C15.2144 26.4896 15.5043 26.6408 15.8447 26.5904C16.1598 26.54 16.3741 26.3005 16.4245 25.9727L16.6262 24.5358C17.206 24.3845 17.7733 24.1576 18.3405 23.9181L19.3993 24.8761C19.6262 25.103 19.9413 25.1408 20.2565 24.9769C20.5212 24.8131 20.6346 24.5231 20.5716 24.1954L20.2817 22.7836C20.7607 22.4433 21.2397 22.0525 21.6808 21.624L22.9918 22.1786C23.3069 22.3046 23.5968 22.2416 23.8363 21.9517C24.0506 21.7248 24.0758 21.3971 23.8994 21.1198L23.1304 19.8971C23.4708 19.4055 23.7607 18.876 24.0254 18.3214L25.475 18.3844C25.8027 18.4097 26.08 18.2206 26.1809 17.9181C26.2817 17.6029 26.1935 17.3004 25.9288 17.0987L24.7943 16.2038C24.9456 15.6365 25.0716 15.0315 25.1221 14.4138L26.4834 13.9726C26.7985 13.8592 27.0002 13.6197 27.0002 13.292C27.0002 12.9642 26.7985 12.7247 26.4834 12.6113L25.1221 12.1701C25.0716 11.5525 24.9456 10.96 24.7943 10.3802L25.9288 9.48521C26.1809 9.28353 26.2817 8.99361 26.1809 8.67848C26.08 8.37596 25.8027 8.18688 25.475 8.21209L24.0254 8.26251C23.7607 7.70788 23.4708 7.19107 23.1304 6.68687L23.8994 5.46417C24.0758 5.19946 24.0506 4.87173 23.8363 4.64483C23.5968 4.36752 23.3069 4.29189 22.9918 4.41794L21.6808 4.95996C21.2397 4.54399 20.7607 4.14063 20.2817 3.80029L20.5716 2.40112C20.6346 2.06078 20.5212 1.77086 20.2565 1.6196C19.9413 1.45573 19.6388 1.48094 19.3993 1.72044L18.3405 2.66583C17.7733 2.41372 17.206 2.21204 16.6262 2.04817L16.4245 0.623793C16.3741 0.296059 16.1598 0.0691667 15.8447 0.00614096C15.5043 -0.0316745 15.2144 0.106982 15.0884 0.37169L14.4077 1.67002C14.0926 1.64481 13.8026 1.6322 13.5001 1.6322C13.185 1.6322 12.9077 1.64481 12.5799 1.67002L11.9119 0.37169C11.7732 0.106982 11.4833 -0.0316745 11.1429 0.00614096C10.8278 0.0691667 10.6135 0.296059 10.5631 0.623793L10.3614 2.04817C9.78159 2.21204 9.21436 2.41372 8.65973 2.66583L7.6009 1.72044C7.3488 1.48094 7.04628 1.45573 6.74375 1.6196C6.46644 1.77086 6.35299 2.06078 6.41602 2.40112L6.71854 3.80029C6.22694 4.14063 5.74795 4.54399 5.31937 4.95996L3.99583 4.41794C3.6807 4.29189 3.39078 4.36752 3.15129 4.64483C2.9496 4.87173 2.92439 5.19946 3.08826 5.45156L3.85717 6.68687C3.51684 7.19107 3.23952 7.70788 2.96221 8.26251L1.51262 8.21209C1.19749 8.18688 0.920176 8.37596 0.806729 8.67848C0.705888 8.99361 0.794124 9.28353 1.05883 9.48521L2.1933 10.3802C2.04203 10.96 1.91598 11.5525 1.87817 12.1701L0.504206 12.6113C0.189077 12.7121 0 12.9516 0 13.292C0 13.6323 0.189077 13.8718 0.504206 13.9726L1.87817 14.4138C1.91598 15.0315 2.04203 15.6365 2.1933 16.2038L1.05883 17.0987C0.806729 17.3004 0.718493 17.6029 0.806729 17.9181C0.920176 18.2206 1.19749 18.4097 1.51262 18.3844L2.96221 18.3214C3.22692 18.876 3.51684 19.4055 3.85717 19.8971L3.08826 21.1198C2.91179 21.3971 2.937 21.7248 3.15129 21.9517C3.39078 22.2416 3.6807 22.3046 3.99583 22.1786L5.31937 21.624C5.74795 22.0525 6.22694 22.4433 6.71854 22.7836L6.41602 24.1954C6.35299 24.5231 6.46644 24.8131 6.74375 24.9769C7.04628 25.1408 7.3614 25.103 7.6009 24.8761L8.64713 23.9181C9.21436 24.1576 9.78159 24.3845 10.3614 24.5358L10.5631 25.9727C10.6135 26.3005 10.8278 26.54 11.1556 26.5904C11.4833 26.6408 11.7732 26.4896 11.9119 26.2122L12.5799 24.9139C12.8951 24.9391 13.185 24.9643 13.5001 24.9643ZM16.5379 12.4726C15.9707 10.96 14.8363 10.1281 13.4623 10.1281C13.248 10.1281 13.0211 10.1533 12.643 10.2415L9.28999 4.50618C10.5505 3.88853 11.9749 3.54819 13.5001 3.54819C18.643 3.54819 22.6767 7.44318 23.08 12.4726H16.5379ZM3.88238 13.3046C3.88238 10.0272 5.42021 7.14065 7.82779 5.37593L11.206 11.1491C10.5757 11.8298 10.2732 12.5609 10.2732 13.3424C10.2732 14.0987 10.5505 14.792 11.206 15.4979L7.75216 21.1576C5.3824 19.3929 3.88238 16.5441 3.88238 13.3046ZM12.0253 13.3298C12.0253 12.5231 12.7186 11.8928 13.4749 11.8928C14.2816 11.8928 14.9497 12.5231 14.9497 13.3298C14.9497 14.1239 14.2816 14.7794 13.4749 14.7794C12.7186 14.7794 12.0253 14.1239 12.0253 13.3298ZM13.5001 23.0483C11.9371 23.0483 10.4875 22.6954 9.20176 22.0525L12.643 16.4306C13.0085 16.5189 13.248 16.5441 13.4623 16.5441C14.8489 16.5441 15.9833 15.6869 16.5379 14.1491H23.08C22.6767 19.1534 18.643 23.0483 13.5001 23.0483Z" fill="currentColor"/>
</svg>
