<svg viewBox="0 0 23.5996 18.0996" fill="none" xmlns="http://www.w3.org/2000/svg">
<path fill-rule="evenodd" clip-rule="evenodd" d="M22 5.0498C22 4.24899 21.3506 3.59961 20.5498 3.59961H16.834C16.1006 3.59961 15.4037 3.2776 14.9287 2.71875L14.2471 1.91699C14.0761 1.71592 13.8255 1.59961 13.5615 1.59961H10.0352C9.77123 1.59961 9.52056 1.71592 9.34961 1.91699L8.66797 2.71875C8.19302 3.2776 7.49611 3.59961 6.7627 3.59961H3.0498C2.24899 3.59961 1.59961 4.24899 1.59961 5.0498V15.0498C1.59961 15.8506 2.24899 16.5 3.0498 16.5H20.5498C21.3506 16.5 22 15.8506 22 15.0498V5.0498ZM23.5996 15.0498C23.5996 16.7343 22.2343 18.0996 20.5498 18.0996H3.0498C1.36534 18.0996 0 16.7343 0 15.0498V5.0498C0 3.36534 1.36534 2 3.0498 2H6.7627C7.02666 2 7.27729 1.88374 7.44824 1.68262L8.12988 0.880859C8.60483 0.322009 9.30174 0 10.0352 0H13.5615C14.2949 0 14.9918 0.32201 15.4668 0.880859L16.1484 1.68262C16.3194 1.88374 16.57 2 16.834 2H20.5498C22.2343 2 23.5996 3.36534 23.5996 5.0498V15.0498ZM15.2481 10.0488C15.2479 8.14395 13.7028 6.59961 11.7979 6.59961C9.89314 6.5998 8.34887 8.14407 8.34868 10.0488C8.34868 11.9537 9.89303 13.4988 11.7979 13.499C13.7029 13.499 15.2481 11.9539 15.2481 10.0488ZM16.8477 10.0488C16.8477 12.8375 14.5866 15.0986 11.7979 15.0986C9.00937 15.0984 6.74907 12.8374 6.74907 10.0488C6.74926 7.26041 9.00948 5.00019 11.7979 5C14.5865 5 16.8475 7.2603 16.8477 10.0488ZM18.4499 7.5998C19.1402 7.5998 19.6999 7.04016 19.6999 6.3498C19.6999 5.65945 19.1402 5.0998 18.4499 5.0998C17.7595 5.0998 17.1999 5.65945 17.1999 6.3498C17.1999 7.04016 17.7595 7.5998 18.4499 7.5998Z" fill="currentColor"/>
</svg>
