<svg viewBox="0 0 16.2665 10.5998" fill="none" xmlns="http://www.w3.org/2000/svg">
<path d="M10.1685 0.308232C10.4397 -0.0401766 10.9419 -0.102308 11.2906 0.168583C11.6392 0.439819 11.7023 0.941933 11.4312 1.29065L4.43121 10.2907C4.29041 10.4715 4.07888 10.5839 3.85016 10.5983C3.62127 10.6125 3.39618 10.5279 3.23395 10.3658L0.233947 7.36487C-0.0779581 7.05253 -0.0780063 6.54632 0.233947 6.23401C0.546281 5.92176 1.05337 5.9219 1.36578 6.23401L3.72418 8.59241L10.1685 0.308232ZM14.8355 0.308232C15.1067 -0.040201 15.6089 -0.102365 15.9576 0.168583C16.3061 0.439785 16.3692 0.941946 16.0982 1.29065L9.0982 10.2907C8.95745 10.4715 8.74586 10.5839 8.51715 10.5983C8.28827 10.6125 8.06318 10.5279 7.90094 10.3658L6.90094 9.36585C6.5887 9.0535 6.58878 8.54642 6.90094 8.23401C7.21313 7.92205 7.71939 7.92141 8.0318 8.23304L8.39215 8.59241L14.8355 0.308232Z" fill="currentColor"/>
</svg>
