<svg viewBox="0 0 16.4004 15.4004" fill="none" xmlns="http://www.w3.org/2000/svg">
<path d="M14.7002 0C15.639 0.000105591 16.4004 0.761376 16.4004 1.7002V2.7002C16.4003 3.38894 15.9894 3.97995 15.4004 4.24707V13.7002C15.4002 14.6388 14.6389 15.4003 13.7002 15.4004H2.7002C1.76145 15.4004 1.00022 14.6389 1 13.7002V4.24805C0.410636 3.98108 7.75087e-05 3.38921 0 2.7002V1.7002C0 0.761311 0.761311 2.8183e-08 1.7002 0H14.7002ZM2.40039 13.7002C2.40061 13.8657 2.53465 14 2.7002 14H13.7002C13.8657 13.9999 13.9998 13.8656 14 13.7002V4.40039H2.40039V13.7002ZM11.2998 6C11.7969 6 12.2002 6.40333 12.2002 6.90039C12.2 7.39731 11.7968 7.7998 11.2998 7.7998H5.09961C4.60285 7.79957 4.20035 7.39717 4.2002 6.90039C4.2002 6.40348 4.60276 6.00024 5.09961 6H11.2998ZM1.7002 1.40039C1.53451 1.40039 1.40039 1.53451 1.40039 1.7002V2.7002C1.4005 2.86579 1.53458 3 1.7002 3H14.7002C14.8657 2.99989 14.9999 2.86573 15 2.7002V1.7002C15 1.53457 14.8658 1.4005 14.7002 1.40039H1.7002Z" fill="currentColor"/>
</svg>
