<svg viewBox="0 0 14.5996 3.2998" fill="none" xmlns="http://www.w3.org/2000/svg">
<path d="M1.65039 0C2.56148 0.000211086 3.2998 0.739251 3.2998 1.65039C3.29959 2.56135 2.56135 3.29959 1.65039 3.2998C0.739251 3.2998 0.000211086 2.56148 0 1.65039C0 0.739121 0.739121 0 1.65039 0ZM7.2998 0C8.21107 0 8.9502 0.739121 8.9502 1.65039C8.94998 2.56148 8.21094 3.2998 7.2998 3.2998C6.38874 3.29972 5.6506 2.56143 5.65039 1.65039C5.65039 0.739174 6.38861 8.57444e-05 7.2998 0ZM12.9502 0C13.8614 0.000112155 14.5996 0.73919 14.5996 1.65039C14.5994 2.56141 13.8612 3.29969 12.9502 3.2998C12.0391 3.2998 11.3 2.56148 11.2998 1.65039C11.2998 0.739121 12.0389 0 12.9502 0Z" fill="currentColor"/>
</svg>
