<svg viewBox="0 0 18 14.25" fill="none" xmlns="http://www.w3.org/2000/svg">
<path d="M11.1299 0C11.3686 0 11.6 0.0858597 11.7812 0.241211L13.542 1.75H16C17.1046 1.75 18 2.64543 18 3.75V12.25C18 13.3546 17.1046 14.25 16 14.25H2C0.895431 14.25 0 13.3546 0 12.25V3.75C1.77173e-07 2.64543 0.895431 1.75 2 1.75H4.45801L6.21875 0.241211C6.39999 0.0858597 6.63141 0 6.87012 0H11.1299ZM9 4C6.79086 4 5 5.79086 5 8C5 10.2091 6.79086 12 9 12C11.2091 12 13 10.2091 13 8C13 5.79086 11.2091 4 9 4ZM9 5.25C10.5188 5.25 11.75 6.48122 11.75 8C11.75 9.51878 10.5188 10.75 9 10.75C7.48122 10.75 6.25 9.51878 6.25 8C6.25 6.48122 7.48122 5.25 9 5.25ZM14.5 4.25C13.9477 4.25 13.5 4.69772 13.5 5.25C13.5 5.80228 13.9477 6.25 14.5 6.25C15.0523 6.25 15.5 5.80228 15.5 5.25C15.5 4.69772 15.0523 4.25 14.5 4.25Z" fill="currentColor"/>
</svg>
