<svg viewBox="0 0 30 30" fill="none" xmlns="http://www.w3.org/2000/svg">
<g id="Circle" filter="url(#filter0_i_0_845)">
<path d="M15 0C23.2843 5.15406e-07 30 6.71573 30 15C30 23.2843 23.2843 30 15 30C6.71573 30 5.1544e-07 23.2843 0 15C0 6.71573 6.71573 0 15 0ZM15 4.62305C9.26874 4.62305 4.62305 9.26874 4.62305 15C4.62305 20.7313 9.26874 25.377 15 25.377C20.7312 25.3769 25.377 20.7313 25.377 15C25.377 9.26875 20.7313 4.62305 15 4.62305Z" fill="url(#paint0_linear_0_845)"/>
</g>
<defs>
<filter id="filter0_i_0_845" x="0" y="0" width="30" height="30" filterUnits="userSpaceOnUse" color-interpolation-filters="sRGB">
<feFlood flood-opacity="0" result="BackgroundImageFix"/>
<feBlend mode="normal" in="SourceGraphic" in2="BackgroundImageFix" result="shape"/>
<feColorMatrix in="SourceAlpha" type="matrix" values="0 0 0 0 0 0 0 0 0 0 0 0 0 0 0 0 0 0 127 0" result="hardAlpha"/>
<feOffset/>
<feGaussianBlur stdDeviation="0.942453"/>
<feComposite in2="hardAlpha" operator="arithmetic" k2="-1" k3="1"/>
<feColorMatrix type="matrix" values="0 0 0 0 1 0 0 0 0 1 0 0 0 0 1 0 0 0 1 0"/>
<feBlend mode="overlay" in2="shape" result="effect1_innerShadow_0_845"/>
</filter>
<linearGradient id="paint0_linear_0_845" x1="30" y1="0" x2="3.57628e-06" y2="30" gradientUnits="userSpaceOnUse">
<stop stop-color="#EFA3E4"/>
<stop offset="0.202701" stop-color="#F082D8"/>
<stop offset="0.397979" stop-color="#036BE4"/>
<stop offset="0.598849" stop-color="#036BE4"/>
<stop offset="0.818009" stop-color="#65F9C2"/>
<stop offset="1" stop-color="#B5F5E2"/>
</linearGradient>
</defs>
</svg>
