<svg viewBox="0 0 11.6992 11.6992" fill="none" xmlns="http://www.w3.org/2000/svg">
<path d="M5.84961 0C9.08034 0 11.699 2.61892 11.6992 5.84961C11.6992 9.08048 9.08048 11.6992 5.84961 11.6992C2.61892 11.699 0 9.08034 0 5.84961C0.000211058 2.61905 2.61905 0.000211061 5.84961 0ZM2.16602 3.01367C1.5607 3.79869 1.19931 4.78179 1.19922 5.84961C1.19922 8.4176 3.28166 10.4998 5.84961 10.5C6.91753 10.5 7.90045 10.1385 8.68555 9.5332L2.16602 3.01367ZM5.84961 1.19922C4.78179 1.19931 3.79869 1.5607 3.01367 2.16602L9.5332 8.68555C10.1385 7.90045 10.5 6.91753 10.5 5.84961C10.4998 3.28166 8.4176 1.19922 5.84961 1.19922Z" fill="currentColor"/>
</svg>
