<svg viewBox="0 0 18.2 17.7" fill="none" xmlns="http://www.w3.org/2000/svg">
<path fill-rule="evenodd" clip-rule="evenodd" d="M8.71545 3.72537e-06L11.0358 8.19571e-06C11.5593 1.14001e-06 11.8592 -2.89828e-06 12.1178 0.0203541C15.3543 0.275071 17.9249 2.84569 18.1797 6.08218C18.2 6.34084 18.2 6.64072 18.2 7.16419V7.2376C18.2 8.03798 18.2 8.47707 18.1704 8.85322C17.7999 13.5608 14.0608 17.2999 9.35322 17.6704C8.97707 17.7 8.53798 17.7 7.73759 17.7H7.35239C6.65428 17.7 6.25434 17.7 5.91012 17.6639C2.81095 17.3381 0.3619 14.8891 0.036164 11.7899C-1.21743e-05 11.4457 -4.8726e-06 11.0458 7.89024e-06 10.3478L3.72537e-06 8.71546C-9.66265e-05 6.74938 -0.000154197 5.62153 0.284202 4.68413C0.924072 2.57476 2.57476 0.924072 4.68413 0.284202C5.62153 -0.000154197 6.74938 -9.66265e-05 8.71545 3.72537e-06ZM8.85001 1.20001C6.71283 1.20001 5.77749 1.20653 5.03247 1.43253C3.30662 1.95606 1.95606 3.30662 1.43253 5.03247C1.20653 5.77749 1.20001 6.71283 1.20001 8.85001V10.3C1.20001 11.0583 1.20084 11.3909 1.22959 11.6645C1.4961 14.2001 3.49987 16.2039 6.03555 16.4704C6.30911 16.4992 6.64175 16.5 7.40001 16.5H7.70001C8.54719 16.5 8.93598 16.4995 9.25907 16.4741C9.39493 16.4634 9.49982 16.3476 9.49941 16.2066C9.49931 16.1731 9.49921 16.1395 9.4991 16.106C9.49677 15.3486 9.4944 14.5839 9.55649 13.8239C9.61402 13.1198 9.73311 12.5381 10.0014 12.0116C10.4424 11.1461 11.1461 10.4424 12.0116 10.0014C12.5381 9.73311 13.1198 9.61402 13.8239 9.55649C14.6478 9.48918 15.476 9.49285 16.2977 9.49744C16.5427 9.4988 16.6331 9.49703 16.7099 9.46105C16.7767 9.42981 16.8451 9.36818 16.8831 9.30504C16.927 9.23206 16.9372 9.15071 16.9592 8.92684C16.9647 8.87108 16.9697 8.81515 16.9741 8.75907C16.9995 8.43598 17 8.04719 17 7.20001C17 6.63139 16.9995 6.38191 16.9834 6.17633C16.775 3.5283 14.6717 1.42506 12.0237 1.21665C11.8181 1.20048 11.5686 1.20001 11 1.20001H8.85001ZM16.0751 10.6978C15.3535 10.6945 14.6348 10.6942 13.9217 10.7525C13.2918 10.804 12.8856 10.9029 12.5564 11.0706C11.9167 11.3965 11.3965 11.9167 11.0706 12.5564C10.9029 12.8856 10.804 13.2918 10.7525 13.9217C10.7128 14.4079 10.7031 14.9967 10.7007 15.7526C10.7004 15.8574 10.7003 15.9288 10.7054 15.9835C10.7104 16.0369 10.7195 16.0632 10.7308 16.0811C10.7562 16.1215 10.8033 16.156 10.8494 16.1681C10.8706 16.1736 10.8977 16.1744 10.9468 16.164C10.9977 16.1532 11.0619 16.1329 11.1567 16.1026C13.5656 15.3341 15.4983 13.513 16.4177 11.1765C16.4562 11.0786 16.4823 11.012 16.4972 10.959C16.5116 10.9077 16.5123 10.8795 16.5077 10.8576C16.4975 10.8093 16.4639 10.7597 16.4228 10.7323C16.4049 10.7204 16.3775 10.7104 16.3206 10.7046C16.2626 10.6987 16.1864 10.6983 16.0751 10.6978Z" fill="currentColor"/>
</svg>
