<svg viewBox="0 0 15.5996 22.7998" fill="none" xmlns="http://www.w3.org/2000/svg">
<path fill-rule="evenodd" clip-rule="evenodd" d="M10.5 4.2998C10.5 2.80864 9.29097 1.59961 7.7998 1.59961C6.30864 1.59961 5.09961 2.80864 5.09961 4.2998V11.7998C5.09961 13.291 6.30864 14.5 7.7998 14.5C9.29097 14.5 10.5 13.291 10.5 11.7998V4.2998ZM12.0996 11.7998C12.0996 14.1746 10.1746 16.0996 7.7998 16.0996C5.42498 16.0996 3.5 14.1746 3.5 11.7998V4.2998C3.5 1.92498 5.42498 0 7.7998 0C10.1746 0 12.0996 1.92498 12.0996 4.2998V11.7998ZM0 11.7998C3.86208e-08 11.358 0.357977 11 0.799805 11C1.24163 11 1.59961 11.358 1.59961 11.7998C1.59961 12.614 1.75971 13.4206 2.07129 14.1729C2.38287 14.925 2.84034 15.6079 3.41602 16.1836C3.99169 16.7593 4.67461 17.2167 5.42676 17.5283C6.17898 17.8399 6.98561 18 7.7998 18C8.614 18 9.42063 17.8399 10.1729 17.5283C10.925 17.2167 11.6079 16.7593 12.1836 16.1836C12.7593 15.6079 13.2167 14.925 13.5283 14.1729C13.8399 13.4206 14 12.614 14 11.7998C14 11.358 14.358 11 14.7998 11C15.2416 11 15.5996 11.358 15.5996 11.7998C15.5996 12.8241 15.3978 13.8388 15.0059 14.7852C14.6139 15.7313 14.0396 16.5912 13.3154 17.3154C12.5912 18.0396 11.7313 18.6139 10.7852 19.0059C10.0862 19.2954 9.34999 19.4811 8.60015 19.5584V21.9998C8.60015 22.4416 8.24197 22.7998 7.80015 22.7998C7.35832 22.7998 7.00015 22.4416 7.00015 21.9998V19.5585C6.25006 19.4812 5.5136 19.2955 4.81445 19.0059C3.86828 18.6139 3.00837 18.0396 2.28418 17.3154C1.55999 16.5912 0.985733 15.7313 0.59375 14.7852C0.201763 13.8388 -8.03702e-08 12.8241 0 11.7998Z" fill="currentColor"/>
</svg>
